<svg xmlns="http://www.w3.org/2000/svg" width="124" height="124" viewBox="0 0 124 124">
  <g id="Grupo_55235" data-name="Grupo 55235" transform="translate(-888 -864)">
    <circle id="Elipse_4252" data-name="Elipse 4252" cx="62" cy="62" r="62" transform="translate(888 864)" fill="#fff"/>
    <g id="Grupo_55227" data-name="Grupo 55227" transform="translate(140 -298)">
      <g id="Grupo_55226" data-name="Grupo 55226" transform="translate(21.284 1120.853)">
        <path id="Trazado_103023" data-name="Trazado 103023" d="M743.771,107.006a74.131,74.131,0,0,1,.609-13.887l-.018-.072,2.109-5.809q1.218-1.623,2.435-3.245l1.048-.974a20.427,20.427,0,0,1,9.515-1.865q28.692,0,57.385.018c8.982.018,13.49,3.815,15.2,12.553a39.146,39.146,0,0,1,.089,14.866c-1.355,7.25-4.77,12.825-12.288,14.77-7.892,2.042-15.19,1.048-21.08-5.265-3.594-3.853-5.467-8.673-7.576-13.369-.658-1.464-.917-3.64-2.825-3.76-2.351-.147-2.448,2.376-3.254,3.882-1.8,3.359-3.111,7.015-5.181,10.185-5.589,8.56-15.461,11.556-24.984,7.9C747.663,120.134,745.151,113.963,743.771,107.006Zm44.112-22.978c-9.987,0-19.975.1-29.96-.041-5.192-.074-8.142,2.468-9.956,7.065-1.838,4.658-1.66,9.436-1.269,14.245.7,8.63,4.433,13.879,10.942,15.547,8.7,2.23,15.935-.571,20.55-8.286,1.865-3.119,3.144-6.586,4.769-9.855,1.09-2.195,1.889-4.685,5.089-4.776,3.5-.1,4.381,2.6,5.463,4.96,1.867,4.078,3.423,8.295,6.177,11.922,4.859,6.4,11.442,7.647,18.762,6.053,6.722-1.464,9.806-6.408,10.933-12.779a34.939,34.939,0,0,0-.34-14.86c-1.684-6.609-4.851-9.147-11.7-9.185C807.524,83.984,797.7,84.025,787.883,84.028Z" fill="#02dba8"/>
        <path id="Trazado_103024" data-name="Trazado 103024" d="M769.913,86.588c4,0,8-.052,11.995.034,1.151.024,3.076-.547,2.94,1.5-.1,1.516-1.782,1.129-2.857,1.135-7.33.038-14.672.268-21.988-.062-5.175-.233-7.208,2.327-7.949,6.879a32.665,32.665,0,0,0-.069,9.919c.642,4.5,2.13,8.468,7.135,9.806,5.614,1.5,10.377-.115,13.722-4.666,2.392-3.253,3.687-7.06,5.326-10.7,1.935-4.295,4.487-7.733,9.914-7.772,5.405-.04,8.027,3.231,10.014,7.581a94.868,94.868,0,0,0,4.814,9.845c3.285,5.422,8.079,7.218,14.139,5.74,5.3-1.294,6.748-5.458,7.384-10.129a34.229,34.229,0,0,0,.265-5.48c-.24-9.365-1.863-10.94-11.112-10.945-6.5,0-12.995.006-19.493-.022-.936,0-2.246.194-2.38-1.109-.188-1.825,1.407-1.515,2.453-1.519q12.495-.046,24.99.02c4.493.025,6.514,3.025,7.431,6.823a33.633,33.633,0,0,1-.009,15.858c-1.128,4.7-3.854,8.11-8.825,9.173-5.506,1.177-10.615.574-14.775-3.7-2.971-3.051-4.532-6.913-6.254-10.709-1.75-3.859-2.85-8.622-8.405-8.672-5.832-.053-6.851,4.908-8.751,8.9a67.784,67.784,0,0,1-3.848,7.545c-3.883,6.068-9.911,8.373-16.845,6.709-5.875-1.411-9.06-5.358-9.717-12.926a45.341,45.341,0,0,1,.431-10.9c.992-6.28,3.419-8.1,9.827-8.161C762.915,86.56,766.414,86.587,769.913,86.588Z" fill="#02dba8"/>
      </g>
    </g>
  </g>
</svg>
