<svg xmlns="http://www.w3.org/2000/svg" xmlns:xlink="http://www.w3.org/1999/xlink" width="312" height="182" viewBox="0 0 312 182">
  <defs>
    <clipPath id="clip-path">
      <rect id="Rect치ngulo_5784" data-name="Rect치ngulo 5784" width="311.999" height="182" rx="25" transform="translate(2423.349 -9363.061)" fill="none" opacity="0.4"/>
    </clipPath>
  </defs>
  <g id="Grupo_55999" data-name="Grupo 55999" transform="translate(-2423.349 9363.061)">
    <g id="Grupo_55994" data-name="Grupo 55994">
      <rect id="Rect치ngulo_5785" data-name="Rect치ngulo 5785" width="311.999" height="182" rx="25" transform="translate(2423.349 -9363.061)" fill="none" opacity="0.4"/>
      <g id="Enmascarar_grupo_6" data-name="Enmascarar grupo 6" clip-path="url(#clip-path)">
        <g id="Grupo_55887" data-name="Grupo 55887" transform="translate(2468.423 -9344.438)">
          <g id="Grupo_55880" data-name="Grupo 55880" transform="translate(73.039 22.015)">
            <g id="Grupo_55879" data-name="Grupo 55879">
              <path id="Trazado_103905" data-name="Trazado 103905" d="M559.389,501.63H485.336l-1.827-3.694L466.239,462.99l22.2-50.173c2.867,3.6,5.751,7.185,8.618,10.785q16.167,20.247,32.332,40.479Q544.4,482.855,559.389,501.63Z" transform="translate(-390.258 -355.439)" fill="#facad1"/>
              <path id="Trazado_103906" data-name="Trazado 103906" d="M520.833,500.2l43.8-125.187h48.3S600.206,544.076,571,541.027s-62.152-19.344-62.152-19.344l-3.743-4.165Z" transform="translate(-370.132 -375.013)" fill="#facad1"/>
              <path id="Trazado_103907" data-name="Trazado 103907" d="M516.579,492.978,573.515,515.2l37.414-136.669L558.7,375.013Z" transform="translate(-364.193 -375.013)" fill="#f05176"/>
              <path id="Trazado_103908" data-name="Trazado 103908" d="M529.39,464.082l-17.065,33.854h-29.5L466.239,462.99l22.2-50.173c.987,1.236,23.791,29.784,24.784,31.025C513.646,444.369,528.968,463.552,529.39,464.082Z" transform="translate(-390.258 -355.439)" fill="#ed83a9"/>
              <path id="Trazado_103909" data-name="Trazado 103909" d="M493.65,409.468s-15.023-20.649-37.945-9.621c-17.7,8.516-32.608.879-35.161,8.277s16.647,13.077,29.913,12.206c0,0-28.322,24.626-33.455,42.764s15.416,2.283,15.416,2.283-12.476,13.281-8.862,17.65c4.441,5.37,13.306,1.893,17.776-2.629,0,0-1.3,8.85,6.889,7.512,5.094-.832,15.633-9.357,15.633-9.357s-7.981,10.128-1.978,11.49,15.481-2.893,30.284-18.654S541.777,424.391,493.65,409.468Z" transform="translate(-416.179 -363.833)" fill="#facad1"/>
              <g id="Grupo_55874" data-name="Grupo 55874" transform="translate(14.443 86.717)">
                <path id="Trazado_103910" data-name="Trazado 103910" d="M427.275,447.255a1.571,1.571,0,0,1-1-.357,1.552,1.552,0,0,1-.217-2.2l9.954-11.978a1.593,1.593,0,0,1,2.227-.214,1.552,1.552,0,0,1,.217,2.2L428.5,446.685A1.586,1.586,0,0,1,427.275,447.255Z" transform="translate(-425.694 -432.147)" fill="#e25a7b"/>
              </g>
              <g id="Grupo_55875" data-name="Grupo 55875" transform="translate(23.933 95.582)">
                <path id="Trazado_103911" data-name="Trazado 103911" d="M433.527,459.922a1.593,1.593,0,0,1-.947-.311,1.556,1.556,0,0,1-.317-2.192l14.266-18.807a1.6,1.6,0,0,1,2.216-.313,1.556,1.556,0,0,1,.316,2.192L434.8,459.3A1.589,1.589,0,0,1,433.527,459.922Z" transform="translate(-431.947 -437.988)" fill="#e25a7b"/>
              </g>
              <g id="Grupo_55876" data-name="Grupo 55876" transform="translate(46.092 101.41)">
                <path id="Trazado_103912" data-name="Trazado 103912" d="M448.129,456.7a1.592,1.592,0,0,1-.874-.26,1.558,1.558,0,0,1-.443-2.172l7.879-11.743a1.6,1.6,0,0,1,2.195-.439,1.557,1.557,0,0,1,.443,2.172L449.448,456A1.583,1.583,0,0,1,448.129,456.7Z" transform="translate(-446.547 -441.827)" fill="#e25a7b"/>
              </g>
              <g id="Grupo_55877" data-name="Grupo 55877" transform="translate(18.346 81.766)">
                <path id="Trazado_103913" data-name="Trazado 103913" d="M472.866,454.056a1.6,1.6,0,0,1-.726-.176l-43.02-22.04a1.557,1.557,0,0,1-.677-2.11,1.592,1.592,0,0,1,2.133-.671L473.6,451.1a1.558,1.558,0,0,1,.677,2.11A1.587,1.587,0,0,1,472.866,454.056Z" transform="translate(-428.266 -428.885)" fill="#e25a7b"/>
              </g>
              <g id="Grupo_55878" data-name="Grupo 55878" transform="translate(32.696 54.93)">
                <path id="Trazado_103914" data-name="Trazado 103914" d="M450.247,423.756a12.727,12.727,0,0,1-8.116-2.541,12.507,12.507,0,0,1-4.408-8.343,1.582,1.582,0,0,1,3.157-.209h0a9.458,9.458,0,0,0,3.251,6.126c2.133,1.67,5.189,2.205,9.06,1.591a1.566,1.566,0,1,1,.5,3.092A22.256,22.256,0,0,1,450.247,423.756Z" transform="translate(-437.721 -411.204)" fill="#e25a7b"/>
              </g>
            </g>
          </g>
          <g id="Grupo_55882" data-name="Grupo 55882" transform="translate(0 8.34)">
            <path id="Trazado_103915" data-name="Trazado 103915" d="M410.154,397.4l-6.443-2.234,8.25-23.285,6.443,2.234Z" transform="translate(-349.595 -362.959)" fill="#f47f23"/>
            <g id="Grupo_55881" data-name="Grupo 55881" transform="translate(51.336)">
              <path id="Trazado_103916" data-name="Trazado 103916" d="M442.341,385.772,401.88,371.743l2.032-5.74a37.3,37.3,0,0,1,11.241,1.969,38.449,38.449,0,0,1,8.378,4.121,86.045,86.045,0,0,0,20.5,8.9Z" transform="translate(-401.88 -366.003)" fill="#ffc10e"/>
              <path id="Trazado_103917" data-name="Trazado 103917" d="M420.356,379.91l-14.947-5.183,1.219-3.44,14.947,5.183Z" transform="translate(-400.053 -363.267)" fill="#ffc10e"/>
            </g>
            <path id="Trazado_103918" data-name="Trazado 103918" d="M420.284,392.124l-20.1-6.97,2.619-7.393,20.1,6.97Z" transform="translate(-351.423 -359.915)" fill="#ffc10e"/>
            <path id="Trazado_103919" data-name="Trazado 103919" d="M436.87,420.192c-2.567,2.972-5.98,5.273-7.982,8.635-.169.293-.339.586-.48.894-1.735,3.473-1.917,7.56-1.522,11.44.408,4.213,1.424,8.371,1.551,12.6a30.845,30.845,0,0,1-6.967,20.41,31.523,31.523,0,0,1-18.8,10.881q-14.216-5.587-28.416-11.174a30.53,30.53,0,0,1,2.961-40.249c3.019-2.985,6.643-5.329,9.858-8.1a23.146,23.146,0,0,0,6.3-7.952,12.853,12.853,0,0,0,.791-2.386c.888-3.808,0-7.8.182-11.705a23.421,23.421,0,0,1,7.052-14.829c5.909-5.538,13.341-5.93,15.639-5.957,2.963,1.032,5.909,2.051,8.871,3.083h.014q5.416,1.883,10.858,3.767a25.763,25.763,0,0,1,5.247,15.067C442.046,405.6,442.512,413.69,436.87,420.192Z" transform="translate(-368.057 -357.362)" fill="#d8edfa"/>
            <path id="Trazado_103920" data-name="Trazado 103920" d="M428.438,441.86c.478,11.352-6.967,20.41-6.967,20.41a31.523,31.523,0,0,1-18.8,10.881q-14.216-5.587-28.416-11.174a30.53,30.53,0,0,1,2.961-40.249c3.019-2.985,6.643-5.329,9.858-8.1a23.146,23.146,0,0,0,6.3-7.952l38.843,7.228a19.15,19.15,0,0,0-1.644,1.73,21.554,21.554,0,0,0-2.169,3.193c-2.254,4.221-1.694,9.755-1.522,11.44.093.917.319,2.626.549,4.16.267,1.776.384,2.263.556,3.488C427.992,436.91,428.33,439.323,428.438,441.86Z" transform="translate(-368.057 -345.463)" fill="#ffc10e"/>
          </g>
          <g id="Grupo_55886" data-name="Grupo 55886" transform="translate(156.478)">
            <g id="Grupo_55884" data-name="Grupo 55884">
              <g id="Grupo_55883" data-name="Grupo 55883">
                <path id="Trazado_103921" data-name="Trazado 103921" d="M503.1,423.716a31.606,31.606,0,1,1,31.948-31.6A31.812,31.812,0,0,1,503.1,423.716Zm0-56.627a25.024,25.024,0,1,0,25.3,25.022A25.188,25.188,0,0,0,503.1,367.089Z" transform="translate(-471.153 -360.508)" fill="#f05176"/>
              </g>
              <ellipse id="Elipse_4517" data-name="Elipse 4517" cx="18.384" cy="18.186" rx="18.384" ry="18.186" transform="translate(13.594 13.407)" fill="#3fbfb6"/>
              <path id="Trazado_103922" data-name="Trazado 103922" d="M495.819,382.228a2.682,2.682,0,1,1-2.682-2.653A2.668,2.668,0,0,1,495.819,382.228Z" transform="translate(-461.159 -350.635)" fill="#fff"/>
              <path id="Trazado_103923" data-name="Trazado 103923" d="M495.819,375.748a2.682,2.682,0,1,1-2.682-2.655A2.668,2.668,0,0,1,495.819,375.748Z" transform="translate(-461.159 -353.992)" fill="#fff"/>
              <path id="Trazado_103924" data-name="Trazado 103924" d="M495.819,388.17a2.682,2.682,0,1,1-2.682-2.655A2.668,2.668,0,0,1,495.819,388.17Z" transform="translate(-461.159 -347.56)" fill="#fff"/>
              <path id="Trazado_103925" data-name="Trazado 103925" d="M489.041,376.555a2.637,2.637,0,0,1,.982,3.624,2.7,2.7,0,0,1-3.664.971,2.638,2.638,0,0,1-.982-3.625A2.7,2.7,0,0,1,489.041,376.555Z" transform="translate(-463.974 -352.384)" fill="#fff"/>
              <path id="Trazado_103926" data-name="Trazado 103926" d="M499.916,382.765a2.638,2.638,0,0,1,.982,3.624,2.7,2.7,0,0,1-3.664.971,2.637,2.637,0,0,1-.982-3.624A2.7,2.7,0,0,1,499.916,382.765Z" transform="translate(-458.344 -349.168)" fill="#fff"/>
              <path id="Trazado_103927" data-name="Trazado 103927" d="M486.359,382.765a2.7,2.7,0,0,1,3.664.971,2.637,2.637,0,0,1-.982,3.624,2.7,2.7,0,0,1-3.664-.971A2.638,2.638,0,0,1,486.359,382.765Z" transform="translate(-463.974 -349.168)" fill="#fff"/>
              <path id="Trazado_103928" data-name="Trazado 103928" d="M497.234,376.555a2.7,2.7,0,0,1,3.664.971,2.638,2.638,0,0,1-.982,3.625,2.7,2.7,0,0,1-3.664-.971A2.637,2.637,0,0,1,497.234,376.555Z" transform="translate(-458.344 -352.384)" fill="#fff"/>
              <path id="Trazado_103929" data-name="Trazado 103929" d="M495.819,370.246a2.682,2.682,0,1,1-2.682-2.653A2.668,2.668,0,0,1,495.819,370.246Z" transform="translate(-461.159 -356.84)" fill="#3fbfb6"/>
              <path id="Trazado_103930" data-name="Trazado 103930" d="M495.819,394.109a2.682,2.682,0,1,1-2.682-2.653A2.667,2.667,0,0,1,495.819,394.109Z" transform="translate(-461.159 -344.484)" fill="#3fbfb6"/>
              <path id="Trazado_103931" data-name="Trazado 103931" d="M484.226,373.8a2.638,2.638,0,0,1,.982,3.625,2.7,2.7,0,0,1-3.664.971,2.637,2.637,0,0,1-.982-3.624A2.7,2.7,0,0,1,484.226,373.8Z" transform="translate(-466.468 -353.808)" fill="#3fbfb6"/>
              <path id="Trazado_103932" data-name="Trazado 103932" d="M505.116,385.735a2.638,2.638,0,0,1,.982,3.626,2.7,2.7,0,0,1-3.664.97,2.638,2.638,0,0,1-.982-3.624A2.7,2.7,0,0,1,505.116,385.735Z" transform="translate(-455.651 -347.63)" fill="#3fbfb6"/>
              <path id="Trazado_103933" data-name="Trazado 103933" d="M481.544,385.515a2.7,2.7,0,0,1,3.664.971,2.638,2.638,0,0,1-.982,3.625,2.7,2.7,0,0,1-3.664-.97A2.638,2.638,0,0,1,481.544,385.515Z" transform="translate(-466.468 -347.744)" fill="#3fbfb6"/>
              <path id="Trazado_103934" data-name="Trazado 103934" d="M502.434,373.584a2.7,2.7,0,0,1,3.664.971,2.637,2.637,0,0,1-.982,3.625,2.7,2.7,0,0,1-3.664-.971A2.638,2.638,0,0,1,502.434,373.584Z" transform="translate(-455.651 -353.922)" fill="#3fbfb6"/>
            </g>
            <g id="Grupo_55885" data-name="Grupo 55885" transform="translate(9.355 9.257)">
              <path id="Trazado_103935" data-name="Trazado 103935" d="M482.022,411.3l-4.705-4.654,40.476-40.041,4.705,4.655Z" transform="translate(-477.317 -366.607)" fill="#f05176"/>
            </g>
          </g>
        </g>
        <path id="Trazado_103936" data-name="Trazado 103936" d="M446.4,392.806s-10.285,23.527.848,23.354S446.4,392.806,446.4,392.806Z" transform="translate(2138.688 -9688.222)" fill="#fff"/>
      </g>
    </g>
  </g>
</svg>
