<svg xmlns="http://www.w3.org/2000/svg" width="496" height="370" viewBox="0 0 496 370">
  <g id="Grupo_54860" data-name="Grupo 54860" transform="translate(-908 -927)">
    <rect id="Rectángulo_5066" data-name="Rectángulo 5066" width="496" height="370" transform="translate(908 927)" fill="none"/>
    <g id="Grupo_54556" data-name="Grupo 54556" transform="translate(118.563 -14457.23)">
      <g id="Grupo_54554" data-name="Grupo 54554" transform="translate(789.438 15416.919)">
        <g id="Grupo_54557" data-name="Grupo 54557" transform="translate(17.313 6.416)">
          <path id="Trazado_101900" data-name="Trazado 101900" d="M174.085,359.368c25.9,0,414.694.115,414.912-.721l.037-.106a.667.667,0,0,0,.037-.155c.144-.418,74.867-37.681,25.611-121.033-25.815-43.684,20.27-110.563-34.6-169.575-85.98-92.475-168.031,21.428-202.811,0C348.039,49.766,301.06,23.956,253.373,47.1c-13.1,6.359-41.476,38.258-17.914,91.9,11.773,26.8-40.47,29.917-59.581,58.4C134.261,259.42,158.6,359.368,174.085,359.368Z" transform="translate(-152.794 -31.043)" fill="#ebf3fa"/>
        </g>
        <g id="Grupo_54468" data-name="Grupo 54468" transform="translate(65.988 0)" opacity="0.4">
          <g id="Grupo_54398" data-name="Grupo 54398" transform="translate(10.684 13.103)">
            <g id="Grupo_54386" data-name="Grupo 54386">
              <path id="Rectángulo_5466" data-name="Rectángulo 5466" d="M13.757,0H13.8A13.756,13.756,0,0,1,27.554,13.756V80.847A13.756,13.756,0,0,1,13.8,94.6h-.043A13.756,13.756,0,0,1,0,80.847V13.757A13.757,13.757,0,0,1,13.757,0Z" fill="#732be5"/>
            </g>
            <g id="Grupo_54387" data-name="Grupo 54387" transform="translate(7.319 67.741)">
              <path id="Trazado_101802" data-name="Trazado 101802" d="M2256.535,830.09a6.458,6.458,0,1,0-6.458,6.458A6.458,6.458,0,0,0,2256.535,830.09Z" transform="translate(-2243.618 -823.632)" fill="#505aba"/>
            </g>
            <g id="Grupo_54388" data-name="Grupo 54388" transform="translate(6.635 67.094)">
              <path id="Trazado_101803" data-name="Trazado 101803" d="M2255.077,828.1a7.142,7.142,0,1,0-7.142,7.142A7.15,7.15,0,0,0,2255.077,828.1Zm-1.368,0a5.774,5.774,0,1,1-5.774-5.774A5.781,5.781,0,0,1,2253.709,828.1Z" transform="translate(-2240.793 -820.961)" fill="#fff"/>
            </g>
            <g id="Grupo_54389" data-name="Grupo 54389" transform="translate(5.705 4.329)">
              <path id="Rectángulo_5467" data-name="Rectángulo 5467" d="M5.082,0h5.973a5.081,5.081,0,0,1,5.081,5.081V48.1a5.081,5.081,0,0,1-5.081,5.081H5.082A5.082,5.082,0,0,1,0,48.094V5.082A5.082,5.082,0,0,1,5.082,0Z" fill="#aec3ff"/>
            </g>
            <g id="Grupo_54390" data-name="Grupo 54390" transform="translate(7.596 6.254)">
              <rect id="Rectángulo_5468" data-name="Rectángulo 5468" width="12.027" height="2.132" rx="1.066" fill="#f99746"/>
            </g>
            <g id="Grupo_54397" data-name="Grupo 54397" transform="translate(9.721 17.653)">
              <g id="Grupo_54391" data-name="Grupo 54391" transform="translate(6.115 22.051)">
                <path id="Trazado_101804" data-name="Trazado 101804" d="M2257.394,708.328v10.96a.533.533,0,0,0,.533.533h0a.533.533,0,0,0,.533-.533v-10.96a.533.533,0,0,0-.533-.533h0A.533.533,0,0,0,2257.394,708.328Z" transform="translate(-2257.394 -707.795)" fill="#505aba"/>
              </g>
              <g id="Grupo_54392" data-name="Grupo 54392" transform="translate(6.115 6.972)">
                <path id="Trazado_101805" data-name="Trazado 101805" d="M2257.394,646.024v10.961a.533.533,0,0,0,.533.533h0a.533.533,0,0,0,.533-.533V646.024a.533.533,0,0,0-.533-.533h0A.533.533,0,0,0,2257.394,646.024Z" transform="translate(-2257.394 -645.491)" fill="#505aba"/>
              </g>
              <g id="Grupo_54393" data-name="Grupo 54393" transform="translate(0 22.051)">
                <path id="Trazado_101806" data-name="Trazado 101806" d="M2282.658,708.328v10.96a.533.533,0,0,0,.533.533h0a.533.533,0,0,0,.533-.533v-10.96a.533.533,0,0,0-.533-.533h0A.533.533,0,0,0,2282.658,708.328Z" transform="translate(-2282.658 -707.795)" fill="#505aba"/>
              </g>
              <g id="Grupo_54394" data-name="Grupo 54394" transform="translate(0 6.972)">
                <path id="Trazado_101807" data-name="Trazado 101807" d="M2282.658,646.024v10.961a.533.533,0,0,0,.533.533h0a.533.533,0,0,0,.533-.533V646.024a.533.533,0,0,0-.533-.533h0A.533.533,0,0,0,2282.658,646.024Z" transform="translate(-2282.658 -645.491)" fill="#505aba"/>
              </g>
              <g id="Grupo_54395" data-name="Grupo 54395" transform="translate(3.181 18.958)">
                <path id="Trazado_101808" data-name="Trazado 101808" d="M2269.512,695.548V709.6a.533.533,0,0,0,.533.533h0a.533.533,0,0,0,.533-.533V695.548a.533.533,0,0,0-.533-.533h0A.533.533,0,0,0,2269.512,695.548Z" transform="translate(-2269.512 -695.015)" fill="#505aba"/>
              </g>
              <g id="Grupo_54396" data-name="Grupo 54396" transform="translate(3.181)">
                <path id="Trazado_101809" data-name="Trazado 101809" d="M2269.512,617.219v14.054a.533.533,0,0,0,.533.533h0a.533.533,0,0,0,.533-.533V617.219a.533.533,0,0,0-.533-.533h0A.533.533,0,0,0,2269.512,617.219Z" transform="translate(-2269.512 -616.686)" fill="#505aba"/>
              </g>
            </g>
          </g>
          <g id="Grupo_54411" data-name="Grupo 54411" transform="translate(70.12 13.103)">
            <g id="Grupo_54399" data-name="Grupo 54399">
              <rect id="Rectángulo_5469" data-name="Rectángulo 5469" width="27.555" height="94.602" rx="13.756" fill="#732be5"/>
            </g>
            <g id="Grupo_54400" data-name="Grupo 54400" transform="translate(7.319 67.741)">
              <path id="Trazado_101810" data-name="Trazado 101810" d="M2114.554,830.09a6.458,6.458,0,1,0-6.458,6.458A6.458,6.458,0,0,0,2114.554,830.09Z" transform="translate(-2101.638 -823.632)" fill="#505aba"/>
            </g>
            <g id="Grupo_54401" data-name="Grupo 54401" transform="translate(6.635 67.094)">
              <path id="Trazado_101811" data-name="Trazado 101811" d="M2113.1,828.1a7.142,7.142,0,1,0-7.142,7.142A7.15,7.15,0,0,0,2113.1,828.1Zm-1.368,0a5.774,5.774,0,1,1-5.774-5.774A5.781,5.781,0,0,1,2111.729,828.1Z" transform="translate(-2098.813 -820.961)" fill="#fff"/>
            </g>
            <g id="Grupo_54402" data-name="Grupo 54402" transform="translate(5.705 4.329)">
              <rect id="Rectángulo_5470" data-name="Rectángulo 5470" width="16.137" height="53.176" rx="5.082" fill="#aec3ff"/>
            </g>
            <g id="Grupo_54403" data-name="Grupo 54403" transform="translate(7.596 6.254)">
              <rect id="Rectángulo_5471" data-name="Rectángulo 5471" width="12.027" height="2.132" rx="1.066" fill="#f99746"/>
            </g>
            <g id="Grupo_54410" data-name="Grupo 54410" transform="translate(9.72 17.653)">
              <g id="Grupo_54404" data-name="Grupo 54404" transform="translate(6.115 22.051)">
                <path id="Trazado_101812" data-name="Trazado 101812" d="M2115.414,708.328v10.96a.533.533,0,0,0,.533.533h0a.533.533,0,0,0,.533-.533v-10.96a.533.533,0,0,0-.533-.533h0A.533.533,0,0,0,2115.414,708.328Z" transform="translate(-2115.414 -707.795)" fill="#505aba"/>
              </g>
              <g id="Grupo_54405" data-name="Grupo 54405" transform="translate(6.115 6.972)">
                <path id="Trazado_101813" data-name="Trazado 101813" d="M2115.414,646.024v10.961a.534.534,0,0,0,.533.533h0a.533.533,0,0,0,.533-.533V646.024a.533.533,0,0,0-.533-.533h0A.533.533,0,0,0,2115.414,646.024Z" transform="translate(-2115.414 -645.491)" fill="#505aba"/>
              </g>
              <g id="Grupo_54406" data-name="Grupo 54406" transform="translate(0 22.051)">
                <path id="Trazado_101814" data-name="Trazado 101814" d="M2140.678,708.328v10.96a.533.533,0,0,0,.533.533h0a.533.533,0,0,0,.533-.533v-10.96a.533.533,0,0,0-.533-.533h0A.533.533,0,0,0,2140.678,708.328Z" transform="translate(-2140.678 -707.795)" fill="#505aba"/>
              </g>
              <g id="Grupo_54407" data-name="Grupo 54407" transform="translate(0 6.972)">
                <path id="Trazado_101815" data-name="Trazado 101815" d="M2140.678,646.024v10.961a.533.533,0,0,0,.533.533h0a.533.533,0,0,0,.533-.533V646.024a.533.533,0,0,0-.533-.533h0A.533.533,0,0,0,2140.678,646.024Z" transform="translate(-2140.678 -645.491)" fill="#505aba"/>
              </g>
              <g id="Grupo_54408" data-name="Grupo 54408" transform="translate(3.182 18.958)">
                <path id="Trazado_101816" data-name="Trazado 101816" d="M2127.532,695.548V709.6a.533.533,0,0,0,.533.533h0a.533.533,0,0,0,.533-.533V695.548a.533.533,0,0,0-.533-.533h0A.533.533,0,0,0,2127.532,695.548Z" transform="translate(-2127.532 -695.015)" fill="#505aba"/>
              </g>
              <g id="Grupo_54409" data-name="Grupo 54409" transform="translate(3.182)">
                <path id="Trazado_101817" data-name="Trazado 101817" d="M2127.532,617.219v14.054a.533.533,0,0,0,.533.533h0a.533.533,0,0,0,.533-.533V617.219a.533.533,0,0,0-.533-.533h0A.533.533,0,0,0,2127.532,617.219Z" transform="translate(-2127.532 -616.686)" fill="#505aba"/>
              </g>
            </g>
          </g>
          <g id="Grupo_54424" data-name="Grupo 54424" transform="translate(124.631 13.103)">
            <g id="Grupo_54412" data-name="Grupo 54412" transform="translate(0)">
              <rect id="Rectángulo_5472" data-name="Rectángulo 5472" width="27.555" height="94.602" rx="13.756" fill="#732be5"/>
            </g>
            <g id="Grupo_54413" data-name="Grupo 54413" transform="translate(7.319 67.741)">
              <path id="Trazado_101818" data-name="Trazado 101818" d="M1969.861,830.09a6.458,6.458,0,1,0-6.458,6.458A6.458,6.458,0,0,0,1969.861,830.09Z" transform="translate(-1956.945 -823.632)" fill="#505aba"/>
            </g>
            <g id="Grupo_54414" data-name="Grupo 54414" transform="translate(6.635 67.094)">
              <path id="Trazado_101819" data-name="Trazado 101819" d="M1968.4,828.1a7.142,7.142,0,1,0-7.142,7.142A7.15,7.15,0,0,0,1968.4,828.1Zm-1.368,0a5.774,5.774,0,1,1-5.775-5.774A5.781,5.781,0,0,1,1967.036,828.1Z" transform="translate(-1954.12 -820.961)" fill="#fff"/>
            </g>
            <g id="Grupo_54415" data-name="Grupo 54415" transform="translate(5.705 4.329)">
              <rect id="Rectángulo_5473" data-name="Rectángulo 5473" width="16.136" height="53.176" rx="5.082" fill="#aec3ff"/>
            </g>
            <g id="Grupo_54416" data-name="Grupo 54416" transform="translate(7.597 6.254)">
              <rect id="Rectángulo_5474" data-name="Rectángulo 5474" width="12.027" height="2.132" rx="1.066" fill="#f99746"/>
            </g>
            <g id="Grupo_54423" data-name="Grupo 54423" transform="translate(9.72 17.653)">
              <g id="Grupo_54417" data-name="Grupo 54417" transform="translate(6.115 22.051)">
                <path id="Trazado_101820" data-name="Trazado 101820" d="M1970.721,708.328v10.96a.533.533,0,0,0,.533.533h0a.533.533,0,0,0,.533-.533v-10.96a.533.533,0,0,0-.533-.533h0A.533.533,0,0,0,1970.721,708.328Z" transform="translate(-1970.721 -707.795)" fill="#505aba"/>
              </g>
              <g id="Grupo_54418" data-name="Grupo 54418" transform="translate(6.115 6.972)">
                <path id="Trazado_101821" data-name="Trazado 101821" d="M1970.721,646.024v10.961a.533.533,0,0,0,.533.533h0a.533.533,0,0,0,.533-.533V646.024a.533.533,0,0,0-.533-.533h0A.533.533,0,0,0,1970.721,646.024Z" transform="translate(-1970.721 -645.491)" fill="#505aba"/>
              </g>
              <g id="Grupo_54419" data-name="Grupo 54419" transform="translate(0 22.051)">
                <path id="Trazado_101822" data-name="Trazado 101822" d="M1995.984,708.328v10.96a.533.533,0,0,0,.533.533h0a.533.533,0,0,0,.533-.533v-10.96a.533.533,0,0,0-.533-.533h0A.533.533,0,0,0,1995.984,708.328Z" transform="translate(-1995.984 -707.795)" fill="#505aba"/>
              </g>
              <g id="Grupo_54420" data-name="Grupo 54420" transform="translate(0 6.972)">
                <path id="Trazado_101823" data-name="Trazado 101823" d="M1995.984,646.024v10.961a.533.533,0,0,0,.533.533h0a.533.533,0,0,0,.533-.533V646.024a.533.533,0,0,0-.533-.533h0A.533.533,0,0,0,1995.984,646.024Z" transform="translate(-1995.984 -645.491)" fill="#505aba"/>
              </g>
              <g id="Grupo_54421" data-name="Grupo 54421" transform="translate(3.182 18.958)">
                <path id="Trazado_101824" data-name="Trazado 101824" d="M1982.839,695.548V709.6a.533.533,0,0,0,.533.533h0a.533.533,0,0,0,.533-.533V695.548a.533.533,0,0,0-.533-.533h0A.533.533,0,0,0,1982.839,695.548Z" transform="translate(-1982.839 -695.015)" fill="#505aba"/>
              </g>
              <g id="Grupo_54422" data-name="Grupo 54422" transform="translate(3.182)">
                <path id="Trazado_101825" data-name="Trazado 101825" d="M1982.839,617.219v14.054a.533.533,0,0,0,.533.533h0a.533.533,0,0,0,.533-.533V617.219a.533.533,0,0,0-.533-.533h0A.533.533,0,0,0,1982.839,617.219Z" transform="translate(-1982.839 -616.686)" fill="#505aba"/>
              </g>
            </g>
          </g>
          <g id="Grupo_54428" data-name="Grupo 54428" transform="translate(180.769 13.103)">
            <g id="Grupo_54425" data-name="Grupo 54425" transform="translate(0)">
              <path id="Rectángulo_5475" data-name="Rectángulo 5475" d="M13.755,0H13.8A13.756,13.756,0,0,1,27.554,13.756V80.847A13.756,13.756,0,0,1,13.8,94.6h-.043A13.756,13.756,0,0,1,0,80.847V13.755A13.755,13.755,0,0,1,13.755,0Z" fill="#732be5"/>
            </g>
            <g id="Grupo_54426" data-name="Grupo 54426" transform="translate(5.705 4.329)">
              <path id="Rectángulo_5476" data-name="Rectángulo 5476" d="M5.083,0h5.972a5.082,5.082,0,0,1,5.082,5.082V48.094a5.082,5.082,0,0,1-5.082,5.082H5.082A5.082,5.082,0,0,1,0,48.094V5.083A5.083,5.083,0,0,1,5.083,0Z" fill="#aec3ff"/>
            </g>
            <g id="Grupo_54427" data-name="Grupo 54427" transform="translate(7.597 6.254)">
              <path id="Rectángulo_5477" data-name="Rectángulo 5477" d="M1.066,0H10.96a1.066,1.066,0,0,1,1.066,1.066v0A1.066,1.066,0,0,1,10.96,2.132H1.066A1.066,1.066,0,0,1,0,1.066v0A1.066,1.066,0,0,1,1.066,0Z" fill="#f99746"/>
            </g>
          </g>
          <g id="Grupo_54432" data-name="Grupo 54432" transform="translate(248.748 13.103)">
            <g id="Grupo_54429" data-name="Grupo 54429" transform="translate(0)">
              <path id="Rectángulo_5478" data-name="Rectángulo 5478" d="M13.757,0H13.8A13.756,13.756,0,0,1,27.554,13.756V80.847A13.756,13.756,0,0,1,13.8,94.6h-.043A13.756,13.756,0,0,1,0,80.847V13.757A13.757,13.757,0,0,1,13.757,0Z" fill="#732be5"/>
            </g>
            <g id="Grupo_54430" data-name="Grupo 54430" transform="translate(5.705 4.329)">
              <path id="Rectángulo_5479" data-name="Rectángulo 5479" d="M5.082,0h5.972a5.082,5.082,0,0,1,5.082,5.082V48.1a5.081,5.081,0,0,1-5.081,5.081H5.082A5.082,5.082,0,0,1,0,48.094V5.082A5.082,5.082,0,0,1,5.082,0Z" fill="#aec3ff"/>
            </g>
            <g id="Grupo_54431" data-name="Grupo 54431" transform="translate(7.596 6.254)">
              <rect id="Rectángulo_5480" data-name="Rectángulo 5480" width="12.027" height="2.132" rx="1.066" fill="#f99746"/>
            </g>
          </g>
          <g id="Grupo_54445" data-name="Grupo 54445" transform="translate(10.684 162.14)">
            <g id="Grupo_54433" data-name="Grupo 54433">
              <path id="Rectángulo_5481" data-name="Rectángulo 5481" d="M13.757,0H13.8A13.756,13.756,0,0,1,27.554,13.756V80.847A13.756,13.756,0,0,1,13.8,94.6h-.044A13.755,13.755,0,0,1,0,80.848V13.757A13.757,13.757,0,0,1,13.757,0Z" fill="#732be5"/>
            </g>
            <g id="Grupo_54434" data-name="Grupo 54434" transform="translate(7.319 67.74)">
              <ellipse id="Elipse_4128" data-name="Elipse 4128" cx="6.458" cy="6.458" rx="6.458" ry="6.458" fill="#505aba"/>
            </g>
            <g id="Grupo_54435" data-name="Grupo 54435" transform="translate(6.635 67.094)">
              <path id="Trazado_101826" data-name="Trazado 101826" d="M2255.077,1270.21a7.142,7.142,0,1,0-7.142,7.142A7.15,7.15,0,0,0,2255.077,1270.21Zm-1.368,0a5.774,5.774,0,1,1-5.774-5.774A5.781,5.781,0,0,1,2253.709,1270.21Z" transform="translate(-2240.793 -1263.068)" fill="#fff"/>
            </g>
            <g id="Grupo_54436" data-name="Grupo 54436" transform="translate(5.705 4.329)">
              <path id="Rectángulo_5482" data-name="Rectángulo 5482" d="M5.082,0h5.972a5.082,5.082,0,0,1,5.082,5.082V48.1a5.081,5.081,0,0,1-5.081,5.081H5.082A5.082,5.082,0,0,1,0,48.094V5.082A5.082,5.082,0,0,1,5.082,0Z" fill="#aec3ff"/>
            </g>
            <g id="Grupo_54437" data-name="Grupo 54437" transform="translate(7.596 6.253)">
              <path id="Rectángulo_5483" data-name="Rectángulo 5483" d="M1.066,0H10.96a1.066,1.066,0,0,1,1.066,1.066v0A1.066,1.066,0,0,1,10.96,2.133H1.066A1.066,1.066,0,0,1,0,1.066v0A1.066,1.066,0,0,1,1.066,0Z" fill="#f99746"/>
            </g>
            <g id="Grupo_54444" data-name="Grupo 54444" transform="translate(9.721 17.653)">
              <g id="Grupo_54438" data-name="Grupo 54438" transform="translate(6.115 22.051)">
                <path id="Trazado_101827" data-name="Trazado 101827" d="M2257.394,1150.436V1161.4a.533.533,0,0,0,.533.533h0a.533.533,0,0,0,.533-.533v-10.961a.533.533,0,0,0-.533-.533h0A.533.533,0,0,0,2257.394,1150.436Z" transform="translate(-2257.394 -1149.903)" fill="#505aba"/>
              </g>
              <g id="Grupo_54439" data-name="Grupo 54439" transform="translate(6.115 6.972)">
                <path id="Trazado_101828" data-name="Trazado 101828" d="M2257.394,1088.132v10.96a.533.533,0,0,0,.533.533h0a.533.533,0,0,0,.533-.533v-10.96a.533.533,0,0,0-.533-.533h0A.533.533,0,0,0,2257.394,1088.132Z" transform="translate(-2257.394 -1087.599)" fill="#505aba"/>
              </g>
              <g id="Grupo_54440" data-name="Grupo 54440" transform="translate(0 22.051)">
                <path id="Trazado_101829" data-name="Trazado 101829" d="M2282.658,1150.436V1161.4a.533.533,0,0,0,.533.533h0a.533.533,0,0,0,.533-.533v-10.961a.533.533,0,0,0-.533-.533h0A.533.533,0,0,0,2282.658,1150.436Z" transform="translate(-2282.658 -1149.903)" fill="#505aba"/>
              </g>
              <g id="Grupo_54441" data-name="Grupo 54441" transform="translate(0 6.972)">
                <path id="Trazado_101830" data-name="Trazado 101830" d="M2282.658,1088.132v10.96a.533.533,0,0,0,.533.533h0a.533.533,0,0,0,.533-.533v-10.96a.533.533,0,0,0-.533-.533h0A.533.533,0,0,0,2282.658,1088.132Z" transform="translate(-2282.658 -1087.599)" fill="#505aba"/>
              </g>
              <g id="Grupo_54442" data-name="Grupo 54442" transform="translate(3.181 18.958)">
                <path id="Trazado_101831" data-name="Trazado 101831" d="M2269.512,1137.655v14.054a.533.533,0,0,0,.533.533h0a.533.533,0,0,0,.533-.533v-14.054a.533.533,0,0,0-.533-.533h0A.533.533,0,0,0,2269.512,1137.655Z" transform="translate(-2269.512 -1137.122)" fill="#505aba"/>
              </g>
              <g id="Grupo_54443" data-name="Grupo 54443" transform="translate(3.181)">
                <path id="Trazado_101832" data-name="Trazado 101832" d="M2269.512,1059.326v14.054a.533.533,0,0,0,.533.533h0a.533.533,0,0,0,.533-.533v-14.054a.533.533,0,0,0-.533-.533h0A.533.533,0,0,0,2269.512,1059.326Z" transform="translate(-2269.512 -1058.793)" fill="#505aba"/>
              </g>
            </g>
          </g>
          <g id="Grupo_54458" data-name="Grupo 54458" transform="translate(70.12 162.14)">
            <g id="Grupo_54446" data-name="Grupo 54446">
              <path id="Rectángulo_5484" data-name="Rectángulo 5484" d="M13.756,0H13.8A13.756,13.756,0,0,1,27.555,13.756V80.847A13.756,13.756,0,0,1,13.8,94.6h-.044A13.755,13.755,0,0,1,0,80.848V13.756A13.756,13.756,0,0,1,13.756,0Z" fill="#732be5"/>
            </g>
            <g id="Grupo_54447" data-name="Grupo 54447" transform="translate(7.319 67.74)">
              <path id="Trazado_101833" data-name="Trazado 101833" d="M2114.554,1272.2a6.458,6.458,0,1,0-6.458,6.458A6.458,6.458,0,0,0,2114.554,1272.2Z" transform="translate(-2101.638 -1265.738)" fill="#505aba"/>
            </g>
            <g id="Grupo_54448" data-name="Grupo 54448" transform="translate(6.635 67.094)">
              <path id="Trazado_101834" data-name="Trazado 101834" d="M2113.1,1270.21a7.142,7.142,0,1,0-7.142,7.142A7.15,7.15,0,0,0,2113.1,1270.21Zm-1.368,0a5.774,5.774,0,1,1-5.774-5.774A5.781,5.781,0,0,1,2111.729,1270.21Z" transform="translate(-2098.813 -1263.068)" fill="#fff"/>
            </g>
            <g id="Grupo_54449" data-name="Grupo 54449" transform="translate(5.705 4.329)">
              <rect id="Rectángulo_5485" data-name="Rectángulo 5485" width="16.137" height="53.176" rx="5.082" fill="#aec3ff"/>
            </g>
            <g id="Grupo_54450" data-name="Grupo 54450" transform="translate(7.596 6.253)">
              <path id="Rectángulo_5486" data-name="Rectángulo 5486" d="M1.066,0H10.96a1.066,1.066,0,0,1,1.066,1.066v0A1.066,1.066,0,0,1,10.96,2.133H1.066A1.066,1.066,0,0,1,0,1.066v0A1.066,1.066,0,0,1,1.066,0Z" fill="#f99746"/>
            </g>
            <g id="Grupo_54457" data-name="Grupo 54457" transform="translate(9.72 17.653)">
              <g id="Grupo_54451" data-name="Grupo 54451" transform="translate(6.115 22.051)">
                <path id="Trazado_101835" data-name="Trazado 101835" d="M2115.414,1150.436V1161.4a.533.533,0,0,0,.533.533h0a.533.533,0,0,0,.533-.533v-10.961a.533.533,0,0,0-.533-.533h0A.533.533,0,0,0,2115.414,1150.436Z" transform="translate(-2115.414 -1149.903)" fill="#505aba"/>
              </g>
              <g id="Grupo_54452" data-name="Grupo 54452" transform="translate(6.115 6.972)">
                <path id="Trazado_101836" data-name="Trazado 101836" d="M2115.414,1088.132v10.96a.533.533,0,0,0,.533.533h0a.533.533,0,0,0,.533-.533v-10.96a.533.533,0,0,0-.533-.533h0A.533.533,0,0,0,2115.414,1088.132Z" transform="translate(-2115.414 -1087.599)" fill="#505aba"/>
              </g>
              <g id="Grupo_54453" data-name="Grupo 54453" transform="translate(0 22.051)">
                <path id="Trazado_101837" data-name="Trazado 101837" d="M2140.678,1150.436V1161.4a.533.533,0,0,0,.533.533h0a.533.533,0,0,0,.533-.533v-10.961a.533.533,0,0,0-.533-.533h0A.533.533,0,0,0,2140.678,1150.436Z" transform="translate(-2140.678 -1149.903)" fill="#505aba"/>
              </g>
              <g id="Grupo_54454" data-name="Grupo 54454" transform="translate(0 6.972)">
                <path id="Trazado_101838" data-name="Trazado 101838" d="M2140.678,1088.132v10.96a.533.533,0,0,0,.533.533h0a.533.533,0,0,0,.533-.533v-10.96a.533.533,0,0,0-.533-.533h0A.533.533,0,0,0,2140.678,1088.132Z" transform="translate(-2140.678 -1087.599)" fill="#505aba"/>
              </g>
              <g id="Grupo_54455" data-name="Grupo 54455" transform="translate(3.182 18.958)">
                <path id="Trazado_101839" data-name="Trazado 101839" d="M2127.532,1137.655v14.054a.533.533,0,0,0,.533.533h0a.533.533,0,0,0,.533-.533v-14.054a.533.533,0,0,0-.533-.533h0A.533.533,0,0,0,2127.532,1137.655Z" transform="translate(-2127.532 -1137.122)" fill="#505aba"/>
              </g>
              <g id="Grupo_54456" data-name="Grupo 54456" transform="translate(3.182)">
                <path id="Trazado_101840" data-name="Trazado 101840" d="M2127.532,1059.326v14.054a.533.533,0,0,0,.533.533h0a.533.533,0,0,0,.533-.533v-14.054a.533.533,0,0,0-.533-.533h0A.533.533,0,0,0,2127.532,1059.326Z" transform="translate(-2127.532 -1058.793)" fill="#505aba"/>
              </g>
            </g>
          </g>
          <g id="Grupo_54460" data-name="Grupo 54460" transform="translate(124.631 162.14)">
            <g id="Grupo_54459" data-name="Grupo 54459" transform="translate(0)">
              <path id="Rectángulo_5487" data-name="Rectángulo 5487" d="M13.756,0H13.8A13.756,13.756,0,0,1,27.555,13.756V80.847A13.756,13.756,0,0,1,13.8,94.6h-.044A13.755,13.755,0,0,1,0,80.848V13.756A13.756,13.756,0,0,1,13.756,0Z" fill="#732be5"/>
            </g>
          </g>
          <g id="Grupo_54462" data-name="Grupo 54462" transform="translate(180.769 162.14)">
            <g id="Grupo_54461" data-name="Grupo 54461" transform="translate(0)">
              <path id="Rectángulo_5488" data-name="Rectángulo 5488" d="M13.755,0H13.8A13.756,13.756,0,0,1,27.554,13.756V80.847A13.756,13.756,0,0,1,13.8,94.6h-.044A13.755,13.755,0,0,1,0,80.848V13.755A13.755,13.755,0,0,1,13.755,0Z" fill="#8c9df4"/>
            </g>
          </g>
          <g id="Grupo_54464" data-name="Grupo 54464" transform="translate(248.748 162.14)">
            <g id="Grupo_54463" data-name="Grupo 54463" transform="translate(0)">
              <path id="Rectángulo_5489" data-name="Rectángulo 5489" d="M13.757,0H13.8A13.756,13.756,0,0,1,27.554,13.756V80.847A13.756,13.756,0,0,1,13.8,94.6h-.044A13.755,13.755,0,0,1,0,80.848V13.757A13.757,13.757,0,0,1,13.757,0Z" fill="#8c9df4"/>
            </g>
          </g>
          <g id="Grupo_54465" data-name="Grupo 54465" transform="translate(0 0)">
            <path id="Trazado_101841" data-name="Trazado 101841" d="M2347.309,821.164h0c-1.829,0-3.312-1.82-3.312-4.065V493.675c0-2.246,1.483-4.066,3.312-4.066h0c1.83,0,3.313,1.82,3.313,4.066V817.1C2350.621,819.344,2349.138,821.164,2347.309,821.164Z" transform="translate(-2343.996 -489.609)" fill="#bdd1f9"/>
          </g>
          <g id="Grupo_54466" data-name="Grupo 54466" transform="translate(0 132.457)">
            <rect id="Rectángulo_5490" data-name="Rectángulo 5490" width="289.219" height="2.661" fill="#bdd1f9"/>
          </g>
          <g id="Grupo_54467" data-name="Grupo 54467" transform="translate(0 263.968)">
            <rect id="Rectángulo_5491" data-name="Rectángulo 5491" width="301.104" height="2.661" fill="#bdd1f9"/>
          </g>
        </g>
        <g id="Grupo_54474" data-name="Grupo 54474" transform="translate(39.246 237.463)">
          <g id="Grupo_54469" data-name="Grupo 54469" transform="translate(0 0)">
            <rect id="Rectángulo_5492" data-name="Rectángulo 5492" width="15.651" height="50.492" fill="#35488b"/>
          </g>
          <g id="Grupo_54470" data-name="Grupo 54470" transform="translate(15.651 0)">
            <rect id="Rectángulo_5493" data-name="Rectángulo 5493" width="37.745" height="50.492" fill="#2c3a64"/>
          </g>
          <g id="Grupo_54471" data-name="Grupo 54471" transform="translate(5.213 3.694)">
            <path id="Trazado_101842" data-name="Trazado 101842" d="M375.192,1213.919a2.612,2.612,0,1,1,2.612,2.612A2.613,2.613,0,0,1,375.192,1213.919Z" transform="translate(-375.192 -1211.306)" fill="#dde7fe"/>
          </g>
          <g id="Grupo_54472" data-name="Grupo 54472" transform="translate(5.979 4.459)">
            <path id="Trazado_101843" data-name="Trazado 101843" d="M378.354,1216.315a1.847,1.847,0,1,1,1.847,1.847A1.847,1.847,0,0,1,378.354,1216.315Z" transform="translate(-378.354 -1214.468)" fill="#6c7aff"/>
          </g>
          <g id="Grupo_54473" data-name="Grupo 54473" transform="translate(4.202 12.6)">
            <rect id="Rectángulo_5494" data-name="Rectángulo 5494" width="7.362" height="13.299" fill="#8fadef"/>
          </g>
        </g>
        <g id="Grupo_54480" data-name="Grupo 54480" transform="translate(82.709 237.463)">
          <g id="Grupo_54475" data-name="Grupo 54475" transform="translate(0 0)">
            <rect id="Rectángulo_5495" data-name="Rectángulo 5495" width="15.651" height="50.492" fill="#35488b"/>
          </g>
          <g id="Grupo_54476" data-name="Grupo 54476" transform="translate(15.651 0)">
            <rect id="Rectángulo_5496" data-name="Rectángulo 5496" width="37.745" height="50.492" fill="#2c3a64"/>
          </g>
          <g id="Grupo_54477" data-name="Grupo 54477" transform="translate(5.213 3.694)">
            <path id="Trazado_101844" data-name="Trazado 101844" d="M495.831,1213.919a2.612,2.612,0,1,1,2.612,2.612A2.613,2.613,0,0,1,495.831,1213.919Z" transform="translate(-495.831 -1211.306)" fill="#dde7fe"/>
          </g>
          <g id="Grupo_54478" data-name="Grupo 54478" transform="translate(5.978 4.459)">
            <path id="Trazado_101845" data-name="Trazado 101845" d="M498.992,1216.315a1.847,1.847,0,1,1,1.847,1.847A1.847,1.847,0,0,1,498.992,1216.315Z" transform="translate(-498.992 -1214.468)" fill="#6c7aff"/>
          </g>
          <g id="Grupo_54479" data-name="Grupo 54479" transform="translate(4.202 12.6)">
            <rect id="Rectángulo_5497" data-name="Rectángulo 5497" width="7.362" height="13.299" fill="#8fadef"/>
          </g>
        </g>
        <g id="Grupo_54486" data-name="Grupo 54486" transform="translate(114.972 237.463)">
          <g id="Grupo_54481" data-name="Grupo 54481" transform="translate(0 0)">
            <rect id="Rectángulo_5498" data-name="Rectángulo 5498" width="15.651" height="50.492" fill="#35488b"/>
          </g>
          <g id="Grupo_54482" data-name="Grupo 54482" transform="translate(15.651 0)">
            <rect id="Rectángulo_5499" data-name="Rectángulo 5499" width="37.745" height="50.492" fill="#2c3a64"/>
          </g>
          <g id="Grupo_54483" data-name="Grupo 54483" transform="translate(5.213 3.694)">
            <path id="Trazado_101846" data-name="Trazado 101846" d="M606.14,1213.919a2.612,2.612,0,1,1,2.612,2.612A2.612,2.612,0,0,1,606.14,1213.919Z" transform="translate(-606.14 -1211.306)" fill="#dde7fe"/>
          </g>
          <g id="Grupo_54484" data-name="Grupo 54484" transform="translate(5.978 4.459)">
            <path id="Trazado_101847" data-name="Trazado 101847" d="M609.3,1216.315a1.847,1.847,0,1,1,1.847,1.847A1.847,1.847,0,0,1,609.3,1216.315Z" transform="translate(-609.3 -1214.468)" fill="#6c7aff"/>
          </g>
          <g id="Grupo_54485" data-name="Grupo 54485" transform="translate(4.202 12.6)">
            <rect id="Rectángulo_5500" data-name="Rectángulo 5500" width="7.362" height="13.299" fill="#8fadef"/>
          </g>
        </g>
        <g id="Grupo_54490" data-name="Grupo 54490" transform="translate(33.388 270.345)">
          <g id="Grupo_54487" data-name="Grupo 54487" transform="translate(29.072)">
            <rect id="Rectángulo_5501" data-name="Rectángulo 5501" width="116.401" height="65.336" fill="#fd0"/>
          </g>
          <g id="Grupo_54488" data-name="Grupo 54488">
            <rect id="Rectángulo_5502" data-name="Rectángulo 5502" width="70.113" height="65.336" fill="#efcf05"/>
          </g>
          <g id="Grupo_54489" data-name="Grupo 54489" transform="translate(25.788 6.312)">
            <rect id="Rectángulo_5503" data-name="Rectángulo 5503" width="22.25" height="4.354" rx="2.177" fill="#2c3a64"/>
          </g>
        </g>
        <g id="Grupo_54501" data-name="Grupo 54501" transform="translate(181.635 109.035)">
          <g id="Grupo_54491" data-name="Grupo 54491" transform="translate(121.111 76.092)">
            <path id="Trazado_101848" data-name="Trazado 101848" d="M1203.042,974.876,1215,1117.069s1.253,8.62-5.158,8.635c-10.542.025-52.469,0-52.469,0s7.934-1.794,7.838-5.832c-.113-4.758-13.977-146.341-13.977-146.341Z" transform="translate(-1151.234 -973.531)" fill="#798ee8"/>
          </g>
          <g id="Grupo_54492" data-name="Grupo 54492" transform="translate(117.626 73.45)">
            <path id="Trazado_101849" data-name="Trazado 101849" d="M1142.514,1114.846c2.073.006,42.665.075,52.93-.057,4.474-.056,5.259-3.978,5.3-6.517a12.752,12.752,0,0,0-.136-2.116l-.311-3.7-.793-9.42-.7-8.322-.9-10.694-.758-9.026-8.5-101.037-51.809-1.344s5.839,59.251,9.969,102.382c.461,4.805.9,9.413,1.305,13.714q.2,2.06.381,4.023c.383,4.081.733,7.828,1.038,11.137.161,1.744.309,3.364.443,4.849.527,5.817.836,9.531.84,10.237a5.991,5.991,0,0,1-.1,1.151C1149.862,1114.641,1143.292,1114.846,1142.514,1114.846Z" transform="translate(-1136.837 -962.616)" fill="#aec3ff"/>
          </g>
          <g id="Grupo_54493" data-name="Grupo 54493" transform="translate(0 0)">
            <path id="Trazado_101850" data-name="Trazado 101850" d="M949.578,659.143,920.449,776.149l-3.989,16.024-13.567,54.5H650.84l50.006-187.529Z" transform="translate(-650.84 -659.143)" fill="#aec3ff"/>
          </g>
          <g id="Grupo_54494" data-name="Grupo 54494" transform="translate(252.053)">
            <path id="Trazado_101851" data-name="Trazado 101851" d="M1738.934,659.142l4.037,1.346-45.355,190.254-5.368-4.07Z" transform="translate(-1692.249 -659.142)" fill="#798ee8"/>
          </g>
          <g id="Grupo_54495" data-name="Grupo 54495" transform="translate(0.001 187.53)">
            <path id="Trazado_101852" data-name="Trazado 101852" d="M908.263,1438.03H657.76l-6.917-4.07H902.9Z" transform="translate(-650.843 -1433.96)" fill="#849def"/>
          </g>
          <g id="Grupo_54496" data-name="Grupo 54496" transform="translate(115.214 225.68)">
            <rect id="Rectángulo_5504" data-name="Rectángulo 5504" width="54.238" height="2.577" fill="#aec3ff"/>
          </g>
          <g id="Grupo_54497" data-name="Grupo 54497" transform="translate(129.002 191.599)">
            <path id="Trazado_101853" data-name="Trazado 101853" d="M1183.837,1450.772l.28,1.97,51.007,10.3-.7-8.322-.333-3.953Z" transform="translate(-1183.837 -1450.772)" fill="#8c9df4"/>
          </g>
          <g id="Grupo_54498" data-name="Grupo 54498" transform="translate(123.303 209.555)" opacity="0.5">
            <path id="Trazado_101854" data-name="Trazado 101854" d="M1160.292,1541.085c2.073.006,42.665.075,52.93-.057,4.474-.056,5.258-3.978,5.3-6.516l-50.767-9.552c.527,5.816.836,9.531.84,10.237a5.983,5.983,0,0,1-.1,1.151C1167.64,1540.88,1161.07,1541.085,1160.292,1541.085Z" transform="translate(-1160.292 -1524.96)" fill="#8c9df4"/>
          </g>
          <g id="Grupo_54499" data-name="Grupo 54499" transform="translate(9.649)">
            <path id="Trazado_101855" data-name="Trazado 101855" d="M979.8,659.142H731.063L690.706,809.856h251.57Z" transform="translate(-690.706 -659.142)" fill="#8c9df4"/>
          </g>
          <g id="Grupo_54500" data-name="Grupo 54500" transform="translate(21.38 8.074)">
            <path id="Trazado_101856" data-name="Trazado 101856" d="M739.176,828.611h232.89l8.323-33.153,3.22-12.828,1.312-5.231,8.554-34.071.442-1.774,4.522-18.009,2.023-8.058,1.725-6.874,1.408-5.606,2.638-10.506H776.7l-2.9,10.506-1.545,5.606-1.895,6.874-2.221,8.058-14.636,53.087v0l-1.239,4.5-.577,2.087-10.1,36.65Z" transform="translate(-739.176 -692.502)" fill="#732be5"/>
          </g>
        </g>
        <g id="Grupo_54502" data-name="Grupo 54502" transform="translate(0 335.681)">
          <rect id="Rectángulo_5505" data-name="Rectángulo 5505" width="443.933" height="1.63" rx="0.815" transform="translate(443.933 1.63) rotate(-180)" fill="#233862"/>
        </g>
        <g id="Grupo_54528" data-name="Grupo 54528" transform="translate(156.432 -150.688)">
          <g id="Grupo_54524" data-name="Grupo 54524" transform="translate(109.027 190)">
            <g id="Grupo_54504" data-name="Grupo 54504" transform="translate(39.088 87.554)">
              <path id="Trazado_101858" data-name="Trazado 101858" d="M150.236,268.166a1.258,1.258,0,0,1,.225,1.344v.007a8.381,8.381,0,0,1-2.64,2.9c-.161.13-.3.245-.424.355-.033.029-.065.056-.1.085l-.075.065c-1.16,1.071-.723,1.316-2.808,3.49-2.378,2.475-4.02,2.52-4.481,2.3-.394-.191.406-1.5,1.292-2.979.043-.072.085-.144.13-.216.119-.191.236-.4.353-.592,1.039-1.776.771-2.609.524-5.252-.2-2.147-3.348-11.994-3.348-11.994l4.558-.787s1.374,7.842,2.888,9.048c.809.644,1.713.652,2.488,1.128.055.033.109.068.161.1A5.919,5.919,0,0,1,150.236,268.166Z" transform="translate(-138.888 -256.886)" fill="#ffb27d"/>
            </g>
            <g id="Grupo_54505" data-name="Grupo 54505" transform="translate(40.033 97.84)">
              <path id="Trazado_101859" data-name="Trazado 101859" d="M150.013,265.741a1.257,1.257,0,0,1,.224,1.346v.007a9.669,9.669,0,0,1-2.644,2.89c-.157.13-.3.251-.419.363-.033.028-.064.056-.1.085L147,270.5c-1.161,1.071-.723,1.316-2.808,3.488-2.378,2.475-4.02,2.521-4.482,2.3-.394-.192.406-1.505,1.293-2.981a10.134,10.134,0,0,0,4.237-3.126c1.381-1.761,2.317-4.007,3.254-5.384l.268-.05A5.987,5.987,0,0,1,150.013,265.741Z" transform="translate(-139.61 -264.744)" fill="#233862"/>
            </g>
            <g id="Grupo_54506" data-name="Grupo 54506" transform="translate(0 86.174)">
              <path id="Trazado_101860" data-name="Trazado 101860" d="M122.707,265.66c-.28,1.407-2.285,1.173-4.527.626s-1.708.1-4.9-.247-4.156-1.541-4.253-2.015c-.088-.421,1.488-.575,3.178-.766.213-.024.427-.051.64-.076,1.907-.241,3.305-1.473,5.038-2.488,1.64-.957,4.089-4.862,4.089-4.862l4.373.344s-2.3,3.487-3.181,5a5.28,5.28,0,0,0-.429,2.981A5.537,5.537,0,0,1,122.707,265.66Z" transform="translate(-109.027 -255.832)" fill="#ffb27d"/>
            </g>
            <g id="Grupo_54507" data-name="Grupo 54507" transform="translate(0 93.601)">
              <path id="Trazado_101861" data-name="Trazado 101861" d="M118.181,264.534c-2.241-.546-1.708.1-4.9-.247s-4.156-1.541-4.253-2.015c-.088-.422,1.488-.575,3.178-.766l.017.033a8.984,8.984,0,0,0,4.566,1.418c2.164.052,4.455-.568,5.949-.545a5.614,5.614,0,0,1-.033,1.5C122.427,265.315,120.422,265.08,118.181,264.534Z" transform="translate(-109.027 -261.506)" fill="#233862"/>
            </g>
            <g id="Grupo_54508" data-name="Grupo 54508" transform="translate(30.43 61.019)">
              <path id="Trazado_101862" data-name="Trazado 101862" d="M132.274,243.63l4.092,11,5.343,14.362a8.659,8.659,0,0,0,2.835-.259,12.293,12.293,0,0,0,2.741-1.34s-1.487-15.423-4.256-24.274a15.768,15.768,0,0,0-2.381-5.146C136.363,232.912,132.274,243.63,132.274,243.63Z" transform="translate(-132.274 -236.615)" fill="#e6c907"/>
            </g>
            <g id="Grupo_54509" data-name="Grupo 54509" transform="translate(10.414 48.35)">
              <path id="Trazado_101863" data-name="Trazado 101863" d="M141.15,229.147c2.327-.75,8.4-.014,14.985,1.175a4.466,4.466,0,0,0,4.612-2.084h0l16.575-1.3s5.473,12.128,2.482,19.857a2.907,2.907,0,0,1-2.9,1.869h0s-10.015.017-13.218.018c-8.243,0-17.446-5.66-18.637-5.9-1.948-.389-2.727,3.508-4.673,7.6s-18.31,18.126-18.31,18.126a14.365,14.365,0,0,1-3.554-.364,3.494,3.494,0,0,1-1.53-.962S135.11,231.1,141.15,229.147Z" transform="translate(-116.983 -226.937)" fill="#fd0"/>
            </g>
            <g id="Grupo_54510" data-name="Grupo 54510" transform="translate(49.956)">
              <path id="Trazado_101864" data-name="Trazado 101864" d="M151.5,216.828c5.9,3.249,17.88,9.981,17.942,9.938,0,0,4.4,1.656,6.9,0,4.161-2.766,6.389-10.2-1.223-16.6-3.8-3.191-6.494-3.968-6.9-9.065-.224-2.775-4.037-11.962-10.363-11.034a8.814,8.814,0,0,1-1.532.1,5.885,5.885,0,0,0-3.165.825C149.6,193.1,142.65,215.57,151.5,216.828Z" transform="translate(-147.191 -190)" fill="#233862"/>
            </g>
            <g id="Grupo_54511" data-name="Grupo 54511" transform="translate(58.459 14.773)">
              <path id="Trazado_101865" data-name="Trazado 101865" d="M154.442,210.569c-.026.016,2.9,1.016,4.863.147,1.843-.816,3.238-3.847,3.211-3.85-.838-.038-1.759-.771-2.47-5.58l-.357.128-6,2.161s.436,1.926.717,3.759C154.643,208.876,154.77,210.352,154.442,210.569Z" transform="translate(-153.687 -201.286)" fill="#ffb27d"/>
            </g>
            <g id="Grupo_54512" data-name="Grupo 54512" transform="translate(58.459 14.902)">
              <path id="Trazado_101866" data-name="Trazado 101866" d="M153.687,203.546s.241,1.039.59,2.981a6.78,6.78,0,0,0,5.413-5.143Z" transform="translate(-153.687 -201.384)" fill="#ed975d"/>
            </g>
            <g id="Grupo_54513" data-name="Grupo 54513" transform="translate(53.346 4.528)">
              <path id="Trazado_101867" data-name="Trazado 101867" d="M154,207.908s8.211-1.1,7.446-6.21-.224-8.684-5.5-8.194-6,2.59-6.159,4.356S151.844,208.065,154,207.908Z" transform="translate(-149.781 -193.459)" fill="#ffb27d"/>
            </g>
            <g id="Grupo_54514" data-name="Grupo 54514" transform="translate(53.655 4.078)">
              <path id="Trazado_101868" data-name="Trazado 101868" d="M150.017,195.169s5.263,4.529,8.836,4.893,4.93-.784,4.93-.784A13.983,13.983,0,0,1,160.4,194.7a2.515,2.515,0,0,0-2.073-1.482C155.774,193,150.935,192.905,150.017,195.169Z" transform="translate(-150.017 -193.115)" fill="#233862"/>
            </g>
            <g id="Grupo_54515" data-name="Grupo 54515" transform="translate(52.694 4.744)">
              <path id="Trazado_101869" data-name="Trazado 101869" d="M153.528,194.606a12.9,12.9,0,0,0-2.312,2.966,9.933,9.933,0,0,0-.267,5.284s-2.742-5.326-1.192-7.917C151.4,192.189,153.528,194.606,153.528,194.606Z" transform="translate(-149.282 -193.624)" fill="#233862"/>
            </g>
            <g id="Grupo_54516" data-name="Grupo 54516" transform="translate(52.3 20.16)">
              <path id="Trazado_101870" data-name="Trazado 101870" d="M148.983,221.4c.254,16.626.073,13.151,1.891,14.729a6.993,6.993,0,0,0,3.292.712c5.1.336,14.06-.507,14.4-1.449,1.174-3.261.344-4.273,1.323-9.264.1-.531.229-1.106.377-1.732.817-3.428,1.613-4.593-1.291-10.1-2.634-4.987-5.368-9.035-5.614-8.889-6.942,4.125-7.5.661-7.5.661S148.859,213.289,148.983,221.4Z" transform="translate(-148.982 -205.401)" fill="#2f539b"/>
            </g>
            <g id="Grupo_54517" data-name="Grupo 54517" transform="translate(34.522 67.521)">
              <path id="Trazado_101871" data-name="Trazado 101871" d="M135.4,253.093l5.342,14.364a8.632,8.632,0,0,0,2.837-.26,12.318,12.318,0,0,0,2.741-1.34s-1.487-15.423-4.256-24.274Z" transform="translate(-135.4 -241.582)" fill="#fd0"/>
            </g>
            <g id="Grupo_54518" data-name="Grupo 54518" transform="translate(47.603 20.829)">
              <path id="Trazado_101872" data-name="Trazado 101872" d="M156.968,205.912s-7.144,1.213-7.982,4.29-3.593,21.749-3.593,21.749,2.016,1.966,3.693.287,5.274-17.471,5.274-17.471Z" transform="translate(-145.393 -205.912)" fill="#2f539b"/>
            </g>
            <g id="Grupo_54519" data-name="Grupo 54519" transform="translate(57.487 33.962)">
              <path id="Trazado_101873" data-name="Trazado 101873" d="M152.944,233.581c5.1.336,14.059-.507,14.4-1.449,1.175-3.261.344-4.273,1.323-9.264l-2.461-6.923s.41,7.71-1.864,9.739-9.308,3.918-10.413,5.613A6.19,6.19,0,0,0,152.944,233.581Z" transform="translate(-152.944 -215.945)" fill="#233862"/>
            </g>
            <g id="Grupo_54520" data-name="Grupo 54520" transform="translate(54.425 47.578)">
              <path id="Trazado_101874" data-name="Trazado 101874" d="M159.506,227.123s-5.03-1.118-5.838-.67a11.827,11.827,0,0,0-3.042,2.638c-.249.565,1.806-.431,2.475-.609a5.967,5.967,0,0,1,2.136.466,7.1,7.1,0,0,0,3.827.384Z" transform="translate(-150.605 -226.347)" fill="#ffb27d"/>
            </g>
            <g id="Grupo_54521" data-name="Grupo 54521" transform="translate(62.512 20.163)">
              <path id="Trazado_101875" data-name="Trazado 101875" d="M160.956,205.4s6.753.414,9.091,3.673c3.291,4.593,9.828,24.148,6.087,26.757-4.211,2.94-19.177.775-19.177.775s-.5-2.326.192-3.453,11.949-2.948,12.469-3.468-6.5-10.13-6.5-11.689S160.956,205.4,160.956,205.4Z" transform="translate(-156.783 -205.403)" fill="#2f539b"/>
            </g>
            <g id="Grupo_54522" data-name="Grupo 54522" transform="translate(55.275 49.08)">
              <path id="Trazado_101876" data-name="Trazado 101876" d="M153.221,227.494a9.7,9.7,0,0,1-1.4,1.522,1.037,1.037,0,0,1-.569.122l.709-1.278Z" transform="translate(-151.254 -227.494)" fill="#ffb27d"/>
            </g>
            <g id="Grupo_54523" data-name="Grupo 54523" transform="translate(54.422 47.682)">
              <path id="Trazado_101877" data-name="Trazado 101877" d="M153.665,226.426l-3.062,1.49a.542.542,0,0,0,.507.191,7.29,7.29,0,0,0,1.329-.365Z" transform="translate(-150.603 -226.426)" fill="#ffb27d"/>
            </g>
            <g id="Grupo_54907" data-name="Grupo 54907" transform="translate(54.576 10.586)">
              <g id="Grupo_54906" data-name="Grupo 54906">
                <g id="Grupo_54905" data-name="Grupo 54905" transform="translate(1.715 0.582)">
                  <path id="Trazado_102678" data-name="Trazado 102678" d="M152.942,198.726a4.171,4.171,0,0,1-.865,2.56.231.231,0,0,0,.041.318,2.36,2.36,0,0,0,1.465.427.228.228,0,0,0,.2-.253.231.231,0,0,0-.253-.2,2.141,2.141,0,0,1-.857-.178.955.955,0,0,1-.274-.158l.039.318a4.031,4.031,0,0,0,.818-1.774,5.364,5.364,0,0,0,.139-1,.235.235,0,0,0-.192-.257.229.229,0,0,0-.257.192Z" transform="translate(-152.03 -198.531)" fill="#ca8071"/>
                </g>
                <path id="Trazado_102679" data-name="Trazado 102679" d="M151.74,199.526c-.02.26-.162.462-.318.45s-.267-.232-.247-.492.161-.462.317-.45S151.758,199.266,151.74,199.526Z" transform="translate(-150.58 -197.795)" fill="#272425"/>
                <path id="Trazado_102680" data-name="Trazado 102680" d="M154.907,199.637c-.018.259-.161.462-.317.45s-.267-.232-.249-.492.162-.462.318-.452S154.927,199.376,154.907,199.637Z" transform="translate(-149.602 -197.761)" fill="#272425"/>
                <path id="Trazado_102681" data-name="Trazado 102681" d="M154.2,198.215s2.271-.093,2.518.535a11.027,11.027,0,0,0-2.284.01C153.646,198.9,153.853,198.249,154.2,198.215Z" transform="translate(-149.74 -198.049)" fill="#233862"/>
                <path id="Trazado_102682" data-name="Trazado 102682" d="M152.924,198.147s-1.912-.27-2.2.332a7.945,7.945,0,0,1,1.933.19C153.3,198.866,153.214,198.209,152.924,198.147Z" transform="translate(-150.72 -198.087)" fill="#233862"/>
                <path id="Trazado_102683" data-name="Trazado 102683" d="M151.987,202.006l2.974-.024S153.269,204.281,151.987,202.006Z" transform="translate(-150.329 -196.883)" fill="#fff"/>
              </g>
            </g>
          </g>
          <g id="Grupo_54525" data-name="Grupo 54525" transform="translate(140.351 241.178)">
            <path id="Trazado_101878" data-name="Trazado 101878" d="M132.957,229.109l32-.012v.706l-31.72.012Z" transform="translate(-132.957 -229.097)" fill="#233862"/>
          </g>
          <g id="Grupo_54526" data-name="Grupo 54526" transform="translate(133.339 223.759)">
            <path id="Trazado_101879" data-name="Trazado 101879" d="M159.132,233.918l-24.235.008L127.6,215.8l24.2-.009Z" transform="translate(-127.6 -215.79)" fill="#233862"/>
          </g>
          <g id="Grupo_54527" data-name="Grupo 54527" transform="translate(146.689 231.672)">
            <path id="Trazado_101880" data-name="Trazado 101880" d="M137.861,222.991a.839.839,0,0,1,.822-1.155,1.653,1.653,0,0,1,1.486,1.153.84.84,0,0,1-.463,1.094.82.82,0,0,1-.359.06A1.653,1.653,0,0,1,137.861,222.991Z" transform="translate(-137.799 -221.835)" fill="#fff"/>
          </g>
        </g>
        <g id="Grupo_54503" data-name="Grupo 54503" transform="translate(336.363 154.99)">
          <path id="Trazado_101857" data-name="Trazado 101857" d="M1371.916,830.5l2.148-3.172a12.54,12.54,0,0,1,9.88-5.627h23.626l-4.1,14.992L1387.2,896.179a6.133,6.133,0,0,1-5.916,4.515H1296.27a6.133,6.133,0,0,1-5.916-7.751l15.383-56.252h55.306A13.8,13.8,0,0,0,1371.916,830.5Z" transform="translate(-1290.133 -821.7)" fill="#fd0"/>
        </g>
        <g id="Grupo_54529" data-name="Grupo 54529" transform="translate(244.811 145.169)" opacity="0.5">
          <path id="Trazado_101881" data-name="Trazado 101881" d="M1045.758,792.195l7.005-8.949.331-.422.395-.073,32.33-5.949,10.88,59.136-41.913,7.711-9.306-50.587-.077-.414Z" transform="translate(-1045.402 -776.803)" fill="#8c9df4"/>
        </g>
        <g id="Grupo_54531" data-name="Grupo 54531" transform="translate(267.396 135.09)">
          <g id="Grupo_54530" data-name="Grupo 54530">
            <path id="Trazado_101882" data-name="Trazado 101882" d="M1127.464,739.842l-.016.421-1.995,51.4,42.585,1.652,2.331-60.083-32.849-1.273-.4-.016-.415.34-8.794,7.2Z" transform="translate(-1125.453 -731.94)" fill="#8c9df4"/>
          </g>
        </g>
        <g id="Grupo_54546" data-name="Grupo 54546" transform="translate(301.866 151.142)">
          <g id="Grupo_54532" data-name="Grupo 54532" transform="translate(0 4.061)">
            <path id="Trazado_101883" data-name="Trazado 101883" d="M1232.713,825.4l71.067,3.961a.26.26,0,0,1,.246.274l-5.187,93.061a.26.26,0,0,1-.275.245l-70.965-3.955a.26.26,0,0,1-.245-.274l5.192-93.162A.159.159,0,0,1,1232.713,825.4Z" transform="translate(-1227.353 -825.399)" fill="#233862"/>
          </g>
          <g id="Grupo_54533" data-name="Grupo 54533" transform="translate(2.42 6.369)">
            <path id="Trazado_101884" data-name="Trazado 101884" d="M1240.422,923.274l60.2,3.777a3.275,3.275,0,0,0,3.474-3.064l5.133-81.795a3.276,3.276,0,0,0-3.064-3.475l-60.2-3.777a3.276,3.276,0,0,0-3.475,3.065l-5.133,81.794A3.276,3.276,0,0,0,1240.422,923.274Z" transform="translate(-1237.351 -834.934)" fill="#ebf3fa"/>
          </g>
          <g id="Grupo_54544" data-name="Grupo 54544" transform="translate(14.492 18.851)">
            <g id="Grupo_54534" data-name="Grupo 54534" transform="translate(14.723)">
              <path id="Trazado_101885" data-name="Trazado 101885" d="M1348.092,887.522l37.868,2.376a.036.036,0,0,0,.037-.033l.059-.946a.035.035,0,0,0-.032-.037l-37.868-2.376a.035.035,0,0,0-.037.033l-.059.946A.035.035,0,0,0,1348.092,887.522Z" transform="translate(-1348.059 -886.506)" fill="#bdd1f9"/>
            </g>
            <g id="Grupo_54535" data-name="Grupo 54535" transform="translate(14.213 8.13)">
              <path id="Trazado_101886" data-name="Trazado 101886" d="M1345.983,921.114l37.868,2.376a.035.035,0,0,0,.037-.032l.059-.947a.035.035,0,0,0-.033-.037l-37.868-2.376a.035.035,0,0,0-.037.033l-.06.947A.035.035,0,0,0,1345.983,921.114Z" transform="translate(-1345.95 -920.098)" fill="#bdd1f9"/>
            </g>
            <g id="Grupo_54536" data-name="Grupo 54536" transform="translate(0 3.158)">
              <path id="Trazado_101887" data-name="Trazado 101887" d="M1287.26,900.568l52.336,3.284a.035.035,0,0,0,.037-.033l.059-.947a.035.035,0,0,0-.033-.037l-52.335-3.284a.035.035,0,0,0-.037.032l-.059.947A.035.035,0,0,0,1287.26,900.568Z" transform="translate(-1287.228 -899.552)" fill="#bdd1f9"/>
            </g>
            <g id="Grupo_54537" data-name="Grupo 54537" transform="translate(23.37 33.977)">
              <path id="Trazado_101888" data-name="Trazado 101888" d="M1383.812,1027.9l25.764,1.617.031-.027.06-.959-.027-.03-25.765-1.617-.031.027-.06.959Z" transform="translate(-1383.785 -1026.887)" fill="#bdd1f9"/>
            </g>
            <g id="Grupo_54538" data-name="Grupo 54538" transform="translate(13.777 29.294)">
              <path id="Trazado_101889" data-name="Trazado 101889" d="M1344.179,1008.555l35.612,2.235.03-.027.06-.958-.027-.031-35.612-2.235-.031.027-.06.958Z" transform="translate(-1344.152 -1007.539)" fill="#bdd1f9"/>
            </g>
            <g id="Grupo_54539" data-name="Grupo 54539" transform="translate(11.147 37.753)">
              <path id="Trazado_101890" data-name="Trazado 101890" d="M1333.316,1043.505l37.868,2.376a.035.035,0,0,0,.037-.033l.06-.946a.035.035,0,0,0-.033-.037l-37.868-2.376a.035.035,0,0,0-.037.033l-.06.946A.035.035,0,0,0,1333.316,1043.505Z" transform="translate(-1333.283 -1042.489)" fill="#bdd1f9"/>
            </g>
            <g id="Grupo_54540" data-name="Grupo 54540" transform="translate(6.66 41.552)">
              <path id="Trazado_101891" data-name="Trazado 101891" d="M1314.774,1059.2l42.107,2.642.033-.029.06-.954-.029-.033-42.107-2.642-.034.029-.06.954Z" transform="translate(-1314.744 -1058.186)" fill="#bdd1f9"/>
            </g>
            <g id="Grupo_54541" data-name="Grupo 54541" transform="translate(20.991 49.618)">
              <path id="Trazado_101892" data-name="Trazado 101892" d="M1373.984,1092.527l27.1,1.7.032-.028.06-.957-.028-.032-27.1-1.7-.032.028-.06.957Z" transform="translate(-1373.956 -1091.511)" fill="#bdd1f9"/>
            </g>
            <g id="Grupo_54542" data-name="Grupo 54542" transform="translate(20.481 57.748)">
              <path id="Trazado_101893" data-name="Trazado 101893" d="M1371.876,1126.119l27.1,1.7.032-.028.06-.957-.028-.032-27.1-1.7-.031.028-.06.957Z" transform="translate(-1371.848 -1125.102)" fill="#bdd1f9"/>
            </g>
            <g id="Grupo_54543" data-name="Grupo 54543" transform="translate(10.378 53.033)">
              <path id="Trazado_101894" data-name="Trazado 101894" d="M1330.136,1106.638l37.457,2.351.032-.028.06-.957-.028-.031-37.458-2.35-.031.028-.06.957Z" transform="translate(-1330.108 -1105.622)" fill="#bdd1f9"/>
            </g>
          </g>
          <g id="Grupo_54545" data-name="Grupo 54545" transform="translate(20.28 0)">
            <path id="Trazado_101895" data-name="Trazado 101895" d="M1311.424,812.08l-.28,5.008a.885.885,0,0,0,.867.9l39.225,2.186a.885.885,0,0,0,.962-.8l.279-5.008a3.829,3.829,0,0,0-3.751-3.895l-33.141-1.847A3.829,3.829,0,0,0,1311.424,812.08Z" transform="translate(-1311.143 -808.619)" fill="#fd0"/>
          </g>
        </g>
      </g>
    </g>
  </g>
</svg>
