<svg xmlns="http://www.w3.org/2000/svg" width="124" height="124" viewBox="0 0 124 124">
  <g id="Grupo_55240" data-name="Grupo 55240" transform="translate(-1200 -1152)">
    <circle id="Elipse_4254" data-name="Elipse 4254" cx="62" cy="62" r="62" transform="translate(1200 1152)" fill="#fff"/>
    <g id="Grupo_55232" data-name="Grupo 55232" transform="translate(-273 5.041)">
      <path id="Trazado_103044" data-name="Trazado 103044" d="M218.936,672.685a41.772,41.772,0,0,1,3.331-16.255,25.809,25.809,0,0,1,4.652-7.074,45.551,45.551,0,0,1,10.371-8.969,21.789,21.789,0,0,1,8.1-3.153c3.864-.568,7.678-.408,11.21,1.449a19.955,19.955,0,0,1,3.612,2.6,24.7,24.7,0,0,1,4.5,5.3c.08.123.2.249.213.38a.578.578,0,0,1-.143.45.46.46,0,0,1-.431-.12c-.476-.646-.887-1.341-1.382-1.971a21.135,21.135,0,0,0-6.364-5.845,16.266,16.266,0,0,0-10.053-1.677,23.991,23.991,0,0,0-11.7,5.1,58.518,58.518,0,0,0-6.835,6.275,29.822,29.822,0,0,0-7.145,13.737,41.317,41.317,0,0,0-1.038,13.65c.117,1.318.408,2.619.62,3.929.013.081.066.169.047.239-.051.181-.131.353-.2.528-.139-.12-.367-.219-.4-.364a21.183,21.183,0,0,1-.565-2.638c-.216-1.852-.35-3.713-.517-5.57Z" transform="translate(1293.844 545.562)" fill="#02dba8"/>
      <path id="Trazado_103045" data-name="Trazado 103045" d="M249.61,654.127a14.615,14.615,0,0,1,14.119,10.733c.6,2.091,1.15,4.2,1.8,6.276a19.359,19.359,0,0,0,3.206,6.588,30.633,30.633,0,0,0,2.4,2.388,2.627,2.627,0,0,1,.449.447.473.473,0,0,1-.025.425.421.421,0,0,1-.382.058,1.726,1.726,0,0,1-.445-.3,15.179,15.179,0,0,1-4.566-5.937,78.973,78.973,0,0,1-3.046-9.433c-1.524-5.229-4.844-8.757-10.195-10.1a13.7,13.7,0,0,0-11.542,2.007,40.385,40.385,0,0,0-8.565,7.764,15.457,15.457,0,0,0-2.346,3.2c-.051.112-.269.147-.409.219-.054-.193-.216-.452-.145-.57a23.5,23.5,0,0,1,1.555-2.383,41.283,41.283,0,0,1,10.21-9.281A13.75,13.75,0,0,1,249.61,654.127Z" transform="translate(1289.452 538.755)" fill="#02dba8"/>
      <path id="Trazado_103046" data-name="Trazado 103046" d="M234.733,688.313a14.659,14.659,0,0,1,8.792-13.464,9.185,9.185,0,0,1,12.387,5.552,12.375,12.375,0,0,1,.429,6.119,56.077,56.077,0,0,1-1.444,6.259,8.853,8.853,0,0,1-2.657,4.182,1.2,1.2,0,0,1-.382.3.587.587,0,0,1-.467-.058c-.068-.052-.036-.292.013-.425a.875.875,0,0,1,.262-.287,9.383,9.383,0,0,0,2.831-4.845,35.588,35.588,0,0,0,1.269-6.348,10.008,10.008,0,0,0-2.47-7.87,8.034,8.034,0,0,0-8.953-2.1,13.145,13.145,0,0,0-8.621,10.5,13.747,13.747,0,0,0,1.414,9.3,11.125,11.125,0,0,0,2.539,3.04c.2.171.46.345.207.64s-.471.056-.67-.107a11.746,11.746,0,0,1-4.153-7.368C234.892,690.34,234.839,689.322,234.733,688.313Z" transform="translate(1287.538 530.847)" fill="#02dba8"/>
      <path id="Trazado_103047" data-name="Trazado 103047" d="M240.844,688.645a13.9,13.9,0,0,1,2.154-7.9,7.673,7.673,0,0,1,5.584-3.551,7.366,7.366,0,0,1,8.169,5.742,14.52,14.52,0,0,1,.183,4.838.447.447,0,0,1-.085.276,3.594,3.594,0,0,1-.456.306c-.072-.162-.211-.325-.206-.485.025-.752.11-1.5.133-2.254a8.271,8.271,0,0,0-.8-4.01,6.726,6.726,0,0,0-11-1.59A10.553,10.553,0,0,0,241.773,686a13.688,13.688,0,0,0,1.007,8.261,6.358,6.358,0,0,0,9.722,2.347,7.689,7.689,0,0,0,2.579-4.087,7.514,7.514,0,0,1,.284-.99c.065-.151.274-.24.418-.356.083.188.279.415.231.56a18.6,18.6,0,0,1-1.2,3.21,7.093,7.093,0,0,1-12.507-.049A13.2,13.2,0,0,1,240.844,688.645Z" transform="translate(1285.117 529.637)" fill="#02dba8"/>
      <path id="Trazado_103048" data-name="Trazado 103048" d="M252.463,663.488a9.205,9.205,0,0,1,9.2,7.027c.788,2.836,1.588,5.677,2.564,8.452a19.909,19.909,0,0,0,8.9,10.812c.271.16.76.312.469.743-.264.393-.582.006-.84-.145a20.651,20.651,0,0,1-9.333-11.551c-.943-2.787-1.687-5.641-2.56-8.453a8.058,8.058,0,0,0-5.369-5.7,8.458,8.458,0,0,0-7.7.982,46.706,46.706,0,0,0-7.283,6.424c-.563.594-1.1,1.217-1.673,1.8-.14.141-.472.284-.592.214-.31-.181-.143-.462.047-.656,1.577-1.617,3.1-3.293,4.76-4.819a52.783,52.783,0,0,1,4.586-3.691A7.8,7.8,0,0,1,252.463,663.488Z" transform="translate(1286.215 535.047)" fill="#02dba8"/>
      <path id="Trazado_103049" data-name="Trazado 103049" d="M245.868,629.38a22.434,22.434,0,0,1,13.2,4.3,1.581,1.581,0,0,1,.412.343.48.48,0,0,1,.04.431c-.066.091-.277.095-.426.1-.065,0-.135-.083-.2-.132a21.483,21.483,0,0,0-12.717-4.318,23.651,23.651,0,0,0-14.432,4.318,47.046,47.046,0,0,0-14.08,14.8c-.359.6-.653,1.247-.976,1.872-.115.222-.225.487-.542.336s-.2-.4-.092-.632a32.027,32.027,0,0,1,3.816-6.115,48.163,48.163,0,0,1,13.379-12.012A24.288,24.288,0,0,1,245.868,629.38Z" transform="translate(1294.984 548.558)" fill="#02dba8"/>
      <path id="Trazado_103050" data-name="Trazado 103050" d="M247.753,641.822c6.022.1,10.458,2.188,13.989,6.221.187.213.354.443.083.674-.3.255-.469-.042-.634-.23a16.8,16.8,0,0,0-10.385-5.758,15.42,15.42,0,0,0-11.548,2.785,43.911,43.911,0,0,0-10.3,10.039,25.68,25.68,0,0,0-3.59,7.66c-.2.656-.354,1.329-.572,1.979-.052.154-.283.247-.432.368-.082-.185-.271-.4-.231-.552a28.578,28.578,0,0,1,4.24-9.866,46.859,46.859,0,0,1,9.078-9.206,17.744,17.744,0,0,1,7.069-3.611C245.789,642.038,247.1,641.92,247.753,641.822Z" transform="translate(1291.74 543.629)" fill="#02dba8"/>
      <path id="Trazado_103051" data-name="Trazado 103051" d="M215.907,674.162a41.3,41.3,0,0,1,.848-10.442,42.99,42.99,0,0,1,2.594-8.331,31.642,31.642,0,0,1,6.188-8.977,53.18,53.18,0,0,1,8.53-7.312,26.867,26.867,0,0,1,6.381-3c.255-.092.533-.107.586.212a.564.564,0,0,1-.318.437c-6.222,1.947-10.826,6.171-15.2,10.737a31.891,31.891,0,0,0-8.059,16.389,42.052,42.052,0,0,0-.879,9.914c.027.671.09,1.34.137,2.01.007.1.053.21.02.29a6.177,6.177,0,0,1-.307.583c-.129-.166-.329-.316-.372-.5a6.732,6.732,0,0,1-.1-1.074C215.937,674.784,215.924,674.473,215.907,674.162Z" transform="translate(1295.015 545.919)" fill="#02dba8"/>
      <path id="Trazado_103052" data-name="Trazado 103052" d="M249.046,657.234a12.91,12.91,0,0,1,12.428,9.775c.081.3.348.742-.17.861-.48.11-.431-.4-.515-.677-1.282-4.23-3.852-7.281-8.139-8.629A11.864,11.864,0,0,0,241.982,660a38.6,38.6,0,0,0-8.942,8.211,18.222,18.222,0,0,0-3.724,9.426c-.045.407-.092.814-.159,1.217-.043.263-.037.64-.422.6s-.312-.4-.291-.673a22.124,22.124,0,0,1,1.71-7.125,18.566,18.566,0,0,1,3.464-5.271,47.4,47.4,0,0,1,7.62-6.785A12.822,12.822,0,0,1,249.046,657.234Z" transform="translate(1290.037 537.525)" fill="#02dba8"/>
      <path id="Trazado_103053" data-name="Trazado 103053" d="M255.962,648.081a14.015,14.015,0,0,1,11.4,6.064,23.47,23.47,0,0,1,3.5,7.9c.575,2.045,1.219,4.078,1.978,6.061a9.027,9.027,0,0,0,3.834,4.536c.228.14.5.292.274.606s-.458.088-.683-.046a10.412,10.412,0,0,1-4.539-5.912c-.755-2.247-1.377-4.54-2.069-6.809a17.12,17.12,0,0,0-5.437-8.643,12.167,12.167,0,0,0-11.077-2.65,15.822,15.822,0,0,0-5.731,2.946c-1.171.894-2.3,1.836-3.454,2.758-.1.082-.19.218-.3.242a2.025,2.025,0,0,1-.52-.021c.027-.172-.009-.41.091-.505a19.487,19.487,0,0,1,1.661-1.457,30.228,30.228,0,0,1,5.852-3.854A12.593,12.593,0,0,1,255.962,648.081Z" transform="translate(1284.21 541.149)" fill="#02dba8"/>
      <path id="Trazado_103054" data-name="Trazado 103054" d="M228.394,697.13a1.124,1.124,0,0,1-.026-.437,2.847,2.847,0,0,1,.329-.524,3.169,3.169,0,0,1,.382.472c.056.1.015.257.023.388a22.017,22.017,0,0,0,1.27,6.533,14.355,14.355,0,0,0,7.927,8.421,13.081,13.081,0,0,0,8.279.725,41.123,41.123,0,0,1,9.553-1.04,20.638,20.638,0,0,1,8.349,1.787.994.994,0,0,1,.338.19.427.427,0,0,1,.116.339.378.378,0,0,1-.3.193,1.423,1.423,0,0,1-.567-.126c-3.759-1.745-7.742-1.872-11.757-1.513-1.967.176-3.916.583-5.864.937a14.737,14.737,0,0,1-16.936-10.227,24.5,24.5,0,0,1-.774-3.042c-.192-1.011-.266-2.045-.392-3.069Z" transform="translate(1290.067 522.099)" fill="#02dba8"/>
      <path id="Trazado_103055" data-name="Trazado 103055" d="M251.212,644.977a15.213,15.213,0,0,1,10.812,4.889,6.128,6.128,0,0,1,.63.685c.08.114.033.316.044.478a1.312,1.312,0,0,1-.525-.013c-.166-.079-.28-.268-.414-.411a14.686,14.686,0,0,0-11.467-4.91,13.244,13.244,0,0,0-7.607,2.6,38.128,38.128,0,0,0-10.494,10.766c-.477.783-.969,1.559-1.487,2.315-.1.144-.4.3-.53.242-.3-.125-.188-.391-.056-.621a40.46,40.46,0,0,1,12.5-13.52A14.644,14.644,0,0,1,251.212,644.977Z" transform="translate(1289.419 542.379)" fill="#02dba8"/>
      <path id="Trazado_103056" data-name="Trazado 103056" d="M232.18,681.821q.151,1.711.3,3.422a.91.91,0,0,1,.027.339,2.875,2.875,0,0,1-.256.459c-.128-.123-.345-.23-.368-.37a23.43,23.43,0,0,1-.354-2.625,19.131,19.131,0,0,1,5.721-15.284,46.787,46.787,0,0,1,6.643-5.593,11.011,11.011,0,0,1,8.517-1.531c.149.027.259.261.387.4-.18.09-.365.266-.539.257-.865-.047-1.727-.21-2.589-.208a9.6,9.6,0,0,0-5.611,1.822,41.041,41.041,0,0,0-7.719,6.957A17.922,17.922,0,0,0,232.18,681.821Z" transform="translate(1288.82 536.273)" fill="#02dba8"/>
      <path id="Trazado_103057" data-name="Trazado 103057" d="M253.426,632.454a23.145,23.145,0,0,1,15.985,6.583c.213.2.585.451.294.765-.33.356-.578-.051-.8-.259a22.055,22.055,0,0,0-17.485-6.265,21.5,21.5,0,0,0-11.555,4.633c-.857.659-1.683,1.356-2.526,2.034a1.383,1.383,0,0,1-.4.278c-.134.041-.362.039-.431-.044s-.027-.3.01-.44c.021-.083.121-.152.2-.213a38.905,38.905,0,0,1,5.439-4.02A22.713,22.713,0,0,1,253.426,632.454Z" transform="translate(1286.849 547.34)" fill="#02dba8"/>
      <path id="Trazado_103058" data-name="Trazado 103058" d="M247.356,620.129c.524,0,1.049-.007,1.573,0,.24,0,.542-.022.524.348-.018.354-.307.329-.553.319a18.66,18.66,0,0,0-5.078.42,24.773,24.773,0,0,0-8.466,4.028,58.448,58.448,0,0,0-9.2,8.474c-1.867,2.02-3.817,3.965-5.732,5.943-.091.094-.182.22-.295.251a.531.531,0,0,1-.429-.042c-.078-.074-.059-.28-.035-.421.014-.083.117-.152.185-.223q3.884-4.071,7.771-8.14a45.509,45.509,0,0,1,9.486-7.829,21.048,21.048,0,0,1,8.289-3.031c.649-.077,1.306-.088,1.96-.13Z" transform="translate(1293.516 552.235)" fill="#02dba8"/>
      <path id="Trazado_103059" data-name="Trazado 103059" d="M259.608,666.6a7.187,7.187,0,0,1,7.231,5.511c.781,2.671,1.493,5.365,2.389,8a23.2,23.2,0,0,0,5.951,9.538c.522.5,1.1.929,1.621,1.429.141.136.271.484.2.6-.175.277-.418.083-.62-.074a22.824,22.824,0,0,1-6.988-9.159,73.308,73.308,0,0,1-3.159-9.808,9.233,9.233,0,0,0-.947-2.252,6.554,6.554,0,0,0-8.168-2.566,4.015,4.015,0,0,1-.778.292c-.144.03-.316-.075-.476-.12.076-.16.108-.39.234-.469a6.223,6.223,0,0,1,3.07-.923C259.313,666.6,259.461,666.6,259.608,666.6Z" transform="translate(1279.167 533.813)" fill="#02dba8"/>
      <path id="Trazado_103060" data-name="Trazado 103060" d="M262.437,714.375c-.84-.157-1.544-.315-2.256-.416a29.908,29.908,0,0,0-8.375.149c-1.784.248-3.555.583-5.34.82a11.6,11.6,0,0,1-7.666-1.711,13.509,13.509,0,0,1-6.138-8.607c-.034-.131.115-.31.178-.466.161.1.414.157.469.3.339.85.564,1.751.954,2.575a12.071,12.071,0,0,0,9.219,7.176,13.73,13.73,0,0,0,4.974-.295,39.743,39.743,0,0,1,9.722-.8,40.926,40.926,0,0,1,4.123.593c.159.026.286.248.428.379Z" transform="translate(1288.36 518.939)" fill="#02dba8"/>
      <path id="Trazado_103061" data-name="Trazado 103061" d="M255.787,688.11a23.672,23.672,0,0,1-1.557,7,3.337,3.337,0,0,1-4.8,1.842,3.944,3.944,0,0,1-1.805-2.483,11.338,11.338,0,0,1,.584-8.461,4.439,4.439,0,0,1,2.868-2.5,3.587,3.587,0,0,1,4.465,2.788A15.412,15.412,0,0,1,255.787,688.11Zm-.624.312c-.142-.843-.194-1.485-.365-2.094a2.8,2.8,0,0,0-2.132-2.151,2.883,2.883,0,0,0-2.967.976,7.207,7.207,0,0,0-1.174,1.906,10.62,10.62,0,0,0-.428,6.366,8.2,8.2,0,0,0,.774,2,2.311,2.311,0,0,0,1.472,1.149,2.664,2.664,0,0,0,3.133-1.505,9.367,9.367,0,0,0,.673-1.99C254.528,691.472,254.854,689.856,255.163,688.422Z" transform="translate(1282.645 527.164)" fill="#02dba8"/>
      <path id="Trazado_103062" data-name="Trazado 103062" d="M244.858,690.071a9.2,9.2,0,0,0,1.048,5.22,4.336,4.336,0,0,0,4.246,2.391,4.253,4.253,0,0,0,3.932-2.882c.6-1.656.979-3.392,1.418-5.1a9.32,9.32,0,0,0,.2-3.562,5.222,5.222,0,0,0-2.662-4.23c-.234-.128-.463-.318-.267-.566a.673.673,0,0,1,.626-.041,5.808,5.808,0,0,1,2.991,4.637,10.22,10.22,0,0,1-.2,3.857A47.053,47.053,0,0,1,254.78,695a4.973,4.973,0,0,1-4.74,3.391,4.892,4.892,0,0,1-4.834-2.921,8.525,8.525,0,0,1-.88-2.689c-.185-1.4-.152-2.837-.2-4.259a.956.956,0,0,1,.074-.48c.075-.135.242-.22.368-.327.1.131.272.258.278.393C244.874,688.76,244.858,689.416,244.858,690.071Z" transform="translate(1283.818 528.012)" fill="#02dba8"/>
      <path id="Trazado_103063" data-name="Trazado 103063" d="M257.532,704.106a58.342,58.342,0,0,0-8.38,1.02,8.781,8.781,0,0,1-9.568-4.452,12.47,12.47,0,0,1-1.574-5.07,23.333,23.333,0,0,1,.387-5.911c.011-.08.011-.187.061-.233a5.2,5.2,0,0,1,.455-.342c.075.161.229.33.214.482-.071.684-.187,1.362-.292,2.042a13.049,13.049,0,0,0,.947,7.879,8.262,8.262,0,0,0,6.381,4.988,10.386,10.386,0,0,0,3.8-.276,47.04,47.04,0,0,1,8.741-.859,1.36,1.36,0,0,1,.536.028,2.266,2.266,0,0,1,.482.373c-.157.111-.309.306-.473.318C258.681,704.131,258.105,704.107,257.532,704.106Z" transform="translate(1286.269 524.892)" fill="#02dba8"/>
      <path id="Trazado_103064" data-name="Trazado 103064" d="M253.693,671.577c-.5.045-1.019.1-1.542.138-.262.019-.619.159-.687-.243s.295-.4.563-.444a10.934,10.934,0,0,1,10.98,4.886,17.626,17.626,0,0,1,1.575,3.419,55.744,55.744,0,0,0,2.56,6.584,24.463,24.463,0,0,0,5.471,7.256c.223.2.654.414.335.78-.34.391-.578-.059-.791-.25a24.233,24.233,0,0,1-6.287-8.978c-.745-1.832-1.409-3.7-2.057-5.569a10.589,10.589,0,0,0-7.52-7.238,8.758,8.758,0,0,0-1.2-.233C254.636,671.627,254.177,671.612,253.693,671.577Z" transform="translate(1280.913 532.12)" fill="#02dba8"/>
      <path id="Trazado_103065" data-name="Trazado 103065" d="M266.86,639.436a15.569,15.569,0,0,1,9.992,3.792,23.415,23.415,0,0,1,7.669,11.637c.438,1.406.812,2.831,1.218,4.247.074.258.185.546-.17.658s-.429-.2-.506-.452c-.635-2.046-1.153-4.138-1.921-6.134a20.928,20.928,0,0,0-10.857-11.932,13.086,13.086,0,0,0-4.773-1.017c-.522-.036-1.048-.047-1.566-.117-.144-.019-.264-.21-.395-.323.125-.119.237-.317.378-.342A5.431,5.431,0,0,1,266.86,639.436Z" transform="translate(1275.329 544.579)" fill="#02dba8"/>
      <path id="Trazado_103066" data-name="Trazado 103066" d="M243.213,720.124a16.742,16.742,0,0,1-15.635-10.775c-.126-.338-.28-.667-.372-1.013-.069-.259-.441-.6.027-.793.486-.2.489.274.607.552.367.856.665,1.75,1.106,2.566a15.832,15.832,0,0,0,12.745,8.707,17.341,17.341,0,0,0,5.6-.49c1.12-.238,2.259-.38,3.392-.551.248-.037.576-.109.61.284.033.37-.275.371-.539.415-1.807.3-3.61.635-5.421.911C244.5,720.066,243.64,720.088,243.213,720.124Z" transform="translate(1290.601 517.612)" fill="#02dba8"/>
      <path id="Trazado_103067" data-name="Trazado 103067" d="M244.77,618.3a1.844,1.844,0,0,1-.485.284,22.009,22.009,0,0,0-4.714,1.8,39.648,39.648,0,0,0-9.985,7.479c-1.979,1.979-3.836,4.08-5.759,6.115-.2.211-.411.67-.778.348-.4-.35.047-.615.258-.837,2.42-2.533,4.773-5.136,7.3-7.559a33.658,33.658,0,0,1,10.431-6.986c1.01-.417,2.071-.71,3.112-1.049C244.417,617.81,244.679,617.807,244.77,618.3Z" transform="translate(1292.23 553.124)" fill="#02dba8"/>
      <path id="Trazado_103068" data-name="Trazado 103068" d="M213.324,670.233c.537-2.238,1.021-4.462,1.606-6.658,1.756-6.6,5.58-11.887,10.515-16.461.182-.169.389-.435.658-.139.248.272.028.476-.165.665a54.46,54.46,0,0,0-5.2,5.695,31.251,31.251,0,0,0-5.456,11.61c-.443,1.776-.753,3.586-1.151,5.375-.036.162-.277.278-.423.415Z" transform="translate(1296.019 541.64)" fill="#02dba8"/>
      <path id="Trazado_103069" data-name="Trazado 103069" d="M261.985,624.338l-4.256-.391a16.284,16.284,0,0,0-9.146,1.927,35.266,35.266,0,0,0-6.25,4.239c-.221.184-.484.562-.78.219-.315-.365.107-.572.338-.771a30.154,30.154,0,0,1,8.986-5.447,16.755,16.755,0,0,1,7.839-.82c1.123.119,2.246.233,3.369.352a.547.547,0,0,1,.283.064,2.781,2.781,0,0,1,.311.381,2.856,2.856,0,0,1-.405.267c-.08.036-.193,0-.291-.007Z" transform="translate(1284.88 551.021)" fill="#02dba8"/>
      <path id="Trazado_103070" data-name="Trazado 103070" d="M250.656,729.1c.469.066.842.115,1.214.172a16.258,16.258,0,0,0,5.407-.437,33.074,33.074,0,0,1,8.994-.549,15.66,15.66,0,0,1,4.532,1.028,1.172,1.172,0,0,1,.391.2c.089.09.186.285.145.365a.579.579,0,0,1-.371.235.729.729,0,0,1-.375-.094,18.143,18.143,0,0,0-8.552-1.052c-2.278.2-4.535.627-6.8.948a12.3,12.3,0,0,1-4.2-.047,1.02,1.02,0,0,1-.419-.121.528.528,0,0,1-.2-.382C250.422,729.25,250.6,729.157,250.656,729.1Z" transform="translate(1281.327 509.418)" fill="#02dba8"/>
      <path id="Trazado_103071" data-name="Trazado 103071" d="M248.514,734.221a16.42,16.42,0,0,1-9.764-3.07c-.374-.265-.782-.487-1.133-.778a.639.639,0,0,1-.215-.542c.136-.308.394-.17.617-.029a31.9,31.9,0,0,0,3.249,2.019,17.1,17.1,0,0,0,10.864,1.432c1.316-.258,2.653-.414,3.984-.584a.628.628,0,0,1,.529.253c.116.285-.141.383-.389.421-1.926.293-3.848.61-5.778.865A15.1,15.1,0,0,1,248.514,734.221Z" transform="translate(1286.486 508.836)" fill="#02dba8"/>
      <path id="Trazado_103072" data-name="Trazado 103072" d="M285.449,656.354a8.165,8.165,0,0,1,.54.627,26.732,26.732,0,0,1,3.5,8.329c.419,1.6.922,3.174,1.48,4.726a8.246,8.246,0,0,0,2.744,3.877c.108.083.124.287.182.435-.185.042-.388.151-.553.109a1.464,1.464,0,0,1-.517-.357,8.051,8.051,0,0,1-2.365-3.447c-.674-1.928-1.307-3.875-1.854-5.842a26.379,26.379,0,0,0-3.234-7.495c-.071-.109-.187-.234-.176-.341A2.631,2.631,0,0,1,285.449,656.354Z" transform="translate(1267.547 537.872)" fill="#02dba8"/>
      <path id="Trazado_103073" data-name="Trazado 103073" d="M261.552,716.489a40.766,40.766,0,0,0-8.915.945,10.547,10.547,0,0,1-7.352-.867.947.947,0,0,1-.33-.2c-.075-.1-.145-.3-.095-.378a.652.652,0,0,1,.388-.2c.078-.018.184.056.27.1a10.157,10.157,0,0,0,7.068.832,42.172,42.172,0,0,1,11.374-.941c.065,0,.149-.02.193.012.168.121.325.259.486.391-.162.1-.321.29-.486.3C263.288,716.505,262.42,716.489,261.552,716.489Z" transform="translate(1283.532 514.356)" fill="#02dba8"/>
      <path id="Trazado_103074" data-name="Trazado 103074" d="M200.092,621h-.585V609.552h11.528l.027.551H200.092Z" transform="translate(1301.493 556.414)" fill="#02dba8" stroke="#02dba8" stroke-width="1"/>
      <path id="Trazado_103075" data-name="Trazado 103075" d="M200.074,743.035h10.963l.039.549H199.531V732.1h.543Z" transform="translate(1301.484 507.863)" fill="#02dba8" stroke="#02dba8" stroke-width="1"/>
      <path id="Trazado_103076" data-name="Trazado 103076" d="M217.163,705.795a2.143,2.143,0,0,1,.266.493c.212.891.393,1.79.6,2.682a24.423,24.423,0,0,0,2.985,7.064,26.165,26.165,0,0,0,4.173,5.253c.082.08.158.167.244.242.2.176.289.361.061.577s-.409.094-.586-.086c-.252-.258-.515-.5-.764-.763a27.241,27.241,0,0,1-7.226-13.966,7.349,7.349,0,0,1-.182-1.01c-.008-.157.146-.322.226-.484Z" transform="translate(1294.669 518.285)" fill="#02dba8"/>
      <path id="Trazado_103077" data-name="Trazado 103077" d="M306.21,620.994h-.559V610.12H294.726v-.578H306.21Z" transform="translate(1263.771 556.417)" fill="#02dba8" stroke="#02dba8" stroke-width="1"/>
      <path id="Trazado_103078" data-name="Trazado 103078" d="M306.2,743.582h-11.5v-.55h10.913V732.1l.583-.032Z" transform="translate(1263.778 507.879)" fill="#02dba8" stroke="#02dba8" stroke-width="1"/>
      <path id="Trazado_103079" data-name="Trazado 103079" d="M278.149,677.376c-.064.091-.129.28-.223.3a.547.547,0,0,1-.414-.148,1.065,1.065,0,0,1-.2-.442c-.688-2.321-1.409-4.631-2.046-6.966a10.842,10.842,0,0,0-5.383-7.213,2.465,2.465,0,0,1-.558-.3.491.491,0,0,1-.121-.443.462.462,0,0,1,.433-.148,15.08,15.08,0,0,1,1.873,1.063,11.689,11.689,0,0,1,4.416,6.764c.652,2.365,1.386,4.707,2.084,7.059C278.052,677.038,278.092,677.179,278.149,677.376Z" transform="translate(1273.889 535.637)" fill="#02dba8"/>
      <path id="Trazado_103080" data-name="Trazado 103080" d="M282.778,676.325c.074-.077.2-.284.274-.27a.613.613,0,0,1,.42.29c.144.4.216.822.322,1.234a41.991,41.991,0,0,0,2.122,6.43,15.608,15.608,0,0,0,6.111,7.128c.247.156.724.281.431.709-.265.385-.556.021-.8-.127a16.125,16.125,0,0,1-6.866-8.64c-.745-2.112-1.31-4.287-1.954-6.434C282.817,676.566,282.808,676.484,282.778,676.325Z" transform="translate(1268.504 530.067)" fill="#02dba8"/>
      <path id="Trazado_103081" data-name="Trazado 103081" d="M251.767,729.473a5.668,5.668,0,0,1-.781.261c-5.837,1.042-10.725-.835-14.908-4.866a4.127,4.127,0,0,1-.638-.675c-.088-.135-.022-.371-.025-.56.173.024.4-.014.508.081.519.449,1,.945,1.507,1.406a15.406,15.406,0,0,0,10.753,4.194,14.593,14.593,0,0,0,2.34-.231A1.162,1.162,0,0,1,251.767,729.473Z" transform="translate(1287.276 511.219)" fill="#02dba8"/>
      <path id="Trazado_103082" data-name="Trazado 103082" d="M288.129,654.8a5.193,5.193,0,0,1,.438.5,26.526,26.526,0,0,1,3.395,7.637c.507,1.761,1.021,3.522,1.6,5.259a17.089,17.089,0,0,0,1.018,2.17c.128.257.327.518-.016.716-.326.187-.453-.108-.588-.338a27.386,27.386,0,0,1-2.477-6.807,27.277,27.277,0,0,0-3.6-8.4.979.979,0,0,1-.109-.533C287.785,654.953,287.96,654.9,288.129,654.8Z" transform="translate(1266.521 538.487)" fill="#02dba8"/>
      <path id="Trazado_103083" data-name="Trazado 103083" d="M282.694,715.3c-.258.1-.439.232-.592.205a2.236,2.236,0,0,1-.667-.3,32.149,32.149,0,0,1-9.119-7.969c-.732-.9-1.351-1.889-2.016-2.842-.155-.222-.312-.511.033-.652.132-.054.463.12.561.278a32.942,32.942,0,0,0,5.572,6.646,26.075,26.075,0,0,0,4.959,3.682c.3.17.6.343.882.534A2.971,2.971,0,0,1,282.694,715.3Z" transform="translate(1273.516 519.104)" fill="#02dba8"/>
      <path id="Trazado_103084" data-name="Trazado 103084" d="M225.231,689.406A25.591,25.591,0,0,1,226.862,680a11.853,11.853,0,0,1,.7-1.459c.071-.126.3-.164.455-.242.046.171.174.37.126.508-.21.6-.479,1.182-.711,1.777a22.3,22.3,0,0,0-1.283,11.1c.123.958.29,1.909.4,2.868a.579.579,0,0,1-.23.482c-.281.13-.4-.089-.443-.35-.123-.693-.3-1.38-.373-2.078C225.369,691.358,225.288,690.1,225.231,689.406Z" transform="translate(1291.302 529.178)" fill="#02dba8"/>
      <path id="Trazado_103085" data-name="Trazado 103085" d="M221.94,690.579a51.741,51.741,0,0,1,.913-7.766.349.349,0,0,1,.037-.141c.117-.15.242-.293.364-.44.105.193.316.4.3.576-.081.764-.234,1.52-.356,2.279a33.877,33.877,0,0,0,.252,12.309c.02.1.074.217.037.286a3.056,3.056,0,0,1-.325.42c-.123-.105-.326-.191-.356-.318a14.817,14.817,0,0,1-.36-1.879C222.254,694.132,222.1,692.354,221.94,690.579Z" transform="translate(1292.606 527.619)" fill="#02dba8"/>
      <path id="Trazado_103086" data-name="Trazado 103086" d="M261.146,626.937c-.692.06-1.588.143-2.485.214-.249.02-.575.124-.617-.272s.3-.364.548-.4a26.123,26.123,0,0,1,11.766,1.2c.853.283,1.683.629,2.519.962a.837.837,0,0,1,.373.295.354.354,0,0,1-.029.342.551.551,0,0,1-.424.072c-.571-.2-1.132-.427-1.7-.648A26.919,26.919,0,0,0,261.146,626.937Z" transform="translate(1278.304 549.791)" fill="#02dba8"/>
      <path id="Trazado_103087" data-name="Trazado 103087" d="M240.293,619.664a2.815,2.815,0,0,1-.406.372c-.745.475-1.511.916-2.249,1.4a48.491,48.491,0,0,0-7.366,6.17,1.661,1.661,0,0,1-.394.364,1.586,1.586,0,0,1-.521.052,5.027,5.027,0,0,1,.046-.557c.013-.066.109-.117.165-.176a47.419,47.419,0,0,1,9.946-7.865C239.931,619.176,240.274,619.243,240.293,619.664Z" transform="translate(1289.667 552.56)" fill="#02dba8"/>
      <path id="Trazado_103088" data-name="Trazado 103088" d="M224.745,710.767a2.221,2.221,0,0,1,.285.475,22.75,22.75,0,0,0,6,9.529,1.611,1.611,0,0,1,.373.385c.065.133.087.382.008.463s-.31.048-.47.031c-.066-.007-.124-.1-.184-.155a23.072,23.072,0,0,1-6.417-10.115C224.222,710.988,224.328,710.757,224.745,710.767Z" transform="translate(1291.672 516.315)" fill="#02dba8"/>
      <path id="Trazado_103089" data-name="Trazado 103089" d="M221.388,712.433c.052-.072.1-.211.2-.257a.331.331,0,0,1,.306.069,2.144,2.144,0,0,1,.335.531c.5,1.155.944,2.339,1.5,3.468a22.259,22.259,0,0,0,4.2,5.776c.168.171.479.346.168.637-.281.263-.5.074-.706-.142a24.922,24.922,0,0,1-5.918-9.787C221.444,712.651,221.425,712.571,221.388,712.433Z" transform="translate(1292.825 515.763)" fill="#02dba8"/>
      <path id="Trazado_103090" data-name="Trazado 103090" d="M261.8,651.787l-2.1.215c-.266.027-.6.163-.656-.264-.054-.385.264-.382.521-.427a14.017,14.017,0,0,1,10.016,2.186,1.258,1.258,0,0,1,.413.34c.08.124.133.365.066.455a.477.477,0,0,1-.453.091c-.367-.176-.7-.414-1.054-.624A13.381,13.381,0,0,0,261.8,651.787Z" transform="translate(1277.907 539.949)" fill="#02dba8"/>
      <path id="Trazado_103091" data-name="Trazado 103091" d="M278.42,707.665c-.1.132-.165.29-.261.314a.562.562,0,0,1-.437-.063c-.376-.315-.728-.659-1.08-1a28.289,28.289,0,0,1-5.4-7.262c-.115-.222-.279-.456.018-.641.33-.205.476.067.6.3a28.009,28.009,0,0,0,6.166,7.9A4.834,4.834,0,0,1,278.42,707.665Z" transform="translate(1273.134 521.001)" fill="#02dba8"/>
      <path id="Trazado_103092" data-name="Trazado 103092" d="M273,694.891a2.253,2.253,0,0,1,.392.438c.285.533.524,1.09.8,1.627a25.892,25.892,0,0,0,4.776,6.381,1.562,1.562,0,0,1,.3.326,1.645,1.645,0,0,1,.1.419,1.421,1.421,0,0,1-.525.1c-.138-.028-.253-.194-.37-.308a24.724,24.724,0,0,1-4.777-6.436c-.336-.655-.69-1.3-1.016-1.959C272.562,695.242,272.541,694.992,273,694.891Z" transform="translate(1272.533 522.605)" fill="#02dba8"/>
      <path id="Trazado_103093" data-name="Trazado 103093" d="M275.024,732.817c-.206-.048-.319-.067-.427-.1a20.322,20.322,0,0,0-7.969-.587c-.635.052-1.265.153-1.9.229-.249.03-.533.066-.59-.266s.219-.387.47-.432a24.544,24.544,0,0,1,6.989-.211,33.381,33.381,0,0,1,3.358.646.575.575,0,0,1,.328.392C275.3,732.583,275.1,732.724,275.024,732.817Z" transform="translate(1275.891 508.184)" fill="#02dba8"/>
      <path id="Trazado_103094" data-name="Trazado 103094" d="M272.409,725.117a18.682,18.682,0,0,1,7.355,1.495c.224.1.533.185.351.5a.588.588,0,0,1-.55.158,20.3,20.3,0,0,0-8.691-1.451,2.856,2.856,0,0,1-.732-.034c-.154-.042-.271-.221-.4-.339.139-.109.274-.307.417-.313C270.905,725.1,271.658,725.117,272.409,725.117Z" transform="translate(1273.67 510.633)" fill="#02dba8"/>
      <path id="Trazado_103095" data-name="Trazado 103095" d="M233.036,729.737a4.13,4.13,0,0,1,.416.293,20.913,20.913,0,0,0,7.5,4.521c.181.06.437.336.415.472-.057.345-.348.28-.624.193a21.175,21.175,0,0,1-7.864-4.758.771.771,0,0,1-.2-.484C232.676,729.908,232.894,729.826,233.036,729.737Z" transform="translate(1288.351 508.801)" fill="#02dba8"/>
      <path id="Trazado_103096" data-name="Trazado 103096" d="M251.589,680.245a8.892,8.892,0,0,1,1.117.138c.15.037.258.243.385.371-.158.109-.313.3-.474.311a18.245,18.245,0,0,0-1.905-.016,5.414,5.414,0,0,0-4.043,3.1,4.09,4.09,0,0,1-.335.6c-.073.091-.29.178-.362.135a.671.671,0,0,1-.218-.383.47.47,0,0,1,.074-.28A6.269,6.269,0,0,1,251.589,680.245Z" transform="translate(1283.174 528.407)" fill="#02dba8"/>
      <path id="Trazado_103097" data-name="Trazado 103097" d="M267.942,737.6c.682,0,1.274-.03,1.86.018.185.015.352.238.528.366-.178.106-.351.3-.534.306-1.6.088-3.2.112-4.8.225-.8.056-1.58.264-2.37.394-.258.043-.592.106-.6-.269,0-.141.278-.379.463-.419A23.055,23.055,0,0,1,267.942,737.6Z" transform="translate(1276.727 505.688)" fill="#02dba8"/>
      <path id="Trazado_103098" data-name="Trazado 103098" d="M283.888,689.865c.075-.094.142-.256.248-.288a.432.432,0,0,1,.367.117,2.332,2.332,0,0,1,.335.537,19.631,19.631,0,0,0,3.523,5.289c.117.116.077.389.109.589-.183-.023-.437.022-.538-.082a20.817,20.817,0,0,1-3.872-5.7C284,690.2,283.958,690.055,283.888,689.865Z" transform="translate(1268.064 524.714)" fill="#02dba8"/>
      <path id="Trazado_103099" data-name="Trazado 103099" d="M252.617,739.727c-.969-.123-2.247-.284-3.525-.45a.715.715,0,0,1-.37-.112,2.084,2.084,0,0,1-.288-.431c.155-.081.321-.246.465-.229.551.062,1.092.24,1.642.269,1.4.072,2.8.083,4.2.13a.915.915,0,0,1,.537.135c.214.186.045.495-.287.524C254.31,739.621,253.625,739.659,252.617,739.727Z" transform="translate(1282.11 505.327)" fill="#02dba8"/>
      <path id="Trazado_103100" data-name="Trazado 103100" d="M288.828,717.621c.018.3-.272.452-.6.284a15.58,15.58,0,0,1-1.582-.883c-.935-.627-1.842-1.3-2.756-1.955-.188-.135-.392-.291-.2-.56s.4-.184.636-.031q2.119,1.412,4.247,2.808a2.759,2.759,0,0,0,.407.185Z" transform="translate(1268.173 514.903)" fill="#02dba8"/>
      <path id="Trazado_103101" data-name="Trazado 103101" d="M290.318,714.75c-.249.126-.4.26-.545.259a.992.992,0,0,1-.493-.2q-2.04-1.36-4.069-2.736a.2.2,0,0,1-.037-.032c-.192-.211-.528-.434-.277-.733.267-.318.523.019.753.173q2.1,1.407,4.186,2.822A5.276,5.276,0,0,1,290.318,714.75Z" transform="translate(1267.7 516.151)" fill="#02dba8"/>
      <path id="Trazado_103102" data-name="Trazado 103102" d="M261.612,669.359a6.888,6.888,0,0,1,4.284,1.982c.234.229.441.483.663.724.172.187.3.423.024.566a.6.6,0,0,1-.557-.138,6.4,6.4,0,0,0-2.513-1.912c-.569-.229-1.193-.318-1.78-.508a2.294,2.294,0,0,1-.542-.374Z" transform="translate(1277.057 532.72)" fill="#02dba8"/>
      <path id="Trazado_103103" data-name="Trazado 103103" d="M237.922,737.392c.178.07.316.117.448.178q1.8.83,3.6,1.664c.246.114.435.261.307.563-.115.273-.328.286-.569.17q-1.855-.891-3.709-1.785a.652.652,0,0,1-.272-.2.474.474,0,0,1-.072-.349C237.689,737.535,237.828,737.472,237.922,737.392Z" transform="translate(1286.384 505.768)" fill="#02dba8"/>
      <path id="Trazado_103104" data-name="Trazado 103104" d="M275.993,735.5c-.7-.105-1.28-.228-1.864-.271-.847-.061-1.7-.067-2.548-.089-.262-.007-.554-.033-.522-.35.013-.133.323-.346.487-.336q2.171.134,4.337.357c.141.014.3.247.365.412C276.271,735.287,276.046,735.445,275.993,735.5Z" transform="translate(1273.148 506.932)" fill="#02dba8"/>
      <path id="Trazado_103105" data-name="Trazado 103105" d="M293.388,688.045a3.532,3.532,0,0,1,.342.249c.9.854,1.807,1.707,2.692,2.578.11.107.117.32.171.484-.2.014-.494.122-.6.026-.96-.862-1.893-1.755-2.817-2.656a.552.552,0,0,1-.08-.438C293.115,688.2,293.275,688.133,293.388,688.045Z" transform="translate(1264.421 525.317)" fill="#02dba8"/>
      <path id="Trazado_103106" data-name="Trazado 103106" d="M291.534,708.1c.149.068.257.106.354.162q1.1.65,2.2,1.3c.216.129.463.278.3.573-.184.332-.444.164-.674.028-.762-.448-1.529-.888-2.277-1.359a.579.579,0,0,1-.19-.443C291.244,708.274,291.432,708.186,291.534,708.1Z" transform="translate(1265.151 517.373)" fill="#02dba8"/>
      <path id="Trazado_103107" data-name="Trazado 103107" d="M293.109,712.9c-.059.335-.229.511-.514.354q-1.2-.66-2.353-1.391c-.1-.066-.1-.3-.149-.459.171-.037.39-.161.507-.1.786.428,1.553.891,2.32,1.353C293.007,712.715,293.055,712.832,293.109,712.9Z" transform="translate(1265.606 516.107)" fill="#02dba8"/>
      <path id="Trazado_103108" data-name="Trazado 103108" d="M234.372,735.031c-.061.094-.111.252-.181.262a.732.732,0,0,1-.487-.059c-.54-.393-1.055-.818-1.578-1.232a1.814,1.814,0,0,1-.374-.311c-.078-.108-.147-.363-.109-.389.141-.1.4-.224.487-.162.72.531,1.413,1.1,2.11,1.662A.835.835,0,0,1,234.372,735.031Z" transform="translate(1288.767 507.458)" fill="#02dba8"/>
      <path id="Trazado_103109" data-name="Trazado 103109" d="M271.1,709.779c-.067.083-.123.222-.206.24-.127.028-.337.024-.4-.055-.516-.652-1.02-1.314-1.49-2-.069-.1.062-.338.1-.512.144.036.349.023.421.115.5.642.982,1.3,1.464,1.964A1.39,1.39,0,0,1,271.1,709.779Z" transform="translate(1273.969 517.628)" fill="#02dba8"/>
      <path id="Trazado_103110" data-name="Trazado 103110" d="M296.086,703.864c-.207.068-.418.21-.5.156-.646-.406-1.274-.841-1.886-1.3-.073-.054-.057-.307,0-.428.029-.06.283-.089.371-.032.6.388,1.184.8,1.766,1.213C295.917,703.537,295.956,703.66,296.086,703.864Z" transform="translate(1264.199 519.696)" fill="#02dba8"/>
      <path id="Trazado_103111" data-name="Trazado 103111" d="M267.187,709.815c.367.025.878.729.755.972a.6.6,0,0,1-.359.205,6.775,6.775,0,0,1-.649-.9C266.915,710.053,267.123,709.883,267.187,709.815Z" transform="translate(1274.781 516.693)" fill="#02dba8"/>
      <path id="Trazado_103112" data-name="Trazado 103112" d="M252.573,687.409a10.8,10.8,0,0,0-.833,1.225,7.8,7.8,0,0,0-.742,4.4,13.707,13.707,0,0,0,.434,2.155c.115.422.338.879.865.887s.772-.445.877-.87c.426-1.727.818-3.464,1.2-5.2.093-.429.06-.883.133-1.318.027-.158.193-.293.3-.438.121.145.35.293.345.435a14.167,14.167,0,0,1-.188,2.389c-.3,1.44-.691,2.861-1.06,4.286a2.392,2.392,0,0,1-.3.668,1.447,1.447,0,0,1-2.592-.069,6.9,6.9,0,0,1-.708-2.836,9.276,9.276,0,0,1,.664-4.511,6.989,6.989,0,0,1,.99-1.506.884.884,0,0,1,1.037-.376,1.006,1.006,0,0,1,.578,1.005,6.18,6.18,0,0,1-.1,1.122c-.205,1.31-.425,2.617-.639,3.925-.016.1,0,.225-.059.283a2.941,2.941,0,0,1-.416.306c-.079-.139-.239-.286-.225-.414.086-.765.206-1.525.325-2.285.127-.808.279-1.613.394-2.423a4.043,4.043,0,0,0-.03-.747Z" transform="translate(1281.39 525.862)" fill="#02dba8"/>
    </g>
  </g>
</svg>
