<svg xmlns="http://www.w3.org/2000/svg" width="124" height="124" viewBox="0 0 124 124">
  <g id="Grupo_55236" data-name="Grupo 55236" transform="translate(-1200 -864)">
    <circle id="Elipse_4253" data-name="Elipse 4253" cx="62" cy="62" r="62" transform="translate(1200 864)" fill="#fff"/>
    <g id="Grupo_55229" data-name="Grupo 55229" transform="translate(349.667 804.482)">
      <path id="Trazado_103029" data-name="Trazado 103029" d="M909.969,76.518h5.305a4.792,4.792,0,0,0,.683.145,42.635,42.635,0,0,1,17.922,5.17c12.757,7.041,20.557,17.745,23.3,32.078.33,1.724.48,3.483.713,5.226v5.305a6.024,6.024,0,0,0-.15.763,41.956,41.956,0,0,1-5.171,17.839c-8.337,14.838-21.063,22.886-38.056,23.95a40.9,40.9,0,0,1-21-4.191c-16.137-8.025-24.908-21.12-26.089-39.1a41.767,41.767,0,0,1,5.309-23.3c7.05-12.713,17.767-20.479,32.085-23.182C906.519,76.9,908.251,76.748,909.969,76.518ZM939.055,90.59a40.889,40.889,0,0,0-57.633,57.632Zm-52.879,62.433c15.634,13.356,36.984,11.7,49.4,2.516h-1.154q-13.85,0-27.7,0c-1.727,0-3.349-.393-4.3-1.911a22.321,22.321,0,0,1-2.138-4.487c-.553-1.6.53-2.837,2.235-2.837h38.509c.225,0,.451,0,.676,0,.8.03,1.189.447,1.09,1.243-.088.71-.23,1.412-.358,2.171,13.709-14.055,15.435-38.175,1.4-54.363Z" fill="#02dba8"/>
      <path id="Trazado_103030" data-name="Trazado 103030" d="M949.777,151.638l-.869,12.095H960.25c-.308.371-.446.568-.614.736-2.933,2.934-5.858,5.878-8.824,8.779a2.1,2.1,0,0,1-1.332.526c-6.69.033-13.38.024-20.071.021a2.3,2.3,0,0,1-2.518-2.107,2.48,2.48,0,0,1,1.762-2.929c1.039-.244,1.469-.439.976-1.667A2.47,2.47,0,0,1,931.6,163.9a6.474,6.474,0,0,1,1.34-.114c3.249-.009,6.5-.023,9.746.009.688.007.935-.162.981-.9.3-4.846.659-9.688,1-14.531.016-.224.044-.448.072-.672.282-2.324,1.882-3.26,4.066-2.349,2.4,1,4.789,2.031,7.183,3.048,1.655.7,3.317,1.391,4.963,2.114a2.725,2.725,0,0,1,1.7,3.655,2.671,2.671,0,0,1-3.758,1.23c-2.961-1.241-5.913-2.5-8.87-3.752A1.261,1.261,0,0,0,949.777,151.638Z" transform="translate(-48.028 -55.262)" fill="#02dba8"/>
      <path id="Trazado_103031" data-name="Trazado 103031" d="M949.083,322.5l-1.747-14.817h16.519Z" transform="translate(-64.557 -186.534)" fill="#02dba8"/>
      <path id="Trazado_103032" data-name="Trazado 103032" d="M1095.883,323.63c.362-.393.563-.627.78-.845q6.888-6.892,13.77-13.79a1.4,1.4,0,0,1,1.508-.439c5.051,1.177,9.505,3.35,12.757,7.543a11.9,11.9,0,0,1,2.476,5.778c.187,1.4-.116,1.751-1.519,1.752q-10.661.006-21.321,0Z" transform="translate(-184.423 -187.188)" fill="#02dba8"/>
      <path id="Trazado_103033" data-name="Trazado 103033" d="M1056.383,404.55c1.771-1.77,3.342-3.364,4.953-4.919a1.41,1.41,0,0,1,.9-.211q15.584-.015,31.168-.015a2.79,2.79,0,0,1,2.816,1.625,2.316,2.316,0,0,1-.441,2.6,2.925,2.925,0,0,1-2.425.927q-13.075-.026-26.15-.01Z" transform="translate(-152.55 -260.547)" fill="#02dba8"/>
      <path id="Trazado_103034" data-name="Trazado 103034" d="M998.335,466.963l4.481-4.481,2.24,4.481Z" transform="translate(-105.709 -311.445)" fill="#02dba8"/>
    </g>
  </g>
</svg>
