<svg xmlns="http://www.w3.org/2000/svg" width="124" height="124" viewBox="0 0 124 124">
  <g id="Grupo_55239" data-name="Grupo 55239" transform="translate(-888 -1152)">
    <circle id="Elipse_4255" data-name="Elipse 4255" cx="62" cy="62" r="62" transform="translate(888 1152)" fill="#fff"/>
    <g id="Grupo_55231" data-name="Grupo 55231" transform="translate(591.447 757.056)">
      <path id="Trazado_103041" data-name="Trazado 103041" d="M386.6,489.414h21.354V426.619h-21.2v16.949h-2.34V424.107h23.612v-4.163c3.534,1.1,6.784,2.345,10.143,3.1s6.841,1.028,10.427,1.534v67.408c-6.986-.9-13.6.994-20.394,2.759-.075-.951-.138-1.749-.221-2.8h-23.6V474.906H386.6Z" transform="translate(-37.887)" fill="#02dba8"/>
      <path id="Trazado_103042" data-name="Trazado 103042" d="M354.361,504.539c-.922,2.66-1.764,5.036-2.552,7.43a1.57,1.57,0,0,0,.206.973,1.894,1.894,0,0,0,.552.689c6.033,4.692,5.079,11.313,4.86,17.709a2.021,2.021,0,0,1-2.273,2.01,2.165,2.165,0,0,1-2.3-2.385c-.043-2.667.076-5.34-.064-8a5.611,5.611,0,0,0-1.025-2.847c-1.422-1.958-3.037-3.775-4.719-5.826-1.866,1.955-3.571,3.9-5.464,5.644a5.031,5.031,0,0,1-2.9,1.3c-3.372.159-6.756.075-10.135.057-1.932-.011-2.971-.83-2.992-2.284-.022-1.5,1.093-2.364,3.1-2.373,2.787-.013,5.574.027,8.359-.023a3.036,3.036,0,0,0,1.779-.5c3.911-3.256,7.74-10.794,8.31-16.289a28.169,28.169,0,0,0-3.361.043,2.028,2.028,0,0,0-1.293.912c-.893,1.534-1.653,3.145-2.491,4.712-.9,1.682-2.118,2.192-3.436,1.479-1.25-.676-1.545-1.955-.746-3.541,1.119-2.222,2.212-4.463,3.467-6.607.4-.681,1.281-1.531,1.944-1.533,4.014-.009,8.041.072,12.034.44.994.091,1.893,1.333,2.805,2.083a1.78,1.78,0,0,1,.444.762c1.491,4.079,3.953,6.412,8.715,5.453a2.123,2.123,0,0,1,2.645,2.341c-.113,1.606-1.136,2.252-2.642,2.262-1.9.013-3.8-.107-5.689.035a3.614,3.614,0,0,1-4.078-2.38A14.719,14.719,0,0,0,354.361,504.539Z" transform="translate(0 -48.527)" fill="#02dba8"/>
      <path id="Trazado_103043" data-name="Trazado 103043" d="M406.707,474.626a4.215,4.215,0,1,1-3.928-4.445A4.236,4.236,0,0,1,406.707,474.626Z" transform="translate(-46.843 -32.35)" fill="#02dba8"/>
    </g>
  </g>
</svg>
