<svg xmlns="http://www.w3.org/2000/svg" xmlns:xlink="http://www.w3.org/1999/xlink" width="312" height="182" viewBox="0 0 312 182">
  <defs>
    <clipPath id="clip-path">
      <rect id="Rectángulo_5790" data-name="Rectángulo 5790" width="311.999" height="182" rx="25" transform="translate(2389.349 -8731.402)" fill="none" opacity="0.4"/>
    </clipPath>
  </defs>
  <g id="Enmascarar_grupo_9" data-name="Enmascarar grupo 9" transform="translate(-2389.349 8731.402)" clip-path="url(#clip-path)">
    <g id="Grupo_55952" data-name="Grupo 55952" transform="translate(2387.467 -8642.521)">
      <g id="Grupo_55950" data-name="Grupo 55950" transform="translate(17 5.273)">
        <g id="Grupo_55949" data-name="Grupo 55949" transform="translate(0)">
          <g id="Grupo_55947" data-name="Grupo 55947" transform="translate(0)">
            <path id="Trazado_104021" data-name="Trazado 104021" d="M179.056,349.385H55.387L40.1,273.821h123.67Z" transform="translate(-40.103 -273.821)" fill="#292e4a"/>
            <path id="Trazado_104022" data-name="Trazado 104022" d="M171.664,342.174H62.31L49.723,279.941H159.077Z" transform="translate(-39.245 -273.275)" fill="#ffd817"/>
          </g>
          <g id="Grupo_55948" data-name="Grupo 55948" transform="translate(0)">
            <path id="Trazado_104023" data-name="Trazado 104023" d="M59.04,349.385H55.387L40.1,273.821h3.654Z" transform="translate(-40.103 -273.821)" fill="#6470b5"/>
          </g>
          <line id="Línea_214" data-name="Línea 214" y1="62.233" x2="19.183" transform="translate(45.832 6.665)" fill="none"/>
          <line id="Línea_215" data-name="Línea 215" x1="19.183" y2="62.233" transform="translate(63.838 6.665)" fill="none"/>
          <line id="Línea_216" data-name="Línea 216" x1="14.493" y2="47.017" transform="translate(69.477 21.882)" fill="none"/>
          <rect id="Rectángulo_5780" data-name="Rectángulo 5780" width="195.716" height="6.914" transform="translate(15.283 75.564)" fill="#6470b5"/>
          <rect id="Rectángulo_5781" data-name="Rectángulo 5781" width="123.407" height="6.914" transform="translate(87.593 75.564)" fill="#292e4a"/>
          <line id="Línea_217" data-name="Línea 217" x2="195.716" transform="translate(15.283 75.564)" fill="none"/>
        </g>
        <path id="Trazado_104024" data-name="Trazado 104024" d="M85.544,342.358h44.919l10.609-13.318L150.1,335.7l29.8-33.746,7.675,6.772,3.837-26.41-24.6,9.706,4.74,3.837-23.7,21.669-17.155-13.543Z" transform="translate(-36.048 -273.063)" fill="#ffa200"/>
        <line id="Línea_218" data-name="Línea 218" x2="222.824" transform="translate(5.143 82.206)" fill="none"/>
      </g>
      <g id="Grupo_55951" data-name="Grupo 55951" transform="translate(114.875 -45.766)">
        <path id="Trazado_104025" data-name="Trazado 104025" d="M200.938,298.806a16.8,16.8,0,0,0-4.256,1.645,15.428,15.428,0,0,0-3.264,2.4,11.613,11.613,0,0,0-2.14,2.794,6.535,6.535,0,0,0-.837,2.819,1.111,1.111,0,0,0,.341.81,1.046,1.046,0,0,0,.757.339h6.84a2.77,2.77,0,0,0,1.174-.209,3.811,3.811,0,0,0,.915-.626c.1-.1.269-.278.5-.522a4.818,4.818,0,0,1,.966-.758,6.645,6.645,0,0,1,1.566-.677,7.976,7.976,0,0,1,2.3-.289,13.45,13.45,0,0,1,1.907.132,6.924,6.924,0,0,1,1.618.417,2.932,2.932,0,0,1,1.149.809,1.944,1.944,0,0,1,.443,1.306,1.818,1.818,0,0,1-.5,1.3,4.51,4.51,0,0,1-1.671.966,22.4,22.4,0,0,1-3.107.862q-1.933.418-4.8.992a27.031,27.031,0,0,0-5.014,1.462,11.949,11.949,0,0,0-3.577,2.22,8.411,8.411,0,0,0-2.141,3.133,11.669,11.669,0,0,0-.7,4.256,9.548,9.548,0,0,0,.837,4.021,10.133,10.133,0,0,0,2.35,3.236A12.937,12.937,0,0,0,196.237,334a19.432,19.432,0,0,0,4.7,1.357v3.709a1.428,1.428,0,0,0,1.409,1.409h6.842a1.428,1.428,0,0,0,1.41-1.409V335.2a18.169,18.169,0,0,0,4.517-1.645,15.66,15.66,0,0,0,3.445-2.428,10.309,10.309,0,0,0,2.22-2.95,7.767,7.767,0,0,0,.835-3.212,1.1,1.1,0,0,0-.339-.808,1.049,1.049,0,0,0-.757-.341h-6.84a2.95,2.95,0,0,0-1.149.183,3.321,3.321,0,0,0-.837.55c-.137.138-.346.365-.625.677a6.556,6.556,0,0,1-1.123.966,6.955,6.955,0,0,1-1.777.862,8.185,8.185,0,0,1-2.637.366,15.174,15.174,0,0,1-4.621-.6,2.241,2.241,0,0,1-1.854-2.167,1.593,1.593,0,0,1,.679-1.306,7.012,7.012,0,0,1,2.038-.966,30.892,30.892,0,0,1,3.471-.86q2.114-.418,4.987-1.046,5.38-1.147,7.859-3.837a10.167,10.167,0,0,0,2.48-7.179,9.39,9.39,0,0,0-.679-3.525,10.27,10.27,0,0,0-1.957-3.107,12.407,12.407,0,0,0-3.135-2.454,16.542,16.542,0,0,0-4.2-1.62v-3.864a1.426,1.426,0,0,0-1.41-1.409h-6.842a1.426,1.426,0,0,0-1.409,1.409Z" transform="translate(-189.397 -293.48)" fill="#ffa200"/>
      </g>
    </g>
    <g id="Grupo_55972" data-name="Grupo 55972" transform="translate(2125.515 -9198.968)">
      <path id="Trazado_104026" data-name="Trazado 104026" d="M539.4,586.258c4.6-3.819,17.566-15.621,19.451-33.708,2.721-26.119-19.315-49.594-43.108-56.925-31.815-9.8-58.633,11.771-60.722,13.51l-7.073-5.066c-1.628,2.988-16.271,30.865-2.846,54.863a43.98,43.98,0,0,0,13.092,14.683c11.65,8.174,22.5,6.191,46.089,7.976A317.543,317.543,0,0,1,539.4,586.258Z" transform="translate(0 0)" fill="#6e4022"/>
      <g id="Grupo_55958" data-name="Grupo 55958" transform="translate(451.694 521.998)">
        <g id="Grupo_55953" data-name="Grupo 55953" transform="translate(31.552 76.53)">
          <path id="Trazado_104027" data-name="Trazado 104027" d="M542.8,622.724c-8.837,5.063-43.871,24.622-62.126,21.641-1.79-.293-5.861-.987-7.378-3.852-3.5-6.592,9.015-18.916,11.082-20.893.225-.194.316-.27.316-.27l.718-32.731,34.416-13.543c-.258,10.893.809,26.138,1.986,31.426a34.642,34.642,0,0,0,2.87,8.771Z" transform="translate(-472.684 -573.077)" fill="#facad1"/>
          <path id="Trazado_104028" data-name="Trazado 104028" d="M518.993,604.5a54.855,54.855,0,0,1-11.659,8.47c-8.933,4.892-18.218,7.113-25.778,6.647.225-.194.316-.27.316-.27l.718-32.731,34.416-13.543C516.75,583.969,517.816,599.215,518.993,604.5Z" transform="translate(-469.862 -573.077)" fill="#ed83a9"/>
        </g>
        <path id="Trazado_104029" data-name="Trazado 104029" d="M451.889,576.167c0,.365.034.73.034,1.064.2,9.9.369,14.981,1.779,19.332.974,2.957,5.171,15.877,17.931,21.623,12.994,5.813,25.889.133,29.112-1.294,3.257-1.428,6.48-3.787,10.813-7.574,2.719-2.391,5.944-5.414,9.9-9.1,5.911-5.514,10.577-10.23,13.7-13.487a13.482,13.482,0,0,0,8.93-4.55,13.691,13.691,0,0,0,2.721-12.123c-1.007-3.455-4.2-9.135-9.806-9.268-3.9-.066-7.622,2.59-9.5,6.576a15.291,15.291,0,0,1-3.728-.6c-5.387-1.567-8.511-5.781-10.205-8.132-4.258-5.9-12.325-21.732-21-43.615a49.077,49.077,0,0,1-36.7,17.943,190.312,190.312,0,0,0-3.41,23.242C451.655,565.9,451.889,573.565,451.889,576.167Z" transform="translate(-447.758 -515.019)" fill="#facad1"/>
        <g id="Grupo_55954" data-name="Grupo 55954" transform="translate(38.693 44.461)">
          <ellipse id="Elipse_4528" data-name="Elipse 4528" cx="2.232" cy="2.785" rx="2.232" ry="2.785" transform="matrix(0.993, -0.119, 0.119, 0.993, 0, 0.531)"/>
        </g>
        <g id="Grupo_55955" data-name="Grupo 55955" transform="translate(13.359 44.973)">
          <path id="Trazado_104030" data-name="Trazado 104030" d="M458.9,552.166a2.287,2.287,0,1,0,1.9-3.017A2.563,2.563,0,0,0,458.9,552.166Z" transform="translate(-458.882 -549.137)"/>
        </g>
        <g id="Grupo_55956" data-name="Grupo 55956" transform="translate(19.718 52.143)">
          <path id="Trazado_104031" data-name="Trazado 104031" d="M471.11,575.312a1.413,1.413,0,0,0,.194-2.814l-3.023-.413a1.978,1.978,0,0,1-1.72-1.957L467.62,556.1a1.43,1.43,0,0,0-2.851-.21l-1.062,14.125a4.844,4.844,0,0,0,4.185,4.872l3.021.411A1.425,1.425,0,0,0,471.11,575.312Z" transform="translate(-463.706 -554.577)" fill="#e25a7b"/>
        </g>
        <path id="Trazado_104032" data-name="Trazado 104032" d="M494.432,542.566c-.09,1.285-4.314,2.042-9.434,1.69s-9.2-1.679-9.107-2.963,4.313-2.041,9.434-1.689S494.522,541.282,494.432,542.566Z" transform="translate(-440.112 -507.225)" fill="#6e4022"/>
        <path id="Trazado_104033" data-name="Trazado 104033" d="M467.27,542.215c.111,1.283-3.945,2.672-9.06,3.1s-9.35-.258-9.46-1.541,3.945-2.673,9.06-3.106S467.159,540.931,467.27,542.215Z" transform="translate(-448.747 -506.898)" fill="#6e4022"/>
        <g id="Grupo_55957" data-name="Grupo 55957" transform="translate(84.983 51.17)">
          <path id="Trazado_104034" data-name="Trazado 104034" d="M514.648,567.74a1.431,1.431,0,0,0,1.294-.812l5.266-11.074a1.409,1.409,0,0,0-.685-1.882,1.437,1.437,0,0,0-1.9.679l-5.266,11.073a1.408,1.408,0,0,0,.685,1.882A1.423,1.423,0,0,0,514.648,567.74Z" transform="translate(-513.219 -553.838)" fill="#e25a7b"/>
        </g>
      </g>
      <g id="Grupo_55961" data-name="Grupo 55961" transform="translate(454.965 570.168)">
        <g id="Grupo_55959" data-name="Grupo 55959" transform="translate(55.644 23.532)">
          <path id="Trazado_104035" data-name="Trazado 104035" d="M495.124,594.049a1.681,1.681,0,0,1-1.517-.948,1.652,1.652,0,0,1,.794-2.213,68.385,68.385,0,0,0,19.472-13.673A66.737,66.737,0,0,0,520,570.09a1.7,1.7,0,0,1,2.348-.353,1.651,1.651,0,0,1,.357,2.323,70.217,70.217,0,0,1-6.438,7.482,71.793,71.793,0,0,1-20.425,14.345A1.688,1.688,0,0,1,495.124,594.049Z" transform="translate(-493.443 -569.415)" fill="#fff"/>
        </g>
        <g id="Grupo_55960" data-name="Grupo 55960" transform="translate(63.249)">
          <path id="Trazado_104036" data-name="Trazado 104036" d="M500.893,565.75a1.679,1.679,0,0,1-1.517-.946,1.652,1.652,0,0,1,.792-2.213A25.186,25.186,0,0,0,511.253,552.4a1.686,1.686,0,0,1,2.288-.621,1.65,1.65,0,0,1,.627,2.265,28.475,28.475,0,0,1-12.555,11.543A1.7,1.7,0,0,1,500.893,565.75Z" transform="translate(-499.212 -551.562)" fill="#fff"/>
        </g>
        <path id="Trazado_104037" data-name="Trazado 104037" d="M451.229,564.533c.2,9.9.369,14.981,1.781,19.332.973,2.957,5.171,15.877,17.931,21.624,12.994,5.813,25.889.133,29.111-1.3,3.257-1.428,6.48-3.786,10.812-7.573a96.468,96.468,0,0,0,6.52-24.835,95.339,95.339,0,0,0,.712-12.07l-50.423-1.62Z" transform="translate(-451.229 -549.484)" fill="#3fbfb6"/>
      </g>
      <g id="Grupo_55965" data-name="Grupo 55965" transform="translate(455.666 589.359)">
        <g id="Grupo_55962" data-name="Grupo 55962" transform="translate(5.868 21.242)">
          <path id="Trazado_104038" data-name="Trazado 104038" d="M464.541,587.357a66.114,66.114,0,0,1-6.8-.372,1.661,1.661,0,1,1,.308-3.307,64.28,64.28,0,0,0,8.522.341c.985-.009,2.162-.021,3.676-.024a195.218,195.218,0,0,0,25.581-1.744,1.662,1.662,0,1,1,.455,3.293,198.831,198.831,0,0,1-26.028,1.772c-1.5,0-2.673.015-3.65.025C465.821,587.35,465.158,587.357,464.541,587.357Z" transform="translate(-456.212 -582.237)" fill="#6fc8bf"/>
        </g>
        <g id="Grupo_55963" data-name="Grupo 55963" transform="translate(1.313 10.733)">
          <path id="Trazado_104039" data-name="Trazado 104039" d="M454.435,579.375a1.66,1.66,0,0,1-.129-3.316c4.008-.311,6.529-.428,9.719-.579,1.5-.07,3.14-.146,5.132-.253,8.858-.473,17.812-.8,26.614-.962a1.661,1.661,0,1,1,.065,3.32c-8.763.163-17.676.486-26.5.96-2,.107-3.643.183-5.154.253-3.162.149-5.66.266-9.616.573C454.523,579.373,454.48,579.375,454.435,579.375Z" transform="translate(-452.757 -574.264)" fill="#6fc8bf"/>
        </g>
        <g id="Grupo_55964" data-name="Grupo 55964">
          <path id="Trazado_104040" data-name="Trazado 104040" d="M453.439,572.6a1.66,1.66,0,0,1-.382-3.278c1.785-.414,2.423-.536,5.2-1.035,1.173-.211,7.368-1.3,14.03-1.811a148.048,148.048,0,0,1,27.089.662,1.661,1.661,0,1,1-.382,3.3,144.363,144.363,0,0,0-26.446-.649c-6.636.51-12.986,1.64-13.689,1.766-2.747.494-3.313.6-5.031,1A1.7,1.7,0,0,1,453.439,572.6Z" transform="translate(-451.761 -566.122)" fill="#6fc8bf"/>
        </g>
      </g>
      <g id="Grupo_55971" data-name="Grupo 55971" transform="translate(451.972 558.851)">
        <g id="Grupo_55966" data-name="Grupo 55966" transform="translate(47.873 9.41)">
          <path id="Trazado_104041" data-name="Trazado 104041" d="M521.336,551.379h-35.42a.631.631,0,1,1,0-1.263h35.42a.631.631,0,1,1,0,1.263Z" transform="translate(-485.276 -550.116)" fill="#fff"/>
        </g>
        <g id="Grupo_55967" data-name="Grupo 55967" transform="translate(21.195 9.41)">
          <path id="Trazado_104042" data-name="Trazado 104042" d="M475.756,551.379H465.675a.631.631,0,1,1,0-1.263h10.081a.631.631,0,1,1,0,1.263Z" transform="translate(-465.037 -550.116)" fill="#fff"/>
        </g>
        <g id="Grupo_55968" data-name="Grupo 55968" transform="translate(0 9.41)">
          <path id="Trazado_104043" data-name="Trazado 104043" d="M454.192,551.379h-4.6a.631.631,0,1,1,0-1.263h4.6a.631.631,0,1,1,0,1.263Z" transform="translate(-448.958 -550.116)" fill="#fff"/>
        </g>
        <g id="Grupo_55969" data-name="Grupo 55969" transform="translate(4.596)">
          <path id="Trazado_104044" data-name="Trazado 104044" d="M461.383,563.059c-4.929,0-8.938-4.5-8.938-10.04s4.01-10.042,8.938-10.042,8.937,4.5,8.937,10.042S466.311,563.059,461.383,563.059Zm0-18.818c-4.225,0-7.661,3.937-7.661,8.778s3.436,8.776,7.661,8.776,7.66-3.937,7.66-8.776S465.605,544.241,461.383,544.241Z" transform="translate(-452.445 -542.977)" fill="#fff"/>
        </g>
        <g id="Grupo_55970" data-name="Grupo 55970" transform="translate(31.275)">
          <path id="Trazado_104045" data-name="Trazado 104045" d="M481.622,563.059c-4.929,0-8.938-4.5-8.938-10.04s4.01-10.042,8.938-10.042,8.938,4.5,8.938,10.042S486.55,563.059,481.622,563.059Zm0-18.818c-4.223,0-7.66,3.937-7.66,8.778s3.436,8.776,7.66,8.776,7.66-3.937,7.66-8.776S485.846,544.241,481.622,544.241Z" transform="translate(-472.684 -542.977)" fill="#fff"/>
        </g>
      </g>
    </g>
  </g>
</svg>
