<svg xmlns="http://www.w3.org/2000/svg" width="124" height="124" viewBox="0 0 124 124">
  <g id="Grupo_55237" data-name="Grupo 55237" transform="translate(-264 -1152)">
    <circle id="Elipse_4257" data-name="Elipse 4257" cx="62" cy="62" r="62" transform="translate(264 1152)" fill="#fff"/>
    <g id="Grupo_55230" data-name="Grupo 55230" transform="translate(-204.951 1035.393)">
      <path id="Trazado_103035" data-name="Trazado 103035" d="M563,201.775c0-1.115.072-2.473-1.428-2.51-1.482-.036-1.53,1.276-1.531,2.416,0,3.065-.021,6.13,0,9.195.008,1.114-.192,1.915-1.575,1.9-1.445-.014-1.474-.95-1.463-1.983.01-.858,0-1.717,0-2.575,0-20.843-.064-41.685.077-62.527.023-3.438-1.114-4.4-4.442-4.362-13.73.152-27.463.076-41.194.044-1.335,0-3.178.61-3.235-1.791-.058-2.458,1.813-1.849,3.144-1.851,15.2-.031,30.406.028,45.608-.07,2.393-.015,3.186.629,3.134,3.09-.153,7.231-.058,14.466-.053,21.7,0,1.2-.284,2.857,1.338,2.95,2.039.117,1.613-1.738,1.616-3,.023-8.092-.087-16.185.052-24.274.049-2.826-1.07-3.532-3.7-3.518q-25.195.131-50.39,0c-2.793-.015-4.2.774-3.9,3.746.176,1.706.066,3.351-2.373,3.037-3.313-.427-3.761,1.365-3.734,4.166.118,12.014.05,24.03.051,36.045,0,12.383.069,24.767-.05,37.149-.027,2.85.842,3.877,3.771,3.859q25.194-.157,50.389-.006c2.774.015,4.266-.765,3.893-3.743-.288-2.3.478-3.5,3.016-3.136,2.178.314,3.1-.648,3.02-2.916C562.913,209.134,563.006,205.454,563,201.775Zm-9.018,14.467c.008,2.459-.588,3.428-3.253,3.41q-22.787-.164-45.575.014c-2.713.022-3.224-1-3.2-3.431q.038-4.318.05-8.637c.027-8.637,0-17.275,0-25.912,0-8.454.046-16.908.009-25.361q-.019-4.227-.07-8.453c-.033-2.642.5-3.621,3.387-3.594q22.6.218,45.208.013c2.817-.024,3.474.911,3.462,3.589Q553.85,182.059,553.983,216.242Z" fill="#02dba8"/>
      <path id="Trazado_103036" data-name="Trazado 103036" d="M601.132,218.828c-2.251-.094-1.508,2.073-1.513,3.363,0,1.317-.757,3.452,1.348,3.56,2.277.118,1.284-2.1,1.651-3.515C602.149,221.132,603.33,218.92,601.132,218.828Z" transform="translate(-39.529 -33.114)" fill="#02dba8"/>
      <path id="Trazado_103037" data-name="Trazado 103037" d="M600.885,196.337c-2.084.185-1.246,2.306-1.272,3.611-.025,1.282-.669,3.455,1.578,3.266,2.089-.175,1.066-2.306,1.357-3.61C602.274,198.333,603.218,196.13,600.885,196.337Z" transform="translate(-39.523 -24.266)" fill="#02dba8"/>
      <path id="Trazado_103038" data-name="Trazado 103038" d="M503.973,195.755c0-8.454.045-16.908.008-25.361.037,8.453-.009,16.907-.009,25.361,0,8.637.032,17.275,0,25.912C504,213.031,503.973,204.393,503.973,195.755Z" transform="translate(-1.974 -14.071)" fill="#02dba8"/>
      <path id="Trazado_103039" data-name="Trazado 103039" d="M540.939,172.247v5.723c.836,0,1.657,0,2.479,0,1.624,0,1.877.252,1.878,1.85,0,2.146.013,4.291-.009,6.437a1.173,1.173,0,0,0,.595,1.145,14.256,14.256,0,0,1,6.787,12.6q0,9.027,0,18.054a4.679,4.679,0,0,1-4.989,5.018q-9.5,0-19,0a4.679,4.679,0,0,1-4.981-4.96c-.013-6.149-.06-12.3.013-18.446a14.121,14.121,0,0,1,6.737-12.239,1.227,1.227,0,0,0,.631-1.2c-.032-2.223-.018-4.448-.013-6.672,0-1.223.369-1.584,1.6-1.593.885-.007,1.771,0,2.726,0V172.2h-1.56l-9.655.009a2.446,2.446,0,0,0-2.749,2.451c-.109.969-.513,1.4-1.265,1.34s-1.132-.641-1.042-1.624a4.685,4.685,0,0,1,4.9-4.481q10.009,0,20.017,0c.209,0,.419-.012.628.007a1.163,1.163,0,0,1,1.158,1.225,1.123,1.123,0,0,1-1.206,1.077c-.968.018-1.936,0-2.9.007C541.49,172.21,541.259,172.231,540.939,172.247Zm9.376,28.371c-.254-.019-.435-.046-.615-.046-7.641,0-15.283.008-22.925-.017-.678,0-.762.274-.759.835.018,3.376.009,6.751.01,10.127,0,1.019,0,1.021,1.026,1.022l20.962.01h2.3Zm-.155-2.413c.222-5.336-5.944-10.783-12.03-10.719-6.114.064-12.216,5.535-11.906,10.719Zm.172,16.659H539.879c-4.365,0-8.731.009-13.1-.01-.567,0-.8.139-.769.743.046.834,0,1.672.014,2.509a2.415,2.415,0,0,0,2.685,2.659q4.941.008,9.881,0c3.084,0,6.169.007,9.254,0a2.3,2.3,0,0,0,2.464-2.046C550.4,217.474,550.332,216.221,550.332,214.865Zm-7.391-34.508h-9.481v5.6a14.957,14.957,0,0,1,9.481-.022Zm-4.391-8.061c-.541-.187-.778-.061-.772.5q.024,2.3,0,4.6c-.007.595.279.639.771.477Z" transform="translate(-7.928 -13.873)" fill="#02dba8"/>
    </g>
  </g>
</svg>
