<svg xmlns="http://www.w3.org/2000/svg" xmlns:xlink="http://www.w3.org/1999/xlink" width="312" height="182" viewBox="0 0 312 182">
  <defs>
    <clipPath id="clip-path">
      <rect id="Rectángulo_5788" data-name="Rectángulo 5788" width="311.999" height="182" rx="25" transform="translate(2423.349 -8936.463)" fill="none" opacity="0.4"/>
    </clipPath>
    <linearGradient id="linear-gradient" x1="0.936" y1="-0.078" x2="-0.19" y2="1.416" gradientUnits="objectBoundingBox">
      <stop offset="0" stop-color="#4f52ff"/>
      <stop offset="1" stop-color="#4042e2"/>
    </linearGradient>
    <linearGradient id="linear-gradient-2" x1="1.214" y1="-0.449" x2="-0.632" y2="2.003" xlink:href="#linear-gradient"/>
    <linearGradient id="linear-gradient-3" x1="0.932" y1="-2.907" x2="0.667" y2="-0.816" gradientUnits="objectBoundingBox">
      <stop offset="0" stop-color="#ff928e"/>
      <stop offset="1" stop-color="#fe7062"/>
    </linearGradient>
    <linearGradient id="linear-gradient-4" x1="-203.117" y1="-3.697" x2="-211.117" y2="-2.838" gradientUnits="objectBoundingBox">
      <stop offset="0" stop-color="#09005d"/>
      <stop offset="1" stop-color="#1a0f91"/>
    </linearGradient>
    <linearGradient id="linear-gradient-5" x1="-25.178" y1="-21.471" x2="-25.499" y2="-18.024" xlink:href="#linear-gradient-4"/>
  </defs>
  <g id="Grupo_55997" data-name="Grupo 55997" transform="translate(-2423.349 8936.463)">
    <rect id="Rectángulo_5789" data-name="Rectángulo 5789" width="311.999" height="182" rx="25" transform="translate(2423.349 -8936.463)" fill="none" opacity="0.4"/>
    <g id="Enmascarar_grupo_8" data-name="Enmascarar grupo 8" clip-path="url(#clip-path)">
      <g id="Grupo_55946" data-name="Grupo 55946" transform="translate(2020.026 -11816.631)">
        <g id="Grupo_55913" data-name="Grupo 55913" transform="translate(416.829 2880.167)">
          <g id="Grupo_55911" data-name="Grupo 55911" transform="translate(0 0)">
            <circle id="Elipse_4524" data-name="Elipse 4524" cx="67.008" cy="67.008" r="67.008" transform="translate(0 94.764) rotate(-45)" fill="#bdd0fb"/>
            <g id="Grupo_55908" data-name="Grupo 55908" transform="translate(34.71 34.71)">
              <circle id="Elipse_4525" data-name="Elipse 4525" cx="57.189" cy="57.189" r="57.189" transform="translate(2.864 2.864)" fill="url(#linear-gradient)"/>
              <path id="Trazado_103975" data-name="Trazado 103975" d="M543.888,3068.135a60.053,60.053,0,1,1,60.053-60.053A60.121,60.121,0,0,1,543.888,3068.135Zm0-117.242a57.189,57.189,0,1,0,57.189,57.189A57.253,57.253,0,0,0,543.888,2950.893Z" transform="translate(-483.835 -2948.028)" fill="#fff"/>
            </g>
            <g id="Grupo_55909" data-name="Grupo 55909" transform="translate(52.821 52.821)">
              <circle id="Elipse_4526" data-name="Elipse 4526" cx="34.865" cy="34.865" r="34.865" transform="matrix(0.23, -0.973, 0.973, 0.23, 0, 67.865)" fill="url(#linear-gradient-2)"/>
              <path id="Trazado_103976" data-name="Trazado 103976" d="M565.852,3067.774a37.729,37.729,0,1,1,37.73-37.729A37.772,37.772,0,0,1,565.852,3067.774Zm0-69.73a32,32,0,1,0,32,32A32.037,32.037,0,0,0,565.852,2998.045Z" transform="translate(-523.909 -2988.103)" fill="#fff"/>
            </g>
            <g id="Grupo_55910" data-name="Grupo 55910" transform="translate(78.391 78.391)">
              <circle id="Elipse_4527" data-name="Elipse 4527" cx="13.508" cy="13.508" r="13.508" transform="translate(0.122 26.415) rotate(-76.717)" fill="url(#linear-gradient-3)"/>
              <path id="Trazado_103977" data-name="Trazado 103977" d="M586.864,3067.429a16.372,16.372,0,1,1,16.372-16.372A16.391,16.391,0,0,1,586.864,3067.429Zm0-27.016a10.643,10.643,0,1,0,10.643,10.643A10.655,10.655,0,0,0,586.864,3040.414Z" transform="translate(-570.492 -3034.685)" fill="#fff"/>
            </g>
          </g>
          <g id="Grupo_55912" data-name="Grupo 55912" transform="translate(94.486 23.782)">
            <rect id="Rectángulo_5778" data-name="Rectángulo 5778" width="2.012" height="76.192" transform="matrix(-0.707, -0.707, 0.707, -0.707, 11.763, 62.516)" fill="url(#linear-gradient-4)"/>
            <path id="Trazado_103978" data-name="Trazado 103978" d="M613.768,3040.625c.817-.816,4.665,3.032,3.848,3.848l-14.272,11.22a.567.567,0,0,1-.8-.8Z" transform="translate(-602.421 -2982.965)" fill="url(#linear-gradient-5)"/>
            <path id="Trazado_103979" data-name="Trazado 103979" d="M717.719,2943.548l7.248.72-9.95,9.95a15.381,15.381,0,0,1-12.4,4.43h0Z" transform="translate(-652.112 -2934.877)" fill="#91b3fa"/>
            <path id="Trazado_103980" data-name="Trazado 103980" d="M714.823,2933.595l-.72-7.248-9.95,9.95a15.383,15.383,0,0,0-4.43,12.4h0Z" transform="translate(-650.638 -2926.347)" fill="#91b3fa"/>
          </g>
        </g>
        <g id="Grupo_55924" data-name="Grupo 55924" transform="translate(440.621 2889.327)">
          <g id="Grupo_55918" data-name="Grupo 55918" transform="translate(0 5.074)">
            <g id="Grupo_55914" data-name="Grupo 55914" opacity="0.3">
              <path id="Trazado_103981" data-name="Trazado 103981" d="M500.826,2914.625a.557.557,0,0,1-.788,0c-.422-.422-.869-.833-1.328-1.22a.557.557,0,0,1-.074-.776l.007-.008a.557.557,0,0,1,.784-.067c.483.408.954.84,1.4,1.285a.557.557,0,0,1,.039.744C500.853,2914.6,500.84,2914.611,500.826,2914.625Zm-4.48-2.951c-.507-.32-1.033-.623-1.564-.9a.557.557,0,0,1,.513-.989c.558.289,1.111.607,1.646.945a.557.557,0,1,1-.595.941Zm-4.251-2.062c-.565-.2-1.144-.376-1.725-.526a.557.557,0,1,1,.279-1.078c.611.158,1.221.344,1.816.554a.557.557,0,0,1,.34.711.541.541,0,0,1-.093.165A.556.556,0,0,1,492.095,2909.611Zm-4.605-1.06c-.6-.068-1.2-.111-1.8-.127a.557.557,0,0,1,.031-1.113c.63.018,1.267.063,1.894.134a.557.557,0,1,1-.126,1.106Zm-4.727-.007c-.594.065-1.194.158-1.783.274a.557.557,0,1,1-.215-1.092c.62-.122,1.251-.219,1.876-.289a.557.557,0,0,1,.122,1.107Zm-4.61,1.038c-.566.2-1.13.418-1.678.662a.557.557,0,0,1-.452-1.018c.576-.256,1.17-.49,1.766-.7a.557.557,0,1,1,.364,1.052Zm-14.2,15.026a.557.557,0,0,1-.4-.679c.159-.61.346-1.22.558-1.816a.557.557,0,1,1,1.05.372c-.2.565-.379,1.146-.529,1.724a.556.556,0,0,1-.679.4Zm9.939-12.993c-.508.317-1.008.659-1.487,1.019a.557.557,0,0,1-.669-.891c.5-.378,1.031-.739,1.566-1.072a.557.557,0,0,1,.728.823A.565.565,0,0,1,473.89,2911.616Zm-8.312,8.421a.557.557,0,0,1-.237-.751c.291-.558.611-1.112.948-1.645a.557.557,0,1,1,.94.6c-.321.507-.625,1.032-.9,1.563a.569.569,0,0,1-.061.094A.557.557,0,0,1,465.578,2920.038Zm4.61-5.487c-.424.422-.835.868-1.222,1.326a.557.557,0,0,1-.857-.71l.008-.009c.408-.482.84-.951,1.287-1.4a.557.557,0,0,1,.826.745A.533.533,0,0,1,470.188,2914.551Z" transform="translate(-462.895 -2907.311)" fill="#91b3fa"/>
              <path id="Trazado_103982" data-name="Trazado 103982" d="M463.343,2944.525a.556.556,0,0,0,.122-.309c.021-.286.049-.577.081-.864a.557.557,0,1,0-1.106-.127c-.035.3-.064.607-.086.909a.557.557,0,0,0,.988.391Z" transform="translate(-462.353 -2923.558)" fill="#91b3fa"/>
            </g>
            <g id="Grupo_55915" data-name="Grupo 55915" transform="translate(4.88 22.286)" opacity="0.3">
              <path id="Trazado_103983" data-name="Trazado 103983" d="M472.94,2974.4a.557.557,0,0,0-.018-.722c-.192-.214-.382-.435-.566-.658a.557.557,0,1,0-.859.708c.193.234.394.468.6.693a.557.557,0,0,0,.786.043A.575.575,0,0,0,472.94,2974.4Z" transform="translate(-471.369 -2959.643)" fill="#91b3fa"/>
              <path id="Trazado_103984" data-name="Trazado 103984" d="M507.507,2966.532a.557.557,0,0,1-.83-.742c.391-.437.769-.9,1.128-1.371a.557.557,0,0,1,.888.672q-.234.309-.476.607C507.988,2965.982,507.749,2966.263,507.507,2966.532Zm2.091-3.767a.557.557,0,0,1-.212-.758c.289-.515.56-1.047.8-1.583a.557.557,0,1,1,1.013.462c-.257.564-.542,1.125-.846,1.666a.567.567,0,0,1-.053.079A.558.558,0,0,1,509.6,2962.765Zm-4.264,5.884c-.473.4-.969.787-1.475,1.147a.557.557,0,0,1-.646-.907c.481-.342.952-.708,1.4-1.089a.557.557,0,0,1,.793.775A.582.582,0,0,1,505.333,2968.649Zm6.243-10.23a.556.556,0,0,1-.374-.693c.169-.564.316-1.143.436-1.72a.557.557,0,1,1,1.09.228c-.127.607-.281,1.217-.46,1.812a.554.554,0,0,1-.693.374Zm-10.3,12.962c-.549.287-1.117.554-1.69.794a.556.556,0,1,1-.431-1.026c.544-.229,1.084-.482,1.606-.755a.557.557,0,0,1,.516.987Zm-4.56,1.775c-.6.161-1.213.3-1.823.407a.557.557,0,0,1-.2-1.1c.58-.1,1.163-.234,1.732-.386a.557.557,0,0,1,.576.889A.551.551,0,0,1,496.714,2973.156Zm-4.839.74c-.621.025-1.249.025-1.868,0a.557.557,0,0,1,.047-1.113c.588.025,1.185.025,1.775,0a.557.557,0,0,1,.047,1.113Zm-4.885-.334c-.611-.11-1.224-.248-1.824-.409a.557.557,0,0,1,.29-1.075c.568.153,1.151.284,1.732.389a.557.557,0,0,1-.2,1.1Zm-4.695-1.4c-.57-.242-1.138-.511-1.687-.8a.557.557,0,1,1,.519-.985c.522.275,1.061.53,1.6.76a.556.556,0,0,1,.3.73.57.57,0,0,1-.08.134A.558.558,0,0,1,482.3,2972.163Zm-4.268-2.394c-.372-.265-.739-.545-1.093-.832q-.192-.156-.38-.315a.551.551,0,0,1-.065-.784.557.557,0,0,1,.785-.065q.179.151.361.3c.337.273.686.539,1.039.792a.556.556,0,0,1,.129.776.3.3,0,0,1-.021.027A.556.556,0,0,1,478.028,2969.769Z" transform="translate(-473.656 -2951.729)" fill="#91b3fa"/>
              <path id="Trazado_103985" data-name="Trazado 103985" d="M543.256,2950.277a.553.553,0,0,0,.123-.312c.021-.3.036-.607.044-.912a.557.557,0,0,0-1.113-.031c-.008.289-.022.581-.042.866a.557.557,0,0,0,.988.389Z" transform="translate(-503.889 -2948.481)" fill="#91b3fa"/>
            </g>
            <g id="Grupo_55917" data-name="Grupo 55917" transform="translate(5.317 5.412)">
              <path id="Trazado_103986" data-name="Trazado 103986" d="M504.842,2928.775a.26.26,0,0,0-.222-.205l-3.142-.4a13.793,13.793,0,0,0-2.514-3.7l.778-3.068a.261.261,0,0,0-.11-.282l-3.177-2.083a.261.261,0,0,0-.3.012l-2.5,1.937a13.806,13.806,0,0,0-4.392-.833l-1.621-2.721a.26.26,0,0,0-.277-.121l-3.719.773a.259.259,0,0,0-.205.221l-.4,3.142a13.786,13.786,0,0,0-3.7,2.515l-3.068-.778a.259.259,0,0,0-.281.109l-2.083,3.177a.261.261,0,0,0,.012.3l1.937,2.5a13.805,13.805,0,0,0-.833,4.392l-2.721,1.62a.26.26,0,0,0-.121.277l.774,3.719a.26.26,0,0,0,.221.205l3.142.4a13.789,13.789,0,0,0,2.514,3.7l-.778,3.068a.259.259,0,0,0,.109.281l3.177,2.083a.259.259,0,0,0,.3-.012l2.5-1.936a13.8,13.8,0,0,0,4.392.832l1.62,2.721a.26.26,0,0,0,.277.122l3.72-.773a.261.261,0,0,0,.205-.222l.4-3.142a13.813,13.813,0,0,0,3.7-2.514l3.068.778a.26.26,0,0,0,.281-.11l2.083-3.177a.26.26,0,0,0-.012-.3l-1.936-2.5a13.785,13.785,0,0,0,.832-4.392l2.721-1.621a.26.26,0,0,0,.122-.277Z" transform="translate(-472.175 -2917.309)" fill="#91b3fa"/>
              <g id="Grupo_55916" data-name="Grupo 55916" transform="translate(12.904 12.906)">
                <path id="Trazado_103987" data-name="Trazado 103987" d="M502.416,2947.78a3.816,3.816,0,1,1,.384-.409A3.823,3.823,0,0,1,502.416,2947.78Zm-5.509-2.935a2.927,2.927,0,1,0,.944-2.032,2.989,2.989,0,0,0-.3.317A2.9,2.9,0,0,0,496.908,2944.844Z" transform="translate(-496.014 -2941.151)" fill="#bdd0fb"/>
              </g>
              <path id="Trazado_103988" data-name="Trazado 103988" d="M502.245,2946.195a9.488,9.488,0,0,0,.569-.78h0c.056-.085.11-.171.164-.259a9.464,9.464,0,0,0,.679-1.342l.008-.019.022-.054c.014-.035.028-.07.041-.1a.223.223,0,0,0-.416-.16,8.952,8.952,0,0,1-8.479,5.731,8.883,8.883,0,0,1-4.775-1.461,9.033,9.033,0,0,1-.744-.543,8.945,8.945,0,1,1,13.7-10.838.22.22,0,0,0,.06.076.223.223,0,0,0,.341-.27,9.391,9.391,0,1,0-14.38,11.378,9.614,9.614,0,0,0,.78.569,9.392,9.392,0,0,0,12.432-1.924Z" transform="translate(-478.318 -2923.534)" fill="#bdd0fb"/>
            </g>
          </g>
          <g id="Grupo_55923" data-name="Grupo 55923" transform="translate(36.081 0)">
            <g id="Grupo_55919" data-name="Grupo 55919" opacity="0.3">
              <path id="Trazado_103989" data-name="Trazado 103989" d="M574.712,2909.487a.344.344,0,0,0,.016-.412c-.166-.24-.341-.479-.521-.708a.344.344,0,1,0-.541.424c.172.219.338.446.5.675a.344.344,0,0,0,.55.021Z" transform="translate(-549.458 -2902.66)" fill="#91b3fa"/>
              <path id="Trazado_103990" data-name="Trazado 103990" d="M552.542,2902.759a.344.344,0,0,1-.487,0,14.334,14.334,0,0,0-1.073-.964c-.078-.064-.158-.126-.238-.189a.344.344,0,0,1-.061-.482.356.356,0,0,1,.483-.06q.126.1.25.2a14.978,14.978,0,0,1,1.125,1.011.344.344,0,0,1,.025.46Zm-3.24-2.137a14.294,14.294,0,0,0-1.551-.8.344.344,0,0,1,.278-.629,14.985,14.985,0,0,1,1.626.84.345.345,0,0,1,.119.472.442.442,0,0,1-.029.041A.344.344,0,0,1,549.3,2900.622Zm-3.19-1.405a14.157,14.157,0,0,0-1.7-.4.344.344,0,0,1,.114-.678,14.855,14.855,0,0,1,1.784.416.344.344,0,0,1,.231.427.358.358,0,0,1-.062.118A.345.345,0,0,1,546.112,2899.217Zm-3.438-.579a14.306,14.306,0,0,0-1.746.032.344.344,0,0,1-.055-.686,15.01,15.01,0,0,1,1.831-.034.344.344,0,0,1-.03.688Zm-3.475.278a14.386,14.386,0,0,0-1.686.455.344.344,0,0,1-.219-.652,14.987,14.987,0,0,1,1.766-.478.344.344,0,1,1,.139.674Zm-3.3,1.113a14.1,14.1,0,0,0-1.522.852.344.344,0,1,1-.372-.578,14.725,14.725,0,0,1,1.6-.894.344.344,0,0,1,.416.527A.34.34,0,0,1,535.9,2900.029Zm-2.928,1.886a14.041,14.041,0,0,0-1.267,1.2.344.344,0,0,1-.5-.47,14.844,14.844,0,0,1,1.329-1.259.344.344,0,0,1,.488.48A.39.39,0,0,1,532.969,2901.916Zm-3.783,4.156a.344.344,0,0,1-.134-.467,14.944,14.944,0,0,1,.844-1.348q.069-.1.14-.2a.344.344,0,0,1,.556.405c-.045.061-.089.122-.133.186a14.178,14.178,0,0,0-.805,1.287.418.418,0,0,1-.034.05A.345.345,0,0,1,529.186,2906.072Z" transform="translate(-529.008 -2897.937)" fill="#91b3fa"/>
            </g>
            <g id="Grupo_55920" data-name="Grupo 55920" transform="translate(9.586 14.918)" opacity="0.3">
              <path id="Trazado_103991" data-name="Trazado 103991" d="M561.58,2937.161a15.027,15.027,0,0,1-1.234,1.312.344.344,0,0,1-.471-.5,14.306,14.306,0,0,0,1.176-1.251.344.344,0,0,1,.532.436Zm.592-1.349a.344.344,0,0,1-.1-.475,14.308,14.308,0,0,0,.846-1.5.344.344,0,0,1,.618.3,15.027,15.027,0,0,1-.886,1.567l-.022.03A.343.343,0,0,1,562.171,2935.811Zm-3.209,3.813a14.892,14.892,0,0,1-1.514.975.344.344,0,0,1-.337-.6,14.2,14.2,0,0,0,1.445-.93.344.344,0,0,1,.47.494A.359.359,0,0,1,558.962,2939.625Zm4.823-6.935a.344.344,0,0,1-.213-.437,14.091,14.091,0,0,0,.459-1.655.344.344,0,1,1,.673.143,14.84,14.84,0,0,1-.481,1.736.335.335,0,0,1-.058.1A.344.344,0,0,1,563.785,2932.69Zm-7.958,8.692a14.982,14.982,0,0,1-1.7.582.344.344,0,1,1-.182-.663,14.215,14.215,0,0,0,1.625-.555.344.344,0,1,1,.261.636Zm-3.465.955a15.093,15.093,0,0,1-1.794.157.344.344,0,1,1-.018-.687,14.437,14.437,0,0,0,1.711-.151.344.344,0,0,1,.1.681Zm-3.594.1a14.927,14.927,0,0,1-1.78-.277.344.344,0,0,1,.147-.673,14.032,14.032,0,0,0,1.7.265.344.344,0,0,1-.064.685Z" transform="translate(-546.717 -2927.712)" fill="#91b3fa"/>
              <path id="Trazado_103992" data-name="Trazado 103992" d="M579.783,2926.915a.345.345,0,0,0,.075-.187c.026-.293.042-.588.05-.878a.344.344,0,0,0-.688-.019c-.008.275-.023.558-.048.837a.344.344,0,0,0,.61.246Z" transform="translate(-561.604 -2925.497)" fill="#91b3fa"/>
            </g>
            <g id="Grupo_55922" data-name="Grupo 55922" transform="translate(1.757 3.598)">
              <path id="Trazado_103993" data-name="Trazado 103993" d="M554.114,2912.258a.174.174,0,0,0-.148-.138l-2.1-.269a9.227,9.227,0,0,0-1.682-2.473l.52-2.053a.173.173,0,0,0-.073-.188l-2.126-1.394a.173.173,0,0,0-.2.008l-1.675,1.3a9.217,9.217,0,0,0-2.939-.556l-1.084-1.821a.175.175,0,0,0-.185-.082l-2.489.518a.175.175,0,0,0-.138.148l-.268,2.1a9.215,9.215,0,0,0-2.473,1.682l-2.053-.521a.175.175,0,0,0-.188.073l-1.394,2.126a.174.174,0,0,0,.008.2l1.3,1.675a9.235,9.235,0,0,0-.557,2.939l-1.821,1.084a.174.174,0,0,0-.081.185l.518,2.489a.174.174,0,0,0,.148.137l2.1.268a9.236,9.236,0,0,0,1.682,2.473l-.52,2.053a.173.173,0,0,0,.073.188l2.126,1.394a.174.174,0,0,0,.2-.008l1.675-1.3a9.245,9.245,0,0,0,2.939.557l1.084,1.821a.175.175,0,0,0,.185.081l2.489-.518a.176.176,0,0,0,.138-.149l.268-2.1a9.224,9.224,0,0,0,2.473-1.683l2.053.521a.174.174,0,0,0,.188-.074l1.394-2.125a.175.175,0,0,0-.008-.2l-1.3-1.675a9.231,9.231,0,0,0,.557-2.939l1.821-1.085a.173.173,0,0,0,.081-.185Z" transform="translate(-532.254 -2904.584)" fill="#91b3fa"/>
              <g id="Grupo_55921" data-name="Grupo 55921" transform="translate(8.59 8.591)">
                <path id="Trazado_103994" data-name="Trazado 103994" d="M552.484,2924.97a2.588,2.588,0,1,1,.264-.281A2.726,2.726,0,0,1,552.484,2924.97Zm-3.169-.621a1.914,1.914,0,0,0,2.7.115h0a1.914,1.914,0,0,0-2.59-2.818,1.973,1.973,0,0,0-.192.205A1.916,1.916,0,0,0,549.315,2924.349Z" transform="translate(-548.124 -2920.455)" fill="#bdd0fb"/>
              </g>
              <path id="Trazado_103995" data-name="Trazado 103995" d="M552.366,2923.862a6.4,6.4,0,0,0,.389-.532,6.488,6.488,0,0,0,.608-1.171l.022-.055a.343.343,0,0,0-.1-.391.366.366,0,0,0-.093-.054.344.344,0,0,0-.444.2,5.839,5.839,0,0,1-.564,1.1h0l-.037.057a5.731,5.731,0,0,1-2.108,1.9,5.81,5.81,0,0,1-1.466.531l-.012,0-.039.008a5.751,5.751,0,0,1-4.354-.827,5.675,5.675,0,0,1-.481-.351,5.791,5.791,0,0,1,6.831-9.333c.165.108.323.224.475.347a5.772,5.772,0,0,1,1.561,1.969.344.344,0,1,0,.619-.3,6.479,6.479,0,1,0-9.921,7.85q.257.208.538.393A6.487,6.487,0,0,0,552.366,2923.862Z" transform="translate(-536.2 -2908.582)" fill="#bdd0fb"/>
            </g>
          </g>
        </g>
        <g id="Grupo_55945" data-name="Grupo 55945" transform="translate(565.641 2884.764)">
          <g id="Grupo_55925" data-name="Grupo 55925" transform="translate(0 129.613)">
            <path id="Trazado_103996" data-name="Trazado 103996" d="M647.6,3176.3H789.809c-1.384-8.216-4.247-17.413-10.948-25.956-11.074-14.129-26.961-19.077-28.188-19.5-2.281-.793-5.49-1.245-11.923-2.147-26.489-3.75-46.356.063-53.7,1.712-2.438.529-5.71,1.338-7.377,1.852a20.144,20.144,0,0,0-3.413,1.4h-.031c-11.672,5.851-19.945,21.909-25.766,39.882C648.162,3174.452,647.879,3175.386,647.6,3176.3Z" transform="translate(-639.343 -3127.107)" fill="#f05176"/>
            <path id="Trazado_103997" data-name="Trazado 103997" d="M667.267,3139.216s-29.541,4.635-34.917,39.881h22.835Z" transform="translate(-632.35 -3132.661)" fill="#f05176"/>
          </g>
          <path id="Trazado_103998" data-name="Trazado 103998" d="M722.11,2966.272c3.8-3.141,14.929-13.173,16.523-28.633,2.3-22.313-16.67-42.268-36.681-48.092-19.634-5.714-36.541,3.257-38.686,4.437a50.717,50.717,0,0,0-16.37,14.434l-5.776-4.173c-1.3,3.095-8.718,21.608.889,38.816a37.2,37.2,0,0,0,11.121,12.472c9.9,6.943,19.114,5.259,39.151,6.776A269.468,269.468,0,0,1,722.11,2966.272Z" transform="translate(-634.557 -2887.66)" fill="#6e4022"/>
          <g id="Grupo_55931" data-name="Grupo 55931" transform="translate(13.051 24.026)">
            <g id="Grupo_55926" data-name="Grupo 55926" transform="translate(26.802 65.008)">
              <path id="Trazado_103999" data-name="Trazado 103999" d="M765.535,3094.314c-7.507,4.3-37.267,20.916-52.773,18.383-1.521-.249-4.978-.839-6.268-3.271-2.969-5.6,7.658-16.068,9.413-17.748l.268-.23.611-27.8,29.234-11.5c-.219,9.253.688,22.2,1.688,26.7a29.4,29.4,0,0,0,2.437,7.45Z" transform="translate(-705.974 -3052.141)" fill="#facad1"/>
              <path id="Trazado_104000" data-name="Trazado 104000" d="M756.127,3078.837a46.653,46.653,0,0,1-9.9,7.2c-7.588,4.154-15.476,6.042-21.9,5.646l.268-.23.611-27.8,29.234-11.5C754.22,3061.394,755.126,3074.344,756.127,3078.837Z" transform="translate(-714.391 -3052.141)" fill="#ed83a9"/>
            </g>
            <path id="Trazado_104001" data-name="Trazado 104001" d="M662.919,2983.988c0,.31.029.621.029.9.171,8.408.313,12.725,1.512,16.422.827,2.51,4.393,13.487,15.231,18.368,11.038,4.938,21.991.113,24.729-1.1,2.766-1.213,5.5-3.216,9.184-6.434,2.31-2.031,5.048-4.6,8.414-7.731,5.02-4.684,8.985-8.69,11.638-11.456a11.455,11.455,0,0,0,7.586-3.865,11.629,11.629,0,0,0,2.311-10.3c-.856-2.935-3.566-7.76-8.329-7.873-3.308-.056-6.474,2.2-8.071,5.586a13.062,13.062,0,0,1-3.167-.508c-4.576-1.332-7.23-4.912-8.669-6.907-3.615-5.015-10.469-18.461-17.84-37.05a41.682,41.682,0,0,1-31.177,15.241,161.909,161.909,0,0,0-2.9,19.743C662.721,2975.27,662.919,2981.778,662.919,2983.988Z" transform="translate(-659.41 -2932.046)" fill="#facad1"/>
            <g id="Grupo_55927" data-name="Grupo 55927" transform="translate(35.13 38.358)">
              <path id="Trazado_104002" data-name="Trazado 104002" d="M721.378,3005.481a1.943,1.943,0,1,0,1.613-2.563A2.177,2.177,0,0,0,721.378,3005.481Z" transform="translate(-721.359 -3002.908)"/>
            </g>
            <g id="Grupo_55928" data-name="Grupo 55928" transform="translate(7.688 40.422)">
              <path id="Trazado_104003" data-name="Trazado 104003" d="M670.681,3009.3a1.943,1.943,0,1,0,1.613-2.564A2.176,2.176,0,0,0,670.681,3009.3Z" transform="translate(-670.662 -3006.722)"/>
            </g>
            <g id="Grupo_55929" data-name="Grupo 55929" transform="translate(16.75 44.294)">
              <path id="Trazado_104004" data-name="Trazado 104004" d="M693.692,3031.487a1.2,1.2,0,0,0,.165-2.391l-2.568-.35a1.682,1.682,0,0,1-1.461-1.664l.9-11.916a1.214,1.214,0,0,0-2.422-.178l-.9,12a4.114,4.114,0,0,0,3.555,4.139l2.566.348A1.188,1.188,0,0,0,693.692,3031.487Z" transform="translate(-687.403 -3013.874)" fill="#e25a7b"/>
            </g>
            <path id="Trazado_104005" data-name="Trazado 104005" d="M728.354,2979.392c-.077,1.091-3.665,1.733-8.014,1.435s-7.813-1.426-7.736-2.517,3.664-1.733,8.013-1.434S728.431,2978.3,728.354,2979.392Z" transform="translate(-682.212 -2952.575)" fill="#6e4022"/>
            <path id="Trazado_104006" data-name="Trazado 104006" d="M672.193,2980.346c.094,1.09-3.351,2.27-7.7,2.637s-7.942-.22-8.036-1.309,3.352-2.271,7.7-2.637S672.1,2979.256,672.193,2980.346Z" transform="translate(-656.46 -2953.55)" fill="#6e4022"/>
            <g id="Grupo_55930" data-name="Grupo 55930" transform="translate(72.189 43.466)">
              <path id="Trazado_104007" data-name="Trazado 104007" d="M791.035,3024.155a1.215,1.215,0,0,0,1.1-.69l4.473-9.406a1.2,1.2,0,0,0-.581-1.6,1.22,1.22,0,0,0-1.616.576l-4.473,9.406a1.2,1.2,0,0,0,.581,1.6A1.226,1.226,0,0,0,791.035,3024.155Z" transform="translate(-789.821 -3012.345)" fill="#e25a7b"/>
            </g>
          </g>
          <g id="Grupo_55934" data-name="Grupo 55934" transform="translate(15.83 64.944)">
            <g id="Grupo_55932" data-name="Grupo 55932" transform="translate(47.267 19.989)">
              <path id="Trazado_104008" data-name="Trazado 104008" d="M750.342,3065.492a1.428,1.428,0,0,1-1.289-.806,1.4,1.4,0,0,1,.674-1.879,58.078,58.078,0,0,0,16.539-11.616,56.46,56.46,0,0,0,5.206-6.051,1.438,1.438,0,0,1,2-.3,1.4,1.4,0,0,1,.3,1.974,59.5,59.5,0,0,1-5.468,6.352,60.842,60.842,0,0,1-17.349,12.188A1.421,1.421,0,0,1,750.342,3065.492Z" transform="translate(-748.914 -3044.565)" fill="#fff"/>
            </g>
            <g id="Grupo_55933" data-name="Grupo 55933" transform="translate(53.726)">
              <path id="Trazado_104009" data-name="Trazado 104009" d="M762.275,3019.689a1.429,1.429,0,0,1-1.289-.805,1.4,1.4,0,0,1,.674-1.88,21.362,21.362,0,0,0,9.415-8.654,1.43,1.43,0,0,1,1.944-.526,1.4,1.4,0,0,1,.532,1.924,24.189,24.189,0,0,1-10.665,9.8A1.419,1.419,0,0,1,762.275,3019.689Z" transform="translate(-760.847 -3007.637)" fill="#fff"/>
            </g>
            <path id="Trazado_104010" data-name="Trazado 104010" d="M661.594,3026.619c.172,8.409.313,12.726,1.512,16.422.827,2.511,4.393,13.487,15.231,18.368,11.038,4.938,21.991.113,24.729-1.1,2.767-1.213,5.5-3.216,9.184-6.434a81.933,81.933,0,0,0,5.537-21.1,80.939,80.939,0,0,0,.605-10.252l-42.832-1.377Z" transform="translate(-661.594 -3013.835)" fill="#3fbfb6"/>
          </g>
          <g id="Grupo_55938" data-name="Grupo 55938" transform="translate(15.921 80.747)">
            <g id="Grupo_55935" data-name="Grupo 55935" transform="translate(4.985 18.045)">
              <path id="Trazado_104011" data-name="Trazado 104011" d="M678.544,3075.514a56.216,56.216,0,0,1-5.819-.318,1.909,1.909,0,1,1,.353-3.8,55.07,55.07,0,0,0,7.183.288c.839-.007,1.84-.018,3.134-.02a165.231,165.231,0,0,0,21.661-1.477,1.91,1.91,0,1,1,.522,3.784,169.179,169.179,0,0,1-22.176,1.511c-1.28,0-2.273.012-3.1.021C679.636,3075.507,679.071,3075.514,678.544,3075.514Z" transform="translate(-670.972 -3070.167)" fill="#6fc8bf"/>
            </g>
            <g id="Grupo_55936" data-name="Grupo 55936" transform="translate(1.115 9.117)">
              <path id="Trazado_104012" data-name="Trazado 104012" d="M665.751,3059.013a1.909,1.909,0,0,1-.149-3.813c3.409-.264,5.55-.363,8.261-.491,1.28-.059,2.671-.125,4.366-.215,7.471-.4,15.082-.677,22.625-.819a1.949,1.949,0,0,1,1.967,1.872,1.918,1.918,0,0,1-1.893,1.945c-7.5.142-15.064.417-22.49.816-1.705.092-3.1.156-4.392.216-2.679.126-4.794.225-8.143.485C665.852,3059.011,665.8,3059.013,665.751,3059.013Z" transform="translate(-663.822 -3053.674)" fill="#6fc8bf"/>
            </g>
            <g id="Grupo_55937" data-name="Grupo 55937">
              <path id="Trazado_104013" data-name="Trazado 104013" d="M663.691,3043.331a1.927,1.927,0,0,1-1.877-1.474,1.907,1.907,0,0,1,1.438-2.294c1.577-.366,2.172-.478,4.439-.884,1.008-.183,6.321-1.11,11.968-1.545a126.026,126.026,0,0,1,23.109.563,1.909,1.909,0,1,1-.439,3.793,122.072,122.072,0,0,0-22.369-.548c-5.46.42-10.6,1.317-11.578,1.493-2.331.42-2.811.512-4.249.845A1.91,1.91,0,0,1,663.691,3043.331Z" transform="translate(-661.762 -3036.832)" fill="#6fc8bf"/>
            </g>
          </g>
          <g id="Grupo_55944" data-name="Grupo 55944" transform="translate(9.017 53.324)">
            <g id="Grupo_55939" data-name="Grupo 55939" transform="translate(46.87 10.817)">
              <path id="Trazado_104014" data-name="Trazado 104014" d="M762.333,3007.563H736.308a.705.705,0,1,1,0-1.41h26.025a.705.705,0,1,1,0,1.41Z" transform="translate(-735.595 -3006.153)" fill="#fff"/>
            </g>
            <g id="Grupo_55940" data-name="Grupo 55940" transform="translate(17.977 10.817)">
              <path id="Trazado_104015" data-name="Trazado 104015" d="M693.849,3007.563H682.932a.705.705,0,1,1,0-1.41h10.917a.705.705,0,1,1,0,1.41Z" transform="translate(-682.219 -3006.153)" fill="#fff"/>
            </g>
            <g id="Grupo_55941" data-name="Grupo 55941" transform="translate(0 10.817)">
              <path id="Trazado_104016" data-name="Trazado 104016" d="M656.648,3007.563h-6.928a.705.705,0,1,1,0-1.41h6.928a.705.705,0,1,1,0,1.41Z" transform="translate(-649.008 -3006.153)" fill="#fff"/>
            </g>
            <g id="Grupo_55942" data-name="Grupo 55942">
              <path id="Trazado_104017" data-name="Trazado 104017" d="M658.71,3009.212c-5.35,0-9.7-5.168-9.7-11.52s4.352-11.522,9.7-11.522,9.7,5.168,9.7,11.522S664.059,3009.212,658.71,3009.212Zm0-21.631c-4.564,0-8.276,4.536-8.276,10.111s3.713,10.11,8.276,10.11,8.275-4.536,8.275-10.11S663.272,2987.581,658.71,2987.581Z" transform="translate(-649.008 -2986.17)" fill="#fff"/>
            </g>
            <g id="Grupo_55943" data-name="Grupo 55943" transform="translate(28.894)">
              <path id="Trazado_104018" data-name="Trazado 104018" d="M712.088,3009.212c-5.349,0-9.7-5.168-9.7-11.52s4.352-11.522,9.7-11.522,9.7,5.168,9.7,11.522S717.436,3009.212,712.088,3009.212Zm0-21.631c-4.562,0-8.275,4.536-8.275,10.111s3.713,10.11,8.275,10.11,8.275-4.536,8.275-10.11S716.65,2987.581,712.088,2987.581Z" transform="translate(-702.387 -2986.17)" fill="#fff"/>
            </g>
          </g>
          <path id="Trazado_104019" data-name="Trazado 104019" d="M762.482,3116.872l-1.594,5.1-31.754,20.579,15.845,11.451,36.284-29.266Z" transform="translate(-676.744 -2992.799)" fill="#fff"/>
          <path id="Trazado_104020" data-name="Trazado 104020" d="M703.4,3130.244v18.348l-18.874,8.544,7.2-22.292Z" transform="translate(-656.282 -2998.932)" fill="#fff"/>
        </g>
      </g>
    </g>
  </g>
</svg>
