<svg xmlns="http://www.w3.org/2000/svg" xmlns:xlink="http://www.w3.org/1999/xlink" width="500.004" height="426.64" viewBox="0 0 500.004 426.64">
  <defs>
    <linearGradient id="linear-gradient" x1="-0.609" y1="5.297" x2="-3.575" y2="8.896" gradientUnits="objectBoundingBox">
      <stop offset="0" stop-color="#09005d"/>
      <stop offset="1" stop-color="#1a0f91"/>
    </linearGradient>
    <linearGradient id="linear-gradient-2" x1="-5.264" y1="24.695" x2="-6.342" y2="30.84" xlink:href="#linear-gradient"/>
    <linearGradient id="linear-gradient-3" x1="-3.035" y1="24.219" x2="-3.48" y2="30.089" xlink:href="#linear-gradient"/>
    <linearGradient id="linear-gradient-4" x1="-0.386" y1="-1.664" x2="-2.122" y2="3.387" gradientUnits="objectBoundingBox">
      <stop offset="0" stop-color="#febbba"/>
      <stop offset="1" stop-color="#ff928e"/>
    </linearGradient>
    <linearGradient id="linear-gradient-5" x1="-3.594" y1="-1.014" x2="-6.803" y2="5.177" xlink:href="#linear-gradient-4"/>
    <linearGradient id="linear-gradient-6" x1="29.737" y1="0.5" x2="30.737" y2="0.5" xlink:href="#linear-gradient-4"/>
    <linearGradient id="linear-gradient-7" x1="34.441" y1="0.5" x2="35.441" y2="0.5" xlink:href="#linear-gradient-4"/>
    <linearGradient id="linear-gradient-8" x1="13.228" y1="0.5" x2="14.228" y2="0.5" xlink:href="#linear-gradient-4"/>
    <linearGradient id="linear-gradient-9" x1="-23.081" y1="-6.065" x2="-23.402" y2="-7.131" xlink:href="#linear-gradient-4"/>
    <linearGradient id="linear-gradient-10" x1="-76.44" y1="-31.86" x2="-77.383" y2="-36.507" xlink:href="#linear-gradient-4"/>
    <linearGradient id="linear-gradient-11" x1="9.621" y1="0.5" x2="10.621" y2="0.5" xlink:href="#linear-gradient-4"/>
    <linearGradient id="linear-gradient-12" x1="30.881" y1="0.5" x2="31.881" y2="0.5" xlink:href="#linear-gradient-4"/>
  </defs>
  <g id="Grupo_55674" data-name="Grupo 55674" transform="translate(-232 -8845)">
    <rect id="Rect치ngulo_5163" data-name="Rect치ngulo 5163" width="500.004" height="426.64" transform="translate(232 8845)" fill="none"/>
    <g id="Grupo_54937" data-name="Grupo 54937" transform="translate(307.954 8876.268)">
      <path id="Trazado_102626" data-name="Trazado 102626" d="M784.681,797.14a128.78,128.78,0,0,1-19.731,16.506c-64.365,45.887-140.525,32.511-156.711,29.245-23.9-4.824-70.1-14.147-103.507-53.178-50.536-59.049-42.667-152.08-3.468-213.491,7.17-11.233,45.045-73.579,122.026-83.578,46.588-6.051,100.894,6.153,140.221,38.891C846.063,600.255,840.187,739.08,784.681,797.14Z" transform="translate(-463.623 -491.151)" fill="#f3f9ff" opacity="0.337"/>
      <ellipse id="Elipse_4135" data-name="Elipse 4135" cx="155.858" cy="168.234" rx="155.858" ry="168.234" transform="translate(0 313.418) rotate(-87.486)" fill="#732be5"/>
      <ellipse id="Elipse_4136" data-name="Elipse 4136" cx="132.011" cy="124.709" rx="132.011" ry="124.709" transform="translate(33.791 29.135)" fill="#91b3fa" opacity="0.1"/>
      <path id="Trazado_102627" data-name="Trazado 102627" d="M1533.849,752.436c-.041,27.489-1.926,55.034-6.77,82.134-1.226,6.769-2.648,13.506-4.342,20.179a194.475,194.475,0,0,1-6.063,19.748,93.6,93.6,0,0,1-9.046,18.613,37.167,37.167,0,0,1-6.789,7.918,19.344,19.344,0,0,1-4.444,2.864,13.309,13.309,0,0,1-5.188,1.222,13.087,13.087,0,0,1-5.245-.964,18.181,18.181,0,0,1-4.547-2.707,35.29,35.29,0,0,1-6.935-7.794A90.553,90.553,0,0,1,1465.3,875.1a190.087,190.087,0,0,1-6.128-19.727c-1.711-6.669-3.147-13.4-4.383-20.17-2.468-13.537-4.151-27.2-5.287-40.91s-1.693-27.458-1.762-41.212c-.034-6.876.154-13.75.4-20.621s.636-13.736,1.142-20.592c1.017-13.711,2.536-27.392,4.794-40.96,1.133-6.783,2.454-13.536,4.043-20.231a194.5,194.5,0,0,1,5.741-19.826c1.154-3.244,2.416-6.454,3.856-9.588a70,70,0,0,1,4.936-9.1,33.912,33.912,0,0,1,6.784-7.844,17.333,17.333,0,0,1,4.486-2.687,12.656,12.656,0,0,1,5.158-.916,13.673,13.673,0,0,1,5.1,1.194,19.911,19.911,0,0,1,4.429,2.764,37.806,37.806,0,0,1,6.93,7.708,92.835,92.835,0,0,1,9.505,18.331,188.168,188.168,0,0,1,6.515,19.586c1.834,6.632,3.388,13.338,4.732,20.084C1531.608,697.394,1533.769,724.942,1533.849,752.436Zm-2.035,0c.025-13.7-.5-27.4-1.634-41.047a395.255,395.255,0,0,0-5.355-40.718c-1.265-6.729-2.738-13.419-4.491-20.036a186.862,186.862,0,0,0-6.261-19.535,91.938,91.938,0,0,0-9.208-18.249,37.075,37.075,0,0,0-6.7-7.628,19.244,19.244,0,0,0-4.248-2.718,12.711,12.711,0,0,0-4.851-1.183,11.914,11.914,0,0,0-4.894.921,16.655,16.655,0,0,0-4.281,2.631,33.176,33.176,0,0,0-6.542,7.74,69.157,69.157,0,0,0-4.774,9.035c-1.391,3.118-2.608,6.315-3.719,9.548a193.5,193.5,0,0,0-5.491,19.768c-1.508,6.678-2.75,13.415-3.8,20.182-2.1,13.536-3.466,27.183-4.329,40.855s-1.174,27.378-1.149,41.077q-.054,20.545,1.439,41.056c1.026,13.657,2.6,27.28,4.95,40.769,1.178,6.743,2.555,13.452,4.2,20.091a188.538,188.538,0,0,0,5.929,19.622,89.328,89.328,0,0,0,8.9,18.347,34.14,34.14,0,0,0,6.636,7.585,17.058,17.058,0,0,0,4.245,2.575,11.713,11.713,0,0,0,4.8.913,12.213,12.213,0,0,0,4.753-1.163,18.225,18.225,0,0,0,4.158-2.731,36.02,36.02,0,0,0,6.5-7.715,92.334,92.334,0,0,0,8.764-18.417,192.943,192.943,0,0,0,5.859-19.643c1.631-6.644,2.991-13.356,4.158-20.1,2.336-13.491,3.888-27.116,4.92-40.773S1531.819,766.136,1531.814,752.436Z" transform="translate(-1315.963 -586.595)" fill="#fff" style="mix-blend-mode: soft-light;isolation: isolate"/>
      <path id="Trazado_102628" data-name="Trazado 102628" d="M1074.387,746.748a200.382,200.382,0,0,1-7.109,52.483,168.978,168.978,0,0,1-21.958,48.128,138.592,138.592,0,0,1-16.771,20.538,117.652,117.652,0,0,1-20.645,16.62,99.518,99.518,0,0,1-24.088,11.014,90.093,90.093,0,0,1-52.378.023,99.556,99.556,0,0,1-24.107-11,117.757,117.757,0,0,1-20.673-16.607,138.716,138.716,0,0,1-16.8-20.534,169.221,169.221,0,0,1-22.015-48.145,190.59,190.59,0,0,1-5.33-26.022,195.679,195.679,0,0,1,.016-53,190.5,190.5,0,0,1,5.348-26.015,169.16,169.16,0,0,1,22.045-48.112,138.626,138.626,0,0,1,16.806-20.511,117.37,117.37,0,0,1,20.667-16.578,99.955,99.955,0,0,1,24.088-10.955,89.456,89.456,0,0,1,52.3.021,99.887,99.887,0,0,1,24.069,10.974,117.282,117.282,0,0,1,20.638,16.59,138.528,138.528,0,0,1,16.773,20.515,168.9,168.9,0,0,1,21.987,48.094A200.375,200.375,0,0,1,1074.387,746.748Zm-2.333,0a198.166,198.166,0,0,0-6.823-51.916,168.234,168.234,0,0,0-21.26-47.8,137.111,137.111,0,0,0-16.392-20.477,114.537,114.537,0,0,0-20.277-16.625,97.969,97.969,0,0,0-23.781-10.993,87.241,87.241,0,0,0-51.775.021,97.9,97.9,0,0,0-23.762,11.013,114.462,114.462,0,0,0-20.248,16.638,137.045,137.045,0,0,0-16.359,20.482,167.982,167.982,0,0,0-21.2,47.78,191.946,191.946,0,0,0-5.1,25.715,199.991,199.991,0,0,0,.016,52.32,191.834,191.834,0,0,0,5.116,25.707,167.912,167.912,0,0,0,21.232,47.747A136.929,136.929,0,0,0,887.8,866.819a114.062,114.062,0,0,0,20.242,16.608A98.282,98.282,0,0,0,931.788,894.4a86.627,86.627,0,0,0,51.693.023,98.337,98.337,0,0,0,23.762-10.954,114.182,114.182,0,0,0,20.27-16.6,137.036,137.036,0,0,0,16.394-20.455,168.148,168.148,0,0,0,21.29-47.765A198.137,198.137,0,0,0,1072.055,746.748Z" transform="translate(-787.156 -580.906)" fill="#fff" style="mix-blend-mode: soft-light;isolation: isolate"/>
      <path id="Trazado_102629" data-name="Trazado 102629" d="M689.677,1305.752a.153.153,0,0,1,0-.307l35.063-.283L759.8,1305l70.127-.13,70.127.143,35.063.175,35.063.306a.1.1,0,0,1,0,.206l-35.063.306-35.063.175-70.127.143-70.127-.13-35.064-.16Z" transform="translate(-655.447 -1200.021)" fill="#fff" style="mix-blend-mode: soft-light;isolation: isolate"/>
      <path id="Trazado_102630" data-name="Trazado 102630" d="M1005.224,849.819a.153.153,0,0,1,.151-.151c8.3-.132,16.6-.188,24.894-.283l24.894-.16c8.3-.068,16.6-.061,24.894-.082l24.894-.047,49.788.143,24.894.175c8.3.1,16.6.165,24.894.306a.1.1,0,0,1,0,.206c-8.3.141-16.6.2-24.894.306l-24.894.175-49.788.142-24.894-.047c-8.3-.021-16.6-.014-24.894-.082l-24.894-.161c-8.3-.1-16.6-.152-24.894-.283A.154.154,0,0,1,1005.224,849.819Z" transform="translate(-930.466 -802.973)" fill="#fff" style="mix-blend-mode: soft-light;isolation: isolate"/>
      <path id="Trazado_102631" data-name="Trazado 102631" d="M595.111,1761.527a.153.153,0,0,1,0-.307l38.11-.282,38.11-.162,76.219-.13,76.219.143,38.11.176,38.11.306a.1.1,0,0,1,0,.206l-38.11.306-38.11.176-76.219.142-76.219-.13-38.11-.161Z" transform="translate(-573.066 -1597.068)" fill="#fff" style="mix-blend-mode: soft-light;isolation: isolate"/>
      <path id="Trazado_102632" data-name="Trazado 102632" d="M689.677,2217l35.063-.283,35.064-.16,70.127-.13,70.127.143,35.063.175,35.063.306a.1.1,0,0,1,0,.206l-35.063.306-35.063.175-70.127.142-70.127-.129-35.064-.161-35.063-.283a.153.153,0,0,1,0-.307Z" transform="translate(-655.447 -1994.116)" fill="#fff" style="mix-blend-mode: soft-light;isolation: isolate"/>
      <path id="Trazado_102633" data-name="Trazado 102633" d="M1241.39,2674.206a.537.537,0,0,1-.537.537H1041.7a.538.538,0,1,1,0-1.075h199.152A.538.538,0,0,1,1241.39,2674.206Z" transform="translate(-961.776 -2392.444)" fill="#fff" style="mix-blend-mode: soft-light;isolation: isolate"/>
      <path id="Trazado_102634" data-name="Trazado 102634" d="M1604.56,1032.663l-169.484,2.85a17.561,17.561,0,0,0-17.255,16.96l-8.379,245.931a12.95,12.95,0,0,0,12.925,13.391l194.309.265a12.292,12.292,0,0,0,12.307-12.5l-4.158-247.3A19.933,19.933,0,0,0,1604.56,1032.663Z" transform="translate(-1282.594 -962.884)" fill="#02cddb"/>
      <path id="Trazado_102635" data-name="Trazado 102635" d="M2793.127,2850.687h0l21.73-.647a13.5,13.5,0,0,0,13.043-13.665l-.552-32.817a.554.554,0,0,0-.563-.544.56.56,0,0,0-.544.563l.552,32.816a12.384,12.384,0,0,1-11.969,12.539l-21.73.646a.554.554,0,0,0,.031,1.107Z" transform="translate(-2487.499 -2505.125)" fill="#bdd0fb"/>
      <path id="Trazado_102636" data-name="Trazado 102636" d="M3052.616,2689.3a.553.553,0,0,0,.539-.562l-.089-5.314a.554.554,0,0,0-.564-.544h0a.553.553,0,0,0-.541.562l.089,5.314a.553.553,0,0,0,.563.544Z" transform="translate(-2713.474 -2400.469)" fill="#bdd0fb"/>
      <path id="Trazado_102637" data-name="Trazado 102637" d="M1681.858,1016.835c-23.092,3.528-102.517,14.573-168.4,10.628a5.354,5.354,0,0,0-5.68,5.146l-8.968,247.036a6.161,6.161,0,0,0,5.9,6.381c27.7,1.172,141.784,5.587,182.367.646a4.881,4.881,0,0,0,4.285-4.9l-2.834-259.27A5.79,5.79,0,0,0,1681.858,1016.835Z" transform="translate(-1360.446 -949.04)" fill="#91b3fa"/>
      <path id="Trazado_102638" data-name="Trazado 102638" d="M1710.058,1066.863c-22.222,3.4-98.657,14.024-162.063,10.228a5.153,5.153,0,0,0-5.466,4.952l-8.63,237.733a5.929,5.929,0,0,0,5.674,6.141c26.659,1.128,136.446,5.377,175.5.621a4.7,4.7,0,0,0,4.125-4.719l-2.728-249.507A5.571,5.571,0,0,0,1710.058,1066.863Z" transform="translate(-1391.018 -992.624)" fill="#bdd0fb"/>
      <g id="Grupo_54939" data-name="Grupo 54939" transform="translate(157.563 98.319)" opacity="0.6">
        <path id="Trazado_102639" data-name="Trazado 102639" d="M1649.437,1261.166a1.533,1.533,0,0,1-1.573-1.625l.006-.114a1.815,1.815,0,0,1,1.736-1.694l143.846-3.553c.91-.022,1.2.549.646,1.271l-1.549,2.014a3.9,3.9,0,0,1-2.664,1.339Z" transform="translate(-1647.861 -1254.179)" fill="#fff"/>
      </g>
      <g id="Grupo_54940" data-name="Grupo 54940" transform="translate(157.723 107.812)" opacity="0.6">
        <path id="Trazado_102640" data-name="Trazado 102640" d="M1794.689,1327.854c.91-.022,1.2.55.646,1.271l-1.549,2.014a3.9,3.9,0,0,1-2.664,1.34l-140.446,2.361a1.532,1.532,0,0,1-1.573-1.625l.005-.115a1.815,1.815,0,0,1,1.736-1.694Z" transform="translate(-1649.1 -1327.853)" fill="#fff"/>
      </g>
      <path id="Trazado_102641" data-name="Trazado 102641" d="M2559.821,1819.075c-.074-7.415-.053-14.374,1-18.039a5.365,5.365,0,0,1,5.366-3.688l.078,0c3.534.1,9.544.706,14.845,1.24,2.435.245,4.649.469,6.256.6h0a4.232,4.232,0,0,1,2.927,1.5,3.523,3.523,0,0,1,.791,2.663l-1.926,15.979a5.173,5.173,0,0,1-5.347,4.32l-19.077-.114h-.053A4.76,4.76,0,0,1,2559.821,1819.075Zm27.415-18.329c-1.614-.136-3.836-.36-6.281-.607-5.014-.505-11.256-1.135-14.733-1.233a3.853,3.853,0,0,0-3.9,2.56c-.995,3.465-1.012,10.3-.94,17.594a3.205,3.205,0,0,0,3.33,2.927h.038l19.077.114a3.622,3.622,0,0,0,3.791-2.95l1.927-15.979a1.98,1.98,0,0,0-.453-1.493,2.669,2.669,0,0,0-1.852-.933Z" transform="translate(-2284.727 -1629.04)" fill="#fff"/>
      <path id="Trazado_102642" data-name="Trazado 102642" d="M2612.253,1825.975c-4-.336-12.7-1.356-16.828-1.472a3.693,3.693,0,0,0-3.736,2.5c-.843,2.935-.829,8.812-.775,14.237a3.173,3.173,0,0,0,3.309,2.955l15.245.091a3.523,3.523,0,0,0,3.651-2.905l1.539-12.768A2.476,2.476,0,0,0,2612.253,1825.975Z" transform="translate(-2311.818 -1652.695)" fill="#fff" opacity="0.6"/>
      <g id="Grupo_54941" data-name="Grupo 54941" transform="translate(163.26 177.635)" opacity="0.6">
        <path id="Trazado_102643" data-name="Trazado 102643" d="M1792.2,1869.737a1.179,1.179,0,0,1,1.208,1.58l-1.769,6.305a2.271,2.271,0,0,1-2.1,1.568l-95.865-1.492a1.617,1.617,0,0,1-1.593-1.68l.142-3.805a1.754,1.754,0,0,1,1.717-1.667Z" transform="translate(-1692.079 -1869.737)" fill="#fff"/>
      </g>
      <path id="Trazado_102644" data-name="Trazado 102644" d="M2551.234,1486.671c-.073-7.415-.052-14.374,1-18.039a5.366,5.366,0,0,1,5.366-3.688l.078,0c3.534.1,9.543.706,14.845,1.24,2.435.246,4.648.469,6.256.6h0a4.229,4.229,0,0,1,2.927,1.5,3.523,3.523,0,0,1,.792,2.663l-1.927,15.978a5.172,5.172,0,0,1-5.346,4.32l-19.078-.114h-.052A4.761,4.761,0,0,1,2551.234,1486.671Zm27.415-18.329c-1.614-.136-3.836-.36-6.281-.607-5.015-.505-11.256-1.135-14.734-1.233a3.852,3.852,0,0,0-3.9,2.559c-1,3.464-1.013,10.3-.94,17.594a3.205,3.205,0,0,0,3.33,2.927h.038l19.077.114a3.623,3.623,0,0,0,3.792-2.949l1.926-15.979a1.977,1.977,0,0,0-.453-1.493,2.667,2.667,0,0,0-1.851-.933Z" transform="translate(-2277.247 -1339.468)" fill="#fff"/>
      <path id="Trazado_102645" data-name="Trazado 102645" d="M2603.667,1493.57c-4-.336-12.7-1.356-16.828-1.472a3.694,3.694,0,0,0-3.736,2.5c-.843,2.935-.829,8.812-.775,14.237a3.174,3.174,0,0,0,3.309,2.955l15.245.091a3.523,3.523,0,0,0,3.651-2.9l1.539-12.768A2.476,2.476,0,0,0,2603.667,1493.57Z" transform="translate(-2304.339 -1363.122)" fill="#fff" opacity="0.6"/>
      <g id="Grupo_54942" data-name="Grupo 54942" transform="translate(162.154 134.804)" opacity="0.6">
        <path id="Trazado_102646" data-name="Trazado 102646" d="M1783.614,1537.333a1.179,1.179,0,0,1,1.208,1.58l-1.769,6.306a2.272,2.272,0,0,1-2.1,1.568l-95.865-1.492a1.617,1.617,0,0,1-1.593-1.68l.143-3.805a1.754,1.754,0,0,1,1.717-1.667Z" transform="translate(-1683.493 -1537.333)" fill="#fff"/>
      </g>
      <path id="Trazado_102647" data-name="Trazado 102647" d="M2554.884,2136.344c-.074-7.414-.053-14.374,1-18.038a5.365,5.365,0,0,1,5.366-3.689l.078,0c3.534.1,9.544.706,14.845,1.24,2.435.246,4.649.469,6.256.6h0a4.23,4.23,0,0,1,2.927,1.5,3.526,3.526,0,0,1,.791,2.663l-1.926,15.978a5.172,5.172,0,0,1-5.346,4.32l-19.077-.114h-.052A4.76,4.76,0,0,1,2554.884,2136.344Zm27.415-18.329c-1.614-.136-3.836-.36-6.281-.607-5.015-.506-11.256-1.135-14.733-1.232a3.876,3.876,0,0,0-3.9,2.56c-.995,3.463-1.012,10.3-.939,17.593a3.2,3.2,0,0,0,3.329,2.927h.038l19.077.114a3.622,3.622,0,0,0,3.792-2.949l1.926-15.978a1.978,1.978,0,0,0-.452-1.494,2.666,2.666,0,0,0-1.851-.933Z" transform="translate(-2280.427 -1905.427)" fill="#fff"/>
      <path id="Trazado_102648" data-name="Trazado 102648" d="M2607.316,2143.245c-4-.336-12.7-1.356-16.828-1.472a3.7,3.7,0,0,0-3.736,2.5c-.843,2.935-.829,8.813-.775,14.237a3.174,3.174,0,0,0,3.309,2.955l15.245.091a3.522,3.522,0,0,0,3.651-2.9l1.539-12.768A2.476,2.476,0,0,0,2607.316,2143.245Z" transform="translate(-2307.517 -1929.083)" fill="#fff" opacity="0.6"/>
      <g id="Grupo_54943" data-name="Grupo 54943" transform="translate(162.624 218.516)" opacity="0.6">
        <path id="Trazado_102649" data-name="Trazado 102649" d="M1787.262,2187.008a1.179,1.179,0,0,1,1.208,1.58l-1.768,6.306a2.272,2.272,0,0,1-2.1,1.568l-95.865-1.492a1.616,1.616,0,0,1-1.593-1.68l.143-3.8a1.754,1.754,0,0,1,1.717-1.668Z" transform="translate(-1687.141 -2187.008)" fill="#fff"/>
      </g>
      <path id="Trazado_102650" data-name="Trazado 102650" d="M2563.994,2441.226c-.074-7.413-.053-14.372,1-18.037a5.442,5.442,0,0,1,5.444-3.687c3.536.1,9.811.732,14.853,1.24,2.433.246,4.644.469,6.249.6h0a4.235,4.235,0,0,1,2.928,1.5,3.523,3.523,0,0,1,.791,2.663l-1.926,15.978a5.17,5.17,0,0,1-5.346,4.319l-19.078-.113h-.05A4.763,4.763,0,0,1,2563.994,2441.226Zm27.415-18.328c-1.613-.137-3.833-.36-6.275-.606-5.017-.507-11.26-1.136-14.74-1.233a3.9,3.9,0,0,0-3.9,2.559c-1,3.464-1.013,10.3-.94,17.593a3.276,3.276,0,0,0,3.368,2.928l19.077.113a3.623,3.623,0,0,0,3.792-2.95l1.926-15.978a1.979,1.979,0,0,0-.452-1.493,2.667,2.667,0,0,0-1.852-.934Z" transform="translate(-2288.362 -2171.026)" fill="#fff"/>
      <path id="Trazado_102651" data-name="Trazado 102651" d="M2616.426,2448.115c-4-.335-12.7-1.356-16.828-1.472a3.7,3.7,0,0,0-3.736,2.5c-.843,2.935-.829,8.813-.775,14.237a3.173,3.173,0,0,0,3.309,2.955l15.245.091a3.522,3.522,0,0,0,3.651-2.9l1.539-12.768A2.476,2.476,0,0,0,2616.426,2448.115Z" transform="translate(-2315.453 -2194.669)" fill="#fff" opacity="0.6"/>
      <g id="Grupo_54944" data-name="Grupo 54944" transform="translate(163.798 257.8)" opacity="0.6">
        <path id="Trazado_102652" data-name="Trazado 102652" d="M1796.373,2491.877a1.179,1.179,0,0,1,1.208,1.58l-1.769,6.306a2.272,2.272,0,0,1-2.1,1.568l-95.865-1.492a1.616,1.616,0,0,1-1.593-1.68l.142-3.806a1.753,1.753,0,0,1,1.717-1.667Z" transform="translate(-1696.252 -2491.877)" fill="#fff"/>
      </g>
      <g id="Grupo_54945" data-name="Grupo 54945" transform="translate(165.331 298.155)" opacity="0.6">
        <path id="Trazado_102653" data-name="Trazado 102653" d="M1797.509,2805.061a1.213,1.213,0,0,1,1.25,1.586l-1.586,6.287a2.2,2.2,0,0,1-2.06,1.579l-85.366-1.329a1.621,1.621,0,0,1-1.6-1.68l.134-3.806a1.755,1.755,0,0,1,1.713-1.672Z" transform="translate(-1708.149 -2805.061)" fill="#fff"/>
      </g>
      <g id="Grupo_54946" data-name="Grupo 54946" transform="translate(268.683 300.828)" opacity="0.6">
        <path id="Trazado_102654" data-name="Trazado 102654" d="M2543.1,2825.8a1.359,1.359,0,0,1,1.454,1.57l-.579,4.783a1.885,1.885,0,0,1-1.854,1.617l-30.276-.471a1.644,1.644,0,0,1-1.615-1.681l.066-2.722a1.8,1.8,0,0,1,1.693-1.727Z" transform="translate(-2510.234 -2825.799)" fill="#fff"/>
      </g>
      <path id="Trazado_102655" data-name="Trazado 102655" d="M2144.663,782.91l19.2-2.03,1.32-17.666a7.476,7.476,0,0,0-5.441-7.769c-3.766-1.043-9.091-1.038-15.141,3.324C2132.736,767.324,2144.663,782.91,2144.663,782.91Zm3.759-14.767a4.8,4.8,0,1,1,4.876,4.714A4.8,4.8,0,0,1,2148.422,768.143Z" transform="translate(-1918.452 -720.892)" fill="url(#linear-gradient)"/>
      <path id="Trazado_102656" data-name="Trazado 102656" d="M2232.262,788.339a.952.952,0,0,1-.879-1.02l.21-2.814a.953.953,0,0,1,1.9.141l-.21,2.814a.951.951,0,0,1-1.021.879Zm.412-5.513a.952.952,0,0,1-.879-1.02l.16-2.136a5.716,5.716,0,0,0-4.15-5.93,12.972,12.972,0,0,0-6.347-.152.953.953,0,0,1-.414-1.86,14.869,14.869,0,0,1,7.269.177,7.625,7.625,0,0,1,5.542,7.908l-.16,2.136a.952.952,0,0,1-1.021.879Z" transform="translate(-1988.975 -735.254)" fill="#bdd0fb"/>
      <path id="Trazado_102657" data-name="Trazado 102657" d="M2045.99,945.808l-.149-8.869a5.412,5.412,0,0,0-5.687-5.314l-61.108,3.123a5.264,5.264,0,0,0-4.99,5.03l-.368,8.53Z" transform="translate(-1774.141 -874.862)" fill="url(#linear-gradient-2)"/>
      <path id="Trazado_102658" data-name="Trazado 102658" d="M2355.288,952.718a.554.554,0,0,0-.023-1.107l-2.63.044a.547.547,0,0,0-.544.563.554.554,0,0,0,.563.544l2.629-.044Z" transform="translate(-2103.787 -892.279)" fill="#bdd0fb"/>
      <path id="Trazado_102659" data-name="Trazado 102659" d="M2405.474,956.816a.953.953,0,0,0,.61-.905l-.06-3.588a5.517,5.517,0,0,0-5.608-5.423l-9.667.163a.953.953,0,0,0,.032,1.906l9.667-.163a3.615,3.615,0,0,1,3.671,3.55l.061,3.588a.952.952,0,0,0,1.295.873Z" transform="translate(-2136.647 -888.174)" fill="#bdd0fb"/>
      <path id="Trazado_102660" data-name="Trazado 102660" d="M1907.2,1014.046l-106.92,1.795a7.9,7.9,0,0,0-7.677,6.686l-.082.524a6.788,6.788,0,0,0,6.821,7.832l109.693-1.845a4.413,4.413,0,0,0,4.33-4.7l-.319-4.906A5.763,5.763,0,0,0,1907.2,1014.046Z" transform="translate(-1616.246 -946.668)" fill="url(#linear-gradient-3)"/>
      <path id="Trazado_102661" data-name="Trazado 102661" d="M2606.032,1780.982h0a2.574,2.574,0,0,1,3.655.43l4.151,5.375a.826.826,0,0,0,1.45-.282l5.409-19.281a.916.916,0,0,1,1.791.132,36.064,36.064,0,0,1-6.661,26.377s-5.149-1.163-10.357-9.18A2.7,2.7,0,0,1,2606.032,1780.982Z" transform="translate(-2324.135 -1602.215)" fill="#732be5"/>
      <path id="Trazado_102662" data-name="Trazado 102662" d="M2614.118,1427.131h0a2.573,2.573,0,0,1,3.655.429l4.15,5.375a.826.826,0,0,0,1.45-.282l5.409-19.281a.916.916,0,0,1,1.791.132,36.062,36.062,0,0,1-6.661,26.377s-5.149-1.163-10.356-9.18A2.7,2.7,0,0,1,2614.118,1427.131Z" transform="translate(-2331.18 -1293.958)" fill="#732be5"/>
      <path id="Trazado_102663" data-name="Trazado 102663" d="M2626.1,2086.5h0a2.574,2.574,0,0,1,3.655.43l4.15,5.375a.826.826,0,0,0,1.45-.282l5.409-19.281a.916.916,0,0,1,1.791.131,36.059,36.059,0,0,1-6.661,26.377s-5.149-1.163-10.356-9.18A2.7,2.7,0,0,1,2626.1,2086.5Z" transform="translate(-2341.615 -1868.368)" fill="#732be5"/>
      <path id="Trazado_102664" data-name="Trazado 102664" d="M2615.867,2377.5h0a2.574,2.574,0,0,1,3.655.43l4.15,5.375a.827.827,0,0,0,1.45-.282l5.409-19.281a.916.916,0,0,1,1.791.132,36.066,36.066,0,0,1-6.661,26.377s-5.149-1.162-10.356-9.18A2.7,2.7,0,0,1,2615.867,2377.5Z" transform="translate(-2332.702 -2121.865)" fill="#732be5"/>
      <path id="Trazado_102665" data-name="Trazado 102665" d="M1284.044,2580.7a14.514,14.514,0,0,0,14.789-14.511v-64.577a15.472,15.472,0,0,0-15.3-15.48c-25.463-.278-77.978-.291-120.947,3.329a11.632,11.632,0,0,0-10.637,11.18l-4.016,62.434a14.783,14.783,0,0,0,14.493,15.314Z" transform="translate(-1054.777 -2228.977)" fill="#02dba8"/>
      <path id="Trazado_102666" data-name="Trazado 102666" d="M1994.441,2628.35c.108,5.495-.055,14.214-.188,19.846a4.974,4.974,0,0,1-5.554,4.823l-20.955-2.456a4.976,4.976,0,0,1-4.342-5.679l2.572-17.159a4.976,4.976,0,0,1,4.921-4.238h18.571A4.969,4.969,0,0,1,1994.441,2628.35Z" transform="translate(-1765.134 -2348.728)" fill="#fff"/>
      <path id="Trazado_102667" data-name="Trazado 102667" d="M1631.986,2542.839l-17.48,1.885a3.94,3.94,0,0,1-4.353-4.207l3.822-52c7.328-.232,14.556-.4,21.53-.521v50.922A3.941,3.941,0,0,1,1631.986,2542.839Z" transform="translate(-1457.438 -2230.699)" fill="#fff" opacity="0.37"/>
      <path id="Trazado_102668" data-name="Trazado 102668" d="M1700.316,2534.91a1.758,1.758,0,0,1-1.754,1.657c-.035,0-.069,0-.1,0a1.756,1.756,0,0,1-1.653-1.857l2.635-45.383c1.182-.029,2.354-.055,3.526-.081Z" transform="translate(-1532.933 -2231.783)" fill="#fff"/>
      <g id="Grupo_54950" data-name="Grupo 54950" transform="translate(206.165 279.948)">
        <path id="Trazado_102669" data-name="Trazado 102669" d="M2125.493,2683.787a.586.586,0,0,0,.585-.55l.907-14.294a.586.586,0,0,0-.549-.622.573.573,0,0,0-.621.549l-.907,14.294a.586.586,0,0,0,.548.622Z" transform="translate(-2112.04 -2667.732)" fill="#732be5"/>
        <path id="Trazado_102670" data-name="Trazado 102670" d="M2111.01,2681.936a.586.586,0,0,0,.586-.566l.475-14.568a.586.586,0,0,0-.567-.606.555.555,0,0,0-.606.567l-.475,14.568a.587.587,0,0,0,.567.6Z" transform="translate(-2099.423 -2665.882)" fill="#732be5"/>
        <path id="Trazado_102671" data-name="Trazado 102671" d="M2091.567,2681.941a.584.584,0,0,1-.558-.612c.232-4.894.675-14.228.682-14.546a.586.586,0,0,1,1.172.006c0,.242-.57,12.2-.685,14.6a.586.586,0,0,1-.585.559Zm.113-15.153h0Z" transform="translate(-2082.51 -2665.887)" fill="#732be5"/>
        <path id="Trazado_102672" data-name="Trazado 102672" d="M2057.3,2680.412a1.171,1.171,0,0,0,1.17-1.131c.5-14.114.409-14.432.351-14.643a1.172,1.172,0,0,0-2.293.464c.038.848-.224,9.061-.4,14.1a1.171,1.171,0,0,0,1.13,1.212Z" transform="translate(-2052.126 -2663.772)" fill="#732be5"/>
        <path id="Trazado_102673" data-name="Trazado 102673" d="M2041.558,2683.792a.586.586,0,0,0,.586-.586v-14.294a.586.586,0,1,0-1.172,0v14.294A.585.585,0,0,0,2041.558,2683.792Z" transform="translate(-2038.921 -2667.738)" fill="#732be5"/>
        <path id="Trazado_102674" data-name="Trazado 102674" d="M2025.637,2683.564a.586.586,0,0,0,.586-.572c.113-4.966.375-13.08.609-14.054a.586.586,0,0,0-.833-.777c-.32.209-.623.408-.948,14.8a.586.586,0,0,0,.572.6Z" transform="translate(-2025.051 -2667.511)" fill="#732be5"/>
        <path id="Trazado_102675" data-name="Trazado 102675" d="M2146,2681.12a1.173,1.173,0,0,0,1.17-1.112l.782-15.01a1.173,1.173,0,0,0-1.11-1.232,1.187,1.187,0,0,0-1.232,1.111l-.782,15.01a1.173,1.173,0,0,0,1.11,1.232Z" transform="translate(-2129.389 -2663.765)" fill="#732be5"/>
      </g>
      <path id="Trazado_102676" data-name="Trazado 102676" d="M1515.317,2033.017v-45.351a10.866,10.866,0,0,0-10.746-10.872c-17.882-.195-54.762-.2-84.938,2.339a8.169,8.169,0,0,0-7.47,7.852l-2.821,43.845a10.382,10.382,0,0,0,10.178,10.755l85.411,1.623A10.193,10.193,0,0,0,1515.317,2033.017Z" transform="translate(-1282.507 -1785.297)" fill="#02dba8"/>
      <path id="Trazado_102677" data-name="Trazado 102677" d="M2003.826,2076.67c.076,3.859-.039,9.982-.132,13.938a3.494,3.494,0,0,1-3.9,3.387l-14.717-1.725a3.494,3.494,0,0,1-3.049-3.989l1.806-12.05a3.494,3.494,0,0,1,3.456-2.976h13.042A3.49,3.49,0,0,1,2003.826,2076.67Z" transform="translate(-1781.373 -1869.395)" fill="#fff"/>
      <path id="Trazado_102678" data-name="Trazado 102678" d="M1749.282,2016.618l-12.276,1.324a2.768,2.768,0,0,1-3.057-2.954l2.684-36.517c5.146-.163,10.222-.282,15.12-.366v35.761A2.768,2.768,0,0,1,1749.282,2016.618Z" transform="translate(-1565.288 -1786.507)" fill="#fff" opacity="0.37"/>
      <path id="Trazado_102679" data-name="Trazado 102679" d="M1797.269,2011.05a1.234,1.234,0,0,1-1.232,1.163l-.072,0a1.234,1.234,0,0,1-1.161-1.3l1.851-31.871c.83-.021,1.653-.039,2.476-.058Z" transform="translate(-1618.306 -1787.267)" fill="#fff"/>
      <g id="Grupo_54952" data-name="Grupo 54952" transform="translate(206.199 207.504)">
        <path id="Trazado_102680" data-name="Trazado 102680" d="M2095.86,2115.6a.412.412,0,0,0,.411-.386l.636-10.038a.41.41,0,0,0-.385-.437.4.4,0,0,0-.436.385l-.637,10.038a.412.412,0,0,0,.385.437Z" transform="translate(-2086.412 -2104.328)" fill="#732be5"/>
        <path id="Trazado_102681" data-name="Trazado 102681" d="M2085.689,2114.3a.412.412,0,0,0,.412-.4l.333-10.23a.413.413,0,0,0-.4-.426.39.39,0,0,0-.425.4l-.334,10.231a.412.412,0,0,0,.4.425Z" transform="translate(-2077.552 -2103.028)" fill="#732be5"/>
        <path id="Trazado_102682" data-name="Trazado 102682" d="M2072.035,2114.306a.41.41,0,0,1-.391-.43c.163-3.437.474-9.992.479-10.216a.412.412,0,0,1,.823,0c0,.169-.4,8.568-.481,10.25a.411.411,0,0,1-.411.392Zm.08-10.641h0Z" transform="translate(-2065.675 -2103.032)" fill="#732be5"/>
        <path id="Trazado_102683" data-name="Trazado 102683" d="M2047.973,2113.233a.823.823,0,0,0,.822-.794c.348-9.912.287-10.136.247-10.283a.823.823,0,0,0-1.61.325c.026.6-.157,6.363-.281,9.9a.823.823,0,0,0,.793.852Z" transform="translate(-2044.336 -2101.547)" fill="#732be5"/>
        <path id="Trazado_102684" data-name="Trazado 102684" d="M2036.915,2115.605a.411.411,0,0,0,.412-.412v-10.038a.412.412,0,1,0-.823,0v10.038A.411.411,0,0,0,2036.915,2115.605Z" transform="translate(-2035.062 -2104.331)" fill="#732be5"/>
        <path id="Trazado_102685" data-name="Trazado 102685" d="M2025.734,2115.446a.411.411,0,0,0,.412-.4c.079-3.488.263-9.185.428-9.87a.412.412,0,0,0-.585-.545c-.224.147-.437.286-.666,10.4a.412.412,0,0,0,.4.421Z" transform="translate(-2025.322 -2104.172)" fill="#732be5"/>
        <path id="Trazado_102686" data-name="Trazado 102686" d="M2110.259,2113.73a.823.823,0,0,0,.822-.781l.549-10.541a.824.824,0,0,0-.78-.865.833.833,0,0,0-.865.78l-.549,10.541a.824.824,0,0,0,.78.865Z" transform="translate(-2098.596 -2101.542)" fill="#732be5"/>
      </g>
      <path id="Trazado_102687" data-name="Trazado 102687" d="M1116.344,2759.705v-45.351c0-5.959-4.138-10.807-9.287-10.872-15.454-.195-47.327-.2-73.406,2.338-3.559.347-6.327,3.722-6.456,7.852l-2.437,43.846c-.181,5.8,3.781,10.645,8.8,10.755l73.815,1.623C1112.3,2770,1116.344,2765.41,1116.344,2759.705Z" transform="translate(-947.479 -2418.35)" fill="#02dba8"/>
      <path id="Trazado_102688" data-name="Trazado 102688" d="M1538.526,2803.358c.066,3.859-.033,9.982-.115,13.938a3.2,3.2,0,0,1-3.371,3.386l-12.718-1.725a3.435,3.435,0,0,1-2.635-3.989l1.561-12.05a3.2,3.2,0,0,1,2.987-2.977h11.271A3.266,3.266,0,0,1,1538.526,2803.358Z" transform="translate(-1378.612 -2502.446)" fill="#fff"/>
      <path id="Trazado_102689" data-name="Trazado 102689" d="M1318.542,2743.3l-10.609,1.324a2.583,2.583,0,0,1-2.642-2.954l2.319-36.517c4.447-.163,8.834-.282,13.067-.365v35.761A2.653,2.653,0,0,1,1318.542,2743.3Z" transform="translate(-1191.863 -2419.558)" fill="#fff" opacity="0.37"/>
      <path id="Trazado_102690" data-name="Trazado 102690" d="M1360.014,2737.737a1.148,1.148,0,0,1-1.064,1.163l-.062,0a1.182,1.182,0,0,1-1-1.3l1.6-31.871c.717-.021,1.429-.039,2.14-.058Z" transform="translate(-1237.683 -2420.318)" fill="#fff"/>
      <g id="Grupo_54954" data-name="Grupo 54954" transform="translate(145.868 301.139)">
        <path id="Trazado_102691" data-name="Trazado 102691" d="M1618.064,2842.29a.383.383,0,0,0,.355-.386l.55-10.039a.4.4,0,0,0-.333-.437.37.37,0,0,0-.377.385l-.55,10.039a.4.4,0,0,0,.333.436Z" transform="translate(-1609.899 -2831.015)" fill="#732be5"/>
        <path id="Trazado_102692" data-name="Trazado 102692" d="M1609.275,2840.989a.384.384,0,0,0,.356-.4l.288-10.231a.392.392,0,0,0-.344-.425c-.227-.013-.361.171-.368.4l-.288,10.231a.391.391,0,0,0,.344.425Z" transform="translate(-1602.242 -2829.715)" fill="#732be5"/>
        <path id="Trazado_102693" data-name="Trazado 102693" d="M1597.473,2840.993a.392.392,0,0,1-.338-.43c.141-3.437.41-9.992.414-10.216a.359.359,0,1,1,.712,0c0,.169-.346,8.568-.416,10.25a.384.384,0,0,1-.355.393Zm.069-10.641h0Z" transform="translate(-1591.976 -2829.719)" fill="#732be5"/>
        <path id="Trazado_102694" data-name="Trazado 102694" d="M1576.678,2839.919a.768.768,0,0,0,.71-.794c.3-9.913.248-10.136.213-10.284a.707.707,0,0,0-.873-.578.832.832,0,0,0-.518.9c.023.6-.136,6.363-.243,9.9a.781.781,0,0,0,.686.851Z" transform="translate(-1573.536 -2828.234)" fill="#732be5"/>
        <path id="Trazado_102695" data-name="Trazado 102695" d="M1567.122,2842.293a.386.386,0,0,0,.356-.411v-10.039a.36.36,0,1,0-.712,0v10.039A.386.386,0,0,0,1567.122,2842.293Z" transform="translate(-1565.521 -2831.019)" fill="#732be5"/>
        <path id="Trazado_102696" data-name="Trazado 102696" d="M1557.459,2842.133a.385.385,0,0,0,.356-.4c.068-3.488.227-9.186.37-9.871a.468.468,0,0,0-.013-.427.327.327,0,0,0-.493-.118c-.194.148-.378.287-.575,10.4a.391.391,0,0,0,.348.421Z" transform="translate(-1557.103 -2830.859)" fill="#732be5"/>
        <path id="Trazado_102697" data-name="Trazado 102697" d="M1630.508,2840.417a.767.767,0,0,0,.71-.781l.475-10.541a.788.788,0,0,0-.674-.865.768.768,0,0,0-.747.78l-.475,10.541a.788.788,0,0,0,.674.865Z" transform="translate(-1620.429 -2828.229)" fill="#732be5"/>
      </g>
      <path id="Trazado_102698" data-name="Trazado 102698" d="M1158.471,1559.835l-6.383,3.435c-7.655,4.66-14.5,7.123-20.668,8.048-19.247,2.888-31.792-9.256-41.139-16.623-12.342-9.726-21.946-4.994-21.946-4.994l13.161,25.119c19.655,18.532,39.808,14.417,52.513,8.411a58.9,58.9,0,0,0,13.158-8.411C1161.626,1566.2,1158.471,1559.835,1158.471,1559.835Z" transform="translate(-985.446 -1412.3)" fill="url(#linear-gradient-4)"/>
      <path id="Trazado_102699" data-name="Trazado 102699" d="M1732.413,1601.657a4.709,4.709,0,0,0-2.752-3.012l-12.954-5.209s-.2-1.661,2.737-2.79,2.247-4.413,2.247-4.413-4.006,1.828-9.872,4.726a13.728,13.728,0,0,0-6.234,6.788l3.334,4.385a59.272,59.272,0,0,0,24.209,1.905Z" transform="translate(-1540.585 -1445.129)" fill="url(#linear-gradient-5)"/>
      <path id="Trazado_102700" data-name="Trazado 102700" d="M1036.348,3126.742s-.986,5.582-1.469,11.108a3.807,3.807,0,0,0,3.642,4.125c7.359.306,23.1.9,28.747.65a1.239,1.239,0,0,0,1.09-1.7h0a2.771,2.771,0,0,0-1.418-1.494l-26-11.949Z" transform="translate(-956.288 -2787.137)" fill="#732be5"/>
      <path id="Trazado_102701" data-name="Trazado 102701" d="M1040.113,3094.317l.792,6.677s4.554,2.12,7.665-.267l-1.886-7.44Z" transform="translate(-960.86 -2757.993)" fill="url(#linear-gradient-6)"/>
      <path id="Trazado_102702" data-name="Trazado 102702" d="M903.262,2092.936c-.342,1.808.614,94.694,9.729,134.312.148.647,1.091,1.915.766,2.472-.791,1.353-6.615.973-9.9,1.087-1.017.035-1.563-1.158-1.85-2.171-2.605-9.192-15.09-55.246-16.718-99.242-1.82-49.159,0-1.673,0-1.673l-.809-31.145Z" transform="translate(-825.281 -1886.542)" fill="#636363"/>
      <path id="Trazado_102703" data-name="Trazado 102703" d="M793.063,3149.342s-1.57,2.818-3.089,10.306a2.322,2.322,0,0,0,2.044,2.781c2.43.239,6.17.546,9.167.526a2.316,2.316,0,0,0,2.293-2.583,19.533,19.533,0,0,0-4.56-10.713Z" transform="translate(-742.911 -2806.826)" fill="#732be5"/>
      <path id="Trazado_102704" data-name="Trazado 102704" d="M803.57,3080.042l1.851,10.1s1.83,1.361,5.451.374l-.884-10.864Z" transform="translate(-754.796 -2746.112)" fill="url(#linear-gradient-7)"/>
      <path id="Trazado_102705" data-name="Trazado 102705" d="M748.907,2090.279c-7.454,46.958,1.066,119.664,4.125,133.189a2.059,2.059,0,0,0,1.632,1.6,13.015,13.015,0,0,0,5.831-.242,1.921,1.921,0,0,0,1.331-1.78c.411-10.935-.328-78.063,6.618-104.593a6.035,6.035,0,0,1,2.227-3.325l11.43-9.316.212-20.086Z" transform="translate(-704.584 -1880.261)" fill="#636363"/>
      <path id="Trazado_102706" data-name="Trazado 102706" d="M799.975,1536.293c-19.647-.324-41.325,5.159-41.325,5.159-4.827,28.167-2.889,59.384-1.884,69.664.206,2.108-.921,4.339,1.169,4.676,10.28,1.661,26.438-.029,31.459-1.488,1.835-.533,1.523-2.487,1.913-4.357,3.371-16.168,13.01-51.828,13.01-51.828,4.673,6.011,11.266,14.422,21.013,16.661-4.967-5.758,4.56-17.833,3.543-22.164C820.061,1542.716,806.034,1536.394,799.975,1536.293Z" transform="translate(-712.939 -1401.61)" fill="#12263f"/>
      <path id="Trazado_102707" data-name="Trazado 102707" d="M903.564,1412.6l-6.251,18.078a.651.651,0,0,0,.3.784c1.7.942,7.843,3.665,15.242-1.025a3.068,3.068,0,0,0,1.412-2.191l2.024-15.647Z" transform="translate(-836.428 -1293.871)" fill="url(#linear-gradient-8)"/>
      <path id="Trazado_102708" data-name="Trazado 102708" d="M943.305,1282.681s6.865,12.922,5.985,18.142-9.387,4.845-16.816.605l-5.191-13.953Z" transform="translate(-862.569 -1180.69)" fill="url(#linear-gradient-9)"/>
      <path id="Trazado_102709" data-name="Trazado 102709" d="M897.166,1256.232a.532.532,0,0,0,.232-.78,13.9,13.9,0,0,1-1.91-4.055s-1.234-.791,3.141-1.838c2.382-.57,6.605-1.042,8.461-2.755,2.077-1.917-1.752-5.538-3.363-6.51a9.355,9.355,0,0,0-7.109-1.4,13.24,13.24,0,0,0-3.233,1.541,13.475,13.475,0,0,0-4.686,3.847,12.685,12.685,0,0,0-1.447,3.67,18.336,18.336,0,0,0-.867,5.6c.23,5.05,6.148,9.574,10.908,10.127a.537.537,0,0,0,.564-.71l-1.946-5.655a.535.535,0,0,1,.289-.663Z" transform="translate(-826.932 -1142.345)" fill="#732be5"/>
      <path id="Trazado_102710" data-name="Trazado 102710" d="M940.6,1370s-4.887-3.353-5.245-.529,4.4,4.09,6.758,3.038Z" transform="translate(-869.586 -1255.31)" fill="url(#linear-gradient-10)"/>
      <path id="Trazado_102711" data-name="Trazado 102711" d="M888.029,1201.908c-10.028-18.943-36.021-1.734-23.924,14.223C873.1,1210.151,883.261,1201.261,888.029,1201.908Z" transform="translate(-804.791 -1103.086)" fill="#12263f"/>
      <path id="Trazado_102712" data-name="Trazado 102712" d="M947.868,1263.089l18.008-.557a1.3,1.3,0,0,0,1.1-.667,12.177,12.177,0,0,1,6.925-5.788.364.364,0,0,0-.1-.707l-11.04-.751h-.037c-5.5.423-10.373,3.733-15.02,8.07A.232.232,0,0,0,947.868,1263.089Z" transform="translate(-880.294 -1156.243)" fill="#12263f"/>
      <path id="Trazado_102713" data-name="Trazado 102713" d="M618.021,1604.992c11-12.345,9.882-21.848-2.529-28.69,0,0-20.572,13.978-23.955,31.7a48.686,48.686,0,0,1,17.884,4.793C610.942,1604.427,618.021,1604.992,618.021,1604.992Z" transform="translate(-570.085 -1436.477)" fill="#12263f"/>
      <path id="Trazado_102714" data-name="Trazado 102714" d="M638.747,1832.013s-23.1,13.054-30.891,1.907a8.762,8.762,0,0,1-1.606-6.807,48.691,48.691,0,0,0-17.884-4.793,24.46,24.46,0,0,0,2.659,16.768c13.651,24.972,50.779-1.38,50.779-1.38Z" transform="translate(-566.914 -1650.795)" fill="url(#linear-gradient-11)"/>
      <path id="Trazado_102715" data-name="Trazado 102715" d="M960.652,1703.359l12.605-44.022a1.284,1.284,0,0,1,1.086-.924c2.284-.267,8.9-1.015,16.543-1.661,9.2-.779,19.892-1.409,26.279-.873a1.288,1.288,0,0,1,1.053,1.854c-3.632,7.348-18.572,37.239-26.054,47.031a1.292,1.292,0,0,1-1.04.51L961.878,1705A1.288,1.288,0,0,1,960.652,1703.359Z" transform="translate(-891.595 -1505.625)" fill="#732be5"/>
      <path id="Trazado_102716" data-name="Trazado 102716" d="M1198.286,1624.025l9.139-1.523a.656.656,0,0,1,.731.853l-.9,2.741a.655.655,0,0,1-.536.445l-8.8,1.175a.656.656,0,0,1-.726-.8l.56-2.394A.656.656,0,0,1,1198.286,1624.025Z" transform="translate(-1097.686 -1476.715)" fill="#732be5"/>
      <path id="Trazado_102717" data-name="Trazado 102717" d="M1152.56,1650.277l.753-3.922a.907.907,0,0,1,.8-.731l18.459-1.873a.906.906,0,0,1,.973,1.114l-1.174,4.887a.907.907,0,0,1-.836.694l-18.039.908A.907.907,0,0,1,1152.56,1650.277Z" transform="translate(-1058.803 -1495.231)" fill="#732be5"/>
      <path id="Trazado_102718" data-name="Trazado 102718" d="M976.407,1841.693s-1.756-7.22-1.048-9.782,2.081-5.855,6.655-5.123a66.958,66.958,0,0,1,9.971,2.659s-.273,3.337-3.749,2.26l2.156,1.668s-.308,2.672-3.245,1.245l2.005,2.212a2.337,2.337,0,0,1-3.422.787C983.57,1836.211,982.534,1842.563,976.407,1841.693Z" transform="translate(-904.303 -1654.596)" fill="url(#linear-gradient-12)"/>
      <path id="Trazado_102719" data-name="Trazado 102719" d="M835.629,1729.85c-1.442.116-13.637.507-13.637.507l.492,12.277,6.318,3.563,6.827-3.563Z" transform="translate(-770.845 -1570.239)" fill="#afafaf"/>
      <path id="Trazado_102720" data-name="Trazado 102720" d="M832.752,1729.85l-14.578.507-.6,4.71,7.587,1.971,8.064-3.594Z" transform="translate(-767 -1570.239)" fill="#12263f"/>
      <path id="Trazado_102721" data-name="Trazado 102721" d="M1092.791,664.57l-10.857-6.99a1.04,1.04,0,0,0-.755-.148l-14.325,2.682a1.04,1.04,0,0,0-.517,1.784l8.421,7.836Z" transform="translate(-983.416 -635.991)" fill="#e8e8e8"/>
      <path id="Trazado_102722" data-name="Trazado 102722" d="M491.825,663.926s133.45-21.55,138.613-19.8,14.348,7.417,17.083,7.474,12.275,1.9,9.669,8.687S543.9,686.092,531.137,681.446s-45.143-13.537-45.143-13.537S483.084,663.2,491.825,663.926Z" transform="translate(-477.737 -624.326)" fill="#afafaf"/>
      <path id="Trazado_102723" data-name="Trazado 102723" d="M532.241,554.16l-18.954-10.977a7.339,7.339,0,0,1-2.8-2.909l-7.5-14.12a2.885,2.885,0,0,0-3.093-1.48c-3.982.769-12.245,2.475-12.3,3.409-.074,1.23,3.4,32.2,3.4,32.2Z" transform="translate(-479.533 -520.308)" fill="#e8e8e8"/>
      <path id="Trazado_102724" data-name="Trazado 102724" d="M531.073,809.215l-1.707,6.487a3.6,3.6,0,0,0,.624,3.121,3.653,3.653,0,0,0,2.872,1.425l6.761.142a3.654,3.654,0,0,0,2.81-1.165L554.75,805.7Z" transform="translate(-515.82 -765.168)" fill="#e8e8e8"/>
      <path id="Trazado_102725" data-name="Trazado 102725" d="M1057.383,901.573a14.978,14.978,0,0,0,10.665,5.253c6.667.14,14.912-1.534,16.5-3.861s5.236-19.685-8.356-17.462S1046.637,895.292,1057.383,901.573Z" transform="translate(-972.83 -834.518)" fill="#f6f6f6"/>
      <path id="Trazado_102726" data-name="Trazado 102726" d="M901.425,837.3l31.711-4.931-27.215,33.568a2.168,2.168,0,0,1-1.547.8l-18.961,1.206a2.169,2.169,0,0,1-1.95-3.357Z" transform="translate(-824.085 -788.399)" fill="#e8e8e8"/>
      <path id="Trazado_102727" data-name="Trazado 102727" d="M1244.982,918.263a.7.7,0,0,0,.237.015c.424-.047.856-.477,1.285-1.278,1.38-2.574,2.332-8.123.131-12.4h0a4.11,4.11,0,0,0-3.306-2.224,2.747,2.747,0,0,0-3.173,2.314c-.8,3.289,2.218,10.962,3.975,12.96A1.768,1.768,0,0,0,1244.982,918.263Zm-1.226-15.239a3.583,3.583,0,0,1,2.368,1.838h0c2.083,4.048,1.156,9.473-.127,11.866-.372.694-.685.96-.841.977-.02,0-.2.008-.591-.438-1.827-2.078-4.557-9.537-3.847-12.442a2.177,2.177,0,0,1,2.562-1.876A3.467,3.467,0,0,1,1243.755,903.024Z" transform="translate(-1135.011 -849.371)" fill="#732be5"/>
      <path id="Trazado_102728" data-name="Trazado 102728" d="M492.4,608.478l3.282.069,2.637,21.019-3.467.734Z" transform="translate(-483.725 -593.36)" fill="#636363"/>
      <g id="Grupo_54963" data-name="Grupo 54963" transform="translate(62.076 29.562)">
        <path id="Trazado_102729" data-name="Trazado 102729" d="M906.835,799.916a1.956,1.956,0,0,1,2-1.914l.124,0a1.956,1.956,0,0,1,1.914,2l-.027,1.277a1.955,1.955,0,0,1-2,1.914l-.124,0a1.956,1.956,0,0,1-1.914-2Z" transform="translate(-906.808 -788.025)" fill="#732be5"/>
        <path id="Trazado_102730" data-name="Trazado 102730" d="M965.08,796.665a1.956,1.956,0,0,1,2-1.914l.124,0a1.956,1.956,0,0,1,1.914,2l-.027,1.277a1.956,1.956,0,0,1-2,1.914l-.125,0a1.956,1.956,0,0,1-1.914-2Z" transform="translate(-957.547 -785.193)" fill="#732be5"/>
        <path id="Trazado_102731" data-name="Trazado 102731" d="M1023.513,784.468a1.956,1.956,0,0,1,2-1.914l.124,0a1.956,1.956,0,0,1,1.914,2l-.027,1.277a1.956,1.956,0,0,1-2,1.914l-.124,0a1.956,1.956,0,0,1-1.914-2Z" transform="translate(-1008.451 -774.567)" fill="#732be5"/>
        <path id="Trazado_102732" data-name="Trazado 102732" d="M1077.378,776.65a1.955,1.955,0,0,1,2-1.914l.124,0a1.955,1.955,0,0,1,1.914,2l-.027,1.277a1.956,1.956,0,0,1-2,1.914l-.124,0a1.956,1.956,0,0,1-1.914-2Z" transform="translate(-1055.376 -767.757)" fill="#732be5"/>
        <path id="Trazado_102733" data-name="Trazado 102733" d="M1140.19,769.02a1.955,1.955,0,0,1,2-1.914l.124,0a1.955,1.955,0,0,1,1.914,2l-.027,1.277a1.956,1.956,0,0,1-2,1.914l-.124,0a1.956,1.956,0,0,1-1.914-2Z" transform="translate(-1110.094 -761.11)" fill="#732be5"/>
        <path id="Trazado_102734" data-name="Trazado 102734" d="M1198.529,761.3a1.956,1.956,0,0,1,2-1.914l.124,0a1.956,1.956,0,0,1,1.914,2l-.027,1.277a1.956,1.956,0,0,1-2,1.914l-.124,0a1.956,1.956,0,0,1-1.914-2Z" transform="translate(-1160.916 -754.382)" fill="#732be5"/>
        <path id="Trazado_102735" data-name="Trazado 102735" d="M1256.962,749.1a1.955,1.955,0,0,1,2-1.914l.124,0a1.955,1.955,0,0,1,1.914,2l-.027,1.277a1.956,1.956,0,0,1-2,1.914l-.125,0a1.956,1.956,0,0,1-1.914-2Z" transform="translate(-1211.82 -743.757)" fill="#732be5"/>
        <path id="Trazado_102736" data-name="Trazado 102736" d="M1310.733,745.755a1.955,1.955,0,0,1,2-1.914l.124,0a1.955,1.955,0,0,1,1.914,2l-.027,1.277a1.956,1.956,0,0,1-2,1.914l-.125,0a1.956,1.956,0,0,1-1.914-2Z" transform="translate(-1258.662 -740.843)" fill="#732be5"/>
        <path id="Trazado_102737" data-name="Trazado 102737" d="M1369.072,738.031a1.956,1.956,0,0,1,2-1.914l.124,0a1.956,1.956,0,0,1,1.914,2l-.027,1.277a1.956,1.956,0,0,1-2,1.914l-.124,0a1.956,1.956,0,0,1-1.914-2Z" transform="translate(-1309.484 -734.114)" fill="#732be5"/>
        <path id="Rect치ngulo_5558" data-name="Rect치ngulo 5558" d="M2.018,0H3.171A2.018,2.018,0,0,1,5.189,2.018v0A2.018,2.018,0,0,1,3.171,4.036H2.018A2.018,2.018,0,0,1,0,2.018v0A2.018,2.018,0,0,1,2.018,0Z" transform="translate(67.05 5.578) rotate(-88.801)" fill="#732be5"/>
        <path id="Trazado_102738" data-name="Trazado 102738" d="M1481.277,722.489a1.956,1.956,0,0,1,2-1.914l.124,0a1.956,1.956,0,0,1,1.914,2l-.027,1.277a1.956,1.956,0,0,1-2,1.914l-.124,0a1.956,1.956,0,0,1-1.914-2Z" transform="translate(-1407.231 -720.575)" fill="#732be5"/>
      </g>
      <path id="Trazado_102739" data-name="Trazado 102739" d="M1581.3,678.227l-13.224,3.374a2.128,2.128,0,0,0-1.6,2.2c.083,1.216.237,2.591.51,2.481.483-.2,21.2-5,21.2-5Z" transform="translate(-1419.401 -654.122)" fill="#732be5"/>
    </g>
  </g>
</svg>
