<svg xmlns="http://www.w3.org/2000/svg" width="396" height="464" viewBox="0 0 396 464">
  <g id="Grupo_55013" data-name="Grupo 55013" transform="translate(-908 -3540)">
    <path id="Trazado_104103" data-name="Trazado 104103" d="M113,19h-2.93V4.781H113Zm5.127-10.566.088,1.221a3.689,3.689,0,0,1,3.037-1.416,3.066,3.066,0,0,1,2.5.986,4.6,4.6,0,0,1,.84,2.949V19H121.77V12.227a1.838,1.838,0,0,0-.391-1.307,1.746,1.746,0,0,0-1.3-.406,1.941,1.941,0,0,0-1.787,1.018V19h-2.822V8.434Zm8.164,5.205A6.368,6.368,0,0,1,127.4,9.7a3.6,3.6,0,0,1,3.032-1.465,3.236,3.236,0,0,1,2.549,1.152V4h2.832V19h-2.549l-.137-1.123a3.321,3.321,0,0,1-2.715,1.318,3.587,3.587,0,0,1-2.993-1.47A6.573,6.573,0,0,1,126.291,13.639Zm2.822.2a4.194,4.194,0,0,0,.518,2.286,1.685,1.685,0,0,0,1.5.795,1.888,1.888,0,0,0,1.846-1.109V11.622a1.861,1.861,0,0,0-1.826-1.109Q129.113,10.514,129.113,13.839ZM140.979,19h-2.832V8.434h2.832Zm-3-13.3a1.39,1.39,0,0,1,.425-1.045,1.831,1.831,0,0,1,2.31,0,1.382,1.382,0,0,1,.43,1.045,1.386,1.386,0,0,1-.435,1.055,1.81,1.81,0,0,1-2.295,0A1.386,1.386,0,0,1,137.98,5.7ZM147.7,16.92a1.851,1.851,0,0,0,1.27-.43,1.506,1.506,0,0,0,.508-1.143h2.646a3.62,3.62,0,0,1-.586,1.968,3.866,3.866,0,0,1-1.577,1.387,4.936,4.936,0,0,1-2.212.493,4.587,4.587,0,0,1-3.574-1.44,5.7,5.7,0,0,1-1.309-3.979V13.59a5.635,5.635,0,0,1,1.3-3.9,4.534,4.534,0,0,1,3.564-1.455,4.444,4.444,0,0,1,3.179,1.128,3.994,3.994,0,0,1,1.216,3h-2.646a1.939,1.939,0,0,0-.508-1.34,1.887,1.887,0,0,0-2.778.2,4.166,4.166,0,0,0-.5,2.333v.293a4.219,4.219,0,0,0,.5,2.347A1.721,1.721,0,0,0,147.7,16.92ZM159.855,19a3.134,3.134,0,0,1-.283-.947,3.415,3.415,0,0,1-2.666,1.143,3.752,3.752,0,0,1-2.573-.9,2.889,2.889,0,0,1-1.021-2.266,2.986,2.986,0,0,1,1.245-2.578,6.144,6.144,0,0,1,3.6-.908h1.3v-.605a1.741,1.741,0,0,0-.376-1.172,1.479,1.479,0,0,0-1.187-.439,1.682,1.682,0,0,0-1.118.342,1.161,1.161,0,0,0-.405.938h-2.822a2.835,2.835,0,0,1,.566-1.7,3.744,3.744,0,0,1,1.6-1.226,5.837,5.837,0,0,1,2.324-.444,4.611,4.611,0,0,1,3.1.981,3.433,3.433,0,0,1,1.147,2.759v4.58a5.052,5.052,0,0,0,.42,2.275V19Zm-2.334-1.963a2.431,2.431,0,0,0,1.152-.278,1.828,1.828,0,0,0,.781-.747V14.2H158.4q-2.119,0-2.256,1.465l-.01.166a1.13,1.13,0,0,0,.371.869A1.441,1.441,0,0,0,157.521,17.037Zm6.494-3.4A6.368,6.368,0,0,1,165.124,9.7a3.6,3.6,0,0,1,3.032-1.465,3.236,3.236,0,0,1,2.549,1.152V4h2.832V19h-2.549l-.137-1.123a3.321,3.321,0,0,1-2.715,1.318,3.587,3.587,0,0,1-2.993-1.47A6.573,6.573,0,0,1,164.016,13.639Zm2.822.2a4.194,4.194,0,0,0,.518,2.286,1.685,1.685,0,0,0,1.5.795,1.888,1.888,0,0,0,1.846-1.109V11.622a1.861,1.861,0,0,0-1.826-1.109Q166.838,10.514,166.838,13.839Zm8.447-.22a6.267,6.267,0,0,1,.605-2.8,4.432,4.432,0,0,1,1.743-1.9,5.086,5.086,0,0,1,2.642-.674,4.812,4.812,0,0,1,3.491,1.309,5.252,5.252,0,0,1,1.509,3.555l.02.723a5.523,5.523,0,0,1-1.357,3.9,5.261,5.261,0,0,1-7.29,0,5.62,5.62,0,0,1-1.362-3.984Zm2.822.2a3.95,3.95,0,0,0,.566,2.3,2.035,2.035,0,0,0,3.223.01,4.322,4.322,0,0,0,.576-2.518,3.91,3.91,0,0,0-.576-2.289,1.873,1.873,0,0,0-1.621-.812,1.842,1.842,0,0,0-1.6.807A4.395,4.395,0,0,0,178.107,13.819Zm14.863-2.739A7.667,7.667,0,0,0,191.955,11a2.067,2.067,0,0,0-2.1,1.084V19h-2.822V8.434H189.7l.078,1.26a2.615,2.615,0,0,1,2.354-1.455,2.957,2.957,0,0,1,.879.127Zm5.9,2.559A6.368,6.368,0,0,1,199.978,9.7a3.6,3.6,0,0,1,3.032-1.465,3.236,3.236,0,0,1,2.549,1.152V4h2.832V19h-2.549l-.137-1.123A3.321,3.321,0,0,1,202.99,19.2,3.587,3.587,0,0,1,200,17.726,6.573,6.573,0,0,1,198.869,13.639Zm2.822.2a4.194,4.194,0,0,0,.518,2.286,1.685,1.685,0,0,0,1.5.795,1.888,1.888,0,0,0,1.846-1.109V11.622a1.861,1.861,0,0,0-1.826-1.109Q201.691,10.514,201.691,13.839Zm13.75,5.356a5.187,5.187,0,0,1-3.784-1.426,5.068,5.068,0,0,1-1.46-3.8V13.7a6.383,6.383,0,0,1,.615-2.847,4.515,4.515,0,0,1,1.743-1.934,4.893,4.893,0,0,1,2.573-.679,4.385,4.385,0,0,1,3.413,1.367,5.555,5.555,0,0,1,1.245,3.877v1.152h-6.729a2.622,2.622,0,0,0,.825,1.66,2.5,2.5,0,0,0,1.743.625,3.046,3.046,0,0,0,2.549-1.182l1.387,1.553a4.237,4.237,0,0,1-1.719,1.4A5.639,5.639,0,0,1,215.441,19.2Zm-.322-8.682a1.764,1.764,0,0,0-1.362.569,2.946,2.946,0,0,0-.669,1.628h3.926v-.226a2.1,2.1,0,0,0-.508-1.457A1.819,1.819,0,0,0,215.119,10.514Zm10.84,3.125a6.193,6.193,0,0,1,1.157-3.916,3.75,3.75,0,0,1,3.12-1.484,3.289,3.289,0,0,1,2.705,1.191l.117-1h2.559V18.648a4.516,4.516,0,0,1-.63,2.412,4.045,4.045,0,0,1-1.772,1.563,6.231,6.231,0,0,1-2.676.537,5.794,5.794,0,0,1-2.266-.464,4.021,4.021,0,0,1-1.67-1.2l1.25-1.719a3.306,3.306,0,0,0,2.559,1.182,2.42,2.42,0,0,0,1.748-.6,2.253,2.253,0,0,0,.625-1.7v-.566a3.264,3.264,0,0,1-2.568,1.1,3.74,3.74,0,0,1-3.081-1.489,6.191,6.191,0,0,1-1.177-3.95Zm2.822.2a3.877,3.877,0,0,0,.576,2.261,1.831,1.831,0,0,0,1.582.819,1.958,1.958,0,0,0,1.846-.971V11.485a1.954,1.954,0,0,0-1.826-.971,1.843,1.843,0,0,0-1.6.834A4.37,4.37,0,0,0,228.781,13.839ZM242.648,19.2a5.187,5.187,0,0,1-3.784-1.426,5.068,5.068,0,0,1-1.46-3.8V13.7a6.383,6.383,0,0,1,.615-2.847,4.515,4.515,0,0,1,1.743-1.934,4.893,4.893,0,0,1,2.573-.679,4.385,4.385,0,0,1,3.413,1.367,5.555,5.555,0,0,1,1.245,3.877v1.152h-6.729a2.622,2.622,0,0,0,.825,1.66,2.5,2.5,0,0,0,1.743.625,3.046,3.046,0,0,0,2.549-1.182l1.387,1.553a4.237,4.237,0,0,1-1.719,1.4A5.639,5.639,0,0,1,242.648,19.2Zm-.322-8.682a1.764,1.764,0,0,0-1.362.569,2.946,2.946,0,0,0-.669,1.628h3.926v-.226a2.1,2.1,0,0,0-.508-1.457A1.819,1.819,0,0,0,242.326,10.514Zm11.992,5.566a.909.909,0,0,0-.513-.815,5.824,5.824,0,0,0-1.646-.532q-3.77-.791-3.77-3.2a2.9,2.9,0,0,1,1.167-2.349,4.708,4.708,0,0,1,3.052-.942,5.067,5.067,0,0,1,3.218.947,2.985,2.985,0,0,1,1.206,2.461h-2.822a1.366,1.366,0,0,0-.391-1,1.653,1.653,0,0,0-1.221-.4,1.689,1.689,0,0,0-1.1.322,1.017,1.017,0,0,0-.391.82.87.87,0,0,0,.444.757,4.571,4.571,0,0,0,1.5.5,12.244,12.244,0,0,1,1.777.474,2.92,2.92,0,0,1,2.236,2.842,2.756,2.756,0,0,1-1.24,2.339,5.35,5.35,0,0,1-3.2.894,5.588,5.588,0,0,1-2.358-.474,3.957,3.957,0,0,1-1.616-1.3,3.018,3.018,0,0,1-.586-1.782h2.676a1.473,1.473,0,0,0,.557,1.152,2.208,2.208,0,0,0,1.387.4,2.044,2.044,0,0,0,1.226-.308A.957.957,0,0,0,254.318,16.08Zm7.939-10.244v2.6h1.807V10.5h-1.807v5.273a1.259,1.259,0,0,0,.225.84,1.128,1.128,0,0,0,.859.254,4.5,4.5,0,0,0,.83-.068v2.139a5.81,5.81,0,0,1-1.709.254q-2.969,0-3.027-3V10.5h-1.543V8.434h1.543v-2.6ZM268.615,19h-2.832V8.434h2.832Zm-3-13.3a1.39,1.39,0,0,1,.425-1.045,1.831,1.831,0,0,1,2.31,0,1.382,1.382,0,0,1,.43,1.045,1.386,1.386,0,0,1-.435,1.055,1.81,1.81,0,0,1-2.295,0A1.386,1.386,0,0,1,265.617,5.7Zm4.883,7.92a6.266,6.266,0,0,1,.605-2.8,4.432,4.432,0,0,1,1.743-1.9,5.086,5.086,0,0,1,2.642-.674,4.812,4.812,0,0,1,3.491,1.309A5.252,5.252,0,0,1,280.49,13.1l.02.723a5.523,5.523,0,0,1-1.357,3.9,5.261,5.261,0,0,1-7.29,0,5.62,5.62,0,0,1-1.362-3.984Zm2.822.2a3.95,3.95,0,0,0,.566,2.3,2.035,2.035,0,0,0,3.223.01,4.322,4.322,0,0,0,.576-2.518,3.91,3.91,0,0,0-.576-2.289,1.873,1.873,0,0,0-1.621-.812,1.842,1.842,0,0,0-1.6.807A4.395,4.395,0,0,0,273.322,13.819ZM276.047,4h3.076l-2.705,3.027h-2.295Zm8.8,4.434.088,1.221a3.689,3.689,0,0,1,3.037-1.416,3.066,3.066,0,0,1,2.5.986,4.6,4.6,0,0,1,.84,2.949V19h-2.822V12.227a1.838,1.838,0,0,0-.391-1.307,1.746,1.746,0,0,0-1.3-.406,1.941,1.941,0,0,0-1.787,1.018V19h-2.822V8.434Z" transform="translate(908 3536)" fill="#12263f"/>
    <g id="Grupo_55011" data-name="Grupo 55011" transform="translate(624)">
      <g id="Grupo_55010" data-name="Grupo 55010" transform="translate(196.95 3578.313)">
        <g id="Grupo_54981" data-name="Grupo 54981" transform="translate(114.05 5.687)">
          <line id="Línea_145" data-name="Línea 145" x2="64.27" transform="translate(27.349 27.523)" fill="none" stroke="#681ae6" stroke-miterlimit="10" stroke-width="2" stroke-dasharray="12 3"/>
          <path id="Rectángulo_5547" data-name="Rectángulo 5547" d="M0,0H253a14,14,0,0,1,14,14V24a14,14,0,0,1-14,14H0a0,0,0,0,1,0,0V0A0,0,0,0,1,0,0Z" transform="translate(75 8.001)" fill="#6d48ca"/>
          <circle id="Elipse_4211" data-name="Elipse 4211" cx="27.5" cy="27.5" r="27.5" transform="translate(0 0.001)" fill="#febd31"/>
          <path id="Trazado_104104" data-name="Trazado 104104" d="M2.93,0H1.43V-11.375h1.5ZM2.883-14.5h1.75L2.539-12.2l-1.164,0Zm3.93,6.047.047,1.063A3.08,3.08,0,0,1,9.391-8.609q2.68,0,2.7,3.023V0H10.648V-5.594a1.946,1.946,0,0,0-.418-1.352,1.675,1.675,0,0,0-1.277-.437,2.086,2.086,0,0,0-1.234.375,2.546,2.546,0,0,0-.828.984V0H5.445V-8.453ZM13.922-4.3a4.952,4.952,0,0,1,.922-3.129,2.915,2.915,0,0,1,2.414-1.184,2.932,2.932,0,0,1,2.352,1.016V-12h1.445V0H19.727l-.07-.906A2.943,2.943,0,0,1,17.242.156a2.887,2.887,0,0,1-2.395-1.2,5.008,5.008,0,0,1-.926-3.141Zm1.445.164a3.749,3.749,0,0,0,.594,2.25A1.92,1.92,0,0,0,17.6-1.07,2.108,2.108,0,0,0,19.609-2.3V-6.187a2.125,2.125,0,0,0-1.992-1.2,1.929,1.929,0,0,0-1.656.82A4.128,4.128,0,0,0,15.367-4.133ZM24.867,0H23.422V-8.453h1.445ZM23.3-10.7a.863.863,0,0,1,.215-.594.807.807,0,0,1,.637-.242.819.819,0,0,1,.641.242.854.854,0,0,1,.219.594.826.826,0,0,1-.219.586.834.834,0,0,1-.641.234.821.821,0,0,1-.637-.234A.834.834,0,0,1,23.3-10.7ZM30.57-1.023a2.082,2.082,0,0,0,1.352-.469,1.649,1.649,0,0,0,.641-1.172H33.93a2.621,2.621,0,0,1-.5,1.383A3.293,3.293,0,0,1,32.2-.234,3.55,3.55,0,0,1,30.57.156,3.482,3.482,0,0,1,27.824-1,4.59,4.59,0,0,1,26.8-4.148v-.242a5.089,5.089,0,0,1,.453-2.2,3.451,3.451,0,0,1,1.3-1.492,3.7,3.7,0,0,1,2-.531,3.39,3.39,0,0,1,2.363.852,3.043,3.043,0,0,1,1,2.211H32.563a1.992,1.992,0,0,0-.621-1.348,1.932,1.932,0,0,0-1.379-.527,2.023,2.023,0,0,0-1.707.793,3.724,3.724,0,0,0-.605,2.293v.273a3.65,3.65,0,0,0,.6,2.25A2.033,2.033,0,0,0,30.57-1.023ZM39.063.156a3.693,3.693,0,0,1-2.8-1.129,4.19,4.19,0,0,1-1.078-3.02v-.266a5.073,5.073,0,0,1,.48-2.246,3.748,3.748,0,0,1,1.344-1.547,3.378,3.378,0,0,1,1.871-.559,3.166,3.166,0,0,1,2.563,1.086,4.7,4.7,0,0,1,.914,3.109v.6H36.633a3,3,0,0,0,.73,2.02,2.3,2.3,0,0,0,1.777.77,2.517,2.517,0,0,0,1.3-.312,3.259,3.259,0,0,0,.93-.828l.883.688A3.55,3.55,0,0,1,39.063.156Zm-.18-7.578a1.928,1.928,0,0,0-1.469.637A3.1,3.1,0,0,0,36.68-5h4.234v-.109a2.753,2.753,0,0,0-.594-1.707A1.815,1.815,0,0,0,38.883-7.422Z" transform="translate(91.514 30.794)" fill="#fff"/>
        </g>
        <g id="Grupo_54983" data-name="Grupo 54983" transform="translate(114.05 62.864)">
          <line id="Línea_146" data-name="Línea 146" x2="64.27" transform="translate(27.349 27.349)" fill="none" stroke="#681ae6" stroke-miterlimit="10" stroke-width="2" stroke-dasharray="12 3"/>
          <g id="Grupo_54982" data-name="Grupo 54982" transform="translate(0 0)">
            <path id="Rectángulo_5548" data-name="Rectángulo 5548" d="M0,0H253.416a14,14,0,0,1,14,14V24.289a14,14,0,0,1-14,14H0a0,0,0,0,1,0,0V0A0,0,0,0,1,0,0Z" transform="translate(75.21 8.205)" fill="#6d48ca"/>
            <circle id="Elipse_4212" data-name="Elipse 4212" cx="27.349" cy="27.349" r="27.349" fill="#febd31"/>
            <path id="Trazado_104105" data-name="Trazado 104105" d="M7.6-2.977H2.836L1.766,0H.219L4.563-11.375H5.875L10.227,0H8.688ZM3.289-4.2H7.156L5.219-9.523ZM13.1,0H11.656V-12H13.1Zm5.7-1.023a2.082,2.082,0,0,0,1.352-.469A1.649,1.649,0,0,0,20.8-2.664h1.367a2.621,2.621,0,0,1-.5,1.383,3.293,3.293,0,0,1-1.23,1.047A3.55,3.55,0,0,1,18.8.156,3.482,3.482,0,0,1,16.059-1a4.59,4.59,0,0,1-1.02-3.152v-.242a5.089,5.089,0,0,1,.453-2.2,3.451,3.451,0,0,1,1.3-1.492,3.7,3.7,0,0,1,2-.531,3.39,3.39,0,0,1,2.363.852,3.043,3.043,0,0,1,1,2.211H20.8a1.992,1.992,0,0,0-.621-1.348A1.932,1.932,0,0,0,18.8-7.422a2.023,2.023,0,0,0-1.707.793,3.724,3.724,0,0,0-.605,2.293v.273a3.65,3.65,0,0,0,.6,2.25A2.033,2.033,0,0,0,18.8-1.023ZM29.008,0a3.036,3.036,0,0,1-.2-.891A3.225,3.225,0,0,1,26.4.156a2.984,2.984,0,0,1-2.051-.707,2.287,2.287,0,0,1-.8-1.793,2.39,2.39,0,0,1,1-2.051,4.733,4.733,0,0,1,2.824-.73h1.406v-.664A1.623,1.623,0,0,0,28.328-7a1.821,1.821,0,0,0-1.336-.449,2.108,2.108,0,0,0-1.3.391,1.151,1.151,0,0,0-.523.945H23.719a2,2,0,0,1,.449-1.223,3.066,3.066,0,0,1,1.219-.934,4.1,4.1,0,0,1,1.691-.344,3.342,3.342,0,0,1,2.289.73,2.635,2.635,0,0,1,.859,2.012v3.891a4.757,4.757,0,0,0,.3,1.852V0Zm-2.4-1.1A2.54,2.54,0,0,0,27.9-1.453a2.127,2.127,0,0,0,.883-.914V-4.1H27.648q-2.656,0-2.656,1.555a1.316,1.316,0,0,0,.453,1.063A1.742,1.742,0,0,0,26.609-1.1Zm7.25-7.352.047,1.063a3.08,3.08,0,0,1,2.531-1.219q2.68,0,2.7,3.023V0H37.7V-5.594a1.946,1.946,0,0,0-.418-1.352A1.675,1.675,0,0,0,36-7.383a2.086,2.086,0,0,0-1.234.375,2.546,2.546,0,0,0-.828.984V0H32.492V-8.453Zm10.852,7.43a2.082,2.082,0,0,0,1.352-.469A1.649,1.649,0,0,0,46.7-2.664H48.07a2.621,2.621,0,0,1-.5,1.383A3.293,3.293,0,0,1,46.34-.234a3.55,3.55,0,0,1-1.629.391A3.482,3.482,0,0,1,41.965-1a4.59,4.59,0,0,1-1.02-3.152v-.242a5.089,5.089,0,0,1,.453-2.2,3.451,3.451,0,0,1,1.3-1.492,3.7,3.7,0,0,1,2-.531,3.39,3.39,0,0,1,2.363.852,3.043,3.043,0,0,1,1,2.211H46.7a1.992,1.992,0,0,0-.621-1.348A1.932,1.932,0,0,0,44.7-7.422,2.023,2.023,0,0,0,43-6.629a3.724,3.724,0,0,0-.605,2.293v.273a3.65,3.65,0,0,0,.6,2.25A2.033,2.033,0,0,0,44.711-1.023ZM53.2.156a3.693,3.693,0,0,1-2.8-1.129,4.19,4.19,0,0,1-1.078-3.02v-.266a5.073,5.073,0,0,1,.48-2.246,3.748,3.748,0,0,1,1.344-1.547,3.378,3.378,0,0,1,1.871-.559,3.166,3.166,0,0,1,2.563,1.086A4.7,4.7,0,0,1,56.5-4.414v.6H50.773a3,3,0,0,0,.73,2.02,2.3,2.3,0,0,0,1.777.77,2.517,2.517,0,0,0,1.3-.312,3.259,3.259,0,0,0,.93-.828l.883.688A3.55,3.55,0,0,1,53.2.156Zm-.18-7.578a1.928,1.928,0,0,0-1.469.637A3.1,3.1,0,0,0,50.82-5h4.234v-.109a2.753,2.753,0,0,0-.594-1.707A1.815,1.815,0,0,0,53.023-7.422Z" transform="translate(91.513 30.27)" fill="#fff"/>
          </g>
        </g>
        <g id="Grupo_54984" data-name="Grupo 54984" transform="translate(114.05 120.981)">
          <line id="Línea_147" data-name="Línea 147" x2="64.27" transform="translate(27.349 27.349)" fill="none" stroke="#681ae6" stroke-miterlimit="10" stroke-width="2" stroke-dasharray="12 3"/>
          <path id="Rectángulo_5549" data-name="Rectángulo 5549" d="M0,0H253.416a14,14,0,0,1,14,14V24.289a14,14,0,0,1-14,14H0a0,0,0,0,1,0,0V0A0,0,0,0,1,0,0Z" transform="matrix(1, -0.017, 0.017, 1, 74.883, 9.114)" fill="#6d48ca"/>
          <circle id="Elipse_4213" data-name="Elipse 4213" cx="27.349" cy="27.349" r="27.349" fill="#febd31"/>
          <path id="Trazado_104106" data-name="Trazado 104106" d="M3.258-11.375,6.977-2.094,10.7-11.375h1.945V0h-1.5V-4.43l.141-4.781L7.547,0H6.4L2.672-9.187,2.82-4.43V0H1.32V-11.375ZM18.57.156a3.693,3.693,0,0,1-2.8-1.129A4.19,4.19,0,0,1,14.7-3.992v-.266a5.073,5.073,0,0,1,.48-2.246A3.748,3.748,0,0,1,16.52-8.051a3.378,3.378,0,0,1,1.871-.559,3.166,3.166,0,0,1,2.563,1.086,4.7,4.7,0,0,1,.914,3.109v.6H16.141a3,3,0,0,0,.73,2.02,2.3,2.3,0,0,0,1.777.77,2.517,2.517,0,0,0,1.3-.312,3.259,3.259,0,0,0,.93-.828l.883.688A3.55,3.55,0,0,1,18.57.156Zm-.18-7.578a1.928,1.928,0,0,0-1.469.637A3.1,3.1,0,0,0,16.188-5h4.234v-.109a2.753,2.753,0,0,0-.594-1.707A1.815,1.815,0,0,0,18.391-7.422ZM25.5-10.5v2.047h1.578v1.117H25.5v5.249a1.173,1.173,0,0,0,.211.763.888.888,0,0,0,.719.254,3.5,3.5,0,0,0,.688-.094V0a4.215,4.215,0,0,1-1.109.155A1.8,1.8,0,0,1,24.547-.43a2.517,2.517,0,0,1-.492-1.664V-7.336H22.516V-8.453h1.539V-10.5ZM33.984,0a3.036,3.036,0,0,1-.2-.891A3.225,3.225,0,0,1,31.375.156a2.984,2.984,0,0,1-2.051-.707,2.287,2.287,0,0,1-.8-1.793,2.39,2.39,0,0,1,1-2.051,4.733,4.733,0,0,1,2.824-.73h1.406v-.664A1.623,1.623,0,0,0,33.3-7a1.821,1.821,0,0,0-1.336-.449,2.108,2.108,0,0,0-1.3.391,1.151,1.151,0,0,0-.523.945H28.7a2,2,0,0,1,.449-1.223,3.066,3.066,0,0,1,1.219-.934,4.1,4.1,0,0,1,1.691-.344,3.342,3.342,0,0,1,2.289.73A2.635,2.635,0,0,1,35.2-5.867v3.891a4.757,4.757,0,0,0,.3,1.852V0Zm-2.4-1.1a2.54,2.54,0,0,0,1.289-.352,2.127,2.127,0,0,0,.883-.914V-4.1H32.625q-2.656,0-2.656,1.555a1.316,1.316,0,0,0,.453,1.063A1.742,1.742,0,0,0,31.586-1.1Z" transform="translate(91.513 30.27)" fill="#fff"/>
        </g>
        <g id="Grupo_54985" data-name="Grupo 54985" transform="translate(114.05 178.414)">
          <line id="Línea_148" data-name="Línea 148" x2="64.27" transform="translate(27.349 27.349)" fill="none" stroke="#681ae6" stroke-miterlimit="10" stroke-width="2" stroke-dasharray="12 3"/>
          <path id="Rectángulo_5550" data-name="Rectángulo 5550" d="M0,0H253.416a14,14,0,0,1,14,14V24.289a14,14,0,0,1-14,14H0a0,0,0,0,1,0,0V0A0,0,0,0,1,0,0Z" transform="translate(75.21 8.205)" fill="#6d48ca"/>
          <circle id="Elipse_4214" data-name="Elipse 4214" cx="27.349" cy="27.349" r="27.349" fill="#febd31"/>
          <path id="Trazado_104107" data-name="Trazado 104107" d="M5.492-4.6H2.82V0H1.313V-11.375H5.078a4.457,4.457,0,0,1,2.957.875A3.148,3.148,0,0,1,9.07-7.953,3.062,3.062,0,0,1,8.5-6.1a3.428,3.428,0,0,1-1.6,1.18L9.57-.094V0H7.961ZM2.82-5.828h2.3A2.6,2.6,0,0,0,6.9-6.407a1.959,1.959,0,0,0,.66-1.55,2.062,2.062,0,0,0-.629-1.62,2.663,2.663,0,0,0-1.816-.571H2.82ZM14.453.156a3.693,3.693,0,0,1-2.8-1.129,4.19,4.19,0,0,1-1.078-3.02v-.266a5.073,5.073,0,0,1,.48-2.246A3.748,3.748,0,0,1,12.4-8.051a3.378,3.378,0,0,1,1.871-.559,3.166,3.166,0,0,1,2.563,1.086,4.7,4.7,0,0,1,.914,3.109v.6H12.023a3,3,0,0,0,.73,2.02,2.3,2.3,0,0,0,1.777.77,2.517,2.517,0,0,0,1.3-.312,3.259,3.259,0,0,0,.93-.828l.883.688A3.55,3.55,0,0,1,14.453.156Zm-.18-7.578a1.928,1.928,0,0,0-1.469.637A3.1,3.1,0,0,0,12.07-5H16.3v-.109a2.753,2.753,0,0,0-.594-1.707A1.815,1.815,0,0,0,14.273-7.422Zm10.07,5.18a1.064,1.064,0,0,0-.441-.91,4.249,4.249,0,0,0-1.539-.559,7.277,7.277,0,0,1-1.742-.562,2.479,2.479,0,0,1-.953-.781,1.869,1.869,0,0,1-.309-1.078,2.193,2.193,0,0,1,.879-1.758,3.432,3.432,0,0,1,2.246-.719,3.532,3.532,0,0,1,2.332.742,2.357,2.357,0,0,1,.895,1.9H24.258a1.3,1.3,0,0,0-.5-1.023,1.888,1.888,0,0,0-1.27-.43,1.976,1.976,0,0,0-1.234.344,1.082,1.082,0,0,0-.445.9.877.877,0,0,0,.414.789,5.1,5.1,0,0,0,1.5.508,7.8,7.8,0,0,1,1.754.578,2.558,2.558,0,0,1,1,.809,1.988,1.988,0,0,1,.324,1.152,2.163,2.163,0,0,1-.906,1.816,3.8,3.8,0,0,1-2.352.684,4.257,4.257,0,0,1-1.8-.359,2.922,2.922,0,0,1-1.223-1A2.42,2.42,0,0,1,19.07-2.6h1.445A1.5,1.5,0,0,0,21.1-1.449a2.258,2.258,0,0,0,1.434.426,2.331,2.331,0,0,0,1.316-.332A1.02,1.02,0,0,0,24.344-2.242ZM34.813-4.133a5.062,5.062,0,0,1-.883,3.109A2.829,2.829,0,0,1,31.539.156,3.1,3.1,0,0,1,29.117-.82V3.25H27.672v-11.7h1.32l.07.938a2.977,2.977,0,0,1,2.453-1.094,2.882,2.882,0,0,1,2.41,1.148,5.117,5.117,0,0,1,.887,3.2ZM33.367-4.3a3.735,3.735,0,0,0-.609-2.258,1.963,1.963,0,0,0-1.672-.828,2.125,2.125,0,0,0-1.969,1.164V-2.18A2.129,2.129,0,0,0,31.1-1.023a1.954,1.954,0,0,0,1.652-.824A4.077,4.077,0,0,0,33.367-4.3Zm2.9-.008a4.993,4.993,0,0,1,.488-2.234A3.643,3.643,0,0,1,38.113-8.07,3.7,3.7,0,0,1,40.1-8.609a3.565,3.565,0,0,1,2.793,1.2,4.6,4.6,0,0,1,1.066,3.18v.1a5.036,5.036,0,0,1-.473,2.215A3.589,3.589,0,0,1,42.137-.391a3.743,3.743,0,0,1-2.02.547,3.556,3.556,0,0,1-2.785-1.2A4.575,4.575,0,0,1,36.266-4.2Zm1.453.172a3.616,3.616,0,0,0,.652,2.258,2.088,2.088,0,0,0,1.746.852,2.075,2.075,0,0,0,1.75-.863A3.955,3.955,0,0,0,42.516-4.3a3.61,3.61,0,0,0-.66-2.254A2.1,2.1,0,0,0,40.1-7.422a2.075,2.075,0,0,0-1.727.852A3.925,3.925,0,0,0,37.719-4.133Zm9.422-4.32.047,1.063a3.08,3.08,0,0,1,2.531-1.219q2.68,0,2.7,3.023V0H50.977V-5.594a1.946,1.946,0,0,0-.418-1.352,1.675,1.675,0,0,0-1.277-.437,2.086,2.086,0,0,0-1.234.375,2.546,2.546,0,0,0-.828.984V0H45.773V-8.453ZM59.523-2.242a1.064,1.064,0,0,0-.441-.91,4.249,4.249,0,0,0-1.539-.559A7.277,7.277,0,0,1,55.8-4.273a2.479,2.479,0,0,1-.953-.781,1.869,1.869,0,0,1-.309-1.078,2.193,2.193,0,0,1,.879-1.758,3.432,3.432,0,0,1,2.246-.719A3.532,3.532,0,0,1,60-7.867a2.357,2.357,0,0,1,.895,1.9H59.438a1.3,1.3,0,0,0-.5-1.023,1.888,1.888,0,0,0-1.27-.43,1.976,1.976,0,0,0-1.234.344,1.082,1.082,0,0,0-.445.9.877.877,0,0,0,.414.789,5.1,5.1,0,0,0,1.5.508,7.8,7.8,0,0,1,1.754.578,2.558,2.558,0,0,1,1,.809,1.988,1.988,0,0,1,.324,1.152,2.163,2.163,0,0,1-.906,1.816,3.8,3.8,0,0,1-2.352.684,4.257,4.257,0,0,1-1.8-.359,2.922,2.922,0,0,1-1.223-1A2.42,2.42,0,0,1,54.25-2.6H55.7a1.5,1.5,0,0,0,.582,1.152,2.258,2.258,0,0,0,1.434.426,2.331,2.331,0,0,0,1.316-.332A1.02,1.02,0,0,0,59.523-2.242ZM68.07,0a3.036,3.036,0,0,1-.2-.891A3.225,3.225,0,0,1,65.461.156,2.984,2.984,0,0,1,63.41-.551a2.287,2.287,0,0,1-.8-1.793,2.39,2.39,0,0,1,1-2.051,4.733,4.733,0,0,1,2.824-.73h1.406v-.664A1.623,1.623,0,0,0,67.391-7a1.821,1.821,0,0,0-1.336-.449,2.108,2.108,0,0,0-1.3.391,1.151,1.151,0,0,0-.523.945H62.781a2,2,0,0,1,.449-1.223,3.066,3.066,0,0,1,1.219-.934,4.1,4.1,0,0,1,1.691-.344,3.342,3.342,0,0,1,2.289.73,2.635,2.635,0,0,1,.859,2.012v3.891a4.757,4.757,0,0,0,.3,1.852V0Zm-2.4-1.1a2.54,2.54,0,0,0,1.289-.352,2.127,2.127,0,0,0,.883-.914V-4.1H66.711q-2.656,0-2.656,1.555a1.316,1.316,0,0,0,.453,1.063A1.742,1.742,0,0,0,65.672-1.1ZM78.711-4.133A5.026,5.026,0,0,1,77.82-1.02,2.846,2.846,0,0,1,75.43.156,2.947,2.947,0,0,1,72.953-.977L72.883,0H71.555V-12H73v4.477a2.93,2.93,0,0,1,2.414-1.086,2.863,2.863,0,0,1,2.418,1.164,5.177,5.177,0,0,1,.879,3.188ZM77.266-4.3a3.906,3.906,0,0,0-.57-2.281,1.888,1.888,0,0,0-1.641-.8A2.122,2.122,0,0,0,73-6.055V-2.4A2.181,2.181,0,0,0,75.07-1.07a1.878,1.878,0,0,0,1.617-.8A4.153,4.153,0,0,0,77.266-4.3ZM82.1,0H80.656V-12H82.1Zm5.82.156a3.693,3.693,0,0,1-2.8-1.129,4.19,4.19,0,0,1-1.078-3.02v-.266a5.073,5.073,0,0,1,.48-2.246,3.748,3.748,0,0,1,1.344-1.547,3.378,3.378,0,0,1,1.871-.559A3.166,3.166,0,0,1,90.3-7.523a4.7,4.7,0,0,1,.914,3.109v.6H85.492a3,3,0,0,0,.73,2.02A2.3,2.3,0,0,0,88-1.023a2.517,2.517,0,0,0,1.3-.312,3.259,3.259,0,0,0,.93-.828l.883.688A3.55,3.55,0,0,1,87.922.156Zm-.18-7.578a1.928,1.928,0,0,0-1.469.637A3.1,3.1,0,0,0,85.539-5h4.234v-.109a2.753,2.753,0,0,0-.594-1.707A1.815,1.815,0,0,0,87.742-7.422Z" transform="translate(91.513 30.27)" fill="#fff"/>
        </g>
        <g id="Grupo_54986" data-name="Grupo 54986" transform="translate(114.05 235.846)">
          <line id="Línea_149" data-name="Línea 149" x2="64.27" transform="translate(27.349 27.349)" fill="none" stroke="#681ae6" stroke-miterlimit="10" stroke-width="2" stroke-dasharray="12 3"/>
          <path id="Rectángulo_5551" data-name="Rectángulo 5551" d="M0,0H253.416a14,14,0,0,1,14,14V24.289a14,14,0,0,1-14,14H0a0,0,0,0,1,0,0V0A0,0,0,0,1,0,0Z" transform="translate(75.21 8.205)" fill="#6d48ca"/>
          <circle id="Elipse_4215" data-name="Elipse 4215" cx="27.349" cy="27.349" r="27.349" fill="#febd31"/>
          <path id="Trazado_104108" data-name="Trazado 104108" d="M7.594-5.023H2.82V0H1.32V-11.375H8.367v1.227H2.82v3.9H7.594Zm1.8.719a4.993,4.993,0,0,1,.488-2.234A3.643,3.643,0,0,1,11.238-8.07a3.7,3.7,0,0,1,1.988-.539,3.565,3.565,0,0,1,2.793,1.2,4.6,4.6,0,0,1,1.066,3.18v.1a5.036,5.036,0,0,1-.473,2.215A3.589,3.589,0,0,1,15.262-.391a3.743,3.743,0,0,1-2.02.547,3.556,3.556,0,0,1-2.785-1.2A4.575,4.575,0,0,1,9.391-4.2Zm1.453.172A3.616,3.616,0,0,0,11.5-1.875a2.088,2.088,0,0,0,1.746.852,2.075,2.075,0,0,0,1.75-.863A3.955,3.955,0,0,0,15.641-4.3a3.61,3.61,0,0,0-.66-2.254,2.1,2.1,0,0,0-1.754-.863A2.075,2.075,0,0,0,11.5-6.57,3.925,3.925,0,0,0,10.844-4.133ZM22.984-7.156a4.331,4.331,0,0,0-.711-.055A1.9,1.9,0,0,0,20.344-6V0H18.9V-8.453H20.3l.023.977a2.251,2.251,0,0,1,2.016-1.133,1.477,1.477,0,0,1,.641.109Zm2.688-1.3.039.938a3.122,3.122,0,0,1,2.508-1.094A2.417,2.417,0,0,1,30.633-7.25a3.2,3.2,0,0,1,1.1-.984,3.242,3.242,0,0,1,1.6-.375q2.781,0,2.828,2.945V0H34.711V-5.578A1.941,1.941,0,0,0,34.3-6.934a1.823,1.823,0,0,0-1.391-.449,1.916,1.916,0,0,0-1.336.48,1.949,1.949,0,0,0-.617,1.293V0H29.5V-5.539a1.613,1.613,0,0,0-1.8-1.844A1.934,1.934,0,0,0,25.75-6.172V0H24.3V-8.453ZM43.555,0a3.036,3.036,0,0,1-.2-.891A3.225,3.225,0,0,1,40.945.156a2.984,2.984,0,0,1-2.051-.707,2.287,2.287,0,0,1-.8-1.793,2.39,2.39,0,0,1,1-2.051,4.733,4.733,0,0,1,2.824-.73h1.406v-.664A1.623,1.623,0,0,0,42.875-7a1.821,1.821,0,0,0-1.336-.449,2.107,2.107,0,0,0-1.3.391,1.151,1.151,0,0,0-.523.945H38.266a2,2,0,0,1,.449-1.223,3.066,3.066,0,0,1,1.219-.934,4.1,4.1,0,0,1,1.691-.344,3.342,3.342,0,0,1,2.289.73,2.635,2.635,0,0,1,.859,2.012v3.891a4.757,4.757,0,0,0,.3,1.852V0Zm-2.4-1.1a2.54,2.54,0,0,0,1.289-.352,2.127,2.127,0,0,0,.883-.914V-4.1H42.2q-2.656,0-2.656,1.555a1.316,1.316,0,0,0,.453,1.063A1.742,1.742,0,0,0,41.156-1.1Zm9.492-3.2a4.952,4.952,0,0,1,.922-3.129,2.915,2.915,0,0,1,2.414-1.184,2.932,2.932,0,0,1,2.352,1.016V-12h1.445V0H56.453l-.07-.906A2.943,2.943,0,0,1,53.969.156a2.887,2.887,0,0,1-2.395-1.2,5.008,5.008,0,0,1-.926-3.141Zm1.445.164a3.749,3.749,0,0,0,.594,2.25,1.92,1.92,0,0,0,1.641.813A2.108,2.108,0,0,0,56.336-2.3V-6.187a2.125,2.125,0,0,0-1.992-1.2,1.929,1.929,0,0,0-1.656.82A4.128,4.128,0,0,0,52.094-4.133ZM63.531.156a3.693,3.693,0,0,1-2.8-1.129,4.19,4.19,0,0,1-1.078-3.02v-.266a5.073,5.073,0,0,1,.48-2.246A3.748,3.748,0,0,1,61.48-8.051a3.378,3.378,0,0,1,1.871-.559,3.166,3.166,0,0,1,2.563,1.086,4.7,4.7,0,0,1,.914,3.109v.6H61.1a3,3,0,0,0,.73,2.02,2.3,2.3,0,0,0,1.777.77,2.517,2.517,0,0,0,1.3-.312,3.259,3.259,0,0,0,.93-.828l.883.688A3.55,3.55,0,0,1,63.531.156Zm-.18-7.578a1.928,1.928,0,0,0-1.469.637A3.1,3.1,0,0,0,61.148-5h4.234v-.109a2.753,2.753,0,0,0-.594-1.707A1.815,1.815,0,0,0,63.352-7.422Zm12.5,6.4A2.082,2.082,0,0,0,77.2-1.492a1.649,1.649,0,0,0,.641-1.172h1.367a2.621,2.621,0,0,1-.5,1.383A3.293,3.293,0,0,1,77.48-.234a3.55,3.55,0,0,1-1.629.391A3.482,3.482,0,0,1,73.105-1a4.59,4.59,0,0,1-1.02-3.152v-.242a5.089,5.089,0,0,1,.453-2.2,3.451,3.451,0,0,1,1.3-1.492,3.7,3.7,0,0,1,2-.531,3.39,3.39,0,0,1,2.363.852,3.043,3.043,0,0,1,1,2.211H77.844a1.992,1.992,0,0,0-.621-1.348,1.932,1.932,0,0,0-1.379-.527,2.023,2.023,0,0,0-1.707.793,3.724,3.724,0,0,0-.605,2.293v.273a3.65,3.65,0,0,0,.6,2.25A2.033,2.033,0,0,0,75.852-1.023ZM86.055,0a3.036,3.036,0,0,1-.2-.891A3.225,3.225,0,0,1,83.445.156a2.984,2.984,0,0,1-2.051-.707,2.288,2.288,0,0,1-.8-1.793,2.39,2.39,0,0,1,1-2.051,4.733,4.733,0,0,1,2.824-.73h1.406v-.664A1.623,1.623,0,0,0,85.375-7a1.821,1.821,0,0,0-1.336-.449,2.108,2.108,0,0,0-1.3.391,1.151,1.151,0,0,0-.523.945H80.766a2,2,0,0,1,.449-1.223,3.066,3.066,0,0,1,1.219-.934,4.1,4.1,0,0,1,1.691-.344,3.342,3.342,0,0,1,2.289.73,2.635,2.635,0,0,1,.859,2.012v3.891a4.757,4.757,0,0,0,.3,1.852V0Zm-2.4-1.1a2.54,2.54,0,0,0,1.289-.352,2.127,2.127,0,0,0,.883-.914V-4.1H84.7q-2.656,0-2.656,1.555a1.316,1.316,0,0,0,.453,1.063A1.742,1.742,0,0,0,83.656-1.1Zm1.336-10.883h1.75l-2.094,2.3-1.164,0ZM91.109,0H89.664V-12h1.445Zm5.7-1.023a2.082,2.082,0,0,0,1.352-.469A1.649,1.649,0,0,0,98.8-2.664h1.367a2.621,2.621,0,0,1-.5,1.383,3.293,3.293,0,0,1-1.23,1.047,3.55,3.55,0,0,1-1.629.391A3.482,3.482,0,0,1,94.066-1a4.59,4.59,0,0,1-1.02-3.152v-.242a5.089,5.089,0,0,1,.453-2.2,3.451,3.451,0,0,1,1.3-1.492,3.7,3.7,0,0,1,2-.531,3.39,3.39,0,0,1,2.363.852,3.043,3.043,0,0,1,1,2.211H98.8a1.992,1.992,0,0,0-.621-1.348A1.932,1.932,0,0,0,96.8-7.422a2.023,2.023,0,0,0-1.707.793,3.724,3.724,0,0,0-.605,2.293v.273a3.65,3.65,0,0,0,.6,2.25A2.033,2.033,0,0,0,96.813-1.023Zm10.2.188a3.07,3.07,0,0,1-2.477.992,2.628,2.628,0,0,1-2.059-.785,3.4,3.4,0,0,1-.715-2.324v-5.5h1.445v5.461q0,1.922,1.563,1.922a2.163,2.163,0,0,0,2.2-1.234V-8.453h1.445V0h-1.375ZM112.188,0h-1.445V-12h1.445Zm1.93-4.3a4.993,4.993,0,0,1,.488-2.234,3.643,3.643,0,0,1,1.359-1.531,3.7,3.7,0,0,1,1.988-.539,3.565,3.565,0,0,1,2.793,1.2,4.6,4.6,0,0,1,1.066,3.18v.1a5.036,5.036,0,0,1-.473,2.215,3.589,3.589,0,0,1-1.352,1.527,3.743,3.743,0,0,1-2.02.547,3.556,3.556,0,0,1-2.785-1.2A4.575,4.575,0,0,1,114.117-4.2Zm1.453.172a3.616,3.616,0,0,0,.652,2.258,2.088,2.088,0,0,0,1.746.852,2.075,2.075,0,0,0,1.75-.863,3.955,3.955,0,0,0,.648-2.418,3.61,3.61,0,0,0-.66-2.254,2.1,2.1,0,0,0-1.754-.863,2.075,2.075,0,0,0-1.727.852A3.925,3.925,0,0,0,115.57-4.133Z" transform="translate(91.513 30.27)" fill="#fff"/>
        </g>
        <g id="Grupo_54987" data-name="Grupo 54987" transform="translate(114.05 293.244)">
          <line id="Línea_150" data-name="Línea 150" x2="64.27" transform="translate(27.349 27.349)" fill="none" stroke="#681ae6" stroke-miterlimit="10" stroke-width="2" stroke-dasharray="12 3"/>
          <path id="Rectángulo_5552" data-name="Rectángulo 5552" d="M0,0H253.416a14,14,0,0,1,14,14V24.289a14,14,0,0,1-14,14H0a0,0,0,0,1,0,0V0A0,0,0,0,1,0,0Z" transform="translate(75.21 8.205)" fill="#6d48ca"/>
          <circle id="Elipse_4216" data-name="Elipse 4216" cx="27.349" cy="27.349" r="27.349" fill="#febd31"/>
          <path id="Trazado_104109" data-name="Trazado 104109" d="M9.328-11.375v7.734A3.628,3.628,0,0,1,8.316-1.008,4.077,4.077,0,0,1,5.594.141L5.2.156A4.258,4.258,0,0,1,2.219-.852,3.6,3.6,0,0,1,1.094-3.625v-7.75H2.578v7.7a2.6,2.6,0,0,0,.68,1.918A2.612,2.612,0,0,0,5.2-1.07a2.63,2.63,0,0,0,1.949-.68A2.6,2.6,0,0,0,7.82-3.664v-7.711Zm3.508,2.922.047,1.063a3.08,3.08,0,0,1,2.531-1.219q2.68,0,2.7,3.023V0H16.672V-5.594a1.946,1.946,0,0,0-.418-1.352,1.675,1.675,0,0,0-1.277-.437,2.086,2.086,0,0,0-1.234.375,2.546,2.546,0,0,0-.828.984V0H11.469V-8.453ZM21.867,0H20.422V-8.453h1.445ZM20.3-10.7a.863.863,0,0,1,.215-.594.807.807,0,0,1,.637-.242.819.819,0,0,1,.641.242.854.854,0,0,1,.219.594.826.826,0,0,1-.219.586.834.834,0,0,1-.641.234.821.821,0,0,1-.637-.234A.834.834,0,0,1,20.3-10.7Zm3.523,6.4a4.952,4.952,0,0,1,.922-3.129,2.915,2.915,0,0,1,2.414-1.184,2.932,2.932,0,0,1,2.352,1.016V-12h1.445V0H29.633l-.07-.906A2.943,2.943,0,0,1,27.148.156a2.887,2.887,0,0,1-2.395-1.2,5.008,5.008,0,0,1-.926-3.141Zm1.445.164a3.749,3.749,0,0,0,.594,2.25,1.92,1.92,0,0,0,1.641.813A2.108,2.108,0,0,0,29.516-2.3V-6.187a2.125,2.125,0,0,0-1.992-1.2,1.929,1.929,0,0,0-1.656.82A4.128,4.128,0,0,0,25.273-4.133ZM38.422,0a3.036,3.036,0,0,1-.2-.891A3.225,3.225,0,0,1,35.813.156a2.984,2.984,0,0,1-2.051-.707,2.287,2.287,0,0,1-.8-1.793,2.39,2.39,0,0,1,1-2.051,4.733,4.733,0,0,1,2.824-.73H38.2v-.664A1.623,1.623,0,0,0,37.742-7a1.821,1.821,0,0,0-1.336-.449,2.107,2.107,0,0,0-1.3.391,1.151,1.151,0,0,0-.523.945H33.133a2,2,0,0,1,.449-1.223A3.066,3.066,0,0,1,34.8-8.266a4.1,4.1,0,0,1,1.691-.344,3.342,3.342,0,0,1,2.289.73,2.635,2.635,0,0,1,.859,2.012v3.891a4.757,4.757,0,0,0,.3,1.852V0Zm-2.4-1.1a2.54,2.54,0,0,0,1.289-.352,2.127,2.127,0,0,0,.883-.914V-4.1H37.063q-2.656,0-2.656,1.555a1.316,1.316,0,0,0,.453,1.063A1.742,1.742,0,0,0,36.023-1.1Zm5.531-3.2a4.952,4.952,0,0,1,.922-3.129,2.915,2.915,0,0,1,2.414-1.184,2.932,2.932,0,0,1,2.352,1.016V-12h1.445V0H47.359l-.07-.906A2.943,2.943,0,0,1,44.875.156a2.887,2.887,0,0,1-2.395-1.2,5.008,5.008,0,0,1-.926-3.141ZM43-4.133a3.749,3.749,0,0,0,.594,2.25,1.92,1.92,0,0,0,1.641.813A2.108,2.108,0,0,0,47.242-2.3V-6.187a2.125,2.125,0,0,0-1.992-1.2,1.929,1.929,0,0,0-1.656.82A4.128,4.128,0,0,0,43-4.133Z" transform="translate(91.513 30.27)" fill="#fff"/>
        </g>
        <g id="Grupo_54988" data-name="Grupo 54988" transform="translate(114.05 350.57)">
          <line id="Línea_151" data-name="Línea 151" x2="64.27" transform="translate(27.349 27.349)" fill="none" stroke="#681ae6" stroke-miterlimit="10" stroke-width="2" stroke-dasharray="12 3"/>
          <path id="Rectángulo_5553" data-name="Rectángulo 5553" d="M0,0H253.416a14,14,0,0,1,14,14V24.289a14,14,0,0,1-14,14H0a0,0,0,0,1,0,0V0A0,0,0,0,1,0,0Z" transform="translate(75.21 8.205)" fill="#6d48ca"/>
          <circle id="Elipse_4217" data-name="Elipse 4217" cx="27.349" cy="27.349" r="27.349" fill="#febd31"/>
          <path id="Trazado_104110" data-name="Trazado 104110" d="M2.82-4.453V0H1.32V-11.375h4.2a4.215,4.215,0,0,1,2.926.953A3.231,3.231,0,0,1,9.5-7.9,3.189,3.189,0,0,1,8.465-5.348,4.4,4.4,0,0,1,5.5-4.453Zm0-1.227h2.7a2.7,2.7,0,0,0,1.844-.567A2.075,2.075,0,0,0,8-7.887a2.143,2.143,0,0,0-.641-1.628A2.525,2.525,0,0,0,5.6-10.148H2.82ZM14.594.156A3.693,3.693,0,0,1,11.8-.973a4.19,4.19,0,0,1-1.078-3.02v-.266A5.073,5.073,0,0,1,11.2-6.5a3.748,3.748,0,0,1,1.344-1.547,3.378,3.378,0,0,1,1.871-.559,3.166,3.166,0,0,1,2.563,1.086,4.7,4.7,0,0,1,.914,3.109v.6H12.164a3,3,0,0,0,.73,2.02,2.3,2.3,0,0,0,1.777.77,2.517,2.517,0,0,0,1.3-.312,3.259,3.259,0,0,0,.93-.828l.883.688A3.55,3.55,0,0,1,14.594.156Zm-.18-7.578a1.928,1.928,0,0,0-1.469.637A3.1,3.1,0,0,0,12.211-5h4.234v-.109a2.753,2.753,0,0,0-.594-1.707A1.815,1.815,0,0,0,14.414-7.422Zm9.234.266a4.331,4.331,0,0,0-.711-.055A1.9,1.9,0,0,0,21.008-6V0H19.563V-8.453h1.406l.023.977a2.251,2.251,0,0,1,2.016-1.133,1.477,1.477,0,0,1,.641.109ZM26.547,0H25.1V-8.453h1.445ZM24.984-10.7a.863.863,0,0,1,.215-.594.807.807,0,0,1,.637-.242.819.819,0,0,1,.641.242.854.854,0,0,1,.219.594.826.826,0,0,1-.219.586.834.834,0,0,1-.641.234.821.821,0,0,1-.637-.234A.834.834,0,0,1,24.984-10.7ZM28.477-4.3a4.993,4.993,0,0,1,.488-2.234A3.643,3.643,0,0,1,30.324-8.07a3.7,3.7,0,0,1,1.988-.539,3.565,3.565,0,0,1,2.793,1.2,4.6,4.6,0,0,1,1.066,3.18v.1A5.036,5.036,0,0,1,35.7-1.918,3.589,3.589,0,0,1,34.348-.391a3.743,3.743,0,0,1-2.02.547,3.556,3.556,0,0,1-2.785-1.2A4.575,4.575,0,0,1,28.477-4.2Zm1.453.172a3.616,3.616,0,0,0,.652,2.258,2.088,2.088,0,0,0,1.746.852,2.075,2.075,0,0,0,1.75-.863A3.955,3.955,0,0,0,34.727-4.3a3.61,3.61,0,0,0-.66-2.254,2.1,2.1,0,0,0-1.754-.863,2.075,2.075,0,0,0-1.727.852A3.925,3.925,0,0,0,29.93-4.133Zm7.7-.164a4.952,4.952,0,0,1,.922-3.129,2.915,2.915,0,0,1,2.414-1.184A2.932,2.932,0,0,1,43.32-7.594V-12h1.445V0H43.438l-.07-.906A2.943,2.943,0,0,1,40.953.156a2.887,2.887,0,0,1-2.395-1.2,5.008,5.008,0,0,1-.926-3.141Zm1.445.164a3.749,3.749,0,0,0,.594,2.25,1.92,1.92,0,0,0,1.641.813A2.108,2.108,0,0,0,43.32-2.3V-6.187a2.125,2.125,0,0,0-1.992-1.2,1.929,1.929,0,0,0-1.656.82A4.128,4.128,0,0,0,39.078-4.133ZM48.578,0H47.133V-8.453h1.445ZM47.016-10.7a.863.863,0,0,1,.215-.594.807.807,0,0,1,.637-.242.819.819,0,0,1,.641.242.854.854,0,0,1,.219.594.826.826,0,0,1-.219.586.834.834,0,0,1-.641.234.821.821,0,0,1-.637-.234A.834.834,0,0,1,47.016-10.7Zm7.266,9.672a2.082,2.082,0,0,0,1.352-.469,1.649,1.649,0,0,0,.641-1.172h1.367a2.621,2.621,0,0,1-.5,1.383A3.293,3.293,0,0,1,55.91-.234a3.55,3.55,0,0,1-1.629.391A3.482,3.482,0,0,1,51.535-1a4.59,4.59,0,0,1-1.02-3.152v-.242a5.089,5.089,0,0,1,.453-2.2,3.451,3.451,0,0,1,1.3-1.492,3.7,3.7,0,0,1,2-.531,3.39,3.39,0,0,1,2.363.852,3.043,3.043,0,0,1,1,2.211H56.273a1.992,1.992,0,0,0-.621-1.348,1.932,1.932,0,0,0-1.379-.527,2.023,2.023,0,0,0-1.707.793,3.724,3.724,0,0,0-.605,2.293v.273a3.65,3.65,0,0,0,.6,2.25A2.033,2.033,0,0,0,54.281-1.023ZM60.836,0H59.391V-8.453h1.445ZM59.273-10.7a.863.863,0,0,1,.215-.594.807.807,0,0,1,.637-.242.819.819,0,0,1,.641.242.854.854,0,0,1,.219.594.826.826,0,0,1-.219.586.834.834,0,0,1-.641.234.821.821,0,0,1-.637-.234A.834.834,0,0,1,59.273-10.7ZM62.8-4.3a4.952,4.952,0,0,1,.922-3.129,2.915,2.915,0,0,1,2.414-1.184,2.932,2.932,0,0,1,2.352,1.016V-12H69.93V0H68.6l-.07-.906A2.943,2.943,0,0,1,66.117.156a2.887,2.887,0,0,1-2.395-1.2A5.008,5.008,0,0,1,62.8-4.187Zm1.445.164a3.749,3.749,0,0,0,.594,2.25,1.92,1.92,0,0,0,1.641.813A2.109,2.109,0,0,0,68.484-2.3V-6.187a2.125,2.125,0,0,0-1.992-1.2,1.929,1.929,0,0,0-1.656.82A4.128,4.128,0,0,0,64.242-4.133ZM77.391,0a3.036,3.036,0,0,1-.2-.891A3.225,3.225,0,0,1,74.781.156,2.984,2.984,0,0,1,72.73-.551a2.288,2.288,0,0,1-.8-1.793,2.39,2.39,0,0,1,1-2.051,4.733,4.733,0,0,1,2.824-.73h1.406v-.664A1.623,1.623,0,0,0,76.711-7a1.821,1.821,0,0,0-1.336-.449,2.108,2.108,0,0,0-1.3.391,1.151,1.151,0,0,0-.523.945H72.1a2,2,0,0,1,.449-1.223,3.066,3.066,0,0,1,1.219-.934,4.1,4.1,0,0,1,1.691-.344,3.342,3.342,0,0,1,2.289.73,2.635,2.635,0,0,1,.859,2.012v3.891a4.757,4.757,0,0,0,.3,1.852V0Zm-2.4-1.1a2.54,2.54,0,0,0,1.289-.352,2.127,2.127,0,0,0,.883-.914V-4.1H76.031q-2.656,0-2.656,1.555a1.316,1.316,0,0,0,.453,1.063A1.742,1.742,0,0,0,74.992-1.1Zm5.531-3.2a4.952,4.952,0,0,1,.922-3.129,2.915,2.915,0,0,1,2.414-1.184,2.932,2.932,0,0,1,2.352,1.016V-12h1.445V0H86.328l-.07-.906A2.943,2.943,0,0,1,83.844.156a2.887,2.887,0,0,1-2.395-1.2,5.008,5.008,0,0,1-.926-3.141Zm1.445.164a3.749,3.749,0,0,0,.594,2.25A1.92,1.92,0,0,0,84.2-1.07,2.109,2.109,0,0,0,86.211-2.3V-6.187a2.125,2.125,0,0,0-1.992-1.2,1.929,1.929,0,0,0-1.656.82A4.128,4.128,0,0,0,81.969-4.133Z" transform="translate(91.513 30.27)" fill="#fff"/>
        </g>
        <g id="Grupo_54991" data-name="Grupo 54991" transform="translate(127.937 364.528)">
          <g id="Grupo_54989" data-name="Grupo 54989">
            <path id="Trazado_102802" data-name="Trazado 102802" d="M144.833,292.761q-.244.156-.5.3c-.057.033-.114.066-.171.1-.13.074-.26.145-.392.213a13.389,13.389,0,0,1-12.916-23.449c.168-.1.339-.193.511-.283s.335-.172.5-.253a13.342,13.342,0,0,1,3.992-1.175,13.391,13.391,0,0,1,8.968,24.546Z" transform="translate(-124.205 -268.104)" fill="#e97a3c"/>
          </g>
          <g id="Grupo_54990" data-name="Grupo 54990" transform="translate(6.048 8.731)">
            <path id="Trazado_102803" data-name="Trazado 102803" d="M130.769,285.389a1.672,1.672,0,0,1-.552-.948l-1.558-7.963a1.67,1.67,0,0,1,3.278-.64l1.146,5.862,11.126-5.217a1.669,1.669,0,1,1,1.418,3.022l-13.063,6.126a1.674,1.674,0,0,1-1.465-.023A1.752,1.752,0,0,1,130.769,285.389Z" transform="translate(-128.628 -274.489)" fill="#fff"/>
          </g>
        </g>
        <g id="Grupo_54994" data-name="Grupo 54994" transform="translate(127.937 249.804)">
          <g id="Grupo_54992" data-name="Grupo 54992">
            <path id="Trazado_102804" data-name="Trazado 102804" d="M144.833,208.864q-.244.158-.5.3c-.057.034-.114.067-.171.1-.13.072-.26.144-.392.213a13.39,13.39,0,0,1-14.261-22.555,13.135,13.135,0,0,1,1.346-.894c.168-.1.339-.194.511-.284s.335-.172.5-.252a13.389,13.389,0,0,1,3.992-1.176,13.391,13.391,0,0,1,8.968,24.546Z" transform="translate(-124.205 -184.207)" fill="#e97a3c"/>
          </g>
          <g id="Grupo_54993" data-name="Grupo 54993" transform="translate(6.048 8.732)">
            <path id="Trazado_102805" data-name="Trazado 102805" d="M130.769,201.492a1.663,1.663,0,0,1-.552-.948l-1.558-7.961a1.67,1.67,0,1,1,3.278-.641l1.146,5.862,11.126-5.217a1.67,1.67,0,0,1,1.418,3.023l-13.063,6.125a1.665,1.665,0,0,1-1.465-.023A1.63,1.63,0,0,1,130.769,201.492Z" transform="translate(-128.628 -190.592)" fill="#fff"/>
          </g>
        </g>
        <g id="Grupo_54997" data-name="Grupo 54997" transform="translate(127.937 192.371)">
          <g id="Grupo_54995" data-name="Grupo 54995">
            <path id="Trazado_102806" data-name="Trazado 102806" d="M144.833,166.864q-.244.158-.5.3c-.057.034-.114.067-.171.1-.13.072-.26.144-.392.213a13.39,13.39,0,0,1-14.261-22.555,13.132,13.132,0,0,1,1.346-.894c.168-.1.339-.194.511-.284s.335-.172.5-.252a13.393,13.393,0,0,1,3.992-1.176,13.391,13.391,0,0,1,8.968,24.546Z" transform="translate(-124.205 -142.207)" fill="#e97a3c"/>
          </g>
          <g id="Grupo_54996" data-name="Grupo 54996" transform="translate(6.048 8.732)">
            <path id="Trazado_102807" data-name="Trazado 102807" d="M130.769,159.492a1.663,1.663,0,0,1-.552-.948l-1.558-7.961a1.67,1.67,0,0,1,3.278-.641l1.146,5.862,11.126-5.217a1.67,1.67,0,0,1,1.418,3.023l-13.063,6.125a1.665,1.665,0,0,1-1.465-.023A1.63,1.63,0,0,1,130.769,159.492Z" transform="translate(-128.628 -148.592)" fill="#fff"/>
          </g>
        </g>
        <g id="Grupo_55000" data-name="Grupo 55000" transform="translate(127.937 134.938)">
          <g id="Grupo_54998" data-name="Grupo 54998">
            <path id="Trazado_102808" data-name="Trazado 102808" d="M144.833,124.864q-.244.158-.5.3c-.057.034-.114.067-.171.1-.13.072-.26.144-.392.213a13.39,13.39,0,0,1-14.261-22.555,13.127,13.127,0,0,1,1.346-.894c.168-.1.339-.194.511-.284s.335-.172.5-.252a13.388,13.388,0,0,1,3.992-1.176,13.391,13.391,0,0,1,8.968,24.546Z" transform="translate(-124.205 -100.207)" fill="#e97a3c"/>
          </g>
          <g id="Grupo_54999" data-name="Grupo 54999" transform="translate(6.048 8.732)">
            <path id="Trazado_102809" data-name="Trazado 102809" d="M130.769,117.492a1.664,1.664,0,0,1-.552-.948l-1.558-7.961a1.67,1.67,0,1,1,3.278-.641l1.146,5.862,11.126-5.217a1.67,1.67,0,0,1,1.418,3.023l-13.063,6.125a1.665,1.665,0,0,1-1.465-.023A1.63,1.63,0,0,1,130.769,117.492Z" transform="translate(-128.628 -106.592)" fill="#fff"/>
          </g>
        </g>
        <g id="Grupo_55003" data-name="Grupo 55003" transform="translate(129.304 76.822)">
          <g id="Grupo_55001" data-name="Grupo 55001">
            <path id="Trazado_102810" data-name="Trazado 102810" d="M145.833,82.364q-.244.158-.5.3c-.057.034-.113.067-.171.1-.13.072-.26.144-.392.213a13.39,13.39,0,0,1-14.261-22.555,13.128,13.128,0,0,1,1.346-.894c.168-.1.339-.194.511-.284s.335-.172.5-.252a13.389,13.389,0,0,1,3.992-1.176,13.391,13.391,0,0,1,8.968,24.546Z" transform="translate(-125.205 -57.707)" fill="#e97a3c"/>
          </g>
          <g id="Grupo_55002" data-name="Grupo 55002" transform="translate(6.048 8.732)">
            <path id="Trazado_102811" data-name="Trazado 102811" d="M131.769,74.992a1.663,1.663,0,0,1-.552-.948l-1.558-7.961a1.67,1.67,0,0,1,3.278-.641l1.146,5.862,11.126-5.217a1.67,1.67,0,1,1,1.418,3.023l-13.063,6.125a1.665,1.665,0,0,1-1.465-.023A1.631,1.631,0,0,1,131.769,74.992Z" transform="translate(-129.628 -64.092)" fill="#fff"/>
          </g>
        </g>
        <g id="Grupo_55006" data-name="Grupo 55006" transform="translate(129.304 19.643)">
          <g id="Grupo_55004" data-name="Grupo 55004">
            <path id="Trazado_102812" data-name="Trazado 102812" d="M145.833,40.549q-.244.158-.5.3c-.057.034-.113.067-.171.1-.13.072-.26.144-.392.213A13.39,13.39,0,0,1,130.512,18.61a13.128,13.128,0,0,1,1.346-.894c.168-.1.339-.194.511-.284s.335-.172.5-.252A13.389,13.389,0,0,1,136.865,16a13.391,13.391,0,0,1,8.968,24.546Z" transform="translate(-125.205 -15.893)" fill="#e97a3c"/>
          </g>
          <g id="Grupo_55005" data-name="Grupo 55005" transform="translate(6.048 8.732)">
            <path id="Trazado_102813" data-name="Trazado 102813" d="M131.769,33.178a1.663,1.663,0,0,1-.552-.948l-1.558-7.961a1.67,1.67,0,0,1,3.278-.641l1.146,5.862,11.126-5.217a1.67,1.67,0,1,1,1.418,3.023l-13.063,6.125A1.669,1.669,0,0,1,132.1,33.4,1.7,1.7,0,0,1,131.769,33.178Z" transform="translate(-129.628 -22.278)" fill="#fff"/>
          </g>
        </g>
        <g id="Grupo_55009" data-name="Grupo 55009" transform="translate(127.937 307.201)">
          <g id="Grupo_55007" data-name="Grupo 55007">
            <path id="Trazado_102814" data-name="Trazado 102814" d="M144.833,250.838q-.244.158-.5.3c-.057.034-.114.067-.171.1-.13.073-.26.144-.392.213A13.389,13.389,0,0,1,130.857,228c.168-.1.339-.194.511-.284s.335-.172.5-.252a13.39,13.39,0,0,1,3.992-1.176,13.391,13.391,0,0,1,8.968,24.546Z" transform="translate(-124.205 -226.181)" fill="#e97a3c"/>
          </g>
          <g id="Grupo_55008" data-name="Grupo 55008" transform="translate(6.048 8.732)">
            <path id="Trazado_102815" data-name="Trazado 102815" d="M130.769,243.466a1.664,1.664,0,0,1-.552-.948l-1.558-7.961a1.67,1.67,0,0,1,3.278-.641l1.146,5.862,11.126-5.217a1.67,1.67,0,1,1,1.418,3.023l-13.063,6.125a1.669,1.669,0,0,1-1.465-.022A1.693,1.693,0,0,1,130.769,243.466Z" transform="translate(-128.628 -232.566)" fill="#fff"/>
          </g>
        </g>
      </g>
      <rect id="Rectángulo_5554" data-name="Rectángulo 5554" width="396" height="440" transform="translate(284 3564)" fill="none"/>
    </g>
  </g>
</svg>
