<svg xmlns="http://www.w3.org/2000/svg" width="124" height="124" viewBox="0 0 124 124">
  <g id="Grupo_55234" data-name="Grupo 55234" transform="translate(-576 -864)">
    <circle id="Elipse_4251" data-name="Elipse 4251" cx="62" cy="62" r="62" transform="translate(576 864)" fill="#fff"/>
    <g id="Grupo_55228" data-name="Grupo 55228" transform="translate(-130.749 886.135)">
      <path id="Trazado_103025" data-name="Trazado 103025" d="M862.38,26.554a3.07,3.07,0,0,1-1.149-2.1c-.134-2.794-.1-5.6-.04-8.4.025-1.3-.437-1.876-1.777-1.8-1.246.072-2.5.015-3.809.015V8.824c4.3-.569,4.3-.569,4.271-4.911,0-.191-.007-.382,0-.573A2.1,2.1,0,0,0,857.481.865c-9.864.014-19.729-.032-29.593.068a5.989,5.989,0,0,0-3.257,1.3c-1.607,1.217-2.375,5.521-1.395,7.277a2.6,2.6,0,0,0,1.615,1.115,6.137,6.137,0,0,0,3.015-.031,4.338,4.338,0,0,0,1.792-1.843c.261-.409.124-1.073.178-1.775,2.779,0,5.441-.012,8.1.015a2.459,2.459,0,0,1,1.049.333c1.125.588,2.231,1.211,3.613,1.968v4.979c-1.379,0-2.58.063-3.772-.016-1.441-.1-1.895.541-1.861,1.916.068,2.735.11,5.478-.04,8.206a3.293,3.293,0,0,1-1.232,2.236A25.488,25.488,0,0,0,826.8,36.872a8.064,8.064,0,0,0-.678,2.166,1.335,1.335,0,0,0,.537,1.011c.139.105.74-.135.9-.374a22.886,22.886,0,0,0,1.182-2.166C833.03,29.36,839.8,24.852,848.97,24.793s16.055,4.347,20.3,12.518a16.217,16.217,0,0,1,2.191,6.595c.286,9.919.229,19.849.251,29.775.006,2.658-1.357,4-4.013,4q-18.616.03-37.231,0c-2.659,0-3.948-1.324-4-4.014-.043-2.036.078-4.079-.061-6.106a6.372,6.372,0,0,0-1-2.077,6.348,6.348,0,0,0-.888,1.994c-.121,1.966-.049,3.943-.043,5.916.011,4.17,2.048,6.263,6.17,6.267q18.424.019,36.848,0c4.167,0,6.2-2.052,6.2-6.22q.015-12.7.007-25.393A24.61,24.61,0,0,0,862.38,26.554ZM841.819,6.66c-.239,0-.589-.05-.7-.209-1.5-2.112-3.728-1.448-5.753-1.516-1.142-.038-2.286-.006-3.429-.006-3.71,0-3.71,0-4.491,3.626H825.03c.056-1.276-.226-2.623.257-3.589a3.857,3.857,0,0,1,2.621-2.019c9.892-.144,19.786-.089,29.813-.089V6.669C852.335,6.669,847.077,6.672,841.819,6.66Zm11.355,2.112v5.5c-2.346,0-4.5,0-6.652,0-.434,0-.867-.046-1.454-.079V8.773Zm5.9,15.977a25.71,25.71,0,0,0-19.992.024V16.417H859.07Z" transform="translate(-60.611 0)" fill="#02dba8" stroke="#02dba8" stroke-width="1"/>
      <path id="Trazado_103026" data-name="Trazado 103026" d="M777.294,112.827c6.971-4.644,14.035-9.149,21.073-13.691a3.054,3.054,0,0,0,1.281-3.829A3.427,3.427,0,0,0,797.7,93.3a5.86,5.86,0,0,0-3.524.249c-4.309,1.828-8.51,3.912-12.812,5.76a9.465,9.465,0,0,1-3.9.721c-1.805-.052-3.594-.661-5.4-.72-3.848-.128-7.716.136-11.55-.13-2.62-.182-5.186-1.042-7.793-1.5-7.4-1.312-11.464-.163-16.55,6.114-2.23,2.752-4.589,5.4-6.924,8.066-1.453,1.659-2.97,3.262-4.5,4.936l10.726,13.116c2.987-2.476,5.854-4.78,8.64-7.177a18.412,18.412,0,0,1,13.945-4.46,46.565,46.565,0,0,0,9.292-.436C771.185,117.327,774.163,114.913,777.294,112.827Zm-22.2,3.495a15.2,15.2,0,0,0-9.651,3.011c-3.247,2.438-6.419,4.974-9.79,7.6l-8.468-10.348c.939-.877,1.83-1.6,2.594-2.442l7.346-8.225c1.27-1.417,2.481-2.906,3.877-4.188a10.259,10.259,0,0,1,9.761-2.342,63.03,63.03,0,0,0,20.307,1.77,11.571,11.571,0,0,1,4.7.457,4.2,4.2,0,0,1,2.367,2.474c.159.579-1.11,2.142-1.92,2.295-3.8.719-7.654,1.113-11.493,1.6-2.2.28-4.428.435-6.611.825-.551.1-.981.882-1.466,1.351a5.757,5.757,0,0,0,1.878.5c4.934-.456,9.862-.976,14.787-1.517a19.092,19.092,0,0,0,2.987-.6c3.408-.942,4.5-2.88,3.538-6.487,4.891-2.17,9.685-4.3,14.485-6.422a3.6,3.6,0,0,1,1.606-.528,7.582,7.582,0,0,1,1.946.762c-.284.571-.416,1.373-.876,1.677-6.725,4.448-13.5,8.824-20.251,13.231-1.753,1.144-3.34,2.7-5.247,3.419a40.055,40.055,0,0,1-8.789,2.193A51.408,51.408,0,0,1,755.1,116.322Z" transform="translate(0 -57.039)" fill="#02dba8" stroke="#02dba8" stroke-width="1"/>
      <path id="Trazado_103027" data-name="Trazado 103027" d="M824.856,51.446c2.91.289,5.51-2.054,5.547-5.51-.366-2.927-2.273-5.614-4.368-8.174a1.66,1.66,0,0,0-1.552.144,44.524,44.524,0,0,0-4.071,7.647C819.467,48.29,821.91,51.154,824.856,51.446Zm-2.434-5.781a32.991,32.991,0,0,1,2.544-5.614l.677-.03a32.878,32.878,0,0,1,2.573,5.559,4.317,4.317,0,0,1-1.142,3.265,2.3,2.3,0,0,1-3.421.049A4.306,4.306,0,0,1,822.422,45.666Z" transform="translate(-59.006 -22.726)" fill="#02dba8" stroke="#02dba8" stroke-width="1"/>
    </g>
  </g>
</svg>
