<svg xmlns="http://www.w3.org/2000/svg" xmlns:xlink="http://www.w3.org/1999/xlink" width="500" height="299" viewBox="0 0 500 299">
  <defs>
    <linearGradient id="linear-gradient" y1="0.5" x2="1" y2="0.5" gradientUnits="objectBoundingBox">
      <stop offset="0.494" stop-color="#eaeef1"/>
      <stop offset="1" stop-color="#fff"/>
    </linearGradient>
    <linearGradient id="linear-gradient-3" x1="0.573" y1="-0.22" x2="0.288" y2="2.048" gradientUnits="objectBoundingBox">
      <stop offset="0" stop-color="#fdc251"/>
      <stop offset="0.592" stop-color="#f59156"/>
      <stop offset="0.996" stop-color="#f0705b"/>
    </linearGradient>
    <linearGradient id="linear-gradient-4" x1="0.425" y1="0.687" x2="0.693" y2="-0.203" gradientUnits="objectBoundingBox">
      <stop offset="0" stop-color="#311b43"/>
      <stop offset="1" stop-color="#6a3b75"/>
    </linearGradient>
    <linearGradient id="linear-gradient-5" x1="0.464" y1="0.589" x2="0.756" y2="-0.579" xlink:href="#linear-gradient-4"/>
    <linearGradient id="linear-gradient-6" x1="0.622" y1="3.82" x2="0.513" y2="0.609" gradientUnits="objectBoundingBox">
      <stop offset="0.004" stop-color="#6268d3"/>
      <stop offset="1" stop-color="#a983f5"/>
    </linearGradient>
  </defs>
  <g id="Grupo_55567" data-name="Grupo 55567" transform="translate(-908 -400)">
    <rect id="Rectángulo_5069" data-name="Rectángulo 5069" width="500" height="299" transform="translate(908 400)" fill="none"/>
    <g id="Grupo_55566" data-name="Grupo 55566" transform="translate(920.094 364.337)">
      <path id="Trazado_103608" data-name="Trazado 103608" d="M210.381,331.746c-77.4-11.721-140.3-84.9-128.872-166.238,9.749-69.368,70.566-123.351,143.5-128.449q7.921-.555,16.014-.328A159.369,159.369,0,0,1,344.591,78.805c26.611,24.508,43.9,57.288,47.047,91.677C400.02,261.981,306.649,346.325,210.381,331.746Z" transform="translate(0)" fill="#f3f6f9"/>
      <g id="Grupo_55537" data-name="Grupo 55537" transform="translate(95.524 74.94)">
        <rect id="Rectángulo_5672" data-name="Rectángulo 5672" width="20.223" height="3.052" transform="translate(43.883 3.816)" fill="#fff"/>
        <rect id="Rectángulo_5673" data-name="Rectángulo 5673" width="15.644" height="3.052" transform="translate(6.872 3.816)" fill="#fff"/>
        <rect id="Rectángulo_5674" data-name="Rectángulo 5674" width="16.026" height="3.052" transform="translate(103.406 3.816)" fill="#d7dde7"/>
        <rect id="Rectángulo_5675" data-name="Rectángulo 5675" width="16.026" height="3.052" transform="translate(156.825 3.816)" fill="#fff"/>
        <g id="Grupo_55525" data-name="Grupo 55525" transform="translate(38.16 0)">
          <rect id="Rectángulo_5676" data-name="Rectángulo 5676" width="20.223" height="78.983" transform="translate(10.684 11.828)" fill="#d7dde7"/>
          <rect id="Rectángulo_5677" data-name="Rectángulo 5677" width="10.684" height="78.983" transform="translate(0 11.828)" fill="#96a5b5"/>
          <rect id="Rectángulo_5678" data-name="Rectángulo 5678" width="3.434" height="16.407" transform="translate(4.579)" fill="#96a5b5"/>
          <rect id="Rectángulo_5679" data-name="Rectángulo 5679" width="3.434" height="16.407" transform="translate(22.512)" fill="#d7dde7"/>
        </g>
        <g id="Grupo_55526" data-name="Grupo 55526" transform="translate(148.812 0)">
          <rect id="Rectángulo_5680" data-name="Rectángulo 5680" width="19.841" height="78.983" transform="translate(10.684 11.828)" fill="#d7dde7"/>
          <rect id="Rectángulo_5681" data-name="Rectángulo 5681" width="10.684" height="78.983" transform="translate(0 11.828)" fill="#96a5b5"/>
          <rect id="Rectángulo_5682" data-name="Rectángulo 5682" width="3.816" height="16.407" transform="translate(4.197)" fill="#96a5b5"/>
          <rect id="Rectángulo_5683" data-name="Rectángulo 5683" width="3.816" height="16.407" transform="translate(22.131)" fill="#d7dde7"/>
        </g>
        <g id="Grupo_55527" data-name="Grupo 55527" transform="translate(95.394 0)">
          <rect id="Rectángulo_5684" data-name="Rectángulo 5684" width="19.46" height="78.983" transform="translate(11.447 11.828)" fill="#d7dde7"/>
          <rect id="Rectángulo_5685" data-name="Rectángulo 5685" width="11.447" height="78.983" transform="translate(0 11.828)" fill="#96a5b5"/>
          <rect id="Rectángulo_5686" data-name="Rectángulo 5686" width="3.434" height="16.407" transform="translate(4.579)" fill="#96a5b5"/>
          <rect id="Rectángulo_5687" data-name="Rectángulo 5687" width="3.434" height="16.407" transform="translate(22.512)" fill="#d7dde7"/>
        </g>
        <g id="Grupo_55528" data-name="Grupo 55528" transform="translate(1.53 0)">
          <rect id="Rectángulo_5688" data-name="Rectángulo 5688" width="16.789" height="78.983" transform="translate(9.157 11.828)" fill="#d7dde7"/>
          <rect id="Rectángulo_5689" data-name="Rectángulo 5689" width="9.157" height="78.983" transform="translate(0 11.828)" fill="#96a5b5"/>
          <rect id="Rectángulo_5690" data-name="Rectángulo 5690" width="3.052" height="16.407" transform="translate(3.816)" fill="#96a5b5"/>
          <rect id="Rectángulo_5691" data-name="Rectángulo 5691" width="3.816" height="16.407" transform="translate(18.696)" fill="#d7dde7"/>
        </g>
        <path id="Trazado_103609" data-name="Trazado 103609" d="M156.568,387.768l-48.824-4.438v-146.4l48.824-2.571Z" transform="translate(-105.894 -149.275)" fill="#d7dde7"/>
        <path id="Trazado_103610" data-name="Trazado 103610" d="M150.645,237.966l-45.865,1.576V231.1l45.865-1.814Z" transform="translate(-104.78 -147.366)" fill="#96a5b5"/>
        <path id="Trazado_103611" data-name="Trazado 103611" d="M150.645,338.845l-45.865-.154v-8.444l45.865-.085Z" transform="translate(-104.78 -185.296)" fill="#96a5b5"/>
        <path id="Trazado_103612" data-name="Trazado 103612" d="M317.144,382.064l-133.527,5.225V232.868l133.527,2.576Z" transform="translate(-134.423 -148.714)" fill="#fff"/>
        <path id="Trazado_103613" data-name="Trazado 103613" d="M318.467,237.571l-140.185-.156v-9.09l140.185.637Z" transform="translate(-132.417 -147.005)" fill="#d7dde7"/>
        <path id="Trazado_103614" data-name="Trazado 103614" d="M318.467,334.185l-140.185,3.193v-8.727l140.185-2.731Z" transform="translate(-132.417 -183.701)" fill="#d7dde7"/>
        <path id="Trazado_103615" data-name="Trazado 103615" d="M318.467,467.47l-140.185,7.7v-1.454l140.185-7.62Z" transform="translate(-132.417 -236.406)" fill="#d7dde7"/>
        <g id="Grupo_55532" data-name="Grupo 55532" transform="translate(58.071 99.2)">
          <g id="Grupo_55529" data-name="Grupo 55529" transform="translate(0 0.199)">
            <path id="Trazado_103616" data-name="Trazado 103616" d="M229.283,295.561l-31.44.535V257.374l31.44-.076Z" transform="translate(-197.843 -257.298)" fill="#d7dde7"/>
          </g>
          <g id="Grupo_55530" data-name="Grupo 55530" transform="translate(44.386 0.101)">
            <path id="Trazado_103617" data-name="Trazado 103617" d="M299.3,294.768l-30.33.515V257.209l30.33-.068Z" transform="translate(-268.974 -257.141)" fill="#d7dde7"/>
          </g>
          <g id="Grupo_55531" data-name="Grupo 55531" transform="translate(87.292)">
            <path id="Trazado_103618" data-name="Trazado 103618" d="M367.324,293.987l-29.59.5V257.046l29.59-.067Z" transform="translate(-337.734 -256.979)" fill="#d7dde7"/>
          </g>
        </g>
        <g id="Grupo_55535" data-name="Grupo 55535" transform="translate(58.071 176.676)">
          <g id="Grupo_55533" data-name="Grupo 55533" transform="translate(0 2.826)">
            <path id="Trazado_103619" data-name="Trazado 103619" d="M229.283,423.574l-31.44,1.492V386.705l31.44-1.037Z" transform="translate(-197.843 -385.668)" fill="#d7dde7"/>
          </g>
          <g id="Grupo_55534" data-name="Grupo 55534" transform="translate(87.292)">
            <path id="Trazado_103620" data-name="Trazado 103620" d="M367.324,417.8l-29.59,1.4V382.113l29.59-.974Z" transform="translate(-337.734 -381.139)" fill="#d7dde7"/>
          </g>
        </g>
        <path id="Trazado_103621" data-name="Trazado 103621" d="M183.617,243.482s26.889,3.62,38.468,21.509c11.478,17.731,37.377,10.31,59.94,14.949,22.169,4.558,35.375,15.39,35.375,15.39l-133.782,2.987Z" transform="translate(-134.423 -152.704)" fill="#96a5b5" opacity="0.1" style="mix-blend-mode: multiply;isolation: isolate"/>
        <path id="Trazado_103622" data-name="Trazado 103622" d="M183.617,390.178s26.889,2.705,38.468,20.2c11.478,17.34,37.377,9.039,59.94,12.909,22.169,3.8,35.375,14.187,35.375,14.187l-133.782,7.539Z" transform="translate(-134.423 -207.862)" fill="#96a5b5" opacity="0.1" style="mix-blend-mode: multiply;isolation: isolate"/>
        <path id="Trazado_103623" data-name="Trazado 103623" d="M299.3,426.61l-30.33,1.567V373.024l30.33-.92Z" transform="translate(-166.517 -201.066)" fill="#e3e8f1"/>
        <path id="Trazado_103624" data-name="Trazado 103624" d="M301.438,371.72l-39.577,1.241V365.12L301.438,364Z" transform="translate(-163.842 -198.019)" fill="#d7dde7"/>
        <g id="Grupo_55536" data-name="Grupo 55536" transform="translate(86.552 220.556)">
          <path id="Trazado_103625" data-name="Trazado 103625" d="M302.908,456.017l-46.975,2.417v-4.64l46.975-2.333Z" transform="translate(-248.166 -451.461)" fill="url(#linear-gradient)"/>
          <path id="Trazado_103626" data-name="Trazado 103626" d="M304.226,462.922l-56.592,3.028V461.3l56.592-2.927Z" transform="translate(-245.045 -454.06)" fill="#d7dde7"/>
          <path id="Trazado_103627" data-name="Trazado 103627" d="M305.625,469.959l-62.14,3.432v-4.654l62.14-3.321Z" transform="translate(-243.485 -456.708)" fill="url(#linear-gradient)"/>
        </g>
      </g>
      <g id="Grupo_55539" data-name="Grupo 55539" transform="translate(60.655 224.44)">
        <path id="Trazado_103628" data-name="Trazado 103628" d="M209.334,472.012v4.39c0,1.124-.578,2.053-1.341,2.154l-68.5,6.208a4.918,4.918,0,0,1-1.524-.031q-.2-.036-.4-.085l-47.727-9a1.545,1.545,0,0,1-.881-1.566v-4.639l50.639-6.276,6.518-3.085,6.481.934,3.828-.734,8.748,2.546Z" transform="translate(-88.965 -383.647)" fill="#fedb31"/>
        <path id="Trazado_103629" data-name="Trazado 103629" d="M238.866,472.012v4.39c0,1.124-.578,2.053-1.341,2.154l-68.5,6.208a4.9,4.9,0,0,1-1.521-.031V461.082l8.151-1,6.48.934,3.827-.733,8.747,2.546Z" transform="translate(-118.497 -383.647)" opacity="0.3" fill="url(#linear-gradient-3)" style="mix-blend-mode: multiply;isolation: isolate"/>
        <path id="Trazado_103630" data-name="Trazado 103630" d="M156.432,460.406l-67.467,8.956,48.663,9.166a4.71,4.71,0,0,0,1.811.106l69.9-6.5Z" transform="translate(-88.965 -383.768)" fill="#ed8e41"/>
        <g id="Grupo_55538" data-name="Grupo 55538" transform="translate(22.282)">
          <path id="Trazado_103631" data-name="Trazado 103631" d="M194.59,422.315c0,3.214-10.112,5.711-24.07,6.359-3.524.162-7.29.208-11.2.117-19.211-.443-34.648-4.017-34.648-7.973a1.054,1.054,0,0,1,.027-.285h-.027l.08-.19a1.087,1.087,0,0,1,.072-.185l4.43-11.582,5.351-13.976,7.493-19.588,5.735-14.995,7.134-18.644c.893-2.334,2.547-3.786,4.335-3.786a3.2,3.2,0,0,1,.716.079,5.529,5.529,0,0,1,3.63,3.712l7.194,18.775,5.746,15.192,7.58,19.981v0l5.443,14.356v0l.087.008,4.533,11.667A1.88,1.88,0,0,1,194.59,422.315Z" transform="translate(-124.673 -337.588)" fill="#fedb31"/>
          <path id="Trazado_103632" data-name="Trazado 103632" d="M192.453,444.054c-4.374,1.461-11.366,2.514-19.737,2.905-3.374.159-6.943.21-10.662.14-12.907-.245-24.1-1.906-30.056-4.165l5.356-13.978a127.205,127.205,0,0,0,24.71,2.507c3.139.047,6.2.007,9.111-.11a106.347,106.347,0,0,0,15.794-1.667l5.4,14.356v0Z" transform="translate(-127.428 -371.942)" fill="#fff"/>
          <path id="Trazado_103633" data-name="Trazado 103633" d="M187.154,388.861c-3.339.361-7.009.606-10.9.716-2.087.062-4.235.082-6.43.061a149.416,149.416,0,0,1-17.222-1.11l5.735-14.995c3.589.283,7.454.446,11.487.469q2.137.012,4.206-.029c2.528-.047,4.978-.148,7.316-.3Z" transform="translate(-135.173 -351.104)" fill="#fff"/>
          <path id="Trazado_103634" data-name="Trazado 103634" d="M170.52,428.675c-3.524.162-7.29.208-11.2.117-19.211-.443-34.648-4.017-34.648-7.973a1.054,1.054,0,0,1,.027-.285h-.027l.08-.19a1.087,1.087,0,0,1,.072-.185l4.43-11.582,5.351-13.976,7.493-19.588,5.735-14.995,7.134-18.644c.893-2.334,2.547-3.786,4.335-3.786a3.2,3.2,0,0,1,.716.079c.763,4.746,2.066,13.028,3.509,22.791.723,4.915,1.481,10.207,2.225,15.6.957,6.98,1.884,14.149,2.671,20.936.643,5.562,1.192,10.868,1.581,15.607A112.865,112.865,0,0,1,170.52,428.675Z" transform="translate(-124.673 -337.588)" fill="#fedb31"/>
        </g>
      </g>
      <g id="Grupo_55541" data-name="Grupo 55541" transform="translate(48.906 44.852)">
        <g id="Grupo_55540" data-name="Grupo 55540">
          <path id="Trazado_103635" data-name="Trazado 103635" d="M159.164,173.894a12.97,12.97,0,0,1-7.059-1.826,136.464,136.464,0,0,1-24.527-18.588c-10.868-10.594-17.112-21.363-18.478-31.938l-.021-.166-.265-45.122c0-8.918,5.816-16.156,16.736-20.913,9.022-3.93,20.981-5.877,33.614-5.511,12.486.361,24.04,2.938,32.592,7.23,10.166,5.1,15.5,12.274,15.5,20.777l-.242,43.115-.019.158c-1.249,10.126-6.994,20.593-17.148,31.178a141.653,141.653,0,0,1-23.669,19.386A13.438,13.438,0,0,1,159.164,173.894Z" transform="translate(-108.814 -49.786)" fill="#5218bc"/>
          <path id="Trazado_103636" data-name="Trazado 103636" d="M163.536,173.894a12.67,12.67,0,0,1-6.966-1.826,134.848,134.848,0,0,1-24.2-18.588c-10.724-10.594-16.886-21.363-18.234-31.938l-.021-.166-.261-45.122c0-8.918,5.74-16.156,16.515-20.913,8.9-3.93,20.7-5.877,33.169-5.511,12.322.361,23.723,2.938,32.161,7.23,10.031,5.1,15.294,12.274,15.294,20.777l-.238,43.115-.019.158c-1.232,10.126-6.9,20.593-16.921,31.178a140.129,140.129,0,0,1-23.356,19.386A13.139,13.139,0,0,1,163.536,173.894Z" transform="translate(-110.708 -49.786)" fill="#5218bc"/>
          <path id="Trazado_103637" data-name="Trazado 103637" d="M118.625,77.956l.263,44.894c2.955,22.906,29.875,41.452,41.6,48.5a10.349,10.349,0,0,0,10.987-.3c11.48-7.554,36.926-26.571,39.645-48.595l.242-43C211.362,47.563,118.625,44.646,118.625,77.956Z" transform="translate(-112.503 -51.456)" fill="#7b3cee"/>
          <path id="Trazado_103638" data-name="Trazado 103638" d="M171.352,169.479a1.6,1.6,0,0,1-.869-.23,127.459,127.459,0,0,1-22.327-17.043c-8.793-8.638-13.865-17.036-15.028-24.924l-.258-44.151c.011-4.236,3.364-7.862,9.937-10.763,7.338-3.239,17.76-4.938,28.545-4.682,10.677.253,20.794,2.4,27.8,5.881,6.2,3.076,9.334,6.7,9.344,10.793l-.24,42.622c-1.085,7.633-5.846,15.861-14.2,24.511a132.426,132.426,0,0,1-21.836,17.715A1.661,1.661,0,0,1,171.352,169.479Z" transform="translate(-117.859 -56.507)" fill="#120c21"/>
          <path id="Trazado_103639" data-name="Trazado 103639" d="M171.363,168.141A123.822,123.822,0,0,1,150.255,151.9c-8.264-8.133-13.047-15.938-14.171-23.159l-.256-43.895c.007-3.029,2.792-5.807,8.254-8.226,6.951-3.078,16.911-4.7,27.281-4.467,10.27.231,19.951,2.259,26.6,5.55,5.169,2.558,7.784,5.348,7.791,8.3l-.24,42.466c-1.055,7.007-5.565,14.67-13.453,22.818A128.586,128.586,0,0,1,171.363,168.141Z" transform="translate(-118.971 -58.187)" fill="#7b3cee"/>
        </g>
        <path id="Trazado_103640" data-name="Trazado 103640" d="M178.159,148.385a4.424,4.424,0,0,1-3.744-1.952L162.3,127.586a4.109,4.109,0,0,1,1.282-5.348,3.685,3.685,0,0,1,5.343.5l8.916,13.083,13.3-25.042a6.884,6.884,0,0,1,7.137-3.374c2.744.6,3.858,3.184,2.436,5.718l-18.491,32.965a4.644,4.644,0,0,1-3.908,2.293Z" transform="translate(-128.725 -71.404)" fill="#fff"/>
      </g>
      <g id="Grupo_55561" data-name="Grupo 55561" transform="translate(149.189 97.563)">
        <g id="Grupo_55543" data-name="Grupo 55543" transform="translate(0 12.536)">
          <path id="Trazado_103641" data-name="Trazado 103641" d="M193.132,417.321c-6.833-17.793,2.811-46.952,8.886-60.169,17.705-38.52,50.237-39.822,76.908-40.891,26.2-1.048,51.49-2.061,70,27.486,12.091,19.3,23.21,54.713,15.8,73.573-7.8,19.836-29.454,4.464-80.955,4.192C227.12,421.215,201.663,439.538,193.132,417.321Z" transform="translate(-190.782 -215.083)" fill="#02cddb"/>
          <path id="Trazado_103642" data-name="Trazado 103642" d="M339.794,321.083c0,4.85-11.842,10.671-26.449,10.671S286.9,325.933,286.9,321.083s11.842-2.682,26.449-2.682S339.794,316.233,339.794,321.083Z" transform="translate(-226.921 -215.85)" fill="#02a8b4"/>
          <path id="Trazado_103643" data-name="Trazado 103643" d="M307.331,268.771c-4.022,0,5.262,28.259-9.359,32.138a1.609,1.609,0,0,0-.36,2.973c3.925,2.127,11.276,4.821,23.333,4.821a29.759,29.759,0,0,0,16.537-4.955,1.608,1.608,0,0,0-.173-2.765c-4.507-2.323-10.764-9.711-8.9-31.49Z" transform="translate(-230.632 -197.371)" fill="#734400"/>
          <path id="Trazado_103644" data-name="Trazado 103644" d="M294.116,204.764c.061.354,1.277,26.148,7.172,39.029,1.692,3.7,10.086,3.254,15.518,2.809,4.719-.386,12.115,1.336,14.2-1.922,8.374-13.1,6.955-45.534,6.955-45.534s-4.291-10.792-21.885-10.5S294.116,204.764,294.116,204.764Z" transform="translate(-229.636 -167.243)" fill="#734400"/>
          <path id="Trazado_103645" data-name="Trazado 103645" d="M294.184,233.74s-3.68-4.278-7.149-4.848-5.727,8.412-1,14.258,10.2,1,10.2,1Z" transform="translate(-225.586 -182.367)" fill="#734400"/>
          <path id="Trazado_103646" data-name="Trazado 103646" d="M356.953,233.74s3.68-4.278,7.149-4.848,5.727,8.412,1,14.258-10.2,1-10.2,1Z" transform="translate(-252.49 -182.367)" fill="#734400"/>
          <path id="Trazado_103647" data-name="Trazado 103647" d="M291.373,205.4c.463.85.994,1.642,1.353,1.548,1.487-.388-4.25-14.883,1.035-19.958,2.732-2.624,5.809-.233,17-.739,11.271-.51,14.154-3.206,17.561-1.141,3.1,1.881,5.881,7.255,3.58,23.169l1.922-.444c-.863-5.212.079-8.5,1.156-10.574.786-1.513,2.208-3.463,2.1-6.279-.068-1.746-.647-1.825-.742-3.254-.279-4.191,4.5-5.319,4.734-9.46.178-3.188-2.572-3.912-2.07-7.244.427-2.834,2.575-3.363,2.235-5.411-.366-2.209-3.243-3.853-5.262-4.426-2.059-.585-2.8.064-4.011-.769-1.951-1.346-1.013-3.735-2.423-4.622-2.511-1.579-7.5,4.728-10.73,3.157-1.954-.951-1.2-3.788-2.93-4.476-3.342-1.33-9.246,8.031-11.621,6.788-1.137-.6-.041-2.875-1.635-4.554-1.873-1.971-6.369-1.967-8.418.119-1.911,1.945-.288,4.268-2.311,6.732-1.816,2.213-3.914,1.3-5.964,3.075-3.482,3.012-2.27,9.829-1.838,12.262,1.49,8.374,6.126,10.068,5.086,15.778a12.821,12.821,0,0,0-.444,5.47A11.226,11.226,0,0,0,291.373,205.4Z" transform="translate(-225.657 -154.348)" fill="url(#linear-gradient-4)"/>
          <g id="Grupo_55542" data-name="Grupo 55542" transform="translate(57.878 12.834)" opacity="0.3" style="mix-blend-mode: multiply;isolation: isolate">
            <path id="Trazado_103648" data-name="Trazado 103648" d="M334.2,195.047c-.412-4.117,2.778-6.033,2.243-8.97-.431-2.359-3.1-4.48-5.607-4.933-5.348-.967-8.81,6.908-14.128,6.055-4.112-.66-3.656-5.627-8.3-7.625-7.356-3.166-15.066,6.486-19.959,3.812-1.47-.8-2.957-2.869-3.062-8.47-2.806,3.222-1.7,9.422-1.3,11.717,1.49,8.375,6.126,10.068,5.086,15.778a12.82,12.82,0,0,0-.444,5.47,11.227,11.227,0,0,0,2.639,5.252c.463.85.994,1.642,1.353,1.548,1.487-.388-4.25-14.883,1.035-19.958,2.732-2.624,5.809-.233,17-.739,11.27-.51,14.154-3.206,17.561-1.141,3.1,1.881,5.881,7.255,3.58,23.168l1.922-.443c-.863-5.213.079-8.5,1.156-10.574.324-.623.755-1.322,1.143-2.124a18.946,18.946,0,0,0-.8-4.46C334.749,196.555,334.332,196.371,334.2,195.047Z" transform="translate(-283.535 -174.915)" fill="url(#linear-gradient-5)"/>
          </g>
        </g>
        <g id="Grupo_55546" data-name="Grupo 55546" transform="translate(31.009 113.222)">
          <g id="Grupo_55544" data-name="Grupo 55544">
            <path id="Trazado_103649" data-name="Trazado 103649" d="M298.127,373.34v54.916H245.89a4.149,4.149,0,0,1-4.145-4.092l-.434-32.785-.836-63.294a2.138,2.138,0,0,1,1.153-1.923l2.8-1.44,2.986-1.538L267.09,315.9a3.1,3.1,0,0,1,3.854,1.533L297.7,371.5A4.133,4.133,0,0,1,298.127,373.34Z" transform="translate(-240.476 -315.705)" fill="#edc241"/>
            <path id="Trazado_103650" data-name="Trazado 103650" d="M245.487,389.186a5.907,5.907,0,0,1-1.184,3.653l-2.991,3.974-.836-63.293a2.138,2.138,0,0,1,1.153-1.923l2.8-1.44Z" transform="translate(-240.476 -321.139)" fill="#edc241"/>
            <rect id="Rectángulo_5692" data-name="Rectángulo 5692" width="56.471" height="14.499" transform="translate(1.18 76.685)" fill="#fff"/>
            <path id="Trazado_103651" data-name="Trazado 103651" d="M312.7,371.5,285.94,317.429a3.1,3.1,0,0,0-3.854-1.532l-1.728.64a3.091,3.091,0,0,1,.665.892L307.756,371.5a4.121,4.121,0,0,1,.407,1.838v54.918h4.96V373.338A4.148,4.148,0,0,0,312.7,371.5Z" transform="translate(-255.471 -315.704)" fill="#e3e8f1"/>
          </g>
          <g id="Grupo_55545" data-name="Grupo 55545" transform="translate(57.651)">
            <path id="Trazado_103652" data-name="Trazado 103652" d="M332.866,373.34v54.916h52.263a4.149,4.149,0,0,0,4.145-4.092l.434-32.785.836-63.294a2.138,2.138,0,0,0-1.153-1.923l-2.8-1.44-2.986-1.538L363.929,315.9a3.1,3.1,0,0,0-3.854,1.533L333.306,371.5A4.153,4.153,0,0,0,332.866,373.34Z" transform="translate(-332.866 -315.705)" fill="#edc241"/>
            <path id="Trazado_103653" data-name="Trazado 103653" d="M417.266,389.186a5.906,5.906,0,0,0,1.184,3.653l2.991,3.974.836-63.293a2.138,2.138,0,0,0-1.153-1.923l-2.8-1.44Z" transform="translate(-364.6 -321.139)" fill="#edc241"/>
            <rect id="Rectángulo_5693" data-name="Rectángulo 5693" width="56.853" height="14.499" transform="translate(0 76.685)" fill="#fff"/>
            <path id="Trazado_103654" data-name="Trazado 103654" d="M333.307,371.5l26.761-54.071a3.1,3.1,0,0,1,3.858-1.532l1.73.64a3.092,3.092,0,0,0-.665.892L338.245,371.5a4.14,4.14,0,0,0-.419,1.838v54.918h-4.96V373.338A4.153,4.153,0,0,1,333.307,371.5Z" transform="translate(-332.866 -315.704)" fill="#d4d9df"/>
          </g>
        </g>
        <g id="Grupo_55547" data-name="Grupo 55547" transform="translate(67.206 76.105)">
          <rect id="Rectángulo_5694" data-name="Rectángulo 5694" width="0.763" height="11.065" rx="0.382" transform="translate(0 0.36) rotate(-28.175)" fill="#fff"/>
          <rect id="Rectángulo_5695" data-name="Rectángulo 5695" width="11.065" height="0.763" rx="0.382" transform="translate(33.577 9.754) rotate(-61.826)" fill="#fff"/>
        </g>
        <g id="Grupo_55554" data-name="Grupo 55554" transform="translate(64.564 61.731)">
          <g id="Grupo_55550" data-name="Grupo 55550" transform="translate(4.912 8.181)">
            <path id="Trazado_103655" data-name="Trazado 103655" d="M336.878,252.339c0,.2-.007.4-.016.6a15.215,15.215,0,0,1-1.736,7.555c-1.435,3.293-3.575,5.861-5.735,6.895a.48.48,0,0,1-.092.039,5.592,5.592,0,0,1-.53.213c-.134.092-.213.141-.213.141l-.431.031a45,45,0,0,1-8.662.424,45,45,0,0,1-8.661-.424l-.431-.031s-.08-.049-.214-.141c-.122-.042-.244-.088-.366-.141-.084-.034-.172-.069-.256-.111-2.159-1.034-4.216-3.6-5.65-6.895a12.67,12.67,0,0,1-1.652-7.555v-.076a1.3,1.3,0,0,0-.061-.31.881.881,0,0,1-.038-.217,18.745,18.745,0,0,1,.1-2.4,1.252,1.252,0,0,1,.782-1.015,42.431,42.431,0,0,1,16.457-2.61,42.448,42.448,0,0,1,16.46,2.61,1.273,1.273,0,0,1,.8,1.015,18.854,18.854,0,0,1,.137,2.213C336.878,252.213,336.878,252.278,336.878,252.339Z" transform="translate(-302.126 -246.297)" fill="#fff"/>
            <path id="Trazado_103656" data-name="Trazado 103656" d="M336.873,254.093c0,.2-.008.4-.016.6a15.215,15.215,0,0,1-1.736,7.555c-1.435,3.293-3.575,5.861-5.735,6.895a.478.478,0,0,1-.092.039c-4.247.347-14.16.2-19.509.072-.084-.034-.172-.069-.256-.111-2.159-1.034-4.216-3.6-5.65-6.895a12.67,12.67,0,0,1-1.652-7.555v-.076c0-.084-.08-.169-.076-.252,0,0-.031-.008-.031-.011l.046-.046a4.419,4.419,0,0,1,2.037-1.225c3.69-1.018,17.911-4.365,31.311.267l1.355.553C336.873,253.967,336.873,254.032,336.873,254.093Z" transform="translate(-302.121 -248.051)" opacity="0.3" fill="url(#linear-gradient-6)"/>
            <g id="Grupo_55548" data-name="Grupo 55548" transform="translate(1.085 9.37)" style="mix-blend-mode: soft-light;isolation: isolate">
              <path id="Trazado_103657" data-name="Trazado 103657" d="M318.405,262.808c-9.546,0-14.306-1.048-14.376-1.064a.218.218,0,1,1,.1-.425c.1.024,10.747,2.361,32.275,0a.221.221,0,0,1,.241.193.219.219,0,0,1-.193.241A165.759,165.759,0,0,1,318.405,262.808Z" transform="translate(-303.859 -261.313)" fill="#fff"/>
            </g>
            <g id="Grupo_55549" data-name="Grupo 55549" transform="translate(4.831 15.038)" style="mix-blend-mode: soft-light;isolation: isolate">
              <path id="Trazado_103658" data-name="Trazado 103658" d="M321.593,271.891c-7.682,0-11.515-1.051-11.571-1.066a.218.218,0,1,1,.119-.419c.084.024,8.623,2.356,25.9-.006a.218.218,0,1,1,.059.432A107.3,107.3,0,0,1,321.593,271.891Z" transform="translate(-309.863 -270.397)" fill="#fff"/>
            </g>
          </g>
          <g id="Grupo_55553" data-name="Grupo 55553">
            <g id="Grupo_55551" data-name="Grupo 55551" transform="translate(0 0.224)">
              <path id="Trazado_103659" data-name="Trazado 103659" d="M300.573,244.85a.436.436,0,0,1-.38-.222L294.306,234.2a.436.436,0,0,1,.759-.429l5.887,10.432a.436.436,0,0,1-.379.65Z" transform="translate(-294.25 -233.546)" fill="#fff"/>
            </g>
            <g id="Grupo_55552" data-name="Grupo 55552" transform="translate(38.409)">
              <path id="Trazado_103660" data-name="Trazado 103660" d="M356.239,245.811a.429.429,0,0,1-.084-.009.436.436,0,0,1-.344-.512l2.317-11.752a.436.436,0,1,1,.855.168l-2.317,11.752A.437.437,0,0,1,356.239,245.811Z" transform="translate(-355.803 -233.186)" fill="#fff"/>
            </g>
          </g>
        </g>
        <g id="Grupo_55559" data-name="Grupo 55559" transform="translate(61.951 55.073)">
          <g id="Grupo_55555" data-name="Grupo 55555" transform="translate(0 3.577)">
            <path id="Trazado_103661" data-name="Trazado 103661" d="M290.879,228.249c-.645,0-.816.508-.816,1.153v1.768c0,.645.171.895.816.895h1.855v-3.816Z" transform="translate(-290.063 -228.249)" fill="#120c21"/>
            <path id="Trazado_103662" data-name="Trazado 103662" d="M364.7,228.249a1.162,1.162,0,0,1,1.176,1.153v1.768c0,.645-.531.895-1.176.895h-1.876v-3.816Z" transform="translate(-317.423 -228.249)" fill="#120c21"/>
          </g>
          <g id="Grupo_55558" data-name="Grupo 55558" transform="translate(2.289)">
            <g id="Grupo_55556" data-name="Grupo 55556" transform="translate(0.382 0.458)">
              <path id="Trazado_103663" data-name="Trazado 103663" d="M337.46,225.255v5.409a6.453,6.453,0,0,1-5.743,6.362l-5.081.57A8.046,8.046,0,0,1,319.7,235.1l-2.837-3.01h-1.825l-2.832,3.01a8.083,8.083,0,0,1-6.933,2.56l-5.157-.6a6.509,6.509,0,0,1-5.772-6.4v-5.409a2.149,2.149,0,0,1,2.221-2l19.365.821,19.354-.821a2.078,2.078,0,0,1,1.515.552A2.05,2.05,0,0,1,337.46,225.255Z" transform="translate(-294.343 -223.25)" fill="#02cddb"/>
              <path id="Trazado_103664" data-name="Trazado 103664" d="M334.864,237.1a6.38,6.38,0,0,1-3.165,1.268l-5.072.57a8.036,8.036,0,0,1-6.933-2.494l-2.832-3.01h-1.825l-2.832,3.01a8.083,8.083,0,0,1-6.933,2.56l-5.157-.6a6.509,6.509,0,0,1-5.772-6.4v-5.186c1.908,1.359,4.865,2.522,9.357,2.7C314.724,229.954,329.564,224.933,334.864,237.1Z" transform="translate(-294.343 -224.593)" fill="#02cddb" opacity="0.5" style="mix-blend-mode: soft-light;isolation: isolate"/>
            </g>
            <g id="Grupo_55557" data-name="Grupo 55557">
              <path id="Trazado_103665" data-name="Trazado 103665" d="M325.868,237.946a8.283,8.283,0,0,1-6.284-2.661l-2.689-2.7h-1.442L312.7,235.3a8.219,8.219,0,0,1-6.231,2.566,10.163,10.163,0,0,1-1.131-.078l-5.234-.577a7.107,7.107,0,0,1-6.369-6.821v-5.411a2.651,2.651,0,0,1,1.021-1.778,3.024,3.024,0,0,1,2.045-.683l19.329.823,19.36-.825a2.117,2.117,0,0,1,2.125,2.442v5.431a6.692,6.692,0,0,1-5.862,6.87l-4.838.626A9.379,9.379,0,0,1,325.868,237.946Zm-10.794-6.129h2.206l2.969,2.918a7.385,7.385,0,0,0,5.618,2.364,8.462,8.462,0,0,0,.934-.085l4.911-.642a5.873,5.873,0,0,0,5.134-5.982v-5.411a1.447,1.447,0,0,0-.323-1.119,1.387,1.387,0,0,0-1-.431h-.084l-19.3.823-19.428-.824a1.871,1.871,0,0,0-1.218.431c-.572.547-.625.911-.625,1.119v5.411a6.07,6.07,0,0,0,5.44,5.907l5.152.57a9.1,9.1,0,0,0,1.013.058,7.239,7.239,0,0,0,5.56-2.177Z" transform="translate(-293.731 -222.517)" fill="#120c21"/>
            </g>
          </g>
        </g>
        <g id="Grupo_55560" data-name="Grupo 55560" transform="translate(53.054)">
          <path id="Rectángulo_5696" data-name="Rectángulo 5696" d="M30.344,0h0A30.344,30.344,0,0,1,60.689,30.344v7.687a0,0,0,0,1,0,0H0a0,0,0,0,1,0,0V30.344A30.344,30.344,0,0,1,30.344,0Z" transform="translate(3.447 3.836)" fill="#fedb31"/>
          <path id="Rectángulo_5697" data-name="Rectángulo 5697" d="M8.44,0h0a8.44,8.44,0,0,1,8.44,8.44V41.868a0,0,0,0,1,0,0H0a0,0,0,0,1,0,0V8.44A8.44,8.44,0,0,1,8.44,0Z" transform="translate(25.351)" fill="#ed8e41"/>
          <rect id="Rectángulo_5698" data-name="Rectángulo 5698" width="67.582" height="7.347" rx="3.673" transform="translate(0 41.429)" fill="#ed8e41"/>
          <path id="Trazado_103666" data-name="Trazado 103666" d="M282.8,211.73c1.272,5.8,13.96,10.353,29.426,10.353s28.154-4.555,29.426-10.353Z" transform="translate(-278.435 -163.388)" fill="#fedb31"/>
        </g>
      </g>
      <g id="Grupo_55565" data-name="Grupo 55565" transform="translate(292.596 207.371)">
        <g id="Grupo_55563" data-name="Grupo 55563">
          <g id="Grupo_55562" data-name="Grupo 55562">
            <path id="Trazado_103667" data-name="Trazado 103667" d="M366.768,428.488a8.6,8.6,0,0,1-7.509-12.924l58.322-101a8.672,8.672,0,0,1,15.017.011L490.92,415.589a8.59,8.59,0,0,1-7.509,12.9Z" transform="translate(-358.102 -310.233)" fill="#120c21"/>
            <path id="Trazado_103668" data-name="Trazado 103668" d="M489.926,424.765a5.016,5.016,0,0,1-4.253,2.563H369.031a5.048,5.048,0,0,1-4.25-7.529L423.1,318.758a4.932,4.932,0,0,1,3.312-2.379,4.8,4.8,0,0,1,.94-.1,4.9,4.9,0,0,1,4.252,2.452L489.926,419.8A5.012,5.012,0,0,1,489.926,424.765Z" transform="translate(-360.365 -312.507)" fill="#fedb31"/>
          </g>
        </g>
        <g id="Grupo_55564" data-name="Grupo 55564" transform="translate(59.745 36.108)">
          <path id="Trazado_103669" data-name="Trazado 103669" d="M463.687,409.16l-5.082-.121a2.815,2.815,0,0,1-2.663-2.671l-1.861-35.806a2.323,2.323,0,0,1,.733-1.846,2.44,2.44,0,0,1,1.941-.608l8.753.61a2.679,2.679,0,0,1,1.894.849,2.712,2.712,0,0,1,.712,1.953l-1.81,35.154A2.59,2.59,0,0,1,463.687,409.16Z" transform="translate(-453.933 -368.098)" fill="#fff"/>
          <path id="Trazado_103670" data-name="Trazado 103670" d="M455.756,446.857a7.263,7.263,0,0,1,5.351-1.762,7.556,7.556,0,0,1,5.389,1.869,7.084,7.084,0,0,1,1.836,5.282,6.932,6.932,0,0,1-1.878,5.19,7.323,7.323,0,0,1-5.348,1.845,7.233,7.233,0,0,1-5.33-1.909,7.058,7.058,0,0,1-1.931-5.242A6.956,6.956,0,0,1,455.756,446.857Z" transform="translate(-453.846 -397.048)" fill="#fff"/>
        </g>
      </g>
    </g>
  </g>
</svg>
