<svg xmlns="http://www.w3.org/2000/svg" width="124" height="124" viewBox="0 0 124 124">
  <g id="Grupo_55233" data-name="Grupo 55233" transform="translate(-264 -864)">
    <circle id="Elipse_4250" data-name="Elipse 4250" cx="62" cy="62" r="62" transform="translate(264 864)" fill="#fff"/>
    <path id="Trazado_103028" data-name="Trazado 103028" d="M1392.321,139.677c4,3.228,7.884,6.318,11.712,9.476a29.616,29.616,0,0,1,3.145,3.111c1.208,1.347,2.493,1.654,3.6.715,1.161-.983,1.088-2.342-.228-3.75q-5.269-5.635-10.55-11.259c-.268-.286-.546-.564-.8-.862a2,2,0,0,1-.03-2.909,1.936,1.936,0,0,1,2.89.311c1.361,1.412,2.687,2.858,4.03,4.287,1.164,1.239,2.324,2.482,3.5,3.712,1.193,1.251,2.51,1.416,3.536.464s.951-2.323-.215-3.569q-10.048-10.744-20.11-21.475c-.208-.223-.432-.433-.622-.671a1.925,1.925,0,1,1,2.816-2.625c1.585,1.619,3.056,3.355,4.7,4.912a9.623,9.623,0,0,0,2.924,1.853,3.756,3.756,0,0,0,2.281-.01c1.524-.434,1.707-1.2.635-2.334-3.23-3.425-6.319-7-9.767-10.2-4.882-4.517-10.639-7.282-17.49-6.945a19.722,19.722,0,0,0-4.81,1.078,2.618,2.618,0,0,1-2.776-.408q-9.5-8-19.043-15.953c-.864-.721-1.406-1.638-.792-2.6a3.013,3.013,0,0,1,2.007-1.039c.468-.059,1.071.5,1.529.877q8.436,7.033,16.83,14.116a2.828,2.828,0,0,0,2.987.688c5.259-1.453,10.37-.6,15.291,1.544a30.574,30.574,0,0,1,10.52,7.368c2.617,2.862,5.342,5.626,7.984,8.466,3.476,3.737,2.57,7.429-2.212,9.158a5.6,5.6,0,0,0-.568.3c.771.83,1.471,1.587,2.175,2.34q4.022,4.3,8.047,8.588c3.53,3.77,3.007,7.815-1.466,10.648,1.828,2.633,2.156,5.356.112,8.032-1.489,1.949-3.629,2.575-6.668,2.066a20.426,20.426,0,0,1-1.263,1.9,18.393,18.393,0,0,1-1.587,1.532c2.533,3.536,2.8,6.251.882,8.787-1.817,2.4-4.54,3.016-8.131,1.779a6.7,6.7,0,0,1-4.4,4.239,6.554,6.554,0,0,1-6.045-1.364l-.509.964a6.207,6.207,0,0,1-9.469,2.142q-12.626-10.064-25.108-20.307a28.84,28.84,0,0,1-8.478-10.971,15.06,15.06,0,0,1-1.115-3.739,3.326,3.326,0,0,0-1.418-2.336q-8.285-6.49-16.531-13.029c-.375-.3-.944-.572-1.036-.952a3.8,3.8,0,0,1-.038-2.275,1.612,1.612,0,0,1,2.267-.643,5.236,5.236,0,0,1,1.072.735c6.021,4.751,12.055,9.487,18.031,14.294a3.558,3.558,0,0,1,1.184,2.129,15.2,15.2,0,0,0,3.281,8,51.827,51.827,0,0,0,6.558,6.883c7.669,6.384,15.49,12.586,23.29,18.81a3.06,3.06,0,0,0,2.211.753,3.5,3.5,0,0,0,1.938-1.654,2.088,2.088,0,0,0-.844-2.641q-4.467-3.625-8.948-7.232l-5.187-4.191c-1.3-1.054-1.595-2.129-.842-3.117.726-.953,1.958-.941,3.212.069q9.219,7.417,18.428,14.846a11.1,11.1,0,0,0,1.039.792,2.35,2.35,0,0,0,3.259-.553,2.319,2.319,0,0,0-.265-3.194c-.693-.659-1.463-1.238-2.209-1.84q-6.308-5.091-12.62-10.176c-.2-.164-.417-.318-.607-.5a1.944,1.944,0,0,1-.3-2.791,1.879,1.879,0,0,1,2.7-.213c1.661,1.271,3.272,2.606,4.9,3.919q6.973,5.62,13.941,11.246a2.46,2.46,0,0,0,3.014.368,2.114,2.114,0,0,0,1.089-2.558,4.224,4.224,0,0,0-1.351-1.824q-8.97-7.309-18-14.545c-1.572-1.268-1.943-2.338-1.169-3.368.805-1.071,2-.951,3.625.361q6.668,5.374,13.343,10.738a5.035,5.035,0,0,0,1.542.933,2.41,2.41,0,0,0,2.022-4.279c-2.181-1.808-4.4-3.568-6.606-5.346l-17.606-14.2c-.2-.164-.417-.318-.6-.5a1.916,1.916,0,0,1-.274-2.7,1.887,1.887,0,0,1,2.691-.281c1.9,1.461,3.751,2.984,5.618,4.488a5.659,5.659,0,0,0,4.467,1.428,4.152,4.152,0,0,0,1.243-.363c1.414-.7,1.533-1.576.306-2.566-3.256-2.627-6.575-5.177-9.8-7.84a28.418,28.418,0,0,0-11.64-5.666,21.2,21.2,0,0,0-10.982.168,3.119,3.119,0,0,1-2.379-.44c-6.234-4.614-12.407-9.312-18.591-13.994-1.259-.954-1.527-2.016-.8-3,.743-1.008,1.884-1.029,3.2-.033q8.557,6.457,17.1,12.934a2.228,2.228,0,0,0,2.015.455c8.573-1.725,16.241.617,23.172,5.577,3.752,2.684,7.255,5.718,10.862,8.6,3.831,3.064,3.352,7.288-1.062,9.442C1392.917,139.368,1392.729,139.468,1392.321,139.677Z" transform="translate(-1044.014 797.732)" fill="#02dba8"/>
  </g>
</svg>
