<svg xmlns="http://www.w3.org/2000/svg" width="124" height="124" viewBox="0 0 124 124">
  <g id="Grupo_55238" data-name="Grupo 55238" transform="translate(-576 -1152)">
    <circle id="Elipse_4256" data-name="Elipse 4256" cx="62" cy="62" r="62" transform="translate(576 1152)" fill="#fff"/>
    <path id="Trazado_103040" data-name="Trazado 103040" d="M458.87,372.928l15.048,6.22c6.237,2.579,12.483,5.136,18.7,7.753a34.293,34.293,0,0,1,4.515,2.281,10.076,10.076,0,0,1,4.716,11.543,10.691,10.691,0,0,1-9.8,8.049c-2.509.115-5.027.044-7.541.045q-33.458,0-66.917,0c-5.9,0-10.319-3.749-11.16-9.424-.713-4.812,1.879-9.109,6.86-11.279q5.639-2.457,11.317-4.825,14.346-5.966,28.711-11.889c3.382-1.4,4.622-3.271,4.637-6.961.007-1.691.044-3.384-.012-5.073a4.4,4.4,0,1,0-8.775.407c.07,1.59-.642,2.555-1.934,2.617s-2.1-.823-2.241-2.4a8.562,8.562,0,0,1,7.813-9.231,8.427,8.427,0,0,1,9.254,7.739,56.288,56.288,0,0,1-.038,7.941A10.322,10.322,0,0,1,458.87,372.928Zm-4.735,31.208q17.82,0,35.64,0c.5,0,1.007.015,1.507-.027a6.553,6.553,0,0,0,5.677-4.486c.721-2.489-.1-4.664-2.512-6.405a13.671,13.671,0,0,0-2.613-1.478c-4.61-1.966-9.237-3.893-13.865-5.816-7.537-3.132-15.073-6.268-22.634-9.34a3.144,3.144,0,0,0-2.144.008c-5.667,2.276-11.306,4.623-16.945,6.969-6.521,2.713-13.048,5.409-19.536,8.2a13.368,13.368,0,0,0-3.538,2.282,5.471,5.471,0,0,0-.233,7.944,6.969,6.969,0,0,0,5.419,2.163Q436.247,404.111,454.136,404.136Z" transform="translate(183.677 834.279)" fill="#02dba8"/>
  </g>
</svg>
