<svg xmlns="http://www.w3.org/2000/svg" xmlns:xlink="http://www.w3.org/1999/xlink" width="314.697" height="183" viewBox="0 0 314.697 183">
  <defs>
    <clipPath id="clip-path">
      <rect id="Rect치ngulo_5751" data-name="Rect치ngulo 5751" width="308.394" height="155.95" fill="none"/>
    </clipPath>
  </defs>
  <g id="Grupo_55854" data-name="Grupo 55854" transform="translate(-4388.303 9337)">
    <g id="Grupo_55873" data-name="Grupo 55873" transform="translate(4080.77 -9523.875)">
      <g id="Grupo_55720" data-name="Grupo 55720" transform="translate(307.534 213.925)" clip-path="url(#clip-path)">
        <g id="Grupo_55719" data-name="Grupo 55719" transform="translate(74.272 5.237)">
          <path id="Trazado_103706" data-name="Trazado 103706" d="M456.6,290.586c1.89-2.7-.866-4.6-.866-4.6-3.5-1.749-4.057-11.269-10.586-12.152-3.979-.538-8.847,5.349-12.027,10.02l-1.667-.524a6.542,6.542,0,0,0-7.071,1.175c-7.335-2.92-11.225,1.3-11.225,1.3l-3.1.517a12.4,12.4,0,0,0-3.806,2.135c-3.955,3.29-4.665,8.356-5.327,17.185-.441,5.911-.8,12.665-.938,20.146l.068.008c-1.55,4.825-26.3,82.206-34.273,121.674-1.056,5.222-3.106,16.164,2.758,25.744,4.634,7.569,13.965,13.89,23.767,13.5,0,0,8.593-.343,17.049-7.816,22.957-20.284,22.274-138.567,22.183-147.883a29.365,29.365,0,0,1,3.244-1.546,29.725,29.725,0,0,1,4.367-1.379c8.515-1.459,13.245-11.971,13.931-18.112a7.306,7.306,0,0,0,.064-.879c-.106-6.871,5.149-8.719,5.362-13.074A8.355,8.355,0,0,0,456.6,290.586Zm-7.726,6.428c-.5,2.916-5.551,4.583-5.551,4.583l-.113-10.119a6.183,6.183,0,0,1-.129-1l2.347-3.4,2.644,2.919a7.474,7.474,0,0,0,2.865,2.771A8.675,8.675,0,0,0,448.872,297.014Z" transform="translate(-364.563 -201.059)" fill="#facad1"/>
          <g id="Grupo_55690" data-name="Grupo 55690" transform="translate(41.382 81.868)">
            <g id="Grupo_55686" data-name="Grupo 55686" transform="translate(7.825 46.166)">
              <path id="Trazado_103707" data-name="Trazado 103707" d="M415.729,319.233c-1.386,0-2.771-.04-4.147-.121a70.469,70.469,0,0,1-8.473-1.022.926.926,0,1,1,.341-1.819,68.18,68.18,0,0,0,16.609.977.953.953,0,0,1,.992.863.927.927,0,0,1-.874.982C418.7,319.187,417.215,319.233,415.729,319.233Z" transform="translate(-402.346 -316.255)" fill="#e25a7b"/>
            </g>
            <g id="Grupo_55687" data-name="Grupo 55687" transform="translate(26.241)">
              <path id="Trazado_103708" data-name="Trazado 103708" d="M423.386,304.631c-.115,0-.229,0-.341-.012-2.843-.2-5.77-2.726-5.866-7.176a.929.929,0,0,1,.914-.944.95.95,0,0,1,.955.905c.073,3.342,2.131,5.233,4.127,5.371,1.831.129,3.154-1.2,3.524-3.446.732-14.52-9.042-16.608-9.459-16.69a.925.925,0,1,1,.354-1.815c.117.022,11.789,2.417,10.961,18.7C427.934,303.338,425.459,304.631,423.386,304.631Z" transform="translate(-416.486 -280.807)" fill="#e25a7b"/>
            </g>
            <g id="Grupo_55688" data-name="Grupo 55688" transform="translate(16.374 0.652)">
              <path id="Trazado_103709" data-name="Trazado 103709" d="M414.779,305.046a5.294,5.294,0,0,1-1.9-.362c-2.5-.979-4.058-3.851-3.962-7.314a.93.93,0,0,1,.934-.9h.027a.929.929,0,0,1,.908.951c-.074,2.636,1.043,4.864,2.781,5.544a3.236,3.236,0,0,0,1.921.145c2.45-.623,3.6-4.688,3.842-6.2,1.155-7.25-8.769-13.839-8.869-13.905a.919.919,0,0,1-.264-1.282.944.944,0,0,1,1.3-.26c.451.3,11.024,7.323,9.684,15.733-.042.271-1.093,6.658-5.224,7.709A4.734,4.734,0,0,1,414.779,305.046Z" transform="translate(-408.91 -281.308)" fill="#e25a7b"/>
            </g>
            <g id="Grupo_55689" data-name="Grupo 55689" transform="translate(0 2.151)">
              <path id="Trazado_103710" data-name="Trazado 103710" d="M400.79,310.568a.932.932,0,0,1-.893-1.2l.052-.167a12.958,12.958,0,0,0,.365-7.914,34.088,34.088,0,0,0-3.842-7.692.919.919,0,0,1,.113-1.1.95.95,0,0,1,1.1-.2,31.837,31.837,0,0,1,4.834,2.936,39.863,39.863,0,0,1,3.136,2.6c1.427,1.279,2.288,2.051,3.55,2.133a4.017,4.017,0,0,0,3.344-1.3c1.257-2.045-2.616-7.918-9.639-14.616a.918.918,0,0,1-.023-1.308.942.942,0,0,1,1.323-.023c4.786,4.565,12.441,12.833,9.937,16.908-.974,1.585-3.281,2.3-5.064,2.181-1.913-.124-3.076-1.167-4.685-2.609a38.107,38.107,0,0,0-3-2.487q-.766-.565-1.563-1.077a25.9,25.9,0,0,1,2.264,5.129,14.838,14.838,0,0,1-.371,8.986l-.051.164A.938.938,0,0,1,400.79,310.568Z" transform="translate(-396.337 -282.458)" fill="#e25a7b"/>
            </g>
          </g>
          <g id="Grupo_55716" data-name="Grupo 55716" transform="translate(60.456)">
            <path id="Trazado_103711" data-name="Trazado 103711" d="M509.7,310c4.543-3.773,17.355-15.434,19.218-33.3,2.688-25.806-19.084-49-42.591-56.242-31.434-9.684-57.93,11.63-60,13.348l-6.987-5c-1.608,2.952-16.076,30.495-2.813,54.205a43.471,43.471,0,0,0,12.935,14.507c11.512,8.076,22.233,6.117,45.538,7.881A313.733,313.733,0,0,1,509.7,310Z" transform="translate(-410.983 -217.946)" fill="#6e4022"/>
            <g id="Grupo_55696" data-name="Grupo 55696" transform="translate(12.063 28.569)">
              <g id="Grupo_55691" data-name="Grupo 55691" transform="translate(31.174 75.612)">
                <path id="Trazado_103712" data-name="Trazado 103712" d="M513.458,346.992c-8.731,5-43.346,24.327-61.381,21.382-1.769-.289-5.79-.975-7.289-3.806-3.454-6.513,8.907-18.689,10.948-20.642l.313-.267.711-32.339,34-13.38c-.255,10.763.8,25.824,1.963,31.049a34.222,34.222,0,0,0,2.835,8.666Z" transform="translate(-444.182 -297.94)" fill="#facad1"/>
                <path id="Trazado_103713" data-name="Trazado 103713" d="M490.043,328.99a54.193,54.193,0,0,1-11.519,8.369c-8.826,4.833-18,7.028-25.47,6.568l.313-.267.711-32.339,34-13.38C487.825,308.7,488.88,323.765,490.043,328.99Z" transform="translate(-441.5 -297.94)" fill="#ed83a9"/>
              </g>
              <path id="Trazado_103714" data-name="Trazado 103714" d="M423.386,300.3c0,.361.034.721.034,1.051.2,9.779.363,14.8,1.758,19.1.962,2.921,5.109,15.687,17.716,21.364,12.839,5.743,25.578.132,28.763-1.279,3.218-1.41,6.4-3.742,10.683-7.483,2.687-2.363,5.871-5.349,9.786-8.992,5.838-5.448,10.45-10.108,13.535-13.326a13.32,13.32,0,0,0,8.825-4.5,13.526,13.526,0,0,0,2.688-11.978c-1-3.414-4.147-9.025-9.688-9.157-3.849-.065-7.53,2.559-9.389,6.5a15.108,15.108,0,0,1-3.682-.591c-5.323-1.549-8.411-5.712-10.084-8.034-4.205-5.833-12.176-21.472-20.75-43.092a48.488,48.488,0,0,1-36.263,17.728,188.331,188.331,0,0,0-3.368,22.963C423.156,290.156,423.386,297.726,423.386,300.3Z" transform="translate(-419.305 -239.882)" fill="#facad1"/>
              <g id="Grupo_55692" data-name="Grupo 55692" transform="translate(38.532 44.178)">
                <path id="Trazado_103715" data-name="Trazado 103715" d="M449.854,276.8a2.259,2.259,0,1,0,1.875-2.981A2.532,2.532,0,0,0,449.854,276.8Z" transform="translate(-449.831 -273.803)"/>
              </g>
              <g id="Grupo_55693" data-name="Grupo 55693" transform="translate(13.198 44.434)">
                <path id="Trazado_103716" data-name="Trazado 103716" d="M430.4,276.993a2.259,2.259,0,1,0,1.875-2.981A2.533,2.533,0,0,0,430.4,276.993Z" transform="translate(-430.379 -274)"/>
              </g>
              <g id="Grupo_55694" data-name="Grupo 55694" transform="translate(19.481 51.518)">
                <path id="Trazado_103717" data-name="Trazado 103717" d="M442.519,299.926a1.4,1.4,0,0,0,.191-2.781l-2.986-.408a1.955,1.955,0,0,1-1.7-1.934l1.046-13.86a1.412,1.412,0,0,0-2.817-.207l-1.05,13.956a4.785,4.785,0,0,0,4.135,4.814l2.984.405A1.265,1.265,0,0,0,442.519,299.926Z" transform="translate(-435.204 -279.44)" fill="#e25a7b"/>
              </g>
              <path id="Trazado_103718" data-name="Trazado 103718" d="M465.707,267.392c-.089,1.27-4.263,2.017-9.321,1.67s-9.088-1.659-9-2.928,4.261-2.016,9.321-1.668S465.8,266.124,465.707,267.392Z" transform="translate(-412.039 -232.475)" fill="#6e4022"/>
              <path id="Trazado_103719" data-name="Trazado 103719" d="M438.544,267.058c.109,1.267-3.9,2.64-8.95,3.067s-9.238-.255-9.347-1.522,3.9-2.641,8.951-3.068S438.436,265.79,438.544,267.058Z" transform="translate(-420.245 -232.164)" fill="#6e4022"/>
              <g id="Grupo_55695" data-name="Grupo 55695" transform="translate(83.965 50.557)">
                <path id="Trazado_103720" data-name="Trazado 103720" d="M486.129,292.437a1.411,1.411,0,0,0,1.278-.8l5.2-10.941a1.39,1.39,0,0,0-.676-1.86,1.42,1.42,0,0,0-1.879.671l-5.2,10.94a1.392,1.392,0,0,0,.676,1.86A1.417,1.417,0,0,0,486.129,292.437Z" transform="translate(-484.717 -278.701)" fill="#e25a7b"/>
              </g>
            </g>
            <g id="Grupo_55705" data-name="Grupo 55705" transform="translate(15.295 65.407)">
              <g id="Grupo_55697" data-name="Grupo 55697" transform="translate(54.977 34.004)">
                <path id="Trazado_103721" data-name="Trazado 103721" d="M466.6,318.617a1.659,1.659,0,0,1-1.5-.935,1.634,1.634,0,0,1,.784-2.188,67.535,67.535,0,0,0,19.237-13.511,65.878,65.878,0,0,0,6.059-7.038,1.67,1.67,0,0,1,2.318-.348,1.629,1.629,0,0,1,.352,2.295,68.99,68.99,0,0,1-6.362,7.391,70.831,70.831,0,0,1-20.177,14.174A1.668,1.668,0,0,1,466.6,318.617Z" transform="translate(-464.941 -294.277)" fill="#fff"/>
              </g>
              <g id="Grupo_55703" data-name="Grupo 55703" transform="translate(77.703)">
                <path id="Trazado_103722" data-name="Trazado 103722" d="M484.4,284.748c-1.842-2.727.948-4.586.948-4.586,3.528-1.688,4.255-11.2,10.8-11.969,3.988-.469,8.751,5.5,11.849,10.227l1.677-.494a6.536,6.536,0,0,1,7.046,1.295c7.388-2.792,11.2,1.491,11.2,1.491l3.085.569a12.368,12.368,0,0,1,3.766,2.2c3.9,3.356,4.518,8.434,5.025,17.276.339,5.917.577,12.675.582,20.159l-.068.007c1.464,4.851,24.844,82.648,32.12,122.248.964,5.238,2.821,16.214-3.212,25.692-4.767,7.487-14.209,13.647-24,13.086-8.757-1.912-13.956-5.519-16.908-8.108-22.076-19.358-5.23-57.79-14.886-123.569-1.578-10.754-3.449-19.4-4.683-24.674a29.066,29.066,0,0,0-3.215-1.6,29.7,29.7,0,0,0-4.342-1.453c-8.489-1.606-13.033-12.2-13.61-18.349a7.238,7.238,0,0,1-.049-.882c.227-6.869-4.995-8.808-5.13-13.164A8.37,8.37,0,0,1,484.4,284.748Zm7.611,6.561c.447,2.925,5.47,4.679,5.47,4.679l.29-10.117a5.934,5.934,0,0,0,.147-1l-2.287-3.437L492.94,284.3a7.486,7.486,0,0,1-2.915,2.723A8.652,8.652,0,0,1,492.013,291.31Z" transform="translate(-482.391 -268.168)" fill="#facad1"/>
                <g id="Grupo_55702" data-name="Grupo 55702" transform="translate(14.929 9.524)">
                  <g id="Grupo_55698" data-name="Grupo 55698" transform="translate(11.808 46.166)">
                    <path id="Trazado_103723" data-name="Trazado 103723" d="M508.247,313.908c-1.489,0-2.976-.047-4.45-.141a.929.929,0,0,1-.874-.982.965.965,0,0,1,.992-.863,68.351,68.351,0,0,0,16.61-.977.925.925,0,1,1,.34,1.819,70.445,70.445,0,0,1-8.47,1.022Q510.328,313.908,508.247,313.908Z" transform="translate(-502.921 -310.929)" fill="#e25a7b"/>
                  </g>
                  <g id="Grupo_55699" data-name="Grupo 55699">
                    <path id="Trazado_103724" data-name="Trazado 103724" d="M499.056,299.305c-2.072,0-4.547-1.289-5.159-5.005-.837-16.385,10.832-18.781,10.949-18.8a.936.936,0,0,1,1.1.736.926.926,0,0,1-.741,1.081c-.422.083-10.188,2.174-9.446,16.791.358,2.148,1.692,3.466,3.513,3.343,2-.138,4.055-2.028,4.127-5.371a.935.935,0,0,1,1.87.039c-.1,4.451-3.024,6.981-5.866,7.177C499.286,299.3,499.17,299.305,499.056,299.305Z" transform="translate(-493.854 -275.481)" fill="#e25a7b"/>
                  </g>
                  <g id="Grupo_55700" data-name="Grupo 55700" transform="translate(9.587 0.65)">
                    <path id="Trazado_103725" data-name="Trazado 103725" d="M507.731,299.72a4.759,4.759,0,0,1-1.173-.145c-4.037-1.026-5.116-7.025-5.225-7.706-1.337-8.4,9.232-15.439,9.684-15.734a.938.938,0,0,1,1.3.259.92.92,0,0,1-.263,1.282c-.1.066-10.023,6.667-8.872,13.9.009.052.914,5.458,3.845,6.2a3.259,3.259,0,0,0,1.922-.145c1.737-.68,2.854-2.908,2.778-5.543a.93.93,0,0,1,.909-.951.892.892,0,0,1,.961.9c.1,3.463-1.456,6.335-3.959,7.315A5.323,5.323,0,0,1,507.731,299.72Z" transform="translate(-501.215 -275.979)" fill="#e25a7b"/>
                  </g>
                  <g id="Grupo_55701" data-name="Grupo 55701" transform="translate(20.038 2.152)">
                    <path id="Trazado_103726" data-name="Trazado 103726" d="M523.091,305.24a.933.933,0,0,1-.893-.654l-.051-.16a14.836,14.836,0,0,1-.371-8.989,25.9,25.9,0,0,1,2.265-5.129q-.8.512-1.563,1.076a37.987,37.987,0,0,0-3,2.489c-1.608,1.443-2.771,2.485-4.685,2.609-1.783.117-4.091-.6-5.063-2.181-2.506-4.079,5.151-12.345,9.938-16.91a.942.942,0,0,1,1.321.025.917.917,0,0,1-.025,1.308c-5.842,5.571-11.09,12.253-9.636,14.616a4.015,4.015,0,0,0,3.342,1.3c1.265-.082,2.125-.854,3.552-2.133a40.183,40.183,0,0,1,3.137-2.6,31.753,31.753,0,0,1,4.834-2.936.944.944,0,0,1,1.1.2.919.919,0,0,1,.113,1.1,34.249,34.249,0,0,0-3.841,7.692,13.136,13.136,0,0,0,.365,7.916l.052.164a.925.925,0,0,1-.62,1.156A.953.953,0,0,1,523.091,305.24Z" transform="translate(-509.24 -277.133)" fill="#e25a7b"/>
                  </g>
                </g>
              </g>
              <g id="Grupo_55704" data-name="Grupo 55704" transform="translate(62.491 16.855)">
                <path id="Trazado_103727" data-name="Trazado 103727" d="M497.04,291.444h-.017a1.649,1.649,0,0,1-1.641-1.658c.013-1.315-.181-3.691-1.628-4.832-.738-.582-1.983-1.035-8.249.32a94.872,94.872,0,0,0-12.559,3.649,1.664,1.664,0,0,1-2.132-.968,1.636,1.636,0,0,1,.978-2.11,98.225,98.225,0,0,1,13-3.778c6.309-1.364,8.988-1.287,11.024.319,1.917,1.511,2.912,4.08,2.877,7.431A1.65,1.65,0,0,1,497.04,291.444Z" transform="translate(-470.71 -281.11)" fill="#fff"/>
              </g>
              <path id="Trazado_103728" data-name="Trazado 103728" d="M422.727,289.319c.2,9.779.365,14.8,1.758,19.1.962,2.921,5.109,15.687,17.717,21.365,12.837,5.743,25.578.132,28.763-1.28,3.218-1.41,6.4-3.74,10.682-7.482a95.314,95.314,0,0,0,6.441-24.538,94.2,94.2,0,0,0,.7-11.926l-49.819-1.6Q430.85,286.136,422.727,289.319Z" transform="translate(-422.727 -263.696)" fill="#3fbfb6"/>
            </g>
            <g id="Grupo_55709" data-name="Grupo 55709" transform="translate(15.987 95.12)">
              <g id="Grupo_55706" data-name="Grupo 55706" transform="translate(5.798 20.992)">
                <path id="Trazado_103729" data-name="Trazado 103729" d="M435.941,312.157a65.258,65.258,0,0,1-6.724-.366,1.641,1.641,0,1,1,.3-3.268,63.667,63.667,0,0,0,8.428.339c.972-.01,2.132-.022,3.624-.025a193.2,193.2,0,0,0,25.274-1.722,1.641,1.641,0,1,1,.448,3.252,196.557,196.557,0,0,1-25.714,1.752c-1.483,0-2.635.014-3.6.023C437.209,312.15,436.552,312.157,435.941,312.157Z" transform="translate(-427.711 -307.101)" fill="#6fc8bf"/>
              </g>
              <g id="Grupo_55707" data-name="Grupo 55707" transform="translate(1.296 10.6)">
                <path id="Trazado_103730" data-name="Trazado 103730" d="M425.912,304.178a1.64,1.64,0,0,1-.128-3.277c3.955-.307,6.443-.423,9.592-.57,1.489-.069,3.109-.145,5.082-.25,8.709-.468,17.556-.789,26.295-.953a1.617,1.617,0,0,1,1.69,1.61,1.649,1.649,0,0,1-1.627,1.672c-8.7.164-17.509.482-26.179.948-1.982.107-3.609.182-5.105.251-3.12.146-5.585.262-9.49.564C426,304.176,425.956,304.178,425.912,304.178Z" transform="translate(-424.254 -299.122)" fill="#6fc8bf"/>
              </g>
              <g id="Grupo_55708" data-name="Grupo 55708">
                <path id="Trazado_103731" data-name="Trazado 103731" d="M424.917,297.383a1.64,1.64,0,0,1-.378-3.239c1.761-.409,2.391-.529,5.134-1.024,1.17-.21,7.334-1.285,13.864-1.788a146.006,146.006,0,0,1,26.762.651,1.645,1.645,0,0,1,1.46,1.817,1.667,1.667,0,0,1-1.835,1.446,142.613,142.613,0,0,0-26.13-.641c-6.369.49-12.385,1.539-13.526,1.744-2.714.49-3.274.6-4.97.99A1.675,1.675,0,0,1,424.917,297.383Z" transform="translate(-423.259 -290.983)" fill="#6fc8bf"/>
              </g>
            </g>
            <g id="Grupo_55715" data-name="Grupo 55715" transform="translate(12.337 64.98)">
              <g id="Grupo_55710" data-name="Grupo 55710" transform="translate(47.299 9.295)">
                <path id="Trazado_103732" data-name="Trazado 103732" d="M492.4,276.227h-35a.625.625,0,1,1,0-1.25h35a.625.625,0,1,1,0,1.25Z" transform="translate(-456.774 -274.977)" fill="#fff"/>
              </g>
              <g id="Grupo_55711" data-name="Grupo 55711" transform="translate(20.941 9.295)">
                <path id="Trazado_103733" data-name="Trazado 103733" d="M447.124,276.227h-9.959a.625.625,0,1,1,0-1.25h9.959a.625.625,0,1,1,0,1.25Z" transform="translate(-436.535 -274.977)" fill="#fff"/>
              </g>
              <g id="Grupo_55712" data-name="Grupo 55712" transform="translate(0 9.295)">
                <path id="Trazado_103734" data-name="Trazado 103734" d="M425.628,276.227h-4.54a.625.625,0,1,1,0-1.25h4.54a.625.625,0,1,1,0,1.25Z" transform="translate(-420.456 -274.977)" fill="#fff"/>
              </g>
              <g id="Grupo_55713" data-name="Grupo 55713" transform="translate(4.541)">
                <path id="Trazado_103735" data-name="Trazado 103735" d="M432.773,287.681c-4.869,0-8.83-4.45-8.83-9.921s3.961-9.92,8.83-9.92,8.831,4.45,8.831,9.92S437.641,287.681,432.773,287.681Zm0-18.591c-4.173,0-7.568,3.889-7.568,8.67s3.4,8.671,7.568,8.671,7.569-3.889,7.569-8.671S436.946,269.09,432.773,269.09Z" transform="translate(-423.943 -267.84)" fill="#fff"/>
              </g>
              <g id="Grupo_55714" data-name="Grupo 55714" transform="translate(30.898)">
                <path id="Trazado_103736" data-name="Trazado 103736" d="M453.012,287.681c-4.868,0-8.831-4.45-8.831-9.921s3.963-9.92,8.831-9.92,8.833,4.45,8.833,9.92S457.882,287.681,453.012,287.681Zm0-18.591c-4.173,0-7.568,3.889-7.568,8.67s3.4,8.671,7.568,8.671,7.569-3.889,7.569-8.671S457.186,269.09,453.012,269.09Z" transform="translate(-444.181 -267.84)" fill="#fff"/>
              </g>
            </g>
          </g>
        </g>
      </g>
    </g>
    <rect id="Rect치ngulo_5773" data-name="Rect치ngulo 5773" width="311.999" height="182" rx="25" transform="translate(4391 -9337)" fill="none" opacity="0.4"/>
  </g>
</svg>
