<svg xmlns="http://www.w3.org/2000/svg" width="500" height="494" viewBox="0 0 500 494">
  <g id="Grupo_55684" data-name="Grupo 55684" transform="translate(-908 -1730)">
    <path id="Trazado_103178" data-name="Trazado 103178" d="M0,0H500V494H0Z" transform="translate(908 1730)" fill="none"/>
    <g id="Grupo_55242" data-name="Grupo 55242" transform="translate(1236.438 1746)">
      <path id="Trazado_103113" data-name="Trazado 103113" d="M130.579,157.529c-6.29.529-11.853-4.562-12.426-11.372s4.06-12.759,10.349-13.289c.325-.028.648-.031.97-.029a71.261,71.261,0,0,1,1.638-10.311c-.3-.121-.6-.248-.89-.4-5.733-2.947-8.234-10.331-5.587-16.492s9.443-8.77,15.176-5.824c.3.154.585.328.867.5a65.538,65.538,0,0,1,6.2-7.963c-.208-.271-.413-.547-.6-.842-3.642-5.632-2.411-13.331,2.748-17.194s12.3-2.43,15.936,3.2c.187.289.352.586.513.885a57.966,57.966,0,0,1,9.1-3.48c-.055-.344-.106-.689-.137-1.041-.573-6.81-1.815-14.5,4.483-14.93,14.566-1,17.719,6.2,18.293,13.011.029.352.037.7.039,1.05a57.945,57.945,0,0,1,9.556,1.909c.108-.322.222-.642.358-.958,2.648-6.163,2.169-10.273,8.188-7.964,13.124,5.035,15.222,12.471,12.575,18.633-.139.322-.3.628-.456.931a65.3,65.3,0,0,1,7.446,6.813c.248-.222.5-.44.77-.642,5.161-3.863,12.3-2.43,15.936,3.2s2.41,13.331-2.749,17.194c-.265.2-.537.373-.81.543a71.49,71.49,0,0,1,3.34,9.893c.316-.056.634-.107.96-.134,6.29-.529,11.853,4.562,12.426,11.371s-4.06,12.76-10.349,13.29c-.325.028-.647.031-.97.029a71.22,71.22,0,0,1-1.638,10.31c.3.123.6.249.89.4,5.733,2.947,8.234,10.33,5.587,16.492s-9.443,8.77-15.176,5.823c-.3-.154-.585-.326-.867-.5a65.453,65.453,0,0,1-6.2,7.963c.208.272.413.548.6.842,3.641,5.632,2.41,13.331-2.751,17.2s-16.329,2.1-19.97-3.537c-.187-.288,3.682-.252,3.522-.551a58.044,58.044,0,0,1-9.1,3.48c.056.343.107.689.138,1.041.573,6.81-4.061,12.759-10.349,13.29S186.3,214.809,185.731,208c-.029-.352-.037-.7-.039-1.049a57.921,57.921,0,0,1-9.556-1.909c-.108.321-.222.642-.358.958-2.648,6.163-9.443,8.769-15.176,5.823s-8.234-10.33-5.587-16.492c.139-.322.3-.628.456-.931a65.493,65.493,0,0,1-7.446-6.813c-.248.221-.5.44-.77.642-5.161,3.863-12.3,2.43-15.936-3.2s-2.41-13.33,2.749-17.194c.265-.2.537-.373.81-.543a71.324,71.324,0,0,1-3.338-9.892C131.223,157.45,130.9,157.5,130.579,157.529Zm64.663,27.221c22.834-1.923,39.656-23.525,37.574-48.251S210.535,93.291,187.7,95.214s-39.657,23.526-37.575,48.252S172.407,186.675,195.242,184.751Z" transform="translate(-112.238 -58.861)" fill="#bec5d0"/>
      <path id="Trazado_103114" data-name="Trazado 103114" d="M207.056,121.707c-5.733-2.947-8.234-10.331-5.587-16.494s9.443-8.769,15.176-5.823c.3.154.585.328.867.5a65.539,65.539,0,0,1,6.2-7.963c-.208-.271-.413-.547-.6-.842-3.642-5.632-6.439-16.8-.91-20.118,10.494-6.29,15.953.495,19.594,6.127.187.288.353.586.513.884a57.933,57.933,0,0,1,9.1-3.479c-.056-.344-.107-.689-.138-1.041A12.792,12.792,0,0,1,254.4,63.85q2.1,15.973,3.938,31.976c-19.6,4.934-33.263,24.79-31.373,47.217,1.6,19,13.909,34.309,29.886,39.507-.037,2.078-.091,4.161-.072,6.24.052,5.645.419,11.3.791,16.953q-2.326-.47-4.6-1.124c-.108.321-.222.642-.358.958-2.648,6.163-8.564,9.909-19.113,4.959-5.835-2.739-4.3-9.465-1.649-15.628.138-.322.294-.628.454-.931a65.494,65.494,0,0,1-7.446-6.813c-.248.221-.5.44-.77.642-5.161,3.863-16.735,1.694-20.376-3.938s2.03-12.6,7.19-16.46c.265-.2.537-.373.81-.543a71.322,71.322,0,0,1-3.338-9.892c-.317.056-.636.106-.961.134-6.29.529-11.853-4.562-12.426-11.372s4.06-12.759,10.349-13.29c.325-.027.649-.03.97-.028a71.225,71.225,0,0,1,1.638-10.31C207.647,121.985,207.35,121.858,207.056,121.707Z" transform="translate(-189.075 -58.439)" fill="#bec5d0"/>
      <path id="Trazado_103115" data-name="Trazado 103115" d="M135.987,155.885c-6.289.529-11.853-4.562-12.425-11.372s4.06-12.759,10.348-13.289c.326-.028.649-.031.97-.029a71.41,71.41,0,0,1,1.638-10.311c-.3-.121-.6-.248-.889-.4-5.733-2.947-8.235-10.331-5.587-16.492s9.441-8.77,15.176-5.824c.3.155.585.328.867.505a65.465,65.465,0,0,1,6.2-7.964c-.208-.271-.413-.547-.6-.842-3.641-5.632-2.41-13.331,2.749-17.194s12.3-2.43,15.936,3.2c.187.289.351.586.513.885a57.923,57.923,0,0,1,9.1-3.48c-.055-.344-.107-.689-.137-1.041-.574-6.81,4.06-12.76,10.349-13.29s11.853,4.562,12.426,11.371c.029.354.037.7.039,1.05a57.967,57.967,0,0,1,9.556,1.909c.108-.322.221-.642.358-.958,2.648-6.163,9.441-8.77,15.175-5.823s8.235,10.33,5.587,16.492c-.138.322-.294.628-.454.931a65.488,65.488,0,0,1,7.446,6.813c.248-.221.5-.44.77-.642,5.159-3.863,12.3-2.43,15.936,3.2s2.41,13.331-2.749,17.2c-.265.2-.537.372-.811.543a71.332,71.332,0,0,1,3.34,9.892c.317-.056.636-.106.961-.134,6.29-.529,11.853,4.562,12.426,11.371s-4.06,12.76-10.349,13.29c-.325.028-.649.031-.97.029a71.368,71.368,0,0,1-1.638,10.31c.3.123.6.249.89.4,5.733,2.947,8.234,10.33,5.587,16.492s-9.443,8.77-15.176,5.823c-.3-.154-.586-.326-.867-.5a65.354,65.354,0,0,1-6.2,7.963c.209.271.414.548.6.842,3.641,5.633,2.41,13.331-2.749,17.2s-12.294,2.429-15.935-3.2c-.188-.29-.352-.586-.513-.885a58.087,58.087,0,0,1-9.1,3.48c.056.343.107.689.137,1.041.574,6.81-4.06,12.759-10.348,13.29s-11.853-4.562-12.426-11.371c-.03-.354-.037-.7-.039-1.05a57.923,57.923,0,0,1-9.556-1.909c-.11.322-.222.642-.358.958-2.649,6.163-9.443,8.77-15.176,5.823s-8.234-10.33-5.587-16.492c.139-.322.3-.628.454-.931a65.579,65.579,0,0,1-7.445-6.813c-.248.221-.5.44-.771.642-5.159,3.863-12.294,2.43-15.935-3.2s-2.411-13.331,2.749-17.2c.264-.2.536-.372.81-.543a71.328,71.328,0,0,1-3.339-9.892C136.631,155.807,136.313,155.857,135.987,155.885Zm64.663,27.221c22.834-1.923,39.657-23.525,37.575-48.251s-22.281-43.209-45.116-41.286-39.657,23.526-37.575,48.252S177.816,185.031,200.65,183.106Z" transform="translate(-123.514 -58.857)" fill="#d7dde7"/>
    </g>
    <g id="Grupo_55243" data-name="Grupo 55243" transform="translate(927 1970.381)">
      <path id="Trazado_103116" data-name="Trazado 103116" d="M387.857,385.97c-7.663.645-14.443-5.559-15.141-13.857s4.947-15.548,12.611-16.193c.4-.034.79-.038,1.181-.036a86.945,86.945,0,0,1,2-12.564c-.363-.149-.727-.3-1.085-.487-6.986-3.59-10.034-12.588-6.807-20.1s11.505-10.687,18.491-7.1c.366.188.714.4,1.056.615a79.774,79.774,0,0,1,7.556-9.7c-.254-.331-.5-.667-.736-1.025-4.436-6.863-2.936-16.245,3.35-20.952s14.982-2.961,19.419,3.9c.228.352.428.714.625,1.078a70.717,70.717,0,0,1,11.092-4.241c-.068-.419-.131-.839-.167-1.269-.7-8.3-2.212-17.667,5.462-18.192,17.75-1.216,21.591,7.556,22.291,15.855.036.429.044.855.048,1.279a70.768,70.768,0,0,1,11.644,2.325c.132-.392.271-.782.436-1.167,3.227-7.509,2.644-12.517,9.977-9.7,15.992,6.136,18.549,15.2,15.322,22.705-.168.393-.359.766-.554,1.134a79.633,79.633,0,0,1,9.073,8.3c.3-.27.611-.537.939-.783,6.287-4.707,14.982-2.96,19.418,3.9s2.937,16.244-3.349,20.952c-.322.242-.655.454-.988.662a87.026,87.026,0,0,1,4.068,12.054c.386-.068.774-.13,1.171-.164,7.664-.645,14.443,5.559,15.141,13.857s-4.947,15.548-12.611,16.193c-.4.034-.79.038-1.181.036a86.944,86.944,0,0,1-2,12.564c.363.149.727.3,1.085.487,6.986,3.59,10.034,12.588,6.808,20.1s-11.507,10.687-18.492,7.1c-.364-.188-.713-.4-1.056-.615a79.712,79.712,0,0,1-7.556,9.7c.255.331.5.667.736,1.025,4.437,6.863,2.937,16.244-3.35,20.952s-19.9,2.554-24.335-4.309c-.227-.351,4.488-.307,4.292-.671a70.593,70.593,0,0,1-11.091,4.241c.067.419.13.839.166,1.269.7,8.3-4.947,15.548-12.611,16.194s-14.443-5.559-15.141-13.857c-.037-.43-.046-.855-.048-1.279a70.776,70.776,0,0,1-11.645-2.325c-.132.392-.27.782-.436,1.167-3.227,7.509-11.505,10.685-18.491,7.1s-10.035-12.588-6.808-20.1c.169-.393.359-.766.554-1.134a79.727,79.727,0,0,1-9.073-8.3c-.3.27-.611.537-.939.782-6.286,4.708-14.981,2.961-19.418-3.9s-2.937-16.244,3.35-20.953c.322-.24.654-.453.988-.661a86.874,86.874,0,0,1-4.069-12.054C388.642,385.875,388.255,385.937,387.857,385.97Zm78.794,33.171c27.826-2.344,48.324-28.667,45.787-58.8s-27.151-52.652-54.975-50.309-48.325,28.667-45.787,58.8S438.826,421.484,466.651,419.142Z" transform="translate(-365.508 -265.739)" fill="#bec5d0"/>
      <path id="Trazado_103117" data-name="Trazado 103117" d="M481.047,342.319c-6.986-3.59-10.034-12.588-6.807-20.1s11.505-10.687,18.491-7.1c.365.188.714.4,1.056.615a79.774,79.774,0,0,1,7.556-9.7c-.254-.33-.5-.667-.736-1.026-4.436-6.863-7.845-20.477-1.108-24.515,12.786-7.664,19.44.6,23.877,7.466.228.353.428.714.625,1.078a70.72,70.72,0,0,1,11.092-4.242c-.068-.418-.131-.838-.167-1.268a15.574,15.574,0,0,1,3.809-11.712q2.562,19.463,4.8,38.964c-23.88,6.011-40.532,30.206-38.23,57.535,1.95,23.158,16.949,41.808,36.418,48.141-.046,2.531-.111,5.068-.087,7.6.064,6.879.51,13.772.963,20.658q-2.834-.573-5.6-1.37c-.132.393-.27.783-.436,1.168-3.227,7.509-10.435,12.074-23.29,6.041-7.111-3.336-5.236-11.534-2.01-19.042.169-.393.359-.766.554-1.134a79.815,79.815,0,0,1-9.073-8.3c-.3.27-.611.537-.939.782-6.286,4.708-20.392,2.065-24.829-4.8s2.474-15.348,8.761-20.056c.322-.242.654-.454.988-.663a86.8,86.8,0,0,1-4.069-12.053c-.386.068-.773.13-1.17.164-7.664.645-14.444-5.559-15.142-13.857s4.947-15.549,12.611-16.193c.4-.034.791-.038,1.181-.036a87.1,87.1,0,0,1,2-12.564C481.769,342.658,481.405,342.5,481.047,342.319Z" transform="translate(-459.137 -265.225)" fill="#bec5d0"/>
      <path id="Trazado_103118" data-name="Trazado 103118" d="M394.448,383.966c-7.664.646-14.443-5.557-15.141-13.856s4.947-15.549,12.611-16.194c.4-.034.79-.037,1.181-.035a86.912,86.912,0,0,1,2-12.564c-.363-.15-.727-.3-1.085-.488-6.986-3.59-10.035-12.587-6.808-20.1s11.505-10.685,18.492-7.1c.364.188.713.4,1.056.614a79.779,79.779,0,0,1,7.556-9.7c-.255-.331-.5-.667-.736-1.026-4.437-6.863-2.937-16.244,3.35-20.952s14.982-2.96,19.419,3.9c.227.351.428.714.625,1.077a70.7,70.7,0,0,1,11.091-4.241c-.068-.418-.13-.838-.166-1.268-.7-8.3,4.947-15.549,12.611-16.194s14.443,5.559,15.141,13.856c.036.431.046.856.048,1.279a70.667,70.667,0,0,1,11.645,2.326c.132-.392.27-.782.436-1.167,3.226-7.509,11.505-10.685,18.491-7.1s10.035,12.588,6.808,20.1c-.169.393-.359.766-.554,1.133a79.934,79.934,0,0,1,9.073,8.3c.3-.271.61-.537.938-.783,6.287-4.708,14.982-2.961,19.419,3.9s2.937,16.244-3.35,20.952c-.322.241-.654.454-.988.662a86.918,86.918,0,0,1,4.069,12.053c.385-.067.773-.129,1.17-.163,7.664-.645,14.443,5.559,15.142,13.856s-4.947,15.549-12.611,16.194c-.4.034-.791.038-1.182.035a87.048,87.048,0,0,1-1.995,12.564c.363.15.727.3,1.085.488,6.986,3.59,10.034,12.587,6.807,20.1s-11.505,10.686-18.491,7.1c-.365-.188-.714-.4-1.056-.614a79.788,79.788,0,0,1-7.556,9.7c.254.33.5.666.736,1.025,4.436,6.863,2.936,16.244-3.351,20.952s-14.981,2.961-19.418-3.9c-.228-.351-.428-.714-.625-1.077a70.707,70.707,0,0,1-11.092,4.241c.068.418.13.838.167,1.269.7,8.3-4.947,15.548-12.611,16.193s-14.443-5.557-15.142-13.856c-.036-.431-.044-.856-.048-1.279a70.63,70.63,0,0,1-11.644-2.326c-.133.393-.271.782-.436,1.167-3.227,7.509-11.505,10.687-18.493,7.1s-10.034-12.588-6.807-20.1c.168-.393.358-.766.554-1.134a79.747,79.747,0,0,1-9.074-8.3c-.3.27-.61.536-.938.782-6.287,4.708-14.982,2.961-19.419-3.9s-2.937-16.245,3.35-20.953c.322-.241.654-.453.988-.662a86.945,86.945,0,0,1-4.068-12.053C395.233,383.872,394.845,383.932,394.448,383.966Zm78.794,33.172c27.824-2.343,48.323-28.667,45.786-58.8s-27.151-52.653-54.976-50.309-48.323,28.667-45.785,58.8S445.418,419.481,473.242,417.138Z" transform="translate(-379.248 -265.734)" fill="#d7dde7"/>
    </g>
    <g id="Grupo_55244" data-name="Grupo 55244" transform="translate(934.011 1942.538)">
      <path id="Trazado_103119" data-name="Trazado 103119" d="M125.145,452.019l447.389-3.9v11.529c0,3.129-1.951,5.79-4.594,6.265l-126.508,22.7a17.4,17.4,0,0,1-4.539.214L130.006,462.946c-2.74-.231-4.861-2.9-4.861-6.115Z" transform="translate(-125.145 -222.467)" fill="#2d1e54"/>
      <path id="Trazado_103120" data-name="Trazado 103120" d="M128.716,450.932l298.445,21.09a8.888,8.888,0,0,0,9.682-8.958V249.711a9.667,9.667,0,0,0-9.682-9.642H128.716c-4.4,0-7.958,3.9-7.958,8.717V441.653C120.758,446.467,124.316,450.621,128.716,450.932Z" transform="translate(15.304 -240.069)" fill="#2d1e54"/>
      <path id="Trazado_103121" data-name="Trazado 103121" d="M133.1,450.932l298.446,21.09a8.888,8.888,0,0,0,9.682-8.958V249.711a9.667,9.667,0,0,0-9.682-9.642H133.1c-4.4,0-7.957,3.9-7.957,8.717V441.653C125.145,446.467,128.7,450.621,133.1,450.932Z" transform="translate(6.159 -240.069)" fill="#2d1e54"/>
      <path id="Trazado_103122" data-name="Trazado 103122" d="M143.68,436.368l277.971,18.32a7.284,7.284,0,0,0,7.877-7.353V260.545a7.916,7.916,0,0,0-7.877-7.9L143.68,251.49c-3.629-.015-6.565,3.183-6.565,7.143V428.766C137.115,432.725,140.051,436.128,143.68,436.368Z" transform="translate(4.878 -239.103)" fill="#a08fca"/>
      <path id="Trazado_103123" data-name="Trazado 103123" d="M275.036,245.73a3.44,3.44,0,1,0,3.433-3.588A3.526,3.526,0,0,0,275.036,245.73Z" transform="translate(2.908 -239.894)" fill="#fff"/>
      <path id="Trazado_103124" data-name="Trazado 103124" d="M271.853,433.607l300.681,22.2-131.1,23.527a17.405,17.405,0,0,1-4.539.213L125.145,453.252,267.07,433.758A22.767,22.767,0,0,1,271.853,433.607Z" transform="translate(-125.145 -223.701)" fill="#2d1e54"/>
      <path id="Trazado_103125" data-name="Trazado 103125" d="M493.4,456.048,243.07,437.29,165.6,447.846,413.766,467.9Z" transform="translate(-89.881 -223.384)" fill="#1a1130"/>
      <path id="Trazado_103126" data-name="Trazado 103126" d="M202.419,392.416c23.008-12.38,41.1,3.306,58.557-12.17,10.585-9.383,5.388-16.38,18.412-30.4,14.425-15.529,23.817-10.309,38.315-24.286,18.331-17.674,9.163-31.423,24.952-44.112,19.155-15.394,39.813-1.146,58.047-15.909,7.864-6.367,12.179-15.624,14.433-25.469h17.842a5.664,5.664,0,0,1,5.665,5.661V466.887a5.207,5.207,0,0,1-5.665,5.258L128.811,450.554a4.9,4.9,0,0,1-3.666-2.241c22.266-.811,35.945-8.276,44.689-15.991C186.939,417.227,183.973,402.341,202.419,392.416Z" transform="translate(8.748 -240.069)" fill="#fff" opacity="0.48" style="mix-blend-mode: soft-light;isolation: isolate"/>
    </g>
    <g id="Grupo_55249" data-name="Grupo 55249" transform="translate(1035.471 1778.332)">
      <path id="Trazado_103127" data-name="Trazado 103127" d="M465.49,103.2V229.151a7.8,7.8,0,0,1-7.9,7.617L198.41,238.252a7.2,7.2,0,0,1-7.253-7.2V110.543Z" transform="translate(-191.157 -87.442)" fill="#eaeef1"/>
      <path id="Trazado_103128" data-name="Trazado 103128" d="M198.41,96.261l259.177-7.586a7.477,7.477,0,0,1,7.9,7.339V108.92l-274.333,7.145V103.718A7.509,7.509,0,0,1,198.41,96.261Z" transform="translate(-191.157 -88.672)" fill="#27debf"/>
      <g id="Grupo_55248" data-name="Grupo 55248" transform="translate(18.831 35.34)">
        <g id="Grupo_55247" data-name="Grupo 55247" transform="translate(138.933)">
          <g id="Grupo_55245" data-name="Grupo 55245" transform="translate(0)">
            <path id="Trazado_103129" data-name="Trazado 103129" d="M302.7,169.735l-14.453-48.48c-21.8,7.321-37.508,27.394-37.625,50.7Z" transform="translate(-250.617 -121.255)" fill="#27debf"/>
          </g>
          <g id="Grupo_55246" data-name="Grupo 55246" transform="translate(13.418 10.04)">
            <path id="Trazado_103130" data-name="Trazado 103130" d="M251.905,170.758a38.771,38.771,0,0,0,14.6,27.507l22.661-29.124Z" transform="translate(-251.905 -127.244)" fill="#fff"/>
            <path id="Trazado_103131" data-name="Trazado 103131" d="M232.592,167.229c8.773-8.26,19.374-18.263,27.815-26.264a41.429,41.429,0,0,0-28.681-10.443,43.119,43.119,0,0,0-9.738,1.332Z" transform="translate(-190.695 -130.512)" fill="#fff"/>
            <path id="Trazado_103132" data-name="Trazado 103132" d="M210,169.252,241.9,191.369a39.408,39.408,0,0,0,7.09-22.508,38.493,38.493,0,0,0-10.512-26.471q-3.509,3.324-7.789,7.364C222.068,157.9,213.421,166.036,210,169.252Z" transform="translate(-166.277 -129.507)" fill="#fff"/>
            <path id="Trazado_103133" data-name="Trazado 103133" d="M218.5,170.492l.615,36.575A42.586,42.586,0,0,0,249.19,191.8Z" transform="translate(-175.694 -127.13)" fill="#fff"/>
            <path id="Trazado_103134" data-name="Trazado 103134" d="M271.385,171.968l-21.883,28.1a41.592,41.592,0,0,0,22.472,6.954Z" transform="translate(-232.104 -127.005)" fill="#fff"/>
          </g>
        </g>
        <path id="Trazado_103135" data-name="Trazado 103135" d="M305.4,146.865l131.6-2.673V131.871L305.4,134.8Z" transform="translate(-305.397 -120.357)" fill="#bec7d4"/>
        <path id="Trazado_103136" data-name="Trazado 103136" d="M305.4,166.95l131.6-2.2V152.427l-131.6,2.462Z" transform="translate(-305.397 -118.618)" fill="#bec7d4"/>
        <path id="Trazado_103137" data-name="Trazado 103137" d="M305.4,187.036l131.6-1.73V172.984l-131.6,1.991Z" transform="translate(-305.397 -116.879)" fill="#bec7d4"/>
        <path id="Trazado_103138" data-name="Trazado 103138" d="M305.4,207.121l131.6-1.259V193.541l-131.6,1.52Z" transform="translate(-305.397 -115.14)" fill="#bec7d4"/>
      </g>
      <path id="Trazado_103139" data-name="Trazado 103139" d="M201.415,98.5a3.321,3.321,0,0,0,3.5,3.261,3.551,3.551,0,0,0,3.5-3.456,3.321,3.321,0,0,0-3.5-3.261A3.551,3.551,0,0,0,201.415,98.5Z" transform="translate(54.788 -88.132)" fill="#fff"/>
    </g>
    <g id="Grupo_55252" data-name="Grupo 55252" transform="translate(1035.471 1948.843)">
      <g id="Grupo_55250" data-name="Grupo 55250">
        <path id="Trazado_103140" data-name="Trazado 103140" d="M465.49,260.609V386.557a7.55,7.55,0,0,1-7.9,7.4L198.41,388.478a7.435,7.435,0,0,1-7.253-7.4V260.573Z" transform="translate(-191.157 -244.639)" fill="#eaeef1"/>
        <path id="Trazado_103141" data-name="Trazado 103141" d="M198.41,246.5l259.177-.619a7.723,7.723,0,0,1,7.9,7.552V266.34l-274.333-.23V253.762A7.267,7.267,0,0,1,198.41,246.5Z" transform="translate(-191.157 -245.882)" fill="#27debf"/>
        <path id="Trazado_103142" data-name="Trazado 103142" d="M201.415,255.451a3.505,3.505,0,1,0,3.5-3.361A3.429,3.429,0,0,0,201.415,255.451Z" transform="translate(54.788 -245.357)" fill="#fff"/>
      </g>
      <g id="Grupo_55251" data-name="Grupo 55251" transform="translate(31.972 37.522)">
        <path id="Trazado_103143" data-name="Trazado 103143" d="M223.014,374.83l19.946.37V281.185l-19.946-.073Z" transform="translate(-35.15 -280.424)" fill="#fff"/>
        <path id="Trazado_103144" data-name="Trazado 103144" d="M223.014,370.991l19.946.37V326.725l-19.946-.229Z" transform="translate(-35.15 -276.584)" fill="#27debf"/>
        <path id="Trazado_103145" data-name="Trazado 103145" d="M248.568,374.327l19.772.367v-93.6l-19.772-.072Z" transform="translate(-88.246 -280.431)" fill="#fff"/>
        <path id="Trazado_103146" data-name="Trazado 103146" d="M248.568,368.777l19.772.367v-22.22l-19.772-.3Z" transform="translate(-88.246 -274.881)" fill="#27debf"/>
        <path id="Trazado_103147" data-name="Trazado 103147" d="M273.9,373.829l19.6.364V281l-19.6-.072Z" transform="translate(-140.88 -280.439)" fill="#fff"/>
        <path id="Trazado_103148" data-name="Trazado 103148" d="M273.9,367.485l19.6.364V356.234l-19.6-.327Z" transform="translate(-140.88 -274.096)" fill="#27debf"/>
        <path id="Trazado_103149" data-name="Trazado 103149" d="M299.01,373.334l19.429.36V280.907l-19.429-.071Z" transform="translate(-193.056 -280.447)" fill="#fff"/>
        <path id="Trazado_103150" data-name="Trazado 103150" d="M299.01,371.772l19.429.36V299.443l-19.429-.134Z" transform="translate(-193.056 -278.884)" fill="#27debf"/>
        <path id="Trazado_103151" data-name="Trazado 103151" d="M323.9,372.844l19.262.357V280.815l-19.262-.07Z" transform="translate(-244.781 -280.455)" fill="#fff"/>
        <path id="Trazado_103152" data-name="Trazado 103152" d="M323.9,370.649l19.262.357V306.856L323.9,306.7Z" transform="translate(-244.781 -278.259)" fill="#27debf"/>
        <path id="Trazado_103153" data-name="Trazado 103153" d="M348.582,372.358l19.1.354V280.725l-19.1-.07Z" transform="translate(-296.06 -280.462)" fill="#fff"/>
        <path id="Trazado_103154" data-name="Trazado 103154" d="M348.582,371.318l19.1.354V293.06l-19.1-.111Z" transform="translate(-296.06 -279.422)" fill="#27debf"/>
        <path id="Trazado_103155" data-name="Trazado 103155" d="M373.049,371.877l18.933.351V280.635l-18.933-.069Z" transform="translate(-346.9 -280.47)" fill="#fff"/>
        <path id="Trazado_103156" data-name="Trazado 103156" d="M373.049,369.129l18.933.351V313.22l-18.933-.178Z" transform="translate(-346.9 -277.722)" fill="#27debf"/>
        <path id="Trazado_103157" data-name="Trazado 103157" d="M397.306,371.4l18.772.348v-91.2l-18.772-.069Z" transform="translate(-397.306 -280.477)" fill="#fff"/>
        <path id="Trazado_103158" data-name="Trazado 103158" d="M397.306,366.769l18.772.348V335.454l-18.772-.251Z" transform="translate(-397.306 -275.847)" fill="#27debf"/>
      </g>
    </g>
    <g id="Grupo_55255" data-name="Grupo 55255" transform="translate(1117.429 2100.404)">
      <path id="Trazado_103173" data-name="Trazado 103173" d="M387.281,396.931V450.2c0,1.768-1.682,3.086-3.752,2.944L149.36,437.01a2.8,2.8,0,0,1-2.521-2.792V390.67Z" transform="translate(-146.839 -385.194)" fill="#eaeef1"/>
      <path id="Trazado_103174" data-name="Trazado 103174" d="M149.36,385.622l234.17,4.9a3.6,3.6,0,0,1,3.752,3.281v5.458l-240.442-6.607v-4.462A2.506,2.506,0,0,1,149.36,385.622Z" transform="translate(-146.839 -385.622)" fill="#27debf"/>
      <path id="Trazado_103175" data-name="Trazado 103175" d="M160.067,428.9l216.312,13.322V406.082l-216.312-7.326Z" transform="translate(-150.283 -384.51)" fill="#fff"/>
      <path id="Trazado_103176" data-name="Trazado 103176" d="M160.067,428.3l216.311,13.322V418.39c-8.086,15.348-16.61,18.335-22.974,18.129-8.874-.286-13.61-6.792-26.767-7.666-12.848-.854-17.135,4.844-26.57,4.093-17.625-1.4-22.346-23.168-36.26-23.879-10.873-.555-18.14,12.357-27.5,11.36-6.768-.72-8.394-8.089-13.471-8.24-4.571-.136-4.763,5.831-10.732,6.088-8.663.373-16.989-11.877-28.63-12.428-6.366-.3-14.215,2.881-23.4,14.33Z" transform="translate(-150.283 -383.912)" fill="#27debf"/>
      <path id="Trazado_103177" data-name="Trazado 103177" d="M151.783,393.951a1.6,1.6,0,0,0,1.653,1.456,1.505,1.505,0,0,0,1.657-1.375,1.6,1.6,0,0,0-1.657-1.457A1.506,1.506,0,0,0,151.783,393.951Z" transform="translate(79.987 -385.033)" fill="#fff"/>
    </g>
  </g>
</svg>
