<svg xmlns="http://www.w3.org/2000/svg" xmlns:xlink="http://www.w3.org/1999/xlink" width="604" height="402" viewBox="0 0 604 402">
  <defs>
    <linearGradient id="linear-gradient" y1="0.5" x2="1" y2="0.5" gradientUnits="objectBoundingBox">
      <stop offset="0" stop-color="#454d89"/>
      <stop offset="0.996" stop-color="#26274e"/>
    </linearGradient>
    <linearGradient id="linear-gradient-2" x1="-103.436" y1="-30.894" x2="-103.417" y2="-28.462" gradientUnits="objectBoundingBox">
      <stop offset="0.004" stop-color="#f0705b"/>
      <stop offset="0.295" stop-color="#f69a55"/>
      <stop offset="0.541" stop-color="#fbb752"/>
      <stop offset="0.682" stop-color="#fdc251"/>
      <stop offset="0.805" stop-color="#fcbf51"/>
      <stop offset="0.868" stop-color="#fbb752"/>
      <stop offset="0.918" stop-color="#f9aa53"/>
      <stop offset="0.96" stop-color="#f69755"/>
      <stop offset="0.998" stop-color="#f27f58"/>
      <stop offset="1" stop-color="#f27e59"/>
    </linearGradient>
    <linearGradient id="linear-gradient-3" x1="-103.154" y1="-27.248" x2="-103.135" y2="-24.817" xlink:href="#linear-gradient-2"/>
    <linearGradient id="linear-gradient-4" x1="-103.397" y1="-23.613" x2="-103.378" y2="-21.181" xlink:href="#linear-gradient-2"/>
    <linearGradient id="linear-gradient-5" x1="-103.544" y1="-19.967" x2="-103.525" y2="-17.536" xlink:href="#linear-gradient-2"/>
    <linearGradient id="linear-gradient-6" x1="-103.436" y1="-16.036" x2="-103.417" y2="-13.604" xlink:href="#linear-gradient-2"/>
    <linearGradient id="linear-gradient-7" x1="-103.154" y1="-12.388" x2="-103.135" y2="-9.956" xlink:href="#linear-gradient-2"/>
    <linearGradient id="linear-gradient-8" x1="-103.397" y1="-8.754" x2="-103.378" y2="-6.322" xlink:href="#linear-gradient-2"/>
    <linearGradient id="linear-gradient-9" x1="-103.271" y1="-5.108" x2="-103.252" y2="-2.676" xlink:href="#linear-gradient-2"/>
    <linearGradient id="linear-gradient-10" x1="-147.452" y1="48.092" x2="-147.419" y2="48.285" xlink:href="#linear-gradient-2"/>
  </defs>
  <g id="Grupo_55318" data-name="Grupo 55318" transform="translate(-180 -2896)">
    <rect id="Rectángulo_5555" data-name="Rectángulo 5555" width="604" height="402" transform="translate(180 2896)" fill="none"/>
    <g id="Grupo_55317" data-name="Grupo 55317" transform="translate(203.646 2842.15)">
      <path id="Trazado_103179" data-name="Trazado 103179" d="M487.823,163.94C497.2,78.568,414.428,48.908,355.752,70.766,296.6,92.8,282.887,56.274,199.71,66.71c-84.221,10.568-41.46,142.774-41.46,142.774s13.4,114.961,29.277,167.952c15.791,52.7,166.939,33.636,203.709,32.063,36.557-1.563,68.324,1.455,100.13-56.414C523.116,295.322,478.481,249.029,487.823,163.94Z" transform="translate(-19.211 0)" fill="#f3f6f9"/>
      <g id="Grupo_55257" data-name="Grupo 55257" transform="translate(376.152 338.876)">
        <path id="Trazado_103180" data-name="Trazado 103180" d="M496.64,417.379a6.329,6.329,0,0,0-3.217-6.722l-48.808-26.89a6.406,6.406,0,0,0-9.453,6.362l6.534,55.342a6.407,6.407,0,0,0,11.853,2.551l6.9-11.476,15.888,23.607a5.52,5.52,0,0,0,3.546,2.352,5.631,5.631,0,0,0,1.078.1,5.522,5.522,0,0,0,3.091-.948L492.47,456a5.558,5.558,0,0,0,1.509-7.715l-15.887-23.608,13.23-2.074A6.327,6.327,0,0,0,496.64,417.379Z" transform="translate(-435.116 -382.967)" fill="#fff"/>
        <path id="Trazado_103181" data-name="Trazado 103181" d="M492.581,413.36l-48.807-26.891a3.8,3.8,0,0,0-5.6,3.771l6.534,55.341a3.8,3.8,0,0,0,7.026,1.513l9.016-14.986,18.175,27.006a2.949,2.949,0,0,0,4.095.8l8.418-5.665a2.952,2.952,0,0,0,.8-4.1l-18.175-27.006,17.279-2.71A3.8,3.8,0,0,0,492.581,413.36Z" transform="translate(-435.534 -383.385)" fill="#bae8e8"/>
        <g id="Grupo_55256" data-name="Grupo 55256" transform="translate(9.509 7.696)">
          <path id="Trazado_103182" data-name="Trazado 103182" d="M474.646,407.111l-18.383-10.168a.788.788,0,1,0-.763,1.378l18.384,10.168a.787.787,0,0,0,.762-1.378Z" transform="translate(-447.385 -392.58)" fill="#fff"/>
          <path id="Trazado_103183" data-name="Trazado 103183" d="M451.958,394.562,447.318,392a.788.788,0,1,0-.763,1.378l4.641,2.567a.787.787,0,1,0,.762-1.378Z" transform="translate(-446.149 -391.897)" fill="#fff"/>
        </g>
      </g>
      <g id="Grupo_55262" data-name="Grupo 55262" transform="translate(317.253 137.417)">
        <path id="Trazado_103184" data-name="Trazado 103184" d="M366.774,160.708v79.178a4.9,4.9,0,0,0,4.969,4.788l162.932.932a4.524,4.524,0,0,0,4.559-4.527V165.321Z" transform="translate(-366.774 -150.8)" fill="#eaeef1"/>
        <path id="Trazado_103185" data-name="Trazado 103185" d="M534.675,153.982l-162.932-4.769a4.7,4.7,0,0,0-4.969,4.614v8.113l172.46,4.491V158.67A4.721,4.721,0,0,0,534.675,153.982Z" transform="translate(-366.774 -149.211)" fill="#02dba8"/>
        <g id="Grupo_55261" data-name="Grupo 55261" transform="translate(12.85 22.216)">
          <g id="Grupo_55260" data-name="Grupo 55260">
            <g id="Grupo_55258" data-name="Grupo 55258" transform="translate(27.692)">
              <path id="Trazado_103186" data-name="Trazado 103186" d="M413.816,205.466l9.086-30.477c13.7,4.6,23.58,17.221,23.653,31.874Z" transform="translate(-413.816 -174.989)" fill="#02dba8"/>
            </g>
            <g id="Grupo_55259" data-name="Grupo 55259" transform="translate(0 6.312)">
              <path id="Trazado_103187" data-name="Trazado 103187" d="M438.261,213.891a24.377,24.377,0,0,1-9.181,17.292l-14.245-18.308Z" transform="translate(-386.264 -186.536)" fill="#fff"/>
              <path id="Trazado_103188" data-name="Trazado 103188" d="M408.652,205.4c-5.516-5.193-12.179-11.481-17.486-16.51a26.038,26.038,0,0,1,18.03-6.565,27.045,27.045,0,0,1,6.122.838Z" transform="translate(-382.994 -182.313)" fill="#fff"/>
              <path id="Trazado_103189" data-name="Trazado 103189" d="M406.192,208.6l-20.051,13.9a24.771,24.771,0,0,1-4.457-14.15,24.2,24.2,0,0,1,6.609-16.641q2.207,2.089,4.9,4.63C398.607,201.458,404.043,206.576,406.192,208.6Z" transform="translate(-381.684 -183.612)" fill="#fff"/>
              <path id="Trazado_103190" data-name="Trazado 103190" d="M407.7,213.943l-.386,22.994a26.772,26.772,0,0,1-18.908-9.6Z" transform="translate(-382.613 -186.683)" fill="#fff"/>
              <path id="Trazado_103191" data-name="Trazado 103191" d="M413.3,215.111l13.757,17.668a26.146,26.146,0,0,1-14.126,4.372Z" transform="translate(-386.002 -186.845)" fill="#fff"/>
            </g>
          </g>
          <path id="Trazado_103192" data-name="Trazado 103192" d="M539.883,192.814l-82.728-1.68v-7.746l82.728,1.844Z" transform="translate(-392.112 -176.149)" fill="#bec7d4"/>
          <path id="Trazado_103193" data-name="Trazado 103193" d="M539.883,208.781,457.155,207.4v-7.746l82.728,1.548Z" transform="translate(-392.112 -178.397)" fill="#bec7d4"/>
          <path id="Trazado_103194" data-name="Trazado 103194" d="M539.883,224.748l-82.728-1.088v-7.746l82.728,1.252Z" transform="translate(-392.112 -180.644)" fill="#bec7d4"/>
          <path id="Trazado_103195" data-name="Trazado 103195" d="M539.883,240.716l-82.728-.792v-7.746l82.728.955Z" transform="translate(-392.112 -182.891)" fill="#bec7d4"/>
        </g>
        <path id="Trazado_103196" data-name="Trazado 103196" d="M379.293,156.429a2.088,2.088,0,0,1-2.2,2.05,2.232,2.232,0,0,1-2.2-2.172,2.087,2.087,0,0,1,2.2-2.05A2.232,2.232,0,0,1,379.293,156.429Z" transform="translate(-367.895 -149.908)" fill="#fff"/>
      </g>
      <g id="Grupo_55280" data-name="Grupo 55280" transform="translate(80.87 101.833)">
        <path id="Trazado_103197" data-name="Trazado 103197" d="M316.268,426.2a6.608,6.608,0,0,1-6,6.706L99.51,443.857A6.557,6.557,0,0,1,92.5,437.29V124.6a6.488,6.488,0,0,1,7.014-6.5l2.823-.151L310.27,130.956a6.683,6.683,0,0,1,6,6.761Z" transform="translate(-92.496 -109.307)" fill="#96a5b5"/>
        <path id="Trazado_103198" data-name="Trazado 103198" d="M321.086,426.057a6.608,6.608,0,0,1-6,6.706l-210.76,10.948a6.556,6.556,0,0,1-7.014-6.567V124.455a6.487,6.487,0,0,1,7.014-6.5l210.76,12.859a6.683,6.683,0,0,1,6,6.761Z" transform="translate(-93.162 -109.306)" fill="#d7dde7"/>
        <path id="Trazado_103199" data-name="Trazado 103199" d="M168.275,148.172c-5.238,6.735-5.986,19.457,2.994,24.7,19.458,11.973,44.9,8.231,63.61-4.49,13.77-9.639,7.906-27.509,3.965-41.962l-41.451-2.529C193.827,133.856,174.845,139.412,168.275,148.172Z" transform="translate(-102.432 -110.127)" fill="#d7dde7" style="mix-blend-mode: multiply;isolation: isolate"/>
        <path id="Trazado_103200" data-name="Trazado 103200" d="M313.026,418.543a5.824,5.824,0,0,1-5.329,5.911l-190.834,8.931a5.784,5.784,0,0,1-6.139-5.8V159.927a5.76,5.76,0,0,1,6.139-5.78L307.7,163.761a5.848,5.848,0,0,1,5.329,5.929Z" transform="translate(-95.014 -114.307)" fill="#fff"/>
        <path id="Trazado_103201" data-name="Trazado 103201" d="M269.475,148.863a3.392,3.392,0,0,0-3.189-2.888l-10.043-.54a8.1,8.1,0,0,1-7.606-8.786l.5-11.019a3.508,3.508,0,0,0-3.269-3.792l-3.242-.2a4.135,4.135,0,0,1-3.765-4.933,7.365,7.365,0,0,0-6.691-8.767,9.068,9.068,0,0,0-9.237,7.75,5.281,5.281,0,0,1-1.828,3.228,4.881,4.881,0,0,1-3.417,1.172l-3.309-.205a4.459,4.459,0,0,0-4.452,3.364l-2.875,11.042a10.567,10.567,0,0,1-10.471,7.942l-10.567-.567a4.578,4.578,0,0,0-4.244,2.576l-7.584,15.217.652.833,97.274,3.784Zm-38.741-31.448a2.16,2.16,0,0,1-1.97-2.572,2.659,2.659,0,0,1,2.7-2.271,2.16,2.16,0,0,1,1.966,2.572A2.658,2.658,0,0,1,230.734,117.415Z" transform="translate(-103.782 -107.922)" fill="url(#linear-gradient)"/>
        <path id="Trazado_103202" data-name="Trazado 103202" d="M270.231,149.829a3.392,3.392,0,0,0-3.189-2.888L257,146.4a8.1,8.1,0,0,1-7.606-8.785l.5-11.019a3.508,3.508,0,0,0-3.269-3.792l-3.242-.2a4.134,4.134,0,0,1-3.764-4.933,7.366,7.366,0,0,0-6.692-8.767,9.069,9.069,0,0,0-9.237,7.75,5.283,5.283,0,0,1-1.828,3.228,4.881,4.881,0,0,1-3.417,1.172l-3.309-.206a4.46,4.46,0,0,0-4.451,3.364l-2.875,11.043a10.568,10.568,0,0,1-10.472,7.941l-10.567-.567a4.58,4.58,0,0,0-4.244,2.577l-7.583,15.217,97.926,4.617Zm-38.74-31.448a2.159,2.159,0,0,1-1.97-2.571,2.657,2.657,0,0,1,2.7-2.271,2.159,2.159,0,0,1,1.966,2.571A2.658,2.658,0,0,1,231.491,118.381Z" transform="translate(-103.887 -108.055)" fill="#96a5b5"/>
        <path id="Trazado_103203" data-name="Trazado 103203" d="M267.043,152.247,257,151.707a7.857,7.857,0,0,1-6.715-4.421c-9.306,1.947-19.111-.088-28.916,1.874-6.735,1.5-5.987,11.973-13.47,12.722-10.734,1.45-21.355,1.552-31.865,1.655l-1.093,2.193,97.926,4.617-2.635-15.211A3.392,3.392,0,0,0,267.043,152.247Z" transform="translate(-103.887 -113.361)" fill="#96a5b5" opacity="0.3" style="mix-blend-mode: multiply;isolation: isolate"/>
        <g id="Grupo_55279" data-name="Grupo 55279" transform="translate(33.276 66.055)">
          <path id="Trazado_103204" data-name="Trazado 103204" d="M301.838,211.079l-170.731-4.145V184.566l170.731,5.321Z" transform="translate(-131.107 -184.566)" fill="#d7dde7"/>
          <g id="Grupo_55270" data-name="Grupo 55270" transform="translate(0 39.259)">
            <g id="Grupo_55268" data-name="Grupo 55268">
              <g id="Grupo_55263" data-name="Grupo 55263">
                <path id="Trazado_103205" data-name="Trazado 103205" d="M301.838,287.439l-170.731-.258V230.119l170.731,3.257ZM134.3,284l164.341.408V236.348L134.3,233.377Z" transform="translate(-131.107 -230.119)" fill="#d7dde7"/>
              </g>
              <g id="Grupo_55264" data-name="Grupo 55264" transform="translate(36.064 2.048)">
                <path id="Trazado_103206" data-name="Trazado 103206" d="M176.6,285.684h-3.652V232.5l3.652.059Z" transform="translate(-172.952 -232.496)" fill="#d7dde7"/>
              </g>
              <g id="Grupo_55267" data-name="Grupo 55267" transform="translate(37.89 18.766)">
                <g id="Grupo_55265" data-name="Grupo 55265">
                  <path id="Trazado_103207" data-name="Trazado 103207" d="M306.087,256.69l-131.016-1.639v-3.158l131.016,1.768Z" transform="translate(-175.071 -251.893)" fill="#d7dde7"/>
                </g>
                <g id="Grupo_55266" data-name="Grupo 55266" transform="translate(0 17.145)">
                  <path id="Trazado_103208" data-name="Trazado 103208" d="M306.087,275.883l-131.016-.939v-3.158l131.016,1.068Z" transform="translate(-175.071 -271.786)" fill="#d7dde7"/>
                </g>
              </g>
            </g>
            <g id="Grupo_55269" data-name="Grupo 55269" transform="translate(131.929 3.831)">
              <path id="Trazado_103209" data-name="Trazado 103209" d="M287.838,287.558l-3.652,0v-52.99l3.652.058Z" transform="translate(-284.186 -234.564)" fill="#d7dde7"/>
            </g>
          </g>
          <g id="Grupo_55278" data-name="Grupo 55278" transform="translate(0 144.154)">
            <g id="Grupo_55276" data-name="Grupo 55276">
              <g id="Grupo_55271" data-name="Grupo 55271">
                <path id="Trazado_103210" data-name="Trazado 103210" d="M301.838,405.892l-170.731,5.383V354.213l170.731-2.383ZM134.3,407.978l164.341-5.016V354.905L134.3,357.36Z" transform="translate(-131.107 -351.83)" fill="#d7dde7"/>
              </g>
              <g id="Grupo_55272" data-name="Grupo 55272" transform="translate(36.064 3.177)">
                <path id="Trazado_103211" data-name="Trazado 103211" d="M176.6,408.724l-3.652.118V355.575l3.652-.059Z" transform="translate(-172.952 -355.517)" fill="#d7dde7"/>
              </g>
              <g id="Grupo_55275" data-name="Grupo 55275" transform="translate(37.89 17.335)">
                <g id="Grupo_55273" data-name="Grupo 55273">
                  <path id="Trazado_103212" data-name="Trazado 103212" d="M306.087,374.974l-131.016,2.691v-3.158l131.016-2.562Z" transform="translate(-175.071 -371.945)" fill="#d7dde7"/>
                </g>
                <g id="Grupo_55274" data-name="Grupo 55274" transform="translate(0 16.445)">
                  <path id="Trazado_103213" data-name="Trazado 103213" d="M306.087,394.055l-131.016,3.391v-3.158l131.016-3.262Z" transform="translate(-175.071 -391.025)" fill="#d7dde7"/>
                </g>
              </g>
            </g>
            <g id="Grupo_55277" data-name="Grupo 55277" transform="translate(131.929 1.804)">
              <path id="Trazado_103214" data-name="Trazado 103214" d="M287.838,406.858l-3.652.1v-52.99l3.652-.046Z" transform="translate(-284.186 -353.923)" fill="#d7dde7"/>
            </g>
          </g>
          <path id="Trazado_103215" data-name="Trazado 103215" d="M301.838,316.6l-170.731.751v-7.3l170.731-.367Z" transform="translate(-131.107 -201.852)" fill="#d7dde7"/>
          <path id="Trazado_103216" data-name="Trazado 103216" d="M301.838,335.665l-170.731,1.663v-7.3l170.731-1.279Z" transform="translate(-131.107 -204.487)" fill="#d7dde7"/>
          <path id="Trazado_103217" data-name="Trazado 103217" d="M301.838,434.527l-170.731,6.391v-7.3l170.731-6.007Z" transform="translate(-131.107 -218.146)" fill="#d7dde7"/>
        </g>
      </g>
      <g id="Grupo_55299" data-name="Grupo 55299" transform="translate(54.865 333.174)">
        <g id="Grupo_55282" data-name="Grupo 55282" transform="translate(15.283 90.596)">
          <path id="Trazado_103218" data-name="Trazado 103218" d="M80.092,489.75v12.194c0,3.94,24.615,7.134,54.978,7.134s54.978-3.194,54.978-7.134V489.75Z" transform="translate(-80.06 -482.615)" fill="#eba800"/>
          <path id="Trazado_103219" data-name="Trazado 103219" d="M190.048,488.605c0,3.941-24.614,7.135-54.978,7.135s-54.978-3.194-54.978-7.135,24.615-7.134,54.978-7.134S190.048,484.665,190.048,488.605Z" transform="translate(-80.06 -481.471)" fill="#ffcc24"/>
          <path id="Trazado_103220" data-name="Trazado 103220" d="M135.065,497.273c-26.891,0-55.01-2.568-55.01-7.523,0-.271.1-.75.37-.75s.155.374.155.646c0,3.141,22.376,6.642,54.485,6.642s54.486-3.5,54.486-6.642c0-.272.047-.527.319-.527s.206.363.206.635C190.076,494.708,161.956,497.273,135.065,497.273Z" transform="translate(-80.055 -482.511)" fill="#ffcc24"/>
          <g id="Grupo_55281" data-name="Grupo 55281" transform="translate(20.377 4.431)">
            <path id="Trazado_103221" data-name="Trazado 103221" d="M133.137,489.714c.54-.373,1.113-.741,1.728-1.1a10.822,10.822,0,0,1,2.362-.985,22.527,22.527,0,0,1,3.624-.716,45.971,45.971,0,0,1,5.429-.294q3.187-.016,5.984.2a40.97,40.97,0,0,1,4.921.652,15.263,15.263,0,0,1,3.454,1.072A2.731,2.731,0,0,1,162.218,490l6.191.063a6.08,6.08,0,0,1,1.187.109c.346.071.514.16.514.268l0,.509-7.958-.077a4.01,4.01,0,0,1-2.134,1.713,21.584,21.584,0,0,1-4.363,1.346l-2.9-.4a3.4,3.4,0,0,1-.64-.152c-.167-.061-.248-.127-.248-.2q0-.147.671-.335t1.519-.468a15.1,15.1,0,0,0,1.661-.657,2.248,2.248,0,0,0,1.089-.9l-18.785-.186a17.681,17.681,0,0,1-1.658,1.07,10.8,10.8,0,0,1-2.437.946,25.353,25.353,0,0,1-3.78.683,53.343,53.343,0,0,1-5.7.278c-1.722.009-3.4-.057-5.039-.195a34.441,34.441,0,0,1-4.374-.624,13.654,13.654,0,0,1-3.137-1.026q-1.222-.613-1.366-1.407l-5.1-.053a6.648,6.648,0,0,1-1.2-.106c-.352-.068-.53-.158-.531-.271l0-.509,6.968.066a3.745,3.745,0,0,1,1.9-1.4,21.794,21.794,0,0,1,3.536-1.064l2.334.321c.709.1,1.061.216,1.062.35,0,.072-.143.162-.437.269s-.644.235-1.046.383a9.665,9.665,0,0,0-1.16.523,2.467,2.467,0,0,0-.849.68Zm-17.19.695a1.844,1.844,0,0,0,.926.864,7.39,7.39,0,0,0,1.77.6,18.045,18.045,0,0,0,2.386.344q1.332.109,2.782.1a28.9,28.9,0,0,0,2.954-.146,17.014,17.014,0,0,0,2.209-.374,10.314,10.314,0,0,0,1.662-.548,9.257,9.257,0,0,0,1.269-.678Zm40.892-.456a1.914,1.914,0,0,0-1.012-.89,9.094,9.094,0,0,0-2.036-.643,22.469,22.469,0,0,0-2.887-.387q-1.642-.127-3.628-.117a27.733,27.733,0,0,0-3.04.157,15.648,15.648,0,0,0-2.209.4,8.023,8.023,0,0,0-1.587.586,11.487,11.487,0,0,0-1.217.717Z" transform="translate(-103.699 -486.613)" fill="#fff"/>
          </g>
          <path id="Trazado_103222" data-name="Trazado 103222" d="M135.217,482.367c-24.514,0-50.038,2.157-54.121,6.333a5.089,5.089,0,0,1,.446.47c3.441-2.9,24.517-5.818,53.674-5.818,29.906,0,51.32,3.072,53.914,6.042a5.126,5.126,0,0,1,.411-.466C186.169,484.6,160.166,482.367,135.217,482.367Z" transform="translate(-80.199 -481.595)" fill="url(#linear-gradient-2)"/>
        </g>
        <g id="Grupo_55284" data-name="Grupo 55284" transform="translate(0 77.788)">
          <path id="Trazado_103223" data-name="Trazado 103223" d="M62.359,474.887v12.195c0,3.94,24.614,7.134,54.978,7.134s54.978-3.194,54.978-7.134V474.887Z" transform="translate(-62.327 -467.753)" fill="#eba800"/>
          <path id="Trazado_103224" data-name="Trazado 103224" d="M172.315,473.743c0,3.94-24.615,7.135-54.978,7.135s-54.978-3.195-54.978-7.135,24.614-7.134,54.978-7.134S172.315,469.8,172.315,473.743Z" transform="translate(-62.327 -466.609)" fill="#ffcc24"/>
          <path id="Trazado_103225" data-name="Trazado 103225" d="M117.331,482.411c-26.89,0-55.009-2.568-55.009-7.523,0-.271.1-.75.369-.75s.155.374.155.646c0,3.142,22.377,6.642,54.485,6.642s54.486-3.5,54.486-6.642c0-.271.047-.527.319-.527s.206.363.206.635C172.342,479.846,144.222,482.411,117.331,482.411Z" transform="translate(-62.322 -467.649)" fill="#ffcc24"/>
          <g id="Grupo_55283" data-name="Grupo 55283" transform="translate(20.376 4.431)">
            <path id="Trazado_103226" data-name="Trazado 103226" d="M115.4,474.852q.808-.56,1.727-1.106a10.884,10.884,0,0,1,2.362-.984,22.626,22.626,0,0,1,3.624-.717,46.189,46.189,0,0,1,5.429-.293q3.187-.016,5.984.2a40.8,40.8,0,0,1,4.921.652,15.252,15.252,0,0,1,3.454,1.072,2.732,2.732,0,0,1,1.579,1.463l6.191.063a6.074,6.074,0,0,1,1.187.109c.346.071.514.159.514.268l0,.509-7.958-.077a4.01,4.01,0,0,1-2.134,1.713,21.565,21.565,0,0,1-4.363,1.346l-2.9-.4a3.4,3.4,0,0,1-.64-.152c-.167-.061-.248-.128-.248-.2q0-.147.672-.335t1.518-.468a15.018,15.018,0,0,0,1.661-.657,2.244,2.244,0,0,0,1.089-.9l-18.784-.186a17.8,17.8,0,0,1-1.659,1.07,10.825,10.825,0,0,1-2.437.947,25.475,25.475,0,0,1-3.78.683,53.558,53.558,0,0,1-5.7.278c-1.721.009-3.4-.057-5.039-.195a34.619,34.619,0,0,1-4.374-.624,13.607,13.607,0,0,1-3.137-1.027q-1.222-.611-1.366-1.406l-5.1-.053a6.63,6.63,0,0,1-1.2-.106c-.352-.068-.531-.158-.532-.271l0-.509,6.968.066a3.744,3.744,0,0,1,1.906-1.4,21.761,21.761,0,0,1,3.536-1.064l2.333.321c.709.1,1.061.216,1.062.35,0,.072-.143.161-.436.269s-.644.234-1.046.383a9.616,9.616,0,0,0-1.161.523,2.468,2.468,0,0,0-.849.68Zm-17.191.695a1.844,1.844,0,0,0,.926.864,7.364,7.364,0,0,0,1.77.6,18.177,18.177,0,0,0,2.386.344q1.332.109,2.782.1a28.888,28.888,0,0,0,2.954-.147,16.978,16.978,0,0,0,2.209-.374,10.4,10.4,0,0,0,1.662-.548,9.257,9.257,0,0,0,1.269-.678Zm40.893-.456a1.916,1.916,0,0,0-1.013-.89,9.079,9.079,0,0,0-2.036-.643,22.283,22.283,0,0,0-2.886-.387q-1.642-.128-3.628-.118a27.886,27.886,0,0,0-3.04.158,15.654,15.654,0,0,0-2.21.4,8.017,8.017,0,0,0-1.586.586,11.429,11.429,0,0,0-1.218.717Z" transform="translate(-85.965 -471.751)" fill="#fff"/>
          </g>
          <path id="Trazado_103227" data-name="Trazado 103227" d="M117.483,467.505c-24.513,0-50.038,2.157-54.121,6.333a4.984,4.984,0,0,1,.446.47c3.441-2.9,24.517-5.818,53.674-5.818,29.906,0,51.32,3.072,53.914,6.042a5.14,5.14,0,0,1,.411-.466C168.435,469.741,142.432,467.505,117.483,467.505Z" transform="translate(-62.466 -466.733)" fill="url(#linear-gradient-3)"/>
        </g>
        <g id="Grupo_55286" data-name="Grupo 55286" transform="translate(13.187 65.016)">
          <path id="Trazado_103228" data-name="Trazado 103228" d="M77.66,460.069v12.194c0,3.94,24.615,7.135,54.979,7.135s54.977-3.195,54.977-7.135V460.069Z" transform="translate(-77.628 -452.934)" fill="#eba800"/>
          <path id="Trazado_103229" data-name="Trazado 103229" d="M187.616,458.925c0,3.94-24.614,7.134-54.977,7.134s-54.979-3.194-54.979-7.134,24.615-7.135,54.979-7.135S187.616,454.985,187.616,458.925Z" transform="translate(-77.628 -451.79)" fill="#ffcc24"/>
          <path id="Trazado_103230" data-name="Trazado 103230" d="M132.633,467.592c-26.89,0-55.01-2.568-55.01-7.522,0-.272.1-.751.37-.751s.155.374.155.646c0,3.141,22.377,6.642,54.485,6.642s54.486-3.5,54.486-6.642c0-.272.047-.527.319-.527s.206.364.206.635C187.644,465.027,159.524,467.592,132.633,467.592Z" transform="translate(-77.623 -452.83)" fill="#ffcc24"/>
          <g id="Grupo_55285" data-name="Grupo 55285" transform="translate(20.377 4.432)">
            <path id="Trazado_103231" data-name="Trazado 103231" d="M130.7,460.033c.54-.373,1.114-.741,1.728-1.1a10.868,10.868,0,0,1,2.362-.985,22.538,22.538,0,0,1,3.624-.716,45.821,45.821,0,0,1,5.429-.293q3.187-.016,5.984.2a40.621,40.621,0,0,1,4.921.652,15.228,15.228,0,0,1,3.454,1.071,2.734,2.734,0,0,1,1.579,1.463l6.191.063a6.14,6.14,0,0,1,1.187.109c.346.071.514.16.514.268l0,.51-7.958-.077a4.014,4.014,0,0,1-2.134,1.713,21.7,21.7,0,0,1-4.363,1.346l-2.9-.4a3.33,3.33,0,0,1-.64-.152c-.167-.06-.248-.127-.248-.2,0-.1.223-.209.672-.335s.954-.282,1.518-.467a15.448,15.448,0,0,0,1.661-.657,2.253,2.253,0,0,0,1.089-.9l-18.785-.186a17.845,17.845,0,0,1-1.658,1.07,10.885,10.885,0,0,1-2.437.946,25.483,25.483,0,0,1-3.78.683,53.539,53.539,0,0,1-5.7.279c-1.721.008-3.4-.057-5.039-.2a34.445,34.445,0,0,1-4.374-.623,13.645,13.645,0,0,1-3.137-1.027q-1.222-.613-1.366-1.407l-5.1-.052a6.723,6.723,0,0,1-1.2-.106c-.351-.068-.53-.159-.531-.271l0-.51,6.968.066a3.744,3.744,0,0,1,1.906-1.4,21.758,21.758,0,0,1,3.535-1.063l2.334.32c.709.1,1.061.216,1.062.35,0,.072-.143.162-.437.269s-.644.235-1.046.384a9.533,9.533,0,0,0-1.16.524,2.456,2.456,0,0,0-.849.679Zm-17.19.695a1.844,1.844,0,0,0,.926.864,7.386,7.386,0,0,0,1.77.6,18.034,18.034,0,0,0,2.386.344q1.332.11,2.782.1a29.2,29.2,0,0,0,2.954-.146,17.156,17.156,0,0,0,2.209-.374,10.305,10.305,0,0,0,1.662-.549,9.257,9.257,0,0,0,1.269-.678Zm40.892-.456a1.914,1.914,0,0,0-1.012-.89,9.134,9.134,0,0,0-2.036-.643,22.605,22.605,0,0,0-2.887-.387q-1.642-.127-3.628-.117a27.7,27.7,0,0,0-3.04.158,15.657,15.657,0,0,0-2.209.4,8.044,8.044,0,0,0-1.587.587,11.34,11.34,0,0,0-1.217.716Z" transform="translate(-101.267 -456.933)" fill="#fff"/>
          </g>
          <path id="Trazado_103232" data-name="Trazado 103232" d="M132.785,452.686c-24.514,0-50.038,2.157-54.121,6.333a5,5,0,0,1,.446.471c3.441-2.9,24.517-5.818,53.674-5.818,29.906,0,51.32,3.071,53.914,6.041a5,5,0,0,1,.411-.465C183.737,454.923,157.734,452.686,132.785,452.686Z" transform="translate(-77.767 -451.914)" fill="url(#linear-gradient-4)"/>
        </g>
        <g id="Grupo_55288" data-name="Grupo 55288" transform="translate(21.19 52.208)">
          <path id="Trazado_103233" data-name="Trazado 103233" d="M86.946,445.207V457.4c0,3.94,24.615,7.134,54.978,7.134S196.9,461.341,196.9,457.4V445.207Z" transform="translate(-86.914 -438.072)" fill="#eba800"/>
          <ellipse id="Elipse_4258" data-name="Elipse 4258" cx="54.978" cy="7.135" rx="54.978" ry="7.135" transform="translate(0.032)" fill="#ffcc24"/>
          <path id="Trazado_103234" data-name="Trazado 103234" d="M141.919,452.73c-26.891,0-55.01-2.568-55.01-7.522,0-.272.1-.751.369-.751s.155.374.155.646c0,3.141,22.377,6.642,54.486,6.642s54.486-3.5,54.486-6.642c0-.272.047-.527.318-.527s.207.363.207.635C196.93,450.165,168.81,452.73,141.919,452.73Z" transform="translate(-86.909 -437.968)" fill="#ffcc24"/>
          <g id="Grupo_55287" data-name="Grupo 55287" transform="translate(20.377 4.431)">
            <path id="Trazado_103235" data-name="Trazado 103235" d="M139.991,445.171c.54-.373,1.113-.741,1.728-1.1a10.833,10.833,0,0,1,2.361-.985,22.564,22.564,0,0,1,3.624-.716,45.987,45.987,0,0,1,5.429-.294q3.188-.015,5.985.2a40.93,40.93,0,0,1,4.92.652A15.235,15.235,0,0,1,167.492,444a2.734,2.734,0,0,1,1.58,1.463l6.191.063a6.077,6.077,0,0,1,1.187.109c.346.071.513.16.514.268l0,.509-7.958-.076a4.013,4.013,0,0,1-2.134,1.712,21.628,21.628,0,0,1-4.364,1.347l-2.9-.4a3.385,3.385,0,0,1-.639-.152c-.167-.061-.248-.127-.249-.2q0-.147.672-.335t1.518-.468a15.11,15.11,0,0,0,1.662-.657,2.256,2.256,0,0,0,1.089-.9l-18.785-.187a17.4,17.4,0,0,1-1.659,1.07,10.83,10.83,0,0,1-2.436.947,25.517,25.517,0,0,1-3.78.683,53.341,53.341,0,0,1-5.7.278c-1.722.009-3.4-.057-5.04-.195a34.746,34.746,0,0,1-4.373-.623,13.611,13.611,0,0,1-3.138-1.028c-.814-.408-1.271-.876-1.366-1.406l-5.1-.053a6.643,6.643,0,0,1-1.2-.106c-.352-.067-.53-.158-.531-.271l0-.509,6.968.066a3.745,3.745,0,0,1,1.9-1.4,21.771,21.771,0,0,1,3.536-1.064l2.334.321c.708.1,1.06.216,1.061.35,0,.072-.143.162-.436.269s-.644.235-1.046.384a9.74,9.74,0,0,0-1.161.523,2.472,2.472,0,0,0-.848.68Zm-17.191.695a1.851,1.851,0,0,0,.926.864,7.407,7.407,0,0,0,1.771.6,18.135,18.135,0,0,0,2.386.344q1.33.109,2.782.1a29.182,29.182,0,0,0,2.953-.146,17.15,17.15,0,0,0,2.21-.374,10.4,10.4,0,0,0,1.662-.549,9.245,9.245,0,0,0,1.269-.678Zm40.893-.456a1.914,1.914,0,0,0-1.012-.89,9.093,9.093,0,0,0-2.036-.643,22.617,22.617,0,0,0-2.887-.387q-1.642-.127-3.628-.117a27.734,27.734,0,0,0-3.04.157,15.629,15.629,0,0,0-2.209.4,7.973,7.973,0,0,0-1.587.587,11.18,11.18,0,0,0-1.217.716Z" transform="translate(-110.553 -442.07)" fill="#fff"/>
          </g>
          <path id="Trazado_103236" data-name="Trazado 103236" d="M142.07,437.824c-24.514,0-50.038,2.157-54.121,6.333a4.892,4.892,0,0,1,.446.471c3.441-2.9,24.517-5.819,53.675-5.819,29.906,0,51.32,3.072,53.914,6.042a4.877,4.877,0,0,1,.411-.465C193.023,440.061,167.02,437.824,142.07,437.824Z" transform="translate(-87.053 -437.052)" fill="url(#linear-gradient-5)"/>
        </g>
        <g id="Grupo_55290" data-name="Grupo 55290" transform="translate(15.283 38.389)">
          <path id="Trazado_103237" data-name="Trazado 103237" d="M80.092,429.172v12.194c0,3.941,24.615,7.135,54.978,7.135s54.978-3.194,54.978-7.135V429.172Z" transform="translate(-80.06 -422.038)" fill="#eba800"/>
          <path id="Trazado_103238" data-name="Trazado 103238" d="M190.048,428.028c0,3.94-24.614,7.134-54.978,7.134s-54.978-3.194-54.978-7.134,24.615-7.134,54.978-7.134S190.048,424.088,190.048,428.028Z" transform="translate(-80.06 -420.894)" fill="#ffcc24"/>
          <path id="Trazado_103239" data-name="Trazado 103239" d="M135.065,436.695c-26.891,0-55.01-2.568-55.01-7.522,0-.272.1-.751.37-.751s.155.374.155.646c0,3.141,22.376,6.642,54.485,6.642s54.486-3.5,54.486-6.642c0-.272.047-.527.319-.527s.206.363.206.635C190.076,434.131,161.956,436.695,135.065,436.695Z" transform="translate(-80.055 -421.934)" fill="#ffcc24"/>
          <g id="Grupo_55289" data-name="Grupo 55289" transform="translate(20.377 4.431)">
            <path id="Trazado_103240" data-name="Trazado 103240" d="M133.137,429.136c.54-.373,1.113-.741,1.728-1.1a10.869,10.869,0,0,1,2.362-.984,22.5,22.5,0,0,1,3.624-.717,45.809,45.809,0,0,1,5.429-.293q3.187-.016,5.984.2a40.615,40.615,0,0,1,4.921.652,15.229,15.229,0,0,1,3.454,1.071,2.737,2.737,0,0,1,1.579,1.463l6.191.063a6.137,6.137,0,0,1,1.187.11c.346.071.514.159.514.267l0,.51-7.958-.077a4.014,4.014,0,0,1-2.134,1.713,21.642,21.642,0,0,1-4.363,1.346l-2.9-.4a3.33,3.33,0,0,1-.64-.152c-.167-.06-.248-.127-.248-.2,0-.1.223-.209.671-.335s.955-.282,1.519-.467a15.456,15.456,0,0,0,1.661-.657,2.257,2.257,0,0,0,1.089-.9l-18.785-.186a17.83,17.83,0,0,1-1.658,1.07,10.8,10.8,0,0,1-2.437.946,25.475,25.475,0,0,1-3.78.683,53.3,53.3,0,0,1-5.7.279c-1.722.009-3.4-.057-5.039-.2a34.451,34.451,0,0,1-4.374-.623,13.648,13.648,0,0,1-3.137-1.027q-1.222-.613-1.366-1.406l-5.1-.053a6.715,6.715,0,0,1-1.2-.106c-.352-.068-.53-.159-.531-.271l0-.509,6.968.066a3.741,3.741,0,0,1,1.9-1.4,21.794,21.794,0,0,1,3.536-1.064l2.334.32c.709.1,1.061.216,1.062.351,0,.072-.143.161-.437.268s-.644.235-1.046.384a9.537,9.537,0,0,0-1.16.524,2.458,2.458,0,0,0-.849.68Zm-17.19.695a1.844,1.844,0,0,0,.926.864,7.345,7.345,0,0,0,1.77.6,18.194,18.194,0,0,0,2.386.343q1.332.11,2.782.1a28.942,28.942,0,0,0,2.954-.146,17.15,17.15,0,0,0,2.209-.374,10.3,10.3,0,0,0,1.662-.549,9.257,9.257,0,0,0,1.269-.678Zm40.892-.455a1.915,1.915,0,0,0-1.012-.891,9.141,9.141,0,0,0-2.036-.642,22.437,22.437,0,0,0-2.887-.388q-1.642-.127-3.628-.117a27.924,27.924,0,0,0-3.04.158,15.658,15.658,0,0,0-2.209.4,8.082,8.082,0,0,0-1.587.587,11.2,11.2,0,0,0-1.217.717Z" transform="translate(-103.699 -426.036)" fill="#fff"/>
          </g>
          <path id="Trazado_103241" data-name="Trazado 103241" d="M135.217,421.79c-24.514,0-50.038,2.157-54.121,6.333a4.983,4.983,0,0,1,.446.47c3.441-2.9,24.517-5.818,53.674-5.818,29.906,0,51.32,3.071,53.914,6.041a5.007,5.007,0,0,1,.411-.465C186.169,424.026,160.166,421.79,135.217,421.79Z" transform="translate(-80.199 -421.018)" fill="url(#linear-gradient-6)"/>
        </g>
        <g id="Grupo_55292" data-name="Grupo 55292" transform="translate(0 25.58)">
          <path id="Trazado_103242" data-name="Trazado 103242" d="M62.359,414.31V426.5c0,3.94,24.614,7.135,54.978,7.135s54.978-3.195,54.978-7.135V414.31Z" transform="translate(-62.327 -407.175)" fill="#eba800"/>
          <ellipse id="Elipse_4259" data-name="Elipse 4259" cx="54.978" cy="7.135" rx="54.978" ry="7.135" transform="translate(0.032)" fill="#ffcc24"/>
          <path id="Trazado_103243" data-name="Trazado 103243" d="M117.331,421.833c-26.89,0-55.009-2.568-55.009-7.522,0-.272.1-.751.369-.751s.155.374.155.646c0,3.141,22.377,6.642,54.485,6.642s54.486-3.5,54.486-6.642c0-.272.047-.527.319-.527s.206.364.206.635C172.342,419.269,144.222,421.833,117.331,421.833Z" transform="translate(-62.322 -407.072)" fill="#ffcc24"/>
          <g id="Grupo_55291" data-name="Grupo 55291" transform="translate(20.376 4.432)">
            <path id="Trazado_103244" data-name="Trazado 103244" d="M115.4,414.274q.808-.56,1.727-1.1a10.885,10.885,0,0,1,2.362-.985,22.538,22.538,0,0,1,3.624-.716,45.82,45.82,0,0,1,5.429-.293q3.187-.016,5.984.2a40.621,40.621,0,0,1,4.921.652A15.214,15.214,0,0,1,142.9,413.1a2.737,2.737,0,0,1,1.579,1.463l6.191.063a6.066,6.066,0,0,1,1.187.11c.346.07.514.159.514.267l0,.51-7.958-.077a4.014,4.014,0,0,1-2.134,1.713,21.679,21.679,0,0,1-4.363,1.346l-2.9-.4a3.4,3.4,0,0,1-.64-.152c-.167-.06-.248-.127-.248-.2,0-.1.223-.209.672-.335s.954-.282,1.518-.467a15.375,15.375,0,0,0,1.661-.657,2.253,2.253,0,0,0,1.089-.9l-18.784-.186a17.788,17.788,0,0,1-1.659,1.07,10.783,10.783,0,0,1-2.437.947,25.48,25.48,0,0,1-3.78.683,53.3,53.3,0,0,1-5.7.279c-1.721.008-3.4-.057-5.039-.2a34.473,34.473,0,0,1-4.374-.623,13.645,13.645,0,0,1-3.137-1.027q-1.222-.613-1.366-1.407l-5.1-.052a6.713,6.713,0,0,1-1.2-.106c-.352-.068-.531-.159-.532-.271l0-.51,6.968.066a3.744,3.744,0,0,1,1.906-1.4,21.767,21.767,0,0,1,3.536-1.064l2.333.32c.709.1,1.061.216,1.062.35,0,.072-.143.162-.436.269s-.644.235-1.046.384a9.49,9.49,0,0,0-1.161.524,2.456,2.456,0,0,0-.849.679Zm-17.191.695a1.844,1.844,0,0,0,.926.864,7.4,7.4,0,0,0,1.77.6,18.2,18.2,0,0,0,2.386.343q1.332.11,2.782.1a28.93,28.93,0,0,0,2.954-.146,17.129,17.129,0,0,0,2.209-.374,10.305,10.305,0,0,0,1.662-.549,9.257,9.257,0,0,0,1.269-.678Zm40.893-.456a1.919,1.919,0,0,0-1.013-.89,9.082,9.082,0,0,0-2.036-.642,22.431,22.431,0,0,0-2.886-.388q-1.642-.127-3.628-.117a27.686,27.686,0,0,0-3.04.158,15.672,15.672,0,0,0-2.21.4,8.068,8.068,0,0,0-1.586.587,11.274,11.274,0,0,0-1.218.716Z" transform="translate(-85.965 -411.174)" fill="#fff"/>
          </g>
          <path id="Trazado_103245" data-name="Trazado 103245" d="M117.483,406.927c-24.513,0-50.038,2.157-54.121,6.333a5.1,5.1,0,0,1,.446.471c3.441-2.9,24.517-5.818,53.674-5.818,29.906,0,51.32,3.071,53.914,6.041a5,5,0,0,1,.411-.465C168.435,409.164,142.432,406.927,117.483,406.927Z" transform="translate(-62.466 -406.155)" fill="url(#linear-gradient-7)"/>
        </g>
        <g id="Grupo_55294" data-name="Grupo 55294" transform="translate(13.187 12.809)">
          <path id="Trazado_103246" data-name="Trazado 103246" d="M77.66,399.491v12.195c0,3.94,24.615,7.134,54.979,7.134s54.977-3.194,54.977-7.134V399.491Z" transform="translate(-77.628 -392.356)" fill="#eba800"/>
          <ellipse id="Elipse_4260" data-name="Elipse 4260" cx="54.978" cy="7.135" rx="54.978" ry="7.135" transform="translate(0.032)" fill="#ffcc24"/>
          <path id="Trazado_103247" data-name="Trazado 103247" d="M132.633,407.014c-26.89,0-55.01-2.568-55.01-7.522,0-.272.1-.75.37-.75s.155.374.155.645c0,3.142,22.377,6.642,54.485,6.642s54.486-3.5,54.486-6.642c0-.271.047-.527.319-.527s.206.363.206.635C187.644,404.45,159.524,407.014,132.633,407.014Z" transform="translate(-77.623 -392.253)" fill="#ffcc24"/>
          <g id="Grupo_55293" data-name="Grupo 55293" transform="translate(20.377 4.432)">
            <path id="Trazado_103248" data-name="Trazado 103248" d="M130.7,399.456c.54-.374,1.114-.742,1.728-1.106a10.871,10.871,0,0,1,2.362-.984,22.62,22.62,0,0,1,3.624-.717,45.807,45.807,0,0,1,5.429-.293q3.187-.016,5.984.2a40.8,40.8,0,0,1,4.921.652,15.222,15.222,0,0,1,3.454,1.072,2.732,2.732,0,0,1,1.579,1.463l6.191.063a6.075,6.075,0,0,1,1.187.109c.346.071.514.159.514.268l0,.509-7.958-.077a4.014,4.014,0,0,1-2.134,1.713,21.642,21.642,0,0,1-4.363,1.346l-2.9-.4a3.4,3.4,0,0,1-.64-.151c-.167-.061-.248-.128-.248-.2q0-.146.672-.335t1.518-.467a15.454,15.454,0,0,0,1.661-.657,2.253,2.253,0,0,0,1.089-.9l-18.785-.186a17.839,17.839,0,0,1-1.658,1.07,10.8,10.8,0,0,1-2.437.946,25.471,25.471,0,0,1-3.78.683,53.319,53.319,0,0,1-5.7.279c-1.721.009-3.4-.057-5.039-.2a34.445,34.445,0,0,1-4.374-.623,13.649,13.649,0,0,1-3.137-1.027q-1.222-.613-1.366-1.406l-5.1-.053a6.642,6.642,0,0,1-1.2-.106c-.351-.068-.53-.159-.531-.271l0-.509,6.968.066a3.744,3.744,0,0,1,1.906-1.4,21.755,21.755,0,0,1,3.535-1.064l2.334.321c.709.1,1.061.215,1.062.35,0,.072-.143.161-.437.268s-.644.235-1.046.384a9.537,9.537,0,0,0-1.16.524,2.458,2.458,0,0,0-.849.68Zm-17.19.695a1.843,1.843,0,0,0,.926.864,7.345,7.345,0,0,0,1.77.6,18.042,18.042,0,0,0,2.386.343q1.332.11,2.782.1a28.943,28.943,0,0,0,2.954-.146,17.161,17.161,0,0,0,2.209-.374,10.311,10.311,0,0,0,1.662-.549,9.164,9.164,0,0,0,1.269-.677Zm40.892-.456a1.915,1.915,0,0,0-1.012-.891,9.139,9.139,0,0,0-2.036-.642,22.453,22.453,0,0,0-2.887-.388q-1.642-.127-3.628-.117a27.942,27.942,0,0,0-3.04.158,15.79,15.79,0,0,0-2.209.4,8.1,8.1,0,0,0-1.587.587,11.328,11.328,0,0,0-1.217.717Z" transform="translate(-101.267 -396.355)" fill="#fff"/>
          </g>
          <path id="Trazado_103249" data-name="Trazado 103249" d="M132.785,392.109c-24.514,0-50.038,2.157-54.121,6.333a4.988,4.988,0,0,1,.446.47c3.441-2.9,24.517-5.818,53.674-5.818,29.906,0,51.32,3.072,53.914,6.042a5,5,0,0,1,.411-.465C183.737,394.345,157.734,392.109,132.785,392.109Z" transform="translate(-77.767 -391.337)" fill="url(#linear-gradient-8)"/>
        </g>
        <g id="Grupo_55296" data-name="Grupo 55296" transform="translate(6.328)">
          <path id="Trazado_103250" data-name="Trazado 103250" d="M69.7,384.629v12.194c0,3.941,24.615,7.135,54.978,7.135s54.978-3.194,54.978-7.135V384.629Z" transform="translate(-69.669 -377.494)" fill="#eba800"/>
          <ellipse id="Elipse_4261" data-name="Elipse 4261" cx="54.978" cy="7.135" rx="54.978" ry="7.135" transform="translate(0.032)" fill="#ffcc24"/>
          <path id="Trazado_103251" data-name="Trazado 103251" d="M124.674,392.152c-26.891,0-55.01-2.568-55.01-7.522,0-.272.1-.751.369-.751s.155.374.155.646c0,3.142,22.377,6.642,54.486,6.642s54.486-3.5,54.486-6.642c0-.272.047-.527.318-.527s.207.363.207.635C179.685,389.588,151.565,392.152,124.674,392.152Z" transform="translate(-69.664 -377.391)" fill="#ffcc24"/>
          <g id="Grupo_55295" data-name="Grupo 55295" transform="translate(20.377 4.432)">
            <path id="Trazado_103252" data-name="Trazado 103252" d="M122.746,384.594c.54-.374,1.113-.742,1.728-1.106a10.89,10.89,0,0,1,2.362-.984,22.516,22.516,0,0,1,3.624-.717,45.8,45.8,0,0,1,5.429-.293q3.187-.016,5.984.2a40.588,40.588,0,0,1,4.92.652,15.218,15.218,0,0,1,3.455,1.071,2.738,2.738,0,0,1,1.579,1.464l6.191.062a6.137,6.137,0,0,1,1.187.11c.346.071.513.159.514.268l0,.509-7.958-.077a4.014,4.014,0,0,1-2.134,1.713,21.644,21.644,0,0,1-4.363,1.346l-2.9-.4a3.326,3.326,0,0,1-.64-.152c-.167-.06-.248-.127-.248-.2q0-.147.671-.335t1.519-.467a15.46,15.46,0,0,0,1.661-.657,2.257,2.257,0,0,0,1.089-.9l-18.785-.186a17.839,17.839,0,0,1-1.658,1.07,10.8,10.8,0,0,1-2.437.946,25.475,25.475,0,0,1-3.78.683,53.33,53.33,0,0,1-5.7.279c-1.721.009-3.4-.057-5.039-.2a34.45,34.45,0,0,1-4.374-.623,13.648,13.648,0,0,1-3.137-1.027q-1.222-.613-1.366-1.407l-5.1-.052a6.645,6.645,0,0,1-1.2-.106c-.351-.068-.53-.159-.531-.271l0-.509,6.968.066a3.745,3.745,0,0,1,1.9-1.4,21.794,21.794,0,0,1,3.536-1.064l2.334.321c.708.1,1.061.215,1.062.35,0,.072-.144.161-.437.268s-.644.235-1.045.383a9.494,9.494,0,0,0-1.161.524,2.458,2.458,0,0,0-.849.68Zm-17.19.694a1.844,1.844,0,0,0,.926.864,7.344,7.344,0,0,0,1.77.6,18.175,18.175,0,0,0,2.386.343q1.332.11,2.782.1a28.9,28.9,0,0,0,2.953-.146,17.155,17.155,0,0,0,2.21-.374,10.311,10.311,0,0,0,1.662-.549,9.259,9.259,0,0,0,1.269-.678Zm40.892-.455a1.915,1.915,0,0,0-1.012-.891,9.138,9.138,0,0,0-2.036-.642,22.436,22.436,0,0,0-2.887-.388q-1.642-.127-3.628-.117a27.941,27.941,0,0,0-3.04.158,15.662,15.662,0,0,0-2.209.4,8.08,8.08,0,0,0-1.587.587,11.2,11.2,0,0,0-1.217.717Z" transform="translate(-93.308 -381.493)" fill="#fff"/>
          </g>
          <path id="Trazado_103253" data-name="Trazado 103253" d="M124.826,377.247c-24.514,0-50.038,2.157-54.121,6.333a4.986,4.986,0,0,1,.446.47c3.44-2.9,24.517-5.818,53.674-5.818,29.906,0,51.32,3.071,53.914,6.041a5,5,0,0,1,.411-.465C175.778,379.483,149.775,377.247,124.826,377.247Z" transform="translate(-69.808 -376.474)" fill="url(#linear-gradient-9)"/>
        </g>
        <g id="Grupo_55298" data-name="Grupo 55298" transform="translate(121.486 15.533)">
          <path id="Trazado_103254" data-name="Trazado 103254" d="M213.753,394.6l-9.937,7.068c-3.211,2.284,8.453,24.193,26.052,48.936s34.47,42.95,37.681,40.666l9.937-7.068Z" transform="translate(-203.284 -394.405)" fill="#eba800"/>
          <path id="Trazado_103255" data-name="Trazado 103255" d="M279.079,484.174c-3.21,2.284-20.081-15.922-37.68-40.666s-29.264-46.652-26.053-48.936,20.082,15.922,37.681,40.665S282.29,481.891,279.079,484.174Z" transform="translate(-204.877 -394.374)" fill="#ffcc24"/>
          <path id="Trazado_103256" data-name="Trazado 103256" d="M240.955,443.793c-15.586-21.913-29.792-46.316-25.755-49.187.221-.158.668-.356.826-.134s-.215.343-.437.5c-2.561,1.821,7.557,22.085,26.169,48.25s34.434,42.37,36.994,40.549c.221-.158.456-.267.614-.046s-.176.378-.4.536C274.931,487.134,256.542,465.706,240.955,443.793Z" transform="translate(-204.834 -394.373)" fill="#ffcc24"/>
          <g id="Grupo_55297" data-name="Grupo 55297" transform="translate(21.712 16.836)">
            <path id="Trazado_103257" data-name="Trazado 103257" d="M245.765,438.069q.924.335,1.9.767a10.952,10.952,0,0,1,2.171,1.354,22.6,22.6,0,0,1,2.685,2.538,45.97,45.97,0,0,1,3.385,4.254q1.86,2.588,3.3,4.994a40.782,40.782,0,0,1,2.322,4.388,15.237,15.237,0,0,1,1.129,3.436,2.74,2.74,0,0,1-.278,2.135l3.537,5.081a6.134,6.134,0,0,1,.6,1.031c.143.323.168.511.08.574l-.415.3-4.551-6.53a4.009,4.009,0,0,1-2.632-.745,21.588,21.588,0,0,1-3.627-2.776l-1.352-2.6a3.491,3.491,0,0,1-.247-.609c-.047-.172-.04-.276.018-.318q.12-.087.664.353t1.26.965a15.208,15.208,0,0,0,1.5.973,2.256,2.256,0,0,0,1.369.364l-10.737-15.415a17.8,17.8,0,0,1-1.833-.732,10.787,10.787,0,0,1-2.184-1.437,25.534,25.534,0,0,1-2.748-2.685,53.536,53.536,0,0,1-3.531-4.482q-1.506-2.1-2.761-4.22a34.481,34.481,0,0,1-2.027-3.925,13.637,13.637,0,0,1-.982-3.153,2.2,2.2,0,0,1,.354-1.928l-2.91-4.183a6.633,6.633,0,0,1-.612-1.043c-.148-.326-.178-.524-.087-.59l.415-.3,3.984,5.717a3.741,3.741,0,0,1,2.248.739,21.846,21.846,0,0,1,2.916,2.265l1.092,2.087c.329.635.439.989.33,1.068-.059.042-.215-.023-.472-.2s-.564-.388-.919-.63a9.523,9.523,0,0,0-1.1-.642,2.467,2.467,0,0,0-1.045-.3Zm-10.531-13.606a1.845,1.845,0,0,0-.167,1.255,7.361,7.361,0,0,0,.539,1.79,18.039,18.039,0,0,0,1.1,2.143q.683,1.148,1.529,2.326a28.786,28.786,0,0,0,1.831,2.323,17.089,17.089,0,0,0,1.585,1.583,10.327,10.327,0,0,0,1.411,1.036,9.271,9.271,0,0,0,1.288.641Zm24.074,33.059a1.917,1.917,0,0,0,.139-1.341,9.063,9.063,0,0,0-.657-2.031,22.449,22.449,0,0,0-1.357-2.577q-.848-1.412-2.007-3.025a27.991,27.991,0,0,0-1.89-2.386,15.681,15.681,0,0,0-1.607-1.568,8.1,8.1,0,0,0-1.4-.953,11.258,11.258,0,0,0-1.29-.576Z" transform="translate(-228.477 -413.909)" fill="#fff"/>
          </g>
          <path id="Trazado_103258" data-name="Trazado 103258" d="M252.551,435.833c-14.208-19.976-30.761-39.525-36.531-40.431a4.755,4.755,0,0,1-.124.635c4.357,1.125,18.953,16.607,35.853,40.367,17.334,24.369,27.243,43.6,26.326,47.435a4.963,4.963,0,0,1,.617.065C280.262,478.65,267.012,456.164,252.551,435.833Z" transform="translate(-205.027 -394.516)" fill="url(#linear-gradient-10)"/>
        </g>
      </g>
      <g id="Grupo_55301" data-name="Grupo 55301" transform="translate(266.978 319.895)">
        <path id="Trazado_103259" data-name="Trazado 103259" d="M385.446,362.332,313.8,360.944a5.026,5.026,0,0,0-5.342,5.379l7.493,97.829a5.834,5.834,0,0,0,6.154,5.221l71.287-3.345a5.037,5.037,0,0,0,4.808-5.46l-7.117-92.919A5.871,5.871,0,0,0,385.446,362.332Z" transform="translate(-308.439 -360.943)" fill="#281b4a"/>
        <path id="Trazado_103260" data-name="Trazado 103260" d="M387.536,362.332l-71.65-1.388a5.026,5.026,0,0,0-5.342,5.379l7.493,97.829a5.834,5.834,0,0,0,6.153,5.221l71.287-3.345a5.037,5.037,0,0,0,4.808-5.46l-7.116-92.919A5.872,5.872,0,0,0,387.536,362.332Z" transform="translate(-308.728 -360.943)" fill="#342361"/>
        <path id="Trazado_103261" data-name="Trazado 103261" d="M324.345,467.981a4.072,4.072,0,0,1-4.285-3.64l-7.484-97.725a3.506,3.506,0,0,1,3.719-3.749l71.643,1.317a4.1,4.1,0,0,1,3.93,3.705l7.124,93.013a3.514,3.514,0,0,1-3.355,3.8Z" transform="translate(-309.009 -361.208)" fill="#7b3cee"/>
        <path id="Trazado_103262" data-name="Trazado 103262" d="M385.113,370.055,322.3,369.1a2.308,2.308,0,0,0-2.437,2.473l1.175,15.342a2.837,2.837,0,0,0,2.82,2.521l62.755.17a2.2,2.2,0,0,0,2.237-2.4L387.722,372.5A2.7,2.7,0,0,0,385.113,370.055Z" transform="translate(-310.016 -362.07)" fill="#422c7a"/>
        <g id="Grupo_55300" data-name="Grupo 55300" transform="translate(12.13 37.1)">
          <path id="Trazado_103263" data-name="Trazado 103263" d="M340.681,404.175l-16.122.054a1.975,1.975,0,0,0-2.038,2.113l.321,4.188a2.341,2.341,0,0,0,2.361,2.086l16.115-.137a1.951,1.951,0,0,0,1.991-2.1l-.317-4.136A2.314,2.314,0,0,0,340.681,404.175Z" transform="translate(-322.514 -404.016)" fill="#422c7a"/>
          <path id="Trazado_103264" data-name="Trazado 103264" d="M368.69,404.081l-15.643.053a1.929,1.929,0,0,0-1.975,2.08l.315,4.125a2.288,2.288,0,0,0,2.292,2.055l15.637-.133a1.908,1.908,0,0,0,1.93-2.066l-.312-4.074A2.263,2.263,0,0,0,368.69,404.081Z" transform="translate(-326.459 -404.003)" fill="#422c7a"/>
          <path id="Trazado_103265" data-name="Trazado 103265" d="M395.877,403.99l-15.186.052a1.886,1.886,0,0,0-1.915,2.049l.311,4.064a2.236,2.236,0,0,0,2.227,2.025l15.18-.128a1.866,1.866,0,0,0,1.872-2.036L398.059,406A2.213,2.213,0,0,0,395.877,403.99Z" transform="translate(-330.287 -403.99)" fill="#422c7a"/>
          <path id="Trazado_103266" data-name="Trazado 103266" d="M341.769,418.371l-16.113.177a1.993,1.993,0,0,0-2.037,2.129l.7,9.2a2.311,2.311,0,0,0,2.359,2.063l16.1-.309a1.975,1.975,0,0,0,1.989-2.119l-.7-9.088A2.292,2.292,0,0,0,341.769,418.371Z" transform="translate(-322.666 -405.977)" fill="#422c7a"/>
          <path id="Trazado_103267" data-name="Trazado 103267" d="M369.762,418.066l-15.634.171a1.947,1.947,0,0,0-1.974,2.1l.694,9.065a2.258,2.258,0,0,0,2.291,2.033l15.625-.3a1.931,1.931,0,0,0,1.928-2.087l-.686-8.953A2.239,2.239,0,0,0,369.762,418.066Z" transform="translate(-326.608 -405.935)" fill="#422c7a"/>
          <path id="Trazado_103268" data-name="Trazado 103268" d="M396.934,417.77l-15.177.165A1.9,1.9,0,0,0,379.843,420l.683,8.93a2.208,2.208,0,0,0,2.226,2l15.167-.29a1.889,1.889,0,0,0,1.87-2.057l-.676-8.822A2.19,2.19,0,0,0,396.934,417.77Z" transform="translate(-330.434 -405.894)" fill="#422c7a"/>
          <path id="Trazado_103269" data-name="Trazado 103269" d="M343.3,438.32l-16.1.347a2.019,2.019,0,0,0-2.036,2.153l.7,9.2a2.281,2.281,0,0,0,2.357,2.04l16.089-.48a2,2,0,0,0,1.988-2.143l-.7-9.088A2.262,2.262,0,0,0,343.3,438.32Z" transform="translate(-322.879 -408.733)" fill="#422c7a"/>
          <path id="Trazado_103270" data-name="Trazado 103270" d="M371.27,437.718l-15.622.338a1.971,1.971,0,0,0-1.973,2.119l.694,9.065a2.229,2.229,0,0,0,2.289,2.01l15.612-.465a1.955,1.955,0,0,0,1.926-2.111l-.686-8.953A2.211,2.211,0,0,0,371.27,437.718Z" transform="translate(-326.819 -408.65)" fill="#422c7a"/>
          <path id="Trazado_103271" data-name="Trazado 103271" d="M398.419,437.134l-15.165.328a1.927,1.927,0,0,0-1.912,2.087l.684,8.93a2.177,2.177,0,0,0,2.224,1.98l15.155-.452a1.913,1.913,0,0,0,1.868-2.078l-.676-8.822A2.163,2.163,0,0,0,398.419,437.134Z" transform="translate(-330.641 -408.569)" fill="#422c7a"/>
          <path id="Trazado_103272" data-name="Trazado 103272" d="M344.83,458.269l-16.086.519a2.044,2.044,0,0,0-2.034,2.176l.7,9.2a2.25,2.25,0,0,0,2.355,2.017l16.076-.651a2.026,2.026,0,0,0,1.986-2.166l-.7-9.088A2.233,2.233,0,0,0,344.83,458.269Z" transform="translate(-323.093 -411.489)" fill="#422c7a"/>
          <path id="Trazado_103273" data-name="Trazado 103273" d="M372.778,457.371l-15.609.5a2,2,0,0,0-1.971,2.143l.694,9.064a2.2,2.2,0,0,0,2.287,1.987l15.6-.632A1.98,1.98,0,0,0,375.7,468.3l-.685-8.953A2.183,2.183,0,0,0,372.778,457.371Z" transform="translate(-327.029 -411.365)" fill="#422c7a"/>
          <path id="Trazado_103274" data-name="Trazado 103274" d="M399.9,456.5l-15.152.489a1.952,1.952,0,0,0-1.911,2.11l.683,8.93a2.15,2.15,0,0,0,2.223,1.959l15.142-.613a1.938,1.938,0,0,0,1.867-2.1l-.676-8.822A2.134,2.134,0,0,0,399.9,456.5Z" transform="translate(-330.848 -411.245)" fill="#422c7a"/>
        </g>
      </g>
      <g id="Grupo_55304" data-name="Grupo 55304" transform="translate(8.354 84.178)">
        <g id="Grupo_55302" data-name="Grupo 55302">
          <circle id="Elipse_4262" data-name="Elipse 4262" cx="48.51" cy="48.51" r="48.51" transform="translate(0 93.5) rotate(-74.518)" fill="#eba800"/>
          <circle id="Elipse_4263" data-name="Elipse 4263" cx="43.092" cy="43.092" r="43.092" transform="translate(4.955 86.473) rotate(-71.062)" fill="#fedb31"/>
        </g>
        <g id="Grupo_55303" data-name="Grupo 55303" transform="translate(42.508 32.927)">
          <path id="Trazado_103275" data-name="Trazado 103275" d="M70.866,179.186v-5.905a34.289,34.289,0,0,1-13.189-3.215l2.361-9.448a31.1,31.1,0,0,0,13.122,3.28c3.478,0,6.1-.787,6.1-2.953,0-1.968-2.035-3.084-7.482-4.4-7.675-1.837-13.712-5.315-13.712-12.467,0-6.365,4.592-11.219,12.8-12.6v-5.84h7.808v5.381a30.966,30.966,0,0,1,11.089,2.23l-2.3,9.121a28.324,28.324,0,0,0-11.35-2.494c-4.2,0-5.249,1.379-5.249,2.692,0,1.64,2.821,2.952,8.661,4.593,9.12,2.493,12.532,6.168,12.532,12.664,0,6.234-4.659,11.482-13.384,12.861v6.5Z" transform="translate(-57.677 -125.643)" fill="#fff"/>
        </g>
      </g>
      <g id="Grupo_54528" data-name="Grupo 54528" transform="translate(86.692 238.65)">
        <g id="Grupo_54524" data-name="Grupo 54524">
          <g id="Grupo_54504" data-name="Grupo 54504" transform="translate(48.069 130.611)">
            <path id="Trazado_101858" data-name="Trazado 101858" d="M157.383,433.558c.078-.053.159-.1.241-.153,1.155-.713,2.505-.724,3.711-1.683,2.257-1.8,4.308-13.5,4.308-13.5l6.8,1.175s-4.7,14.69-5,17.893c-.368,3.941-.768,5.183.783,7.833.176.294.35.6.527.883.065.107.128.214.193.321,1.323,2.2,2.517,4.159,1.928,4.445-.688.333-3.136.266-6.684-3.427-3.11-3.242-2.458-3.608-4.19-5.2l-.109-.1c-.046-.043-.094-.084-.143-.128-.184-.163-.394-.335-.633-.528a12.479,12.479,0,0,1-3.939-4.324v-.01a1.876,1.876,0,0,1,.336-2.006A8.916,8.916,0,0,1,157.383,433.558Z" transform="translate(-155.026 -418.223)" fill="#ffb27d"/>
          </g>
          <g id="Grupo_54505" data-name="Grupo 54505" transform="translate(48.069 145.956)">
            <path id="Trazado_101859" data-name="Trazado 101859" d="M157.375,436.028l.4.074c1.4,2.055,2.8,5.4,4.854,8.033a15.124,15.124,0,0,0,6.323,4.663c1.323,2.2,2.517,4.159,1.928,4.445-.689.334-3.138.266-6.685-3.427-3.11-3.242-2.458-3.608-4.189-5.2l-.11-.1c-.047-.043-.094-.086-.143-.128-.184-.167-.391-.346-.625-.541a14.428,14.428,0,0,1-3.945-4.311v-.01a1.875,1.875,0,0,1,.335-2.007A8.929,8.929,0,0,1,157.375,436.028Z" transform="translate(-155.026 -436.028)" fill="#233862"/>
          </g>
          <g id="Grupo_54506" data-name="Grupo 54506" transform="translate(97.954 128.553)">
            <path id="Trazado_101860" data-name="Trazado 101860" d="M218.294,428.259a7.888,7.888,0,0,0-.639-4.446c-1.319-2.261-4.745-7.463-4.745-7.463l6.524-.514s3.652,5.824,6.1,7.252c2.586,1.516,4.669,3.353,7.516,3.711.319.039.637.079.954.115,2.521.285,4.872.514,4.742,1.142-.146.707-1.588,2.48-6.345,3.005s-3.962-.447-7.3.37-6.335,1.164-6.754-.933A8.362,8.362,0,0,1,218.294,428.259Z" transform="translate(-212.909 -415.836)" fill="#ffb27d"/>
          </g>
          <g id="Grupo_54507" data-name="Grupo 54507" transform="translate(103.285 139.633)">
            <path id="Trazado_101861" data-name="Trazado 101861" d="M219.2,432.275a8.375,8.375,0,0,1-.05-2.231c2.23-.035,5.648.889,8.875.813a13.415,13.415,0,0,0,6.813-2.116l.024-.048c2.521.285,4.872.514,4.742,1.142-.146.707-1.588,2.48-6.345,3s-3.962-.445-7.3.37S219.616,434.375,219.2,432.275Z" transform="translate(-219.095 -428.692)" fill="#233862"/>
          </g>
          <g id="Grupo_54508" data-name="Grupo 54508" transform="translate(56.007 91.027)">
            <path id="Trazado_101862" data-name="Trazado 101862" d="M174.137,374.319a23.538,23.538,0,0,0-3.552,7.675c-4.13,13.205-6.348,36.213-6.348,36.213a18.334,18.334,0,0,0,4.089,2,12.885,12.885,0,0,0,4.23.389l7.97-21.426,6.1-16.41S180.531,366.769,174.137,374.319Z" transform="translate(-164.237 -372.294)" fill="#24ccb0"/>
          </g>
          <g id="Grupo_54509" data-name="Grupo 54509" transform="translate(13.213 72.129)">
            <g id="Grupo_55305" data-name="Grupo 55305">
              <path id="Trazado_101863" data-name="Trazado 101863" d="M209.63,410.407a5.215,5.215,0,0,1-2.284,1.436,21.47,21.47,0,0,1-5.3.543s-24.408-20.937-27.313-27.041-4.066-11.917-6.972-11.338c-1.775.354-15.506,8.8-27.8,8.8-4.778,0-19.719-.027-19.719-.027h0a4.338,4.338,0,0,1-4.321-2.79c-4.463-11.53,3.7-29.622,3.7-29.622l24.725,1.94h0a6.664,6.664,0,0,0,6.88,3.109c9.826-1.775,18.884-2.873,22.355-1.753C182.589,356.572,209.63,410.407,209.63,410.407Z" transform="translate(-114.582 -350.366)" fill="#27debf"/>
            </g>
          </g>
          <g id="Grupo_54510" data-name="Grupo 54510" transform="translate(0.098)">
            <path id="Trazado_101864" data-name="Trazado 101864" d="M139.642,268.144a8.77,8.77,0,0,0-4.722-1.231,13.155,13.155,0,0,1-2.285-.142c-9.437-1.385-15.124,12.32-15.459,16.459-.614,7.6-4.638,8.761-10.3,13.522-11.356,9.545-8.031,20.641-1.824,24.767,3.723,2.471,10.289,0,10.289,0,.093.065,17.959-9.978,26.765-14.824C155.313,304.819,144.94,271.292,139.642,268.144Z" transform="translate(-99.365 -266.673)" fill="#233862"/>
          </g>
          <g id="Grupo_54511" data-name="Grupo 54511" transform="translate(23.415 22.038)">
            <path id="Trazado_101865" data-name="Trazado 101865" d="M138.521,301.269c.421-2.736,1.07-5.609,1.07-5.609l-8.954-3.225-.533-.191c-1.059,7.175-2.434,8.268-3.684,8.325-.041,0,2.04,4.527,4.789,5.743,2.922,1.3,7.294-.2,7.255-.22C137.977,305.769,138.167,303.568,138.521,301.269Z" transform="translate(-126.42 -292.244)" fill="#ffb27d"/>
          </g>
          <g id="Grupo_54512" data-name="Grupo 54512" transform="translate(27.631 22.231)">
            <path id="Trazado_101866" data-name="Trazado 101866" d="M131.312,292.468a10.113,10.113,0,0,0,8.075,7.671c.522-2.895.881-4.445.881-4.445Z" transform="translate(-131.312 -292.468)" fill="#ed975d"/>
          </g>
          <g id="Grupo_54513" data-name="Grupo 54513" transform="translate(26.736 6.754)">
            <path id="Trazado_101867" data-name="Trazado 101867" d="M147.74,281.076c-.235-2.634-1.317-5.767-9.186-6.5s-7.061,4.61-8.2,12.224,11.108,9.264,11.108,9.264C144.673,296.3,147.975,283.71,147.74,281.076Z" transform="translate(-130.274 -274.51)" fill="#ffb27d"/>
          </g>
          <g id="Grupo_54514" data-name="Grupo 54514" transform="translate(23.218 6.084)">
            <path id="Trazado_101868" data-name="Trazado 101868" d="M134.325,273.892a3.751,3.751,0,0,0-3.094,2.21,20.836,20.836,0,0,1-5.039,6.822s2.026,1.712,7.355,1.17,13.181-7.3,13.181-7.3C145.358,273.418,138.138,273.565,134.325,273.892Z" transform="translate(-126.192 -273.732)" fill="#233862"/>
          </g>
          <g id="Grupo_54515" data-name="Grupo 54515" transform="translate(38.855 7.077)">
            <path id="Trazado_101869" data-name="Trazado 101869" d="M149.959,276.848c2.313,3.863-1.778,11.81-1.778,11.81a14.813,14.813,0,0,0-.4-7.884,19.3,19.3,0,0,0-3.447-4.426S147.507,272.745,149.959,276.848Z" transform="translate(-144.335 -274.885)" fill="#233862"/>
          </g>
          <g id="Grupo_54516" data-name="Grupo 54516" transform="translate(12.893 30.074)">
            <path id="Trazado_101870" data-name="Trazado 101870" d="M136.833,302.56s-.838,5.168-11.193-.985c-.367-.218-4.447,5.821-8.376,13.261-4.331,8.216-3.145,9.952-1.925,15.067.221.934.409,1.79.563,2.583,1.46,7.446.222,8.956,1.974,13.82.508,1.406,13.876,2.663,21.481,2.161a10.423,10.423,0,0,0,4.911-1.062c2.714-2.353,2.444,2.829,2.823-21.972C147.276,313.337,136.833,302.56,136.833,302.56Z" transform="translate(-114.211 -301.569)" fill="#2f539b"/>
          </g>
          <g id="Grupo_54517" data-name="Grupo 54517" transform="translate(56.007 100.727)">
            <g id="Grupo_55306" data-name="Grupo 55306">
              <path id="Trazado_101871" data-name="Trazado 101871" d="M170.585,383.548c-4.13,13.2-6.348,36.213-6.348,36.213a18.36,18.36,0,0,0,4.09,2,12.86,12.86,0,0,0,4.23.388l7.969-21.426Z" transform="translate(-164.237 -383.548)" fill="#27debf"/>
            </g>
          </g>
          <g id="Grupo_54518" data-name="Grupo 54518" transform="translate(35.516 31.071)">
            <path id="Trazado_101872" data-name="Trazado 101872" d="M144.35,315.935s5.367,23.557,7.869,26.063,5.507-.428,5.507-.428-4.108-27.854-5.359-32.444-11.907-6.4-11.907-6.4Z" transform="translate(-140.461 -302.726)" fill="#2f539b"/>
          </g>
          <g id="Grupo_54519" data-name="Grupo 54519" transform="translate(14.584 50.664)">
            <path id="Trazado_101873" data-name="Trazado 101873" d="M138.158,348.361c-1.647-2.528-12.144-5.346-15.535-8.372s-2.779-14.529-2.779-14.529l-3.671,10.327c1.46,7.446.221,8.956,1.974,13.82.507,1.406,13.876,2.663,21.481,2.161A9.275,9.275,0,0,0,138.158,348.361Z" transform="translate(-116.173 -325.46)" fill="#233862"/>
          </g>
          <g id="Grupo_54520" data-name="Grupo 54520" transform="translate(29.327 70.976)">
            <path id="Trazado_101874" data-name="Trazado 101874" d="M133.937,353.48a10.6,10.6,0,0,0,5.711-.571,8.876,8.876,0,0,1,3.187-.7c1,.267,4.064,1.753,3.692.909a17.613,17.613,0,0,0-4.538-3.935c-1.2-.669-8.708,1-8.708,1Z" transform="translate(-133.28 -349.028)" fill="#ffb27d"/>
          </g>
          <g id="Grupo_54521" data-name="Grupo 54521" transform="translate(0 30.078)">
            <path id="Trazado_101875" data-name="Trazado 101875" d="M120.34,320.363c0,2.325-10.472,16.663-9.7,17.437s17.573,3.493,18.6,5.174.285,5.152.285,5.152-22.325,3.229-28.606-1.157c-5.58-3.893,4.17-33.063,9.08-39.916,3.488-4.863,13.562-5.48,13.562-5.48S120.341,318.038,120.34,320.363Z" transform="translate(-99.251 -301.573)" fill="#2f539b"/>
          </g>
          <g id="Grupo_54522" data-name="Grupo 54522" transform="translate(38.402 73.217)">
            <path id="Trazado_101876" data-name="Trazado 101876" d="M145.687,352.173l1.058,1.907a1.542,1.542,0,0,1-.848-.183,14.439,14.439,0,0,1-2.087-2.27Z" transform="translate(-143.81 -351.628)" fill="#ffb27d"/>
          </g>
          <g id="Grupo_54523" data-name="Grupo 54523" transform="translate(38.041 71.131)">
            <path id="Trazado_101877" data-name="Trazado 101877" d="M145.221,351.17a10.9,10.9,0,0,0,1.981.546.814.814,0,0,0,.757-.285l-4.568-2.222Z" transform="translate(-143.391 -349.208)" fill="#ffb27d"/>
          </g>
          <g id="Grupo_55309" data-name="Grupo 55309" transform="translate(31.972 15.792)">
            <g id="Grupo_55308" data-name="Grupo 55308">
              <g id="Grupo_55307" data-name="Grupo 55307" transform="translate(5.24 0.868)">
                <path id="Trazado_103276" data-name="Trazado 103276" d="M143.678,286.294a6.229,6.229,0,0,0,1.291,3.821.342.342,0,0,1-.059.474,3.526,3.526,0,0,1-2.186.636.34.34,0,0,1-.293-.378.347.347,0,0,1,.378-.292,3.2,3.2,0,0,0,1.279-.266,1.414,1.414,0,0,0,.409-.234l-.06.474a6.028,6.028,0,0,1-1.22-2.646,7.851,7.851,0,0,1-.206-1.492.349.349,0,0,1,.286-.383.34.34,0,0,1,.382.286Z" transform="translate(-142.429 -286.004)" fill="#ca8071"/>
              </g>
              <path id="Trazado_103277" data-name="Trazado 103277" d="M146.419,287.877c.028.388.24.689.473.672s.4-.346.371-.735-.241-.689-.474-.672S146.39,287.488,146.419,287.877Z" transform="translate(-137.74 -285.294)" fill="#272425"/>
              <path id="Trazado_103278" data-name="Trazado 103278" d="M139.242,288.125c.028.388.24.689.474.672s.4-.346.37-.735-.24-.689-.474-.672S139.213,287.736,139.242,288.125Z" transform="translate(-136.748 -285.328)" fill="#272425"/>
              <path id="Trazado_103279" data-name="Trazado 103279" d="M140.107,285.284s-3.389-.14-3.758.8a16.362,16.362,0,0,1,3.407.016C140.931,286.3,140.623,285.335,140.107,285.284Z" transform="translate(-136.349 -285.036)" fill="#233862"/>
              <path id="Trazado_103280" data-name="Trazado 103280" d="M144.558,285.088s2.852-.4,3.289.5a11.889,11.889,0,0,0-2.884.283C143.994,286.159,144.128,285.178,144.558,285.088Z" transform="translate(-137.438 -284.997)" fill="#233862"/>
              <path id="Trazado_103281" data-name="Trazado 103281" d="M144.845,293.857l-4.438-.035S142.933,297.25,144.845,293.857Z" transform="translate(-136.91 -286.217)" fill="#fff"/>
            </g>
          </g>
        </g>
        <g id="Grupo_54525" data-name="Grupo 54525" transform="translate(29.325 76.346)">
          <path id="Trazado_101878" data-name="Trazado 101878" d="M180.6,356.329l-47.319-.016v-1.054l47.743.017Z" transform="translate(-133.277 -355.259)" fill="#233862"/>
        </g>
        <g id="Grupo_54526" data-name="Grupo 54526" transform="translate(40.488 50.362)">
          <path id="Trazado_101879" data-name="Trazado 101879" d="M157.171,325.109l36.1.013-10.886,27.043-36.154-.013Z" transform="translate(-146.23 -325.109)" fill="#233862"/>
        </g>
        <g id="Grupo_54527" data-name="Grupo 54527" transform="translate(63.986 62.166)">
          <path id="Trazado_101880" data-name="Trazado 101880" d="M174.814,342.251a1.254,1.254,0,0,1-1.226-1.723,2.464,2.464,0,0,1,2.216-1.72,1.236,1.236,0,0,1,.538.09,1.252,1.252,0,0,1,.689,1.631A2.467,2.467,0,0,1,174.814,342.251Z" transform="translate(-173.495 -338.806)" fill="#fff"/>
        </g>
      </g>
      <g id="Grupo_55312" data-name="Grupo 55312" transform="translate(333.983 245.668)">
        <g id="Grupo_55310" data-name="Grupo 55310" transform="translate(51.945)">
          <path id="Trazado_103282" data-name="Trazado 103282" d="M469.794,292.171a1.1,1.1,0,0,0-.7-.479l-3.385-.711a1.1,1.1,0,1,0-.453,2.155l3.386.711a1.038,1.038,0,0,0,.2.024,1.1,1.1,0,0,0,.951-1.7Z" transform="translate(-448.936 -277.046)" fill="#6d48ca"/>
          <path id="Trazado_103283" data-name="Trazado 103283" d="M458.45,274.841a1.1,1.1,0,0,0-1.3.851l-.711,3.386a1.1,1.1,0,0,0,.852,1.3,1.037,1.037,0,0,0,.2.023,1.1,1.1,0,0,0,1.108-.874l.711-3.387A1.1,1.1,0,0,0,458.45,274.841Z" transform="translate(-447.835 -274.816)" fill="#6d48ca"/>
          <path id="Trazado_103284" data-name="Trazado 103284" d="M448.484,277.34a1.1,1.1,0,0,0-1.844,1.2l1.892,2.9a1.1,1.1,0,0,0,1.843-1.2Z" transform="translate(-446.46 -275.096)" fill="#6d48ca"/>
          <path id="Trazado_103285" data-name="Trazado 103285" d="M467.526,283.031h0a1.1,1.1,0,0,0,.321-1.524,1.1,1.1,0,0,0-1.524-.321l-2.9,1.892a1.1,1.1,0,0,0,1.2,1.845Z" transform="translate(-448.735 -275.671)" fill="#6d48ca"/>
        </g>
        <g id="Grupo_55311" data-name="Grupo 55311" transform="translate(0 3.461)">
          <path id="Trazado_103286" data-name="Trazado 103286" d="M386.187,304.552l25.721-25.721,35.136,9.415,9.415,35.136L430.737,349.1,395.6,339.688Z" transform="translate(-386.187 -278.831)" fill="#fff399"/>
          <path id="Trazado_103287" data-name="Trazado 103287" d="M430.737,353.226l-9.414-35.136-35.136-9.415,9.415,35.136Z" transform="translate(-386.187 -282.955)" fill="#ffd13e"/>
          <path id="Trazado_103288" data-name="Trazado 103288" d="M430.112,354.716l-.893-3.333-13.133-3.568.907,3.386Z" transform="translate(-390.318 -288.362)" fill="#272343"/>
          <path id="Trazado_103289" data-name="Trazado 103289" d="M415.191,350.757l-.893-3.333-4.689-1.294.907,3.386Z" transform="translate(-389.423 -288.13)" fill="#fff"/>
          <path id="Trazado_103290" data-name="Trazado 103290" d="M415.477,317.478l6.824,1.829,9.415,35.135-35.136-9.415-3.318-12.382c5.433,7.235,15.379,7.985,19.879,4.236C417.914,332.9,417.733,324.014,415.477,317.478Z" transform="translate(-387.164 -284.171)" fill="#ff9100" opacity="0.1" style="mix-blend-mode: multiply;isolation: isolate"/>
          <path id="Trazado_103291" data-name="Trazado 103291" d="M452.677,289.755l-25.721,25.721,9.415,35.136,25.721-25.721Z" transform="translate(-391.82 -280.341)" fill="#ffe05f"/>
          <path id="Trazado_103292" data-name="Trazado 103292" d="M443.854,301.947l-4.707,4.707,3.406,12.813,4.707-4.707Z" transform="translate(-393.504 -282.025)" fill="#272343"/>
          <path id="Trazado_103293" data-name="Trazado 103293" d="M438.385,300.273l-4.707,4.707-34.113-10.437,4.707-4.707Z" transform="translate(-388.035 -280.352)" fill="#534f7f"/>
          <path id="Trazado_103294" data-name="Trazado 103294" d="M433.941,310.86s2.7,11.542,9.914,11.693c5.768.121,12.7-5.974,12.783-15.647l5.454,20.355L436.37,352.981l-9.414-35.135Z" transform="translate(-391.82 -282.71)" fill="#ff9100" opacity="0.1" style="mix-blend-mode: multiply;isolation: isolate"/>
          <path id="Trazado_103295" data-name="Trazado 103295" d="M440.924,287.852s-9.483,27.511-52.634,15.844l-2.1,2.1,35.136,9.415,25.721-25.721Z" transform="translate(-386.187 -280.078)" fill="#ff9100" opacity="0.1" style="mix-blend-mode: multiply;isolation: isolate"/>
        </g>
      </g>
      <g id="Grupo_55316" data-name="Grupo 55316" transform="translate(425.221 262.344)">
        <path id="Trazado_103296" data-name="Trazado 103296" d="M492.151,296.4l-.1,58.78a1.834,1.834,0,0,0,1.78,1.9l94.382-.32A1.862,1.862,0,0,0,590,354.843l.1-58.779a1.833,1.833,0,0,0-1.779-1.9l-94.383.32A1.862,1.862,0,0,0,492.151,296.4Z" transform="translate(-492.051 -294.166)" fill="#02dba8" opacity="0.1"/>
        <g id="Grupo_55313" data-name="Grupo 55313" transform="translate(4.17 26.966)">
          <path id="Trazado_103297" data-name="Trazado 103297" d="M496.89,357.748s8.542-5.866,11.026-8.992c3.693-4.648,2.876-17.875,9.923-17.93,7.215-.055,5.929,16.28,15.061,16.284s9.125-5.731,13.756-6.072,8.652,7.389,14.088,7.474c6.252.1,9.146-18.067,15.591-17.924,7.215.16,10.041,19.593,10.041,19.593l-.012,7.154Z" transform="translate(-496.89 -326.164)" fill="#02dba8"/>
          <path id="Trazado_103298" data-name="Trazado 103298" d="M496.89,357.039s4.04-17.883,8.393-17.922c6.245-.055,4.029,13.66,12.52,13.354,6.934-.249,5.676-17.958,14.674-17.875,6.759.062,6.3,13.219,14.6,13.271s6.35-22.484,14.67-22.411,7.186,22.487,13.6,22.314c7.593-.2,5.081-7.217,11.05-9.026l-.031,17.884Z" transform="translate(-496.89 -325.455)" fill="#02dba8" opacity="0.6"/>
          <path id="Trazado_103299" data-name="Trazado 103299" d="M496.89,357.039s4.04-17.883,8.393-17.922c6.245-.055,4.029,13.66,12.52,13.354,6.934-.249,5.676-17.958,14.674-17.875,6.759.062,6.3,13.219,14.6,13.271s6.35-22.484,14.67-22.411,7.186,22.487,13.6,22.314c7.593-.2,5.081-7.217,11.05-9.026l-.031,17.884Z" transform="translate(-496.89 -325.455)" fill="#02dba8" opacity="0.25"/>
        </g>
        <g id="Grupo_55314" data-name="Grupo 55314" transform="translate(8.432 7.728)">
          <path id="Trazado_103300" data-name="Trazado 103300" d="M501.835,305.378a2.151,2.151,0,0,0,2.087,2.225,2.184,2.184,0,0,0,2.1-2.245,2.15,2.15,0,0,0-2.087-2.225A2.184,2.184,0,0,0,501.835,305.378Z" transform="translate(-501.835 -303.133)" fill="#02dba8"/>
          <path id="Trazado_103301" data-name="Trazado 103301" d="M501.835,305.378a2.151,2.151,0,0,0,2.087,2.225,2.184,2.184,0,0,0,2.1-2.245,2.15,2.15,0,0,0-2.087-2.225A2.184,2.184,0,0,0,501.835,305.378Z" transform="translate(-501.835 -303.133)" fill="#02dba8" opacity="0.25"/>
          <path id="Trazado_103302" data-name="Trazado 103302" d="M512.623,304.626l35.466-.165a1.092,1.092,0,0,1,1.08,1.113,1.108,1.108,0,0,1-1.083,1.122l-35.466.165a1.093,1.093,0,0,1-1.081-1.113A1.109,1.109,0,0,1,512.623,304.626Z" transform="translate(-503.176 -303.316)" fill="#02dba8"/>
        </g>
        <g id="Grupo_55315" data-name="Grupo 55315" transform="translate(8.418 16.67)">
          <path id="Trazado_103303" data-name="Trazado 103303" d="M501.818,315.753a2.15,2.15,0,0,0,2.087,2.226,2.184,2.184,0,0,0,2.1-2.245,2.149,2.149,0,0,0-2.087-2.225A2.183,2.183,0,0,0,501.818,315.753Z" transform="translate(-501.818 -313.509)" fill="#02dba8"/>
          <path id="Trazado_103304" data-name="Trazado 103304" d="M512.605,315l35.466-.165a1.091,1.091,0,0,1,1.08,1.113,1.108,1.108,0,0,1-1.083,1.122l-35.466.165a1.092,1.092,0,0,1-1.08-1.113A1.108,1.108,0,0,1,512.605,315Z" transform="translate(-503.159 -313.693)" fill="#02dba8"/>
        </g>
      </g>
    </g>
  </g>
</svg>
